<svg width="200" height="150" viewBox="0 0 200 150" fill="none" xmlns="http://www.w3.org/2000/svg">
<path d="M177.427 100.506H23.6924V136.33H177.427V100.506Z" fill="#F6F3F1"/>
<path d="M177.428 100.506H23.6934V136.33H177.428V100.506Z" fill="url(#paint0_linear)" fill-opacity="0.53"/>
<path d="M177.426 110.92H97.7344V141.693H177.426V110.92Z" fill="url(#paint1_linear)" fill-opacity="0.53"/>
<path d="M172.403 138.568H102.76C101.511 138.568 100.495 137.552 100.495 136.303V124.509C100.495 123.259 101.511 122.244 102.76 122.244H172.403C173.652 122.244 174.668 123.259 174.668 124.509V136.303C174.668 137.552 173.652 138.568 172.403 138.568Z" fill="url(#paint2_linear)"/>
<path d="M181.593 118.756H19.5273C17.3664 118.756 15.6221 117.012 15.6221 114.851C15.6221 112.69 17.3664 110.945 19.5273 110.945H181.593C183.754 110.945 185.498 112.69 185.498 114.851C185.498 116.985 183.754 118.756 181.593 118.756Z" fill="url(#paint3_linear)"/>
<path d="M138.505 132.111C139.439 132.111 140.197 131.354 140.197 130.419C140.197 129.484 139.439 128.727 138.505 128.727C137.57 128.727 136.812 129.484 136.812 130.419C136.812 131.354 137.57 132.111 138.505 132.111Z" fill="url(#paint4_linear)"/>
<path d="M197.501 99.334H34.3682V101.677H197.501V99.334Z" fill="url(#paint5_linear)"/>
<path d="M132.752 65.2539H116.272V98.4739H132.752V65.2539Z" fill="url(#paint6_linear)"/>
<path opacity="0.67" d="M174.538 82.7764H74.513C73.2633 82.7764 72.248 81.7612 72.248 80.5114V36.4349C72.248 35.1852 73.2633 34.1699 74.513 34.1699H174.538C175.788 34.1699 176.803 35.1852 176.803 36.4349V80.5374C176.803 81.7872 175.788 82.7764 174.538 82.7764Z" fill="url(#paint7_linear)"/>
<path opacity="0.25" d="M170.321 48.0976H78.7306C77.5851 48.0976 76.6738 47.1866 76.6738 46.0409C76.6738 44.8954 77.5851 43.9844 78.7306 43.9844H170.347C171.492 43.9844 172.403 44.8954 172.403 46.0409C172.403 47.1604 171.466 48.0976 170.321 48.0976Z" fill="#5771F9"/>
<path opacity="0.5" d="M91.9297 78.2722H79.5632C77.9492 78.2722 76.6475 76.9704 76.6475 75.3564V52.7322C76.6475 51.1182 77.9492 49.8164 79.5632 49.8164H91.9297C93.544 49.8164 94.8457 51.1182 94.8457 52.7322V75.3564C94.8457 76.9704 93.544 78.2722 91.9297 78.2722Z" fill="url(#paint8_linear)"/>
<path opacity="0.5" d="M113.175 62.444H100.444C99.5591 62.444 98.8301 61.715 98.8301 60.8298V54.0088C98.8301 53.1235 99.5591 52.3945 100.444 52.3945H113.175C114.06 52.3945 114.789 53.1235 114.789 54.0088V60.8298C114.815 61.715 114.086 62.444 113.175 62.444Z" fill="url(#paint9_linear)"/>
<path opacity="0.5" d="M131.66 62.444H118.929C118.043 62.444 117.314 61.715 117.314 60.8298V54.0088C117.314 53.1235 118.043 52.3945 118.929 52.3945H131.66C132.545 52.3945 133.274 53.1235 133.274 54.0088V60.8298C133.3 61.715 132.571 62.444 131.66 62.444Z" fill="url(#paint10_linear)"/>
<path opacity="0.5" d="M150.143 62.444H137.412C136.527 62.444 135.798 61.715 135.798 60.8298V54.0088C135.798 53.1235 136.527 52.3945 137.412 52.3945H150.143C151.028 52.3945 151.757 53.1235 151.757 54.0088V60.8298C151.783 61.715 151.054 62.444 150.143 62.444Z" fill="url(#paint11_linear)"/>
<path opacity="0.5" d="M168.628 62.444H155.897C155.012 62.444 154.283 61.715 154.283 60.8298V54.0088C154.283 53.1235 155.012 52.3945 155.897 52.3945H168.628C169.513 52.3945 170.242 53.1235 170.242 54.0088V60.8298C170.268 61.715 169.539 62.444 168.628 62.444Z" fill="url(#paint12_linear)"/>
<path d="M103.177 110.92H62.797C62.2242 110.92 61.7295 110.451 61.7295 109.852V107.9C61.7295 107.327 62.1982 106.832 62.797 106.832H101.224C102.89 106.832 104.244 108.186 104.244 109.852C104.244 110.451 103.775 110.92 103.177 110.92Z" fill="#4382FF"/>
<path opacity="0.25" d="M113.175 74.237H100.444C99.5591 74.237 98.8301 73.508 98.8301 72.6228V65.8017C98.8301 64.9165 99.5591 64.1875 100.444 64.1875H113.175C114.06 64.1875 114.789 64.9165 114.789 65.8017V72.6228C114.815 73.508 114.086 74.237 113.175 74.237Z" fill="#91A1F5"/>
<path opacity="0.25" d="M131.66 74.237H118.929C118.043 74.237 117.314 73.508 117.314 72.6228V65.8017C117.314 64.9165 118.043 64.1875 118.929 64.1875H131.66C132.545 64.1875 133.274 64.9165 133.274 65.8017V72.6228C133.3 73.508 132.571 74.237 131.66 74.237Z" fill="#91A1F5"/>
<path opacity="0.25" d="M150.143 74.237H137.412C136.527 74.237 135.798 73.508 135.798 72.6228V65.8017C135.798 64.9165 136.527 64.1875 137.412 64.1875H150.143C151.028 64.1875 151.757 64.9165 151.757 65.8017V72.6228C151.783 73.508 151.054 74.237 150.143 74.237Z" fill="#91A1F5"/>
<path opacity="0.25" d="M168.628 74.237H155.897C155.012 74.237 154.283 73.508 154.283 72.6228V65.8017C154.283 64.9165 155.012 64.1875 155.897 64.1875H168.628C169.513 64.1875 170.242 64.9165 170.242 65.8017V72.6228C170.268 73.508 169.539 74.237 168.628 74.237Z" fill="#91A1F5"/>
<path opacity="0.67" d="M160.479 46.041H73.4708C71.6223 46.041 70.1123 44.531 70.1123 42.6825V8.26473C70.1123 6.41625 71.6223 4.90625 73.4708 4.90625H160.453C162.301 4.90625 163.811 6.41625 163.811 8.26473V42.6565C163.837 44.531 162.327 46.041 160.479 46.041Z" fill="#A8E0FD"/>
<path opacity="0.67" d="M51.992 46.041H11.7686C9.92016 46.041 8.41016 44.531 8.41016 42.6825V8.26473C8.41016 6.41625 9.92016 4.90625 11.7686 4.90625H51.992C53.8405 4.90625 55.3505 6.41625 55.3505 8.26473V42.6565C55.3505 44.531 53.8405 46.041 51.992 46.041Z" fill="url(#paint13_linear)"/>
<path d="M123.952 78.2718H100.078C99.6356 78.2718 99.2451 77.9075 99.2451 77.4388V66.0615C99.2451 65.619 99.6096 65.2285 100.078 65.2285H123.952C124.395 65.2285 124.785 65.593 124.785 66.0615V77.4388C124.785 77.9075 124.421 78.2718 123.952 78.2718Z" fill="url(#paint14_linear)"/>
<path d="M122.574 76.7112H101.486C101.199 76.7112 100.965 76.4769 100.965 76.1907C100.965 75.9042 101.199 75.6699 101.486 75.6699H122.574C122.86 75.6699 123.094 75.9042 123.094 76.1907C123.094 76.4769 122.86 76.7112 122.574 76.7112Z" fill="url(#paint15_linear)"/>
<path d="M103.177 67.5979H100.834C100.548 67.5979 100.313 67.3636 100.313 67.0771C100.313 66.7909 100.548 66.5566 100.834 66.5566H103.177C103.464 66.5566 103.698 66.7909 103.698 67.0771C103.698 67.3636 103.464 67.5979 103.177 67.5979Z" fill="url(#paint16_linear)"/>
<path d="M122.963 67.5979H120.62C120.334 67.5979 120.1 67.3636 120.1 67.0771C120.1 66.7909 120.334 66.5566 120.62 66.5566H122.963C123.25 66.5566 123.484 66.7909 123.484 67.0771C123.484 67.3636 123.25 67.5979 122.963 67.5979Z" fill="url(#paint17_linear)"/>
<path d="M119.058 67.5979H116.715C116.429 67.5979 116.194 67.3636 116.194 67.0771C116.194 66.7909 116.429 66.5566 116.715 66.5566H119.058C119.344 66.5566 119.579 66.7909 119.579 67.0771C119.579 67.3636 119.344 67.5979 119.058 67.5979Z" fill="url(#paint18_linear)"/>
<path d="M152.851 78.2718H128.978C128.535 78.2718 128.145 77.9075 128.145 77.4388V66.0615C128.145 65.619 128.509 65.2285 128.978 65.2285H152.851C153.294 65.2285 153.685 65.593 153.685 66.0615V77.4388C153.685 77.9075 153.32 78.2718 152.851 78.2718Z" fill="url(#paint19_linear)"/>
<path d="M151.472 76.7112H130.384C130.098 76.7112 129.863 76.4769 129.863 76.1907C129.863 75.9042 130.098 75.6699 130.384 75.6699H151.472C151.759 75.6699 151.993 75.9042 151.993 76.1907C151.993 76.4769 151.759 76.7112 151.472 76.7112Z" fill="url(#paint20_linear)"/>
<path d="M132.077 67.5979H129.733C129.447 67.5979 129.213 67.3636 129.213 67.0771C129.213 66.7909 129.447 66.5566 129.733 66.5566H132.077C132.363 66.5566 132.597 66.7909 132.597 67.0771C132.597 67.3636 132.363 67.5979 132.077 67.5979Z" fill="url(#paint21_linear)"/>
<path d="M151.863 67.5979H149.52C149.233 67.5979 148.999 67.3636 148.999 67.0771C148.999 66.7909 149.233 66.5566 149.52 66.5566H151.863C152.149 66.5566 152.384 66.7909 152.384 67.0771C152.384 67.3636 152.149 67.5979 151.863 67.5979Z" fill="url(#paint22_linear)"/>
<path d="M147.957 67.5979H145.613C145.327 67.5979 145.093 67.3636 145.093 67.0771C145.093 66.7909 145.327 66.5566 145.613 66.5566H147.957C148.243 66.5566 148.477 66.7909 148.477 67.0771C148.477 67.3636 148.243 67.5979 147.957 67.5979Z" fill="url(#paint23_linear)"/>
<path opacity="0.5" d="M50.3784 25.2128H13.4093C12.9667 25.2128 12.5762 24.8484 12.5762 24.3798V9.07138C12.5762 8.62881 12.9406 8.23828 13.4093 8.23828H50.3524C50.7951 8.23828 51.1856 8.60276 51.1856 9.07138V24.3798C51.1856 24.8223 50.8211 25.2128 50.3784 25.2128Z" fill="url(#paint24_linear)"/>
<path d="M49.5196 21.8285H14.2687C13.9824 21.8285 13.748 21.5942 13.748 21.3078C13.748 21.0214 13.9824 20.7871 14.2687 20.7871H49.5196C49.8061 20.7871 50.0403 21.0214 50.0403 21.3078C50.0403 21.5942 49.8061 21.8285 49.5196 21.8285Z" fill="url(#paint25_linear)"/>
<path d="M49.7796 29.6645H13.0968C12.8105 29.6645 12.5762 29.43 12.5762 29.1438C12.5762 28.8573 12.8105 28.623 13.0968 28.623H49.7536C50.0401 28.623 50.2744 28.8573 50.2744 29.1438C50.3004 29.43 50.0661 29.6645 49.7796 29.6645Z" fill="url(#paint26_linear)"/>
<path d="M28.9779 31.9299H13.0968C12.8105 31.9299 12.5762 31.6957 12.5762 31.4092C12.5762 31.1229 12.8105 30.8887 13.0968 30.8887H28.9779C29.2644 30.8887 29.4986 31.1229 29.4986 31.4092C29.4986 31.6957 29.2904 31.9299 28.9779 31.9299Z" fill="url(#paint27_linear)"/>
<path d="M28.9779 34.1958H13.0968C12.8105 34.1958 12.5762 33.9615 12.5762 33.675C12.5762 33.3885 12.8105 33.1543 13.0968 33.1543H28.9779C29.2644 33.1543 29.4986 33.3885 29.4986 33.675C29.4986 33.9615 29.2904 34.1958 28.9779 34.1958Z" fill="url(#paint28_linear)"/>
<path d="M28.9779 36.4341H13.0968C12.8105 36.4341 12.5762 36.1998 12.5762 35.9133C12.5762 35.6271 12.8105 35.3926 13.0968 35.3926H28.9779C29.2644 35.3926 29.4986 35.6271 29.4986 35.9133C29.4986 36.2258 29.2904 36.4341 28.9779 36.4341Z" fill="url(#paint29_linear)"/>
<path d="M28.9779 38.6995H13.0968C12.8105 38.6995 12.5762 38.4652 12.5762 38.179C12.5762 37.8925 12.8105 37.6582 13.0968 37.6582H28.9779C29.2644 37.6582 29.4986 37.8925 29.4986 38.179C29.4986 38.4652 29.2904 38.6995 28.9779 38.6995Z" fill="url(#paint30_linear)"/>
<path d="M22.2353 40.9653H13.1232C12.8368 40.9653 12.6025 40.7311 12.6025 40.4446C12.6025 40.1583 12.8368 39.9238 13.1232 39.9238H22.2353C22.5217 39.9238 22.756 40.1583 22.756 40.4446C22.756 40.7311 22.5217 40.9653 22.2353 40.9653Z" fill="url(#paint31_linear)"/>
<path d="M17.0806 11.1547H14.7375C14.4511 11.1547 14.2168 10.9204 14.2168 10.634C14.2168 10.3476 14.4511 10.1133 14.7375 10.1133H17.0806C17.367 10.1133 17.6013 10.3476 17.6013 10.634C17.6013 10.9204 17.367 11.1547 17.0806 11.1547Z" fill="url(#paint32_linear)"/>
<path d="M49.155 11.1547H46.8118C46.5255 11.1547 46.291 10.9204 46.291 10.634C46.291 10.3476 46.5255 10.1133 46.8118 10.1133H49.155C49.4413 10.1133 49.6755 10.3476 49.6755 10.634C49.6755 10.9204 49.4413 11.1547 49.155 11.1547Z" fill="url(#paint33_linear)"/>
<path d="M45.2495 11.1547H42.9065C42.62 11.1547 42.3857 10.9204 42.3857 10.634C42.3857 10.3476 42.62 10.1133 42.9065 10.1133H45.2495C45.536 10.1133 45.7702 10.3476 45.7702 10.634C45.7702 10.9204 45.536 11.1547 45.2495 11.1547Z" fill="url(#paint34_linear)"/>
<path d="M15.3873 27.4263H13.0441C12.7578 27.4263 12.5234 27.1918 12.5234 26.9055C12.5234 26.619 12.7578 26.3848 13.0441 26.3848H15.3873C15.6736 26.3848 15.9079 26.619 15.9079 26.9055C15.9079 27.1918 15.6736 27.4263 15.3873 27.4263Z" fill="url(#paint35_linear)"/>
<path d="M49.4145 27.4263H47.0713C46.785 27.4263 46.5508 27.1918 46.5508 26.9055C46.5508 26.619 46.785 26.3848 47.0713 26.3848H49.4145C49.7008 26.3848 49.9353 26.619 49.9353 26.9055C49.9353 27.1918 49.7008 27.4263 49.4145 27.4263Z" fill="url(#paint36_linear)"/>
<path d="M45.5102 27.4263H43.1672C42.8807 27.4263 42.6465 27.1918 42.6465 26.9055C42.6465 26.619 42.8807 26.3848 43.1672 26.3848H45.5102C45.7967 26.3848 46.031 26.619 46.031 26.9055C46.031 27.1918 45.7967 27.4263 45.5102 27.4263Z" fill="url(#paint37_linear)"/>
<path d="M49.5199 31.9299H33.6387C33.3524 31.9299 33.1182 31.6957 33.1182 31.4092C33.1182 31.1229 33.3524 30.8887 33.6387 30.8887H49.5199C49.8062 30.8887 50.0407 31.1229 50.0407 31.4092C50.0407 31.6957 49.8062 31.9299 49.5199 31.9299Z" fill="url(#paint38_linear)"/>
<path d="M49.5199 34.1958H33.6387C33.3524 34.1958 33.1182 33.9615 33.1182 33.675C33.1182 33.3885 33.3524 33.1543 33.6387 33.1543H49.5199C49.8062 33.1543 50.0407 33.3885 50.0407 33.675C50.0407 33.9615 49.8062 34.1958 49.5199 34.1958Z" fill="url(#paint39_linear)"/>
<path d="M49.5199 36.4341H33.6387C33.3524 36.4341 33.1182 36.1998 33.1182 35.9133C33.1182 35.6271 33.3524 35.3926 33.6387 35.3926H49.5199C49.8062 35.3926 50.0407 35.6271 50.0407 35.9133C50.0407 36.2258 49.8062 36.4341 49.5199 36.4341Z" fill="url(#paint40_linear)"/>
<path d="M49.5199 38.6995H33.6387C33.3524 38.6995 33.1182 38.4652 33.1182 38.179C33.1182 37.8925 33.3524 37.6582 33.6387 37.6582H49.5199C49.8062 37.6582 50.0407 37.8925 50.0407 38.179C50.0407 38.4652 49.8062 38.6995 49.5199 38.6995Z" fill="url(#paint41_linear)"/>
<path d="M42.7509 40.9653H33.6387C33.3524 40.9653 33.1182 40.7311 33.1182 40.4446C33.1182 40.1583 33.3524 39.9238 33.6387 39.9238H42.7509C43.0372 39.9238 43.2717 40.1583 43.2717 40.4446C43.2717 40.7311 43.0372 40.9653 42.7509 40.9653Z" fill="url(#paint42_linear)"/>
<path d="M181.75 78.2718H157.876C157.433 78.2718 157.043 77.9075 157.043 77.4388V66.0615C157.043 65.619 157.407 65.2285 157.876 65.2285H181.75C182.192 65.2285 182.583 65.593 182.583 66.0615V77.4388C182.583 77.9075 182.218 78.2718 181.75 78.2718Z" fill="url(#paint43_linear)"/>
<path d="M180.37 76.7112H159.282C158.996 76.7112 158.762 76.4769 158.762 76.1907C158.762 75.9042 158.996 75.6699 159.282 75.6699H180.37C180.657 75.6699 180.891 75.9042 180.891 76.1907C180.891 76.4769 180.657 76.7112 180.37 76.7112Z" fill="url(#paint44_linear)"/>
<path d="M160.975 67.5979H158.632C158.346 67.5979 158.111 67.3636 158.111 67.0771C158.111 66.7909 158.346 66.5566 158.632 66.5566H160.975C161.262 66.5566 161.496 66.7909 161.496 67.0771C161.496 67.3636 161.262 67.5979 160.975 67.5979Z" fill="url(#paint45_linear)"/>
<path d="M180.761 67.5979H178.418C178.132 67.5979 177.897 67.3636 177.897 67.0771C177.897 66.7909 178.132 66.5566 178.418 66.5566H180.761C181.048 66.5566 181.282 66.7909 181.282 67.0771C181.282 67.3636 181.048 67.5979 180.761 67.5979Z" fill="url(#paint46_linear)"/>
<path d="M176.856 67.5979H174.513C174.226 67.5979 173.992 67.3636 173.992 67.0771C173.992 66.7909 174.226 66.5566 174.513 66.5566H176.856C177.142 66.5566 177.377 66.7909 177.377 67.0771C177.377 67.3636 177.142 67.5979 176.856 67.5979Z" fill="url(#paint47_linear)"/>
<path d="M87.7246 15.5801H62.6271C62.0023 15.5801 61.5078 15.0855 61.5078 14.4606V9.67028C61.5078 9.04543 62.0023 8.55078 62.6271 8.55078H87.7246C88.3493 8.55078 88.8441 9.04543 88.8441 9.67028V14.4606C88.8441 15.0594 88.3493 15.5801 87.7246 15.5801ZM62.6271 8.81113C62.1586 8.81113 61.7681 9.20166 61.7681 9.67028V14.4606C61.7681 14.9293 62.1586 15.3198 62.6271 15.3198H87.7246C88.1933 15.3198 88.5838 14.9293 88.5838 14.4606V9.67028C88.5838 9.20166 88.1933 8.81113 87.7246 8.81113H62.6271Z" fill="url(#paint48_linear)"/>
<path opacity="0.67" d="M86.9831 22.35H63.1094C62.6669 22.35 62.2764 21.9855 62.2764 21.5169V10.1397C62.2764 9.69716 62.6409 9.30664 63.1094 9.30664H86.9831C87.4259 9.30664 87.8164 9.67111 87.8164 10.1397V21.5169C87.8164 21.9595 87.4519 22.35 86.9831 22.35Z" fill="url(#paint49_linear)"/>
<path opacity="0.67" d="M85.6039 20.7875H64.5159C64.2296 20.7875 63.9951 20.5532 63.9951 20.2668C63.9951 19.9804 64.2296 19.7461 64.5159 19.7461H85.6039C85.8904 19.7461 86.1246 19.9804 86.1246 20.2668C86.1246 20.5532 85.8904 20.7875 85.6039 20.7875Z" fill="url(#paint50_linear)"/>
<path d="M66.2075 11.6761H63.8645C63.578 11.6761 63.3438 11.4418 63.3438 11.1554C63.3438 10.8691 63.578 10.6348 63.8645 10.6348H66.2075C66.494 10.6348 66.7283 10.8691 66.7283 11.1554C66.7283 11.4418 66.494 11.6761 66.2075 11.6761Z" fill="url(#paint51_linear)" fill-opacity="0.39"/>
<path d="M85.9949 11.6761H83.6516C83.3654 11.6761 83.1309 11.4418 83.1309 11.1554C83.1309 10.8691 83.3654 10.6348 83.6516 10.6348H85.9949C86.2811 10.6348 86.5154 10.8691 86.5154 11.1554C86.5154 11.4418 86.2811 11.6761 85.9949 11.6761Z" fill="url(#paint52_linear)" fill-opacity="0.39"/>
<path d="M82.0884 11.6761H79.7454C79.4589 11.6761 79.2246 11.4418 79.2246 11.1554C79.2246 10.8691 79.4589 10.6348 79.7454 10.6348H82.0884C82.3749 10.6348 82.6091 10.8691 82.6091 11.1554C82.6091 11.4418 82.3749 11.6761 82.0884 11.6761Z" fill="url(#paint53_linear)" fill-opacity="0.39"/>
<path opacity="0.5" d="M85.0559 18.7048H64.8269C64.3062 18.7048 63.8896 18.2882 63.8896 17.7675V13.654C63.8896 13.1333 64.3062 12.7168 64.8269 12.7168H85.0559C85.5764 12.7168 85.9932 13.1333 85.9932 13.654V17.7415C85.9932 18.2622 85.5764 18.7048 85.0559 18.7048Z" fill="url(#paint54_linear)"/>
<path d="M74.2773 14.982V16.6743C74.2773 16.8565 74.4856 16.9867 74.6418 16.8565L75.8393 15.9974C75.9696 15.8932 75.9696 15.711 75.8393 15.6069L74.6418 14.7477C74.4856 14.6696 74.2773 14.7998 74.2773 14.982Z" fill="#4382FF"/>
<path d="M120.008 15.5801H94.9105C94.2858 15.5801 93.791 15.0855 93.791 14.4606V9.67028C93.791 9.04543 94.2858 8.55078 94.9105 8.55078H120.008C120.633 8.55078 121.128 9.04543 121.128 9.67028V14.4606C121.128 15.0594 120.633 15.5801 120.008 15.5801ZM94.9105 8.81113C94.442 8.81113 94.0515 9.20166 94.0515 9.67028V14.4606C94.0515 14.9293 94.442 15.3198 94.9105 15.3198H120.008C120.477 15.3198 120.867 14.9293 120.867 14.4606V9.67028C120.867 9.20166 120.477 8.81113 120.008 8.81113H94.9105Z" fill="url(#paint55_linear)"/>
<path opacity="0.67" d="M119.267 22.35H95.3928C94.9501 22.35 94.5596 21.9855 94.5596 21.5169V10.1397C94.5596 9.69716 94.9241 9.30664 95.3928 9.30664H119.267C119.709 9.30664 120.1 9.67111 120.1 10.1397V21.5169C120.1 21.9595 119.735 22.35 119.267 22.35Z" fill="url(#paint56_linear)"/>
<path opacity="0.67" d="M117.886 20.7875H96.7981C96.5116 20.7875 96.2773 20.5532 96.2773 20.2668C96.2773 19.9804 96.5116 19.7461 96.7981 19.7461H117.886C118.172 19.7461 118.407 19.9804 118.407 20.2668C118.407 20.5532 118.172 20.7875 117.886 20.7875Z" fill="url(#paint57_linear)"/>
<path d="M98.49 11.6761H96.1467C95.8605 11.6761 95.626 11.4418 95.626 11.1554C95.626 10.8691 95.8605 10.6348 96.1467 10.6348H98.49C98.7762 10.6348 99.0105 10.8691 99.0105 11.1554C99.0105 11.4418 98.7762 11.6761 98.49 11.6761Z" fill="url(#paint58_linear)" fill-opacity="0.39"/>
<path d="M118.277 11.6761H115.934C115.647 11.6761 115.413 11.4418 115.413 11.1554C115.413 10.8691 115.647 10.6348 115.934 10.6348H118.277C118.563 10.6348 118.798 10.8691 118.798 11.1554C118.798 11.4418 118.563 11.6761 118.277 11.6761Z" fill="url(#paint59_linear)" fill-opacity="0.39"/>
<path d="M114.372 11.6761H112.029C111.742 11.6761 111.508 11.4418 111.508 11.1554C111.508 10.8691 111.742 10.6348 112.029 10.6348H114.372C114.658 10.6348 114.893 10.8691 114.893 11.1554C114.893 11.4418 114.658 11.6761 114.372 11.6761Z" fill="url(#paint60_linear)" fill-opacity="0.39"/>
<path opacity="0.5" d="M117.34 18.7048H97.1111C96.5906 18.7048 96.1738 18.2882 96.1738 17.7675V13.654C96.1738 13.1333 96.5906 12.7168 97.1111 12.7168H117.34C117.861 12.7168 118.277 13.1333 118.277 13.654V17.7415C118.277 18.2622 117.861 18.7048 117.34 18.7048Z" fill="url(#paint61_linear)"/>
<path d="M106.562 14.982V16.6743C106.562 16.8565 106.77 16.9867 106.926 16.8565L108.124 15.9974C108.254 15.8932 108.254 15.711 108.124 15.6069L106.926 14.7477C106.77 14.6696 106.562 14.7998 106.562 14.982Z" fill="#4382FF"/>
<path d="M152.291 15.5801H127.194C126.569 15.5801 126.074 15.0855 126.074 14.4606V9.67028C126.074 9.04543 126.569 8.55078 127.194 8.55078H152.291C152.916 8.55078 153.411 9.04543 153.411 9.67028V14.4606C153.411 15.0594 152.916 15.5801 152.291 15.5801ZM127.194 8.81113C126.725 8.81113 126.335 9.20166 126.335 9.67028V14.4606C126.335 14.9293 126.725 15.3198 127.194 15.3198H152.291C152.76 15.3198 153.15 14.9293 153.15 14.4606V9.67028C153.15 9.20166 152.76 8.81113 152.291 8.81113H127.194Z" fill="url(#paint62_linear)"/>
<path opacity="0.67" d="M151.549 22.35H127.675C127.232 22.35 126.842 21.9855 126.842 21.5169V10.1397C126.842 9.69716 127.206 9.30664 127.675 9.30664H151.549C151.991 9.30664 152.382 9.67111 152.382 10.1397V21.5169C152.382 21.9595 152.017 22.35 151.549 22.35Z" fill="url(#paint63_linear)"/>
<path opacity="0.67" d="M150.168 20.7875H129.08C128.794 20.7875 128.56 20.5532 128.56 20.2668C128.56 19.9804 128.794 19.7461 129.08 19.7461H150.168C150.455 19.7461 150.689 19.9804 150.689 20.2668C150.689 20.5532 150.455 20.7875 150.168 20.7875Z" fill="url(#paint64_linear)"/>
<path d="M130.773 11.6761H128.43C128.143 11.6761 127.909 11.4418 127.909 11.1554C127.909 10.8691 128.143 10.6348 128.43 10.6348H130.773C131.059 10.6348 131.294 10.8691 131.294 11.1554C131.294 11.4418 131.059 11.6761 130.773 11.6761Z" fill="url(#paint65_linear)" fill-opacity="0.39"/>
<path d="M150.559 11.6761H148.216C147.93 11.6761 147.695 11.4418 147.695 11.1554C147.695 10.8691 147.93 10.6348 148.216 10.6348H150.559C150.846 10.6348 151.08 10.8691 151.08 11.1554C151.08 11.4418 150.846 11.6761 150.559 11.6761Z" fill="url(#paint66_linear)" fill-opacity="0.39"/>
<path d="M146.655 11.6761H144.312C144.025 11.6761 143.791 11.4418 143.791 11.1554C143.791 10.8691 144.025 10.6348 144.312 10.6348H146.655C146.941 10.6348 147.176 10.8691 147.176 11.1554C147.176 11.4418 146.941 11.6761 146.655 11.6761Z" fill="url(#paint67_linear)" fill-opacity="0.39"/>
<path opacity="0.5" d="M149.623 18.7048H129.394C128.874 18.7048 128.457 18.2882 128.457 17.7675V13.654C128.457 13.1333 128.874 12.7168 129.394 12.7168H149.623C150.144 12.7168 150.56 13.1333 150.56 13.654V17.7415C150.56 18.2622 150.144 18.7048 149.623 18.7048Z" fill="url(#paint68_linear)"/>
<path d="M138.844 14.982V16.6743C138.844 16.8565 139.052 16.9867 139.208 16.8565L140.406 15.9974C140.536 15.8932 140.536 15.711 140.406 15.6069L139.208 14.7477C139.052 14.6696 138.844 14.7998 138.844 14.982Z" fill="#4382FF"/>
<path d="M99.1936 33.2851H74.0961C73.4713 33.2851 72.9766 32.7904 72.9766 32.1656V27.3754C72.9766 26.7504 73.4713 26.2559 74.0961 26.2559H99.1936C99.8183 26.2559 100.313 26.7504 100.313 27.3754V32.1656C100.313 32.7644 99.8183 33.2851 99.1936 33.2851ZM74.0961 26.5161C73.6276 26.5161 73.2371 26.9066 73.2371 27.3754V32.1656C73.2371 32.6341 73.6276 33.0249 74.0961 33.0249H99.1936C99.6621 33.0249 100.053 32.6341 100.053 32.1656V27.3754C100.053 26.9066 99.6621 26.5161 99.1936 26.5161H74.0961Z" fill="#4382FF"/>
<path opacity="0.67" d="M97.3187 38.4905H76.2307C75.9442 38.4905 75.71 38.2562 75.71 37.97C75.71 37.6835 75.9442 37.4492 76.2307 37.4492H97.3187C97.605 37.4492 97.8395 37.6835 97.8395 37.97C97.8395 38.2562 97.605 38.4905 97.3187 38.4905Z" fill="url(#paint69_linear)"/>
<path opacity="0.67" d="M77.9223 29.3791H75.5791C75.2928 29.3791 75.0586 29.1449 75.0586 28.8584C75.0586 28.5721 75.2928 28.3379 75.5791 28.3379H77.9223C78.2086 28.3379 78.4431 28.5721 78.4431 28.8584C78.4431 29.1449 78.2086 29.3791 77.9223 29.3791Z" fill="url(#paint70_linear)"/>
<path opacity="0.67" d="M97.7085 29.3791H95.3655C95.079 29.3791 94.8447 29.1449 94.8447 28.8584C94.8447 28.5721 95.079 28.3379 95.3655 28.3379H97.7085C97.995 28.3379 98.2292 28.5721 98.2292 28.8584C98.2292 29.1449 97.995 29.3791 97.7085 29.3791Z" fill="url(#paint71_linear)"/>
<path opacity="0.67" d="M93.8054 29.3791H91.4622C91.1759 29.3791 90.9414 29.1449 90.9414 28.8584C90.9414 28.5721 91.1759 28.3379 91.4622 28.3379H93.8054C94.0917 28.3379 94.3259 28.5721 94.3259 28.8584C94.3259 29.1449 94.0917 29.3791 93.8054 29.3791Z" fill="url(#paint72_linear)"/>
<path opacity="0.5" d="M96.7727 36.4073H76.5437C76.0232 36.4073 75.6064 35.9908 75.6064 35.4701V31.3826C75.6064 30.8618 76.0232 30.4453 76.5437 30.4453H96.7727C97.2934 30.4453 97.7099 30.8618 97.7099 31.3826V35.4701C97.7099 35.9648 97.2934 36.4073 96.7727 36.4073Z" fill="url(#paint73_linear)"/>
<path d="M85.9941 32.6853V34.3775C85.9941 34.5598 86.2024 34.6898 86.3586 34.5598L87.5564 33.7005C87.6864 33.5965 87.6864 33.4143 87.5564 33.31L86.3586 32.4508C86.2024 32.3728 85.9941 32.503 85.9941 32.6853Z" fill="#4382FF"/>
<path d="M128.092 33.2851H102.994C102.37 33.2851 101.875 32.7904 101.875 32.1656V27.3754C101.875 26.7504 102.37 26.2559 102.994 26.2559H128.092C128.717 26.2559 129.211 26.7504 129.211 27.3754V32.1656C129.211 32.7644 128.717 33.2851 128.092 33.2851ZM102.994 26.5161C102.526 26.5161 102.135 26.9066 102.135 27.3754V32.1656C102.135 32.6341 102.526 33.0249 102.994 33.0249H128.092C128.561 33.0249 128.951 32.6341 128.951 32.1656V27.3754C128.951 26.9066 128.561 26.5161 128.092 26.5161H102.994Z" fill="#4382FF"/>
<path opacity="0.67" d="M126.217 38.4905H105.129C104.843 38.4905 104.608 38.2562 104.608 37.97C104.608 37.6835 104.843 37.4492 105.129 37.4492H126.217C126.504 37.4492 126.738 37.6835 126.738 37.97C126.738 38.2562 126.504 38.4905 126.217 38.4905Z" fill="url(#paint74_linear)"/>
<path opacity="0.67" d="M106.822 29.3791H104.479C104.192 29.3791 103.958 29.1449 103.958 28.8584C103.958 28.5721 104.192 28.3379 104.479 28.3379H106.822C107.108 28.3379 107.343 28.5721 107.343 28.8584C107.343 29.1449 107.108 29.3791 106.822 29.3791Z" fill="url(#paint75_linear)"/>
<path opacity="0.67" d="M126.607 29.3791H124.264C123.977 29.3791 123.743 29.1449 123.743 28.8584C123.743 28.5721 123.977 28.3379 124.264 28.3379H126.607C126.893 28.3379 127.128 28.5721 127.128 28.8584C127.128 29.1449 126.893 29.3791 126.607 29.3791Z" fill="url(#paint76_linear)"/>
<path opacity="0.67" d="M122.703 29.3791H120.359C120.073 29.3791 119.839 29.1449 119.839 28.8584C119.839 28.5721 120.073 28.3379 120.359 28.3379H122.703C122.989 28.3379 123.223 28.5721 123.223 28.8584C123.223 29.1449 122.989 29.3791 122.703 29.3791Z" fill="url(#paint77_linear)"/>
<path opacity="0.5" d="M125.671 36.4073H105.442C104.921 36.4073 104.505 35.9908 104.505 35.4701V31.3826C104.505 30.8618 104.921 30.4453 105.442 30.4453H125.671C126.192 30.4453 126.608 30.8618 126.608 31.3826V35.4701C126.608 35.9648 126.192 36.4073 125.671 36.4073Z" fill="url(#paint78_linear)"/>
<path d="M114.893 32.6853V34.3775C114.893 34.5598 115.101 34.6898 115.257 34.5598L116.455 33.7005C116.585 33.5965 116.585 33.4143 116.455 33.31L115.257 32.4508C115.101 32.3728 114.893 32.503 114.893 32.6853Z" fill="#4382FF"/>
<path d="M156.991 33.2851H131.894C131.269 33.2851 130.774 32.7904 130.774 32.1656V27.3754C130.774 26.7504 131.269 26.2559 131.894 26.2559H156.991C157.616 26.2559 158.111 26.7504 158.111 27.3754V32.1656C158.111 32.7644 157.616 33.2851 156.991 33.2851ZM131.894 26.5161C131.425 26.5161 131.035 26.9066 131.035 27.3754V32.1656C131.035 32.6341 131.425 33.0249 131.894 33.0249H156.991C157.46 33.0249 157.85 32.6341 157.85 32.1656V27.3754C157.85 26.9066 157.46 26.5161 156.991 26.5161H131.894Z" fill="#4382FF"/>
<path opacity="0.67" d="M155.116 38.4905H134.028C133.741 38.4905 133.507 38.2562 133.507 37.97C133.507 37.6835 133.741 37.4492 134.028 37.4492H155.116C155.402 37.4492 155.636 37.6835 155.636 37.97C155.636 38.2562 155.402 38.4905 155.116 38.4905Z" fill="url(#paint79_linear)"/>
<path opacity="0.67" d="M135.72 29.3791H133.377C133.091 29.3791 132.856 29.1449 132.856 28.8584C132.856 28.5721 133.091 28.3379 133.377 28.3379H135.72C136.007 28.3379 136.241 28.5721 136.241 28.8584C136.241 29.1449 136.007 29.3791 135.72 29.3791Z" fill="url(#paint80_linear)"/>
<path opacity="0.67" d="M155.507 29.3791H153.163C152.877 29.3791 152.643 29.1449 152.643 28.8584C152.643 28.5721 152.877 28.3379 153.163 28.3379H155.507C155.793 28.3379 156.027 28.5721 156.027 28.8584C156.027 29.1449 155.793 29.3791 155.507 29.3791Z" fill="url(#paint81_linear)"/>
<path opacity="0.67" d="M151.601 29.3791H149.258C148.972 29.3791 148.737 29.1449 148.737 28.8584C148.737 28.5721 148.972 28.3379 149.258 28.3379H151.601C151.888 28.3379 152.122 28.5721 152.122 28.8584C152.122 29.1449 151.888 29.3791 151.601 29.3791Z" fill="url(#paint82_linear)"/>
<path opacity="0.5" d="M154.57 36.4073H134.342C133.821 36.4073 133.404 35.9908 133.404 35.4701V31.3826C133.404 30.8618 133.821 30.4453 134.342 30.4453H154.57C155.091 30.4453 155.508 30.8618 155.508 31.3826V35.4701C155.508 35.9648 155.091 36.4073 154.57 36.4073Z" fill="url(#paint83_linear)"/>
<path d="M143.791 32.6853V34.3775C143.791 34.5598 143.999 34.6898 144.156 34.5598L145.353 33.7005C145.483 33.5965 145.483 33.4143 145.353 33.31L144.156 32.4508C143.999 32.3728 143.791 32.503 143.791 32.6853Z" fill="#4382FF"/>
<path d="M150.95 99.3088H98.0996C98.0996 98.3976 98.8546 97.6426 99.7659 97.6426H149.284C150.195 97.6426 150.95 98.3976 150.95 99.3088Z" fill="url(#paint84_linear)"/>
<path d="M62.7709 54.9456C61.8859 54.9456 60.7141 54.8154 60.6101 53.9304C60.5581 53.5136 60.8704 53.1231 61.3131 53.0711C61.5474 53.0451 61.7816 53.1494 61.9639 53.3054C62.0941 53.3316 62.4586 53.4096 63.2916 53.3576C63.7604 53.3316 64.3591 51.1446 64.4894 48.5151H61.7036C61.2609 48.5151 60.9226 48.1766 60.9226 47.7341C60.9226 47.2914 61.2609 46.9531 61.7036 46.9531H66.1034V47.7341C66.0774 49.8429 65.7649 54.7894 63.3959 54.8936C63.1876 54.9196 62.9794 54.9456 62.7709 54.9456ZM62.1461 53.7481C62.1461 53.7481 62.1461 53.7741 62.1461 53.7481C62.1461 53.7741 62.1461 53.7481 62.1461 53.7481Z" fill="#1F1E1F"/>
<path d="M62.3022 63.6402C62.1462 63.8484 61.9377 64.1087 61.7035 64.3692C60.2455 65.9572 57.538 68.1182 57.538 68.1182L56.3925 62.1302L55.5332 57.6002C55.5332 57.6002 57.9805 47.0822 61.7817 47.0822C61.7817 47.0299 63.4217 62.0779 62.3022 63.6402Z" fill="#F2A007"/>
<path d="M91.7472 120.084C88.6752 120.084 85.629 118.678 83.6765 115.997L66.9882 93.3465C63.708 88.8945 64.6452 82.6203 69.097 79.3398C73.549 76.0595 79.8232 76.9968 83.1037 81.4488L99.792 104.099C103.072 108.551 102.135 114.825 97.6832 118.106C95.8867 119.459 93.804 120.084 91.7472 120.084Z" fill="url(#paint85_linear)"/>
<path d="M12.5246 113.185C8.74954 113.185 5.41711 110.425 4.81831 106.572C4.14141 102.303 7.05729 98.3194 11.327 97.6424L25.4899 95.4297C29.7596 94.7527 33.7429 97.6687 34.4196 101.938C35.0966 106.208 32.1806 110.191 27.9111 110.868L13.7482 113.081C13.3316 113.159 12.9151 113.185 12.5246 113.185Z" fill="#F6F3F1"/>
<path d="M61.7036 64.3697L57.7463 68.327L56.3926 62.1047L59.8291 56.6895L60.7143 64.0832L61.7036 64.3697Z" fill="#875300"/>
<path d="M12.524 113.185C10.4412 113.185 8.33238 112.534 6.53598 111.207C2.1101 107.9 1.17285 101.626 4.47925 97.174L16.9498 80.4597C20.2562 76.034 26.5305 75.0967 30.9825 78.403C35.4085 81.7095 36.3457 87.9837 33.0392 92.4357L20.5686 109.15C18.59 111.805 15.57 113.185 12.524 113.185Z" fill="#F6F3F1"/>
<path d="M12.524 113.185C10.4412 113.185 8.33238 112.534 6.53598 111.207C2.1101 107.9 1.17285 101.626 4.47925 97.174L16.9498 80.4597C20.2562 76.034 26.5305 75.0967 30.9825 78.403C35.4345 81.7095 36.3457 87.9837 33.0392 92.4357L20.5686 109.15C18.59 111.805 15.57 113.185 12.524 113.185Z" fill="url(#paint86_linear)"/>
<path d="M61.1307 44.9473C61.1307 44.9473 61.0005 45.8325 60.7922 47.2643C60.6882 47.9933 60.558 48.9045 60.4277 49.8938C60.4017 50.076 60.3757 50.2843 60.3497 50.4665C60.2455 51.1435 60.1675 51.8725 60.0632 52.6015C59.9852 53.1483 59.9072 53.721 59.855 54.2938C59.725 55.257 59.6207 56.2463 59.4905 57.2355C59.1 60.4378 58.7355 63.7183 58.5272 66.3478C58.5012 66.6863 58.4752 66.9985 58.4492 67.311C58.4492 67.4153 58.4232 67.4933 58.4232 67.5975C58.345 68.6908 58.319 69.628 58.345 70.331C58.345 70.9298 58.3972 71.3985 58.4752 71.6588C58.5012 71.737 58.5272 71.815 58.5795 71.841C59.048 72.3878 56.3925 71.9973 52.982 71.2943C47.6707 70.227 40.5635 68.4305 40.5635 68.4305L40.7197 65.801L40.8237 64.0308L41.058 59.865L41.3185 55.335L61.1307 44.9473Z" fill="#F2A007"/>
<path d="M40.0164 58.3803C39.8082 58.3803 39.5737 58.3283 39.3654 58.198C39.2614 58.12 36.8142 56.5058 37.1004 53.4858C37.2567 51.8195 38.0637 50.57 38.1419 50.4398C38.5064 49.893 39.2354 49.763 39.7559 50.1273C40.3027 50.4918 40.4329 51.2208 40.0944 51.7415C40.0684 51.7675 39.5217 52.6268 39.4177 53.7203C39.2614 55.3343 40.6152 56.2455 40.6152 56.2455C41.1619 56.61 41.3182 57.313 40.9537 57.8598C40.7714 58.198 40.3809 58.3803 40.0164 58.3803Z" fill="#4382FF"/>
<path d="M64.0721 76.2939L41.6301 77.9861H35.3818L37.9331 70.8266L38.9226 68.0931L39.3131 67.0256C39.5473 66.4009 40.0941 65.9321 40.7711 65.8541C40.8751 65.8281 40.9793 65.8281 41.0833 65.8281L46.1081 65.9581L57.2508 66.2186H57.3551H57.8758C58.1361 66.2186 58.3703 66.2706 58.5786 66.3746C58.7868 66.4789 58.9953 66.6091 59.1513 66.7914C59.1773 66.8174 59.2036 66.8434 59.2296 66.8694C59.3336 66.9996 59.4118 67.1299 59.4898 67.2859L61.3383 71.4254L61.5466 71.8681L63.7856 74.4194L64.0721 76.2939Z" fill="url(#paint87_linear)"/>
<path d="M64.0721 76.2939L41.6301 77.9861H35.3818L36.8918 71.3474C37.2563 71.1651 37.5948 71.0089 37.9331 70.8266L38.9226 68.0931L39.3131 67.0256C39.5473 66.4009 40.0941 65.9321 40.7711 65.8541C40.8751 65.8281 40.9793 65.8281 41.0833 65.8281C44.8843 69.3949 51.6013 69.9414 58.4223 70.3841L61.3643 71.4516L61.5726 71.8941L63.8116 74.4454L64.0721 76.2939Z" fill="url(#paint88_linear)"/>
<path d="M40.7456 59.2683C39.0013 54.5038 33.3778 46.0945 38.3763 39.664C43.3751 33.2335 50.4826 28.0265 55.9498 29.6928C61.4171 31.359 63.6821 32.5305 62.4846 36.3315C61.2868 40.1328 63.3436 47.6568 62.7968 48.646C62.2501 49.6353 57.9806 51.3015 57.6161 53.8008C57.2516 56.3003 56.0798 63.1733 52.8776 63.3035C50.5086 63.3815 46.4731 63.017 44.4946 62.8348C43.7396 62.7568 43.0366 62.3923 42.5158 61.8195C41.8651 61.0905 41.0318 60.1013 40.7456 59.2683Z" fill="url(#paint89_linear)"/>
<path d="M80.2922 80.405L78.9384 92.7192L76.8817 111.334L76.8034 112.089L75.8142 121.123L74.4344 133.646V133.698H23.9272L21.6101 95.6352L20.6729 80.509C20.6729 76.5257 37.6994 70.9542 37.9339 70.8242L53.0079 71.3447L58.5012 71.6832L61.4952 71.8655C65.2182 74.8595 80.2922 75.953 80.2922 80.405Z" fill="url(#paint90_linear)"/>
<path opacity="0.1" d="M76.8557 111.308L76.7774 112.063L75.7882 121.097L74.4084 133.62V133.672H23.9272L21.6101 95.6092L20.6729 80.509C20.6729 76.5257 37.6994 70.9542 37.9339 70.8242L53.0079 71.3447L58.5012 71.6832L61.4952 71.8655C29.5247 81.8627 76.8557 111.308 76.8557 111.308Z" fill="#7674FC"/>
<path opacity="0.1" d="M74.4084 133.62L74.2521 133.672L23.3545 108.08L24.9947 95.7655C26.4786 91.7822 27.7804 90.793 31.8939 90.793H62.0941C66.6241 90.793 74.4084 133.62 74.4084 133.62Z" fill="#1E1E1E"/>
<path d="M58.735 51.248C58.3965 51.248 58.1102 51.0395 57.98 50.7013C57.8497 50.2845 58.058 49.842 58.4747 49.7118L64.2022 47.8373C64.6187 47.7073 65.0615 47.9155 65.1915 48.332C65.3217 48.7485 65.1135 49.1913 64.697 49.3213L58.9692 51.1958C58.8912 51.2218 58.813 51.248 58.735 51.248Z" fill="#1F1E1F"/>
<path d="M18.459 141.718L26.1651 96.8607C26.8941 93.9967 29.2634 91.9922 31.9969 91.9922H62.1971C64.9309 91.9922 67.3259 93.9967 68.0289 96.8607L77.8179 141.718C56.5736 147.133 42.0724 145.337 18.459 141.718Z" fill="url(#paint91_linear)"/>
<path d="M60.7402 58.3823C60.4017 58.3823 60.0632 58.2261 59.829 57.9396C59.6987 57.7573 58.475 56.1693 58.7355 53.4356C58.8917 51.7693 60.0632 49.9991 60.1935 49.8168C60.558 49.2701 61.2867 49.1398 61.8075 49.5043C62.3542 49.8688 62.4845 50.5978 62.12 51.1186C61.8595 51.5091 61.1567 52.7328 61.0525 53.6438C60.8962 55.4403 61.6252 56.4556 61.6512 56.4818C62.068 56.9763 61.9637 57.7053 61.469 58.1218C61.2347 58.3041 60.9745 58.3823 60.7402 58.3823Z" fill="#4382FF"/>
<path d="M187.086 46.1724H186.358C186.279 46.1724 186.227 46.1204 186.227 46.0421C186.227 45.9641 186.279 45.9121 186.358 45.9121H187.086C187.165 45.9121 187.217 45.9641 187.217 46.0421C187.217 46.1204 187.165 46.1724 187.086 46.1724ZM185.056 46.1724H183.754C183.676 46.1724 183.624 46.1204 183.624 46.0421C183.624 45.9641 183.676 45.9121 183.754 45.9121H185.056C185.134 45.9121 185.186 45.9641 185.186 46.0421C185.186 46.1204 185.134 46.1724 185.056 46.1724ZM182.452 46.1724H181.151C181.072 46.1724 181.02 46.1204 181.02 46.0421C181.02 45.9641 181.072 45.9121 181.151 45.9121H182.452C182.53 45.9121 182.582 45.9641 182.582 46.0421C182.582 46.1204 182.53 46.1724 182.452 46.1724ZM179.849 46.1724H178.547C178.469 46.1724 178.417 46.1204 178.417 46.0421C178.417 45.9641 178.469 45.9121 178.547 45.9121H179.849C179.927 45.9121 179.979 45.9641 179.979 46.0421C179.979 46.1204 179.927 46.1724 179.849 46.1724ZM177.245 46.1724H175.944C175.866 46.1724 175.813 46.1204 175.813 46.0421C175.813 45.9641 175.866 45.9121 175.944 45.9121H177.245C177.324 45.9121 177.376 45.9641 177.376 46.0421C177.376 46.1204 177.324 46.1724 177.245 46.1724ZM174.642 46.1724H173.34C173.262 46.1724 173.21 46.1204 173.21 46.0421C173.21 45.9641 173.262 45.9121 173.34 45.9121H174.642C174.72 45.9121 174.772 45.9641 174.772 46.0421C174.772 46.1204 174.72 46.1724 174.642 46.1724ZM172.038 46.1724H170.737C170.659 46.1724 170.607 46.1204 170.607 46.0421C170.607 45.9641 170.659 45.9121 170.737 45.9121H172.038C172.117 45.9121 172.169 45.9641 172.169 46.0421C172.169 46.1204 172.117 46.1724 172.038 46.1724ZM169.435 46.1724H168.133C168.055 46.1724 168.003 46.1204 168.003 46.0421C168.003 45.9641 168.055 45.9121 168.133 45.9121H169.435C169.513 45.9121 169.565 45.9641 169.565 46.0421C169.565 46.1204 169.513 46.1724 169.435 46.1724ZM166.832 46.1724H165.53C165.452 46.1724 165.4 46.1204 165.4 46.0421C165.4 45.9641 165.452 45.9121 165.53 45.9121H166.832C166.91 45.9121 166.962 45.9641 166.962 46.0421C166.962 46.1204 166.91 46.1724 166.832 46.1724ZM164.228 46.1724H162.926C162.848 46.1724 162.796 46.1204 162.796 46.0421C162.796 45.9641 162.848 45.9121 162.926 45.9121H164.228C164.306 45.9121 164.358 45.9641 164.358 46.0421C164.358 46.1204 164.306 46.1724 164.228 46.1724ZM161.625 46.1724H160.323C160.245 46.1724 160.193 46.1204 160.193 46.0421C160.193 45.9641 160.245 45.9121 160.323 45.9121H161.625C161.703 45.9121 161.755 45.9641 161.755 46.0421C161.755 46.1204 161.703 46.1724 161.625 46.1724ZM159.021 46.1724H157.719C157.641 46.1724 157.589 46.1204 157.589 46.0421C157.589 45.9641 157.641 45.9121 157.719 45.9121H159.021C159.099 45.9121 159.151 45.9641 159.151 46.0421C159.151 46.1204 159.099 46.1724 159.021 46.1724ZM156.418 46.1724H155.116C155.038 46.1724 154.986 46.1204 154.986 46.0421C154.986 45.9641 155.038 45.9121 155.116 45.9121H156.418C156.496 45.9121 156.548 45.9641 156.548 46.0421C156.548 46.1204 156.496 46.1724 156.418 46.1724ZM153.814 46.1724H152.512C152.434 46.1724 152.382 46.1204 152.382 46.0421C152.382 45.9641 152.434 45.9121 152.512 45.9121H153.814C153.892 45.9121 153.944 45.9641 153.944 46.0421C153.944 46.1204 153.892 46.1724 153.814 46.1724ZM151.211 46.1724H149.909C149.831 46.1724 149.779 46.1204 149.779 46.0421C149.779 45.9641 149.831 45.9121 149.909 45.9121H151.211C151.289 45.9121 151.341 45.9641 151.341 46.0421C151.341 46.1204 151.289 46.1724 151.211 46.1724ZM148.607 46.1724H147.306C147.227 46.1724 147.175 46.1204 147.175 46.0421C147.175 45.9641 147.227 45.9121 147.306 45.9121H148.607C148.685 45.9121 148.737 45.9641 148.737 46.0421C148.737 46.1204 148.685 46.1724 148.607 46.1724ZM146.004 46.1724H144.702C144.624 46.1724 144.572 46.1204 144.572 46.0421C144.572 45.9641 144.624 45.9121 144.702 45.9121H146.004C146.082 45.9121 146.134 45.9641 146.134 46.0421C146.134 46.1204 146.082 46.1724 146.004 46.1724ZM143.4 46.1724H142.099C142.021 46.1724 141.968 46.1204 141.968 46.0421C141.968 45.9641 142.021 45.9121 142.099 45.9121H143.4C143.478 45.9121 143.531 45.9641 143.531 46.0421C143.531 46.1204 143.478 46.1724 143.4 46.1724ZM140.797 46.1724H139.495C139.417 46.1724 139.365 46.1204 139.365 46.0421C139.365 45.9641 139.417 45.9121 139.495 45.9121H140.797C140.875 45.9121 140.927 45.9641 140.927 46.0421C140.927 46.1204 140.875 46.1724 140.797 46.1724ZM138.193 46.1724H136.892C136.814 46.1724 136.762 46.1204 136.762 46.0421C136.762 45.9641 136.814 45.9121 136.892 45.9121H138.193C138.272 45.9121 138.324 45.9641 138.324 46.0421C138.324 46.1204 138.272 46.1724 138.193 46.1724ZM135.59 46.1724H134.288C134.21 46.1724 134.158 46.1204 134.158 46.0421C134.158 45.9641 134.21 45.9121 134.288 45.9121H135.59C135.668 45.9121 135.72 45.9641 135.72 46.0421C135.72 46.1204 135.668 46.1724 135.59 46.1724ZM132.987 46.1724H131.685C131.607 46.1724 131.555 46.1204 131.555 46.0421C131.555 45.9641 131.607 45.9121 131.685 45.9121H132.987C133.065 45.9121 133.117 45.9641 133.117 46.0421C133.117 46.1204 133.065 46.1724 132.987 46.1724ZM130.383 46.1724H129.081C129.003 46.1724 128.951 46.1204 128.951 46.0421C128.951 45.9641 129.003 45.9121 129.081 45.9121H130.383C130.461 45.9121 130.513 45.9641 130.513 46.0421C130.513 46.1204 130.461 46.1724 130.383 46.1724ZM127.78 46.1724H126.478C126.4 46.1724 126.348 46.1204 126.348 46.0421C126.348 45.9641 126.4 45.9121 126.478 45.9121H127.78C127.858 45.9121 127.91 45.9641 127.91 46.0421C127.91 46.1204 127.858 46.1724 127.78 46.1724ZM125.176 46.1724H123.874C123.796 46.1724 123.744 46.1204 123.744 46.0421C123.744 45.9641 123.796 45.9121 123.874 45.9121H125.176C125.254 45.9121 125.306 45.9641 125.306 46.0421C125.306 46.1204 125.254 46.1724 125.176 46.1724ZM122.573 46.1724H121.271C121.193 46.1724 121.141 46.1204 121.141 46.0421C121.141 45.9641 121.193 45.9121 121.271 45.9121H122.573C122.651 45.9121 122.703 45.9641 122.703 46.0421C122.703 46.1204 122.651 46.1724 122.573 46.1724ZM119.969 46.1724H118.667C118.589 46.1724 118.537 46.1204 118.537 46.0421C118.537 45.9641 118.589 45.9121 118.667 45.9121H119.969C120.047 45.9121 120.099 45.9641 120.099 46.0421C120.099 46.1204 120.047 46.1724 119.969 46.1724ZM117.366 46.1724H116.064C115.986 46.1724 115.934 46.1204 115.934 46.0421C115.934 45.9641 115.986 45.9121 116.064 45.9121H117.366C117.444 45.9121 117.496 45.9641 117.496 46.0421C117.496 46.1204 117.444 46.1724 117.366 46.1724ZM114.762 46.1724H113.461C113.382 46.1724 113.33 46.1204 113.33 46.0421C113.33 45.9641 113.382 45.9121 113.461 45.9121H114.762C114.84 45.9121 114.892 45.9641 114.892 46.0421C114.892 46.1204 114.84 46.1724 114.762 46.1724ZM112.159 46.1724H110.857C110.779 46.1724 110.727 46.1204 110.727 46.0421C110.727 45.9641 110.779 45.9121 110.857 45.9121H112.159C112.237 45.9121 112.289 45.9641 112.289 46.0421C112.289 46.1204 112.237 46.1724 112.159 46.1724ZM109.555 46.1724H108.254C108.176 46.1724 108.123 46.1204 108.123 46.0421C108.123 45.9641 108.176 45.9121 108.254 45.9121H109.555C109.633 45.9121 109.686 45.9641 109.686 46.0421C109.686 46.1204 109.633 46.1724 109.555 46.1724ZM106.952 46.1724H105.65C105.572 46.1724 105.52 46.1204 105.52 46.0421C105.52 45.9641 105.572 45.9121 105.65 45.9121H106.952C107.03 45.9121 107.082 45.9641 107.082 46.0421C107.082 46.1204 107.03 46.1724 106.952 46.1724ZM104.348 46.1724H103.047C102.969 46.1724 102.917 46.1204 102.917 46.0421C102.917 45.9641 102.969 45.9121 103.047 45.9121H104.348C104.427 45.9121 104.479 45.9641 104.479 46.0421C104.479 46.1204 104.427 46.1724 104.348 46.1724ZM101.745 46.1724H100.443C100.365 46.1724 100.313 46.1204 100.313 46.0421C100.313 45.9641 100.365 45.9121 100.443 45.9121H101.745C101.823 45.9121 101.875 45.9641 101.875 46.0421C101.875 46.1204 101.823 46.1724 101.745 46.1724ZM99.1414 46.1724H97.8399C97.7616 46.1724 97.7096 46.1204 97.7096 46.0421C97.7096 45.9641 97.7616 45.9121 97.8399 45.9121H99.1414C99.2196 45.9121 99.2716 45.9641 99.2716 46.0421C99.2716 46.1204 99.2196 46.1724 99.1414 46.1724ZM96.5381 46.1724H95.2364C95.1581 46.1724 95.1061 46.1204 95.1061 46.0421C95.1061 45.9641 95.1581 45.9121 95.2364 45.9121H96.5381C96.6161 45.9121 96.6681 45.9641 96.6681 46.0421C96.6681 46.1204 96.6161 46.1724 96.5381 46.1724ZM93.9346 46.1724H92.6329C92.5546 46.1724 92.5026 46.1204 92.5026 46.0421C92.5026 45.9641 92.5546 45.9121 92.6329 45.9121H93.9346C94.0126 45.9121 94.0646 45.9641 94.0646 46.0421C94.0646 46.1204 94.0126 46.1724 93.9346 46.1724ZM91.3311 46.1724H90.0294C89.9514 46.1724 89.8991 46.1204 89.8991 46.0421C89.8991 45.9641 89.9514 45.9121 90.0294 45.9121H91.3311C91.4091 45.9121 91.4614 45.9641 91.4614 46.0421C91.4614 46.1204 91.4091 46.1724 91.3311 46.1724ZM88.7276 46.1724H87.4259C87.3479 46.1724 87.2956 46.1204 87.2956 46.0421C87.2956 45.9641 87.3479 45.9121 87.4259 45.9121H88.7276C88.8056 45.9121 88.8579 45.9641 88.8579 46.0421C88.8579 46.1204 88.8056 46.1724 88.7276 46.1724ZM86.1241 46.1724H84.8224C84.7444 46.1724 84.6924 46.1204 84.6924 46.0421C84.6924 45.9641 84.7444 45.9121 84.8224 45.9121H86.1241C86.2024 45.9121 86.2544 45.9641 86.2544 46.0421C86.2544 46.1204 86.2024 46.1724 86.1241 46.1724Z" fill="url(#paint92_linear)"/>
<path d="M147.696 5.01035H146.394C146.316 5.01035 146.264 4.95827 146.264 4.88017C146.264 4.80208 146.316 4.75 146.394 4.75H147.696C147.774 4.75 147.826 4.80208 147.826 4.88017C147.826 4.95827 147.774 5.01035 147.696 5.01035ZM145.092 5.01035H143.791C143.713 5.01035 143.661 4.95827 143.661 4.88017C143.661 4.80208 143.713 4.75 143.791 4.75H145.092C145.171 4.75 145.223 4.80208 145.223 4.88017C145.223 4.95827 145.171 5.01035 145.092 5.01035ZM142.489 5.01035H141.187C141.109 5.01035 141.057 4.95827 141.057 4.88017C141.057 4.80208 141.109 4.75 141.187 4.75H142.489C142.567 4.75 142.619 4.80208 142.619 4.88017C142.619 4.95827 142.567 5.01035 142.489 5.01035ZM139.885 5.01035H138.584C138.506 5.01035 138.454 4.95827 138.454 4.88017C138.454 4.80208 138.506 4.75 138.584 4.75H139.885C139.964 4.75 140.016 4.80208 140.016 4.88017C140.016 4.95827 139.964 5.01035 139.885 5.01035ZM137.282 5.01035H135.98C135.902 5.01035 135.85 4.95827 135.85 4.88017C135.85 4.80208 135.902 4.75 135.98 4.75H137.282C137.36 4.75 137.412 4.80208 137.412 4.88017C137.412 4.95827 137.36 5.01035 137.282 5.01035ZM134.679 5.01035H133.377C133.299 5.01035 133.247 4.95827 133.247 4.88017C133.247 4.80208 133.299 4.75 133.377 4.75H134.679C134.757 4.75 134.809 4.80208 134.809 4.88017C134.809 4.95827 134.757 5.01035 134.679 5.01035ZM132.075 5.01035H130.773C130.695 5.01035 130.643 4.95827 130.643 4.88017C130.643 4.80208 130.695 4.75 130.773 4.75H132.075C132.153 4.75 132.205 4.80208 132.205 4.88017C132.205 4.95827 132.153 5.01035 132.075 5.01035ZM129.472 5.01035H128.17C128.092 5.01035 128.04 4.95827 128.04 4.88017C128.04 4.80208 128.092 4.75 128.17 4.75H129.472C129.55 4.75 129.602 4.80208 129.602 4.88017C129.602 4.95827 129.55 5.01035 129.472 5.01035ZM126.868 5.01035H125.566C125.488 5.01035 125.436 4.95827 125.436 4.88017C125.436 4.80208 125.488 4.75 125.566 4.75H126.868C126.946 4.75 126.998 4.80208 126.998 4.88017C126.998 4.95827 126.946 5.01035 126.868 5.01035ZM124.265 5.01035H122.963C122.885 5.01035 122.833 4.95827 122.833 4.88017C122.833 4.80208 122.885 4.75 122.963 4.75H124.265C124.343 4.75 124.395 4.80208 124.395 4.88017C124.395 4.95827 124.343 5.01035 124.265 5.01035ZM121.661 5.01035H120.36C120.281 5.01035 120.229 4.95827 120.229 4.88017C120.229 4.80208 120.281 4.75 120.36 4.75H121.661C121.739 4.75 121.791 4.80208 121.791 4.88017C121.791 4.95827 121.739 5.01035 121.661 5.01035ZM119.058 5.01035H117.756C117.678 5.01035 117.626 4.95827 117.626 4.88017C117.626 4.80208 117.678 4.75 117.756 4.75H119.058C119.136 4.75 119.188 4.80208 119.188 4.88017C119.188 4.95827 119.136 5.01035 119.058 5.01035ZM116.454 5.01035H115.153C115.074 5.01035 115.022 4.95827 115.022 4.88017C115.022 4.80208 115.074 4.75 115.153 4.75H116.454C116.532 4.75 116.584 4.80208 116.584 4.88017C116.584 4.95827 116.532 5.01035 116.454 5.01035ZM113.851 5.01035H112.549C112.471 5.01035 112.419 4.95827 112.419 4.88017C112.419 4.80208 112.471 4.75 112.549 4.75H113.851C113.929 4.75 113.981 4.80208 113.981 4.88017C113.981 4.95827 113.929 5.01035 113.851 5.01035ZM111.247 5.01035H109.946C109.868 5.01035 109.815 4.95827 109.815 4.88017C109.815 4.80208 109.868 4.75 109.946 4.75H111.247C111.325 4.75 111.378 4.80208 111.378 4.88017C111.378 4.95827 111.325 5.01035 111.247 5.01035ZM108.644 5.01035H107.342C107.264 5.01035 107.212 4.95827 107.212 4.88017C107.212 4.80208 107.264 4.75 107.342 4.75H108.644C108.722 4.75 108.774 4.80208 108.774 4.88017C108.774 4.95827 108.722 5.01035 108.644 5.01035ZM106.04 5.01035H104.739C104.661 5.01035 104.609 4.95827 104.609 4.88017C104.609 4.80208 104.661 4.75 104.739 4.75H106.04C106.119 4.75 106.171 4.80208 106.171 4.88017C106.171 4.95827 106.119 5.01035 106.04 5.01035ZM103.437 5.01035H102.135C102.057 5.01035 102.005 4.95827 102.005 4.88017C102.005 4.80208 102.057 4.75 102.135 4.75H103.437C103.515 4.75 103.567 4.80208 103.567 4.88017C103.567 4.95827 103.515 5.01035 103.437 5.01035ZM100.834 5.01035H99.5319C99.4536 5.01035 99.4016 4.95827 99.4016 4.88017C99.4016 4.80208 99.4536 4.75 99.5319 4.75H100.834C100.912 4.75 100.964 4.80208 100.964 4.88017C100.964 4.95827 100.912 5.01035 100.834 5.01035ZM98.2301 5.01035H96.9284C96.8501 5.01035 96.7981 4.95827 96.7981 4.88017C96.7981 4.80208 96.8501 4.75 96.9284 4.75H98.2301C98.3081 4.75 98.3601 4.80208 98.3601 4.88017C98.3601 4.95827 98.3081 5.01035 98.2301 5.01035ZM95.6266 5.01035H94.3249C94.2469 5.01035 94.1946 4.95827 94.1946 4.88017C94.1946 4.80208 94.2469 4.75 94.3249 4.75H95.6266C95.7046 4.75 95.7569 4.80208 95.7569 4.88017C95.7569 4.95827 95.7046 5.01035 95.6266 5.01035ZM93.0231 5.01035H91.7214C91.6434 5.01035 91.5911 4.95827 91.5911 4.88017C91.5911 4.80208 91.6434 4.75 91.7214 4.75H93.0231C93.1014 4.75 93.1534 4.80208 93.1534 4.88017C93.1534 4.95827 93.1014 5.01035 93.0231 5.01035ZM90.4196 5.01035H89.1179C89.0399 5.01035 88.9879 4.95827 88.9879 4.88017C88.9879 4.80208 89.0399 4.75 89.1179 4.75H90.4196C90.4979 4.75 90.5499 4.80208 90.5499 4.88017C90.5499 4.95827 90.4979 5.01035 90.4196 5.01035ZM87.8161 5.01035H86.5144C86.4364 5.01035 86.3844 4.95827 86.3844 4.88017C86.3844 4.80208 86.4364 4.75 86.5144 4.75H87.8161C87.8944 4.75 87.9464 4.80208 87.9464 4.88017C87.9464 4.95827 87.8944 5.01035 87.8161 5.01035ZM85.2129 5.01035H83.9111C83.8329 5.01035 83.7809 4.95827 83.7809 4.88017C83.7809 4.80208 83.8329 4.75 83.9111 4.75H85.2129C85.2909 4.75 85.3429 4.80208 85.3429 4.88017C85.3429 4.95827 85.2909 5.01035 85.2129 5.01035ZM82.6094 5.01035H81.3076C81.2294 5.01035 81.1774 4.95827 81.1774 4.88017C81.1774 4.80208 81.2294 4.75 81.3076 4.75H82.6094C82.6874 4.75 82.7394 4.80208 82.7394 4.88017C82.7394 4.95827 82.6874 5.01035 82.6094 5.01035ZM80.0059 5.01035H78.7041C78.6259 5.01035 78.5739 4.95827 78.5739 4.88017C78.5739 4.80208 78.6259 4.75 78.7041 4.75H80.0059C80.0839 4.75 80.1361 4.80208 80.1361 4.88017C80.1361 4.95827 80.0839 5.01035 80.0059 5.01035ZM77.4024 5.01035H76.1006C76.0226 5.01035 75.9704 4.95827 75.9704 4.88017C75.9704 4.80208 76.0226 4.75 76.1006 4.75H77.4024C77.4804 4.75 77.5326 4.80208 77.5326 4.88017C77.5326 4.95827 77.4804 5.01035 77.4024 5.01035ZM74.7989 5.01035H73.4971C73.4191 5.01035 73.3669 4.95827 73.3669 4.88017C73.3669 4.80208 73.4191 4.75 73.4971 4.75H74.7989C74.8771 4.75 74.9291 4.80208 74.9291 4.88017C74.9291 4.95827 74.8771 5.01035 74.7989 5.01035ZM72.1954 5.01035H70.8936C70.8156 5.01035 70.7636 4.95827 70.7636 4.88017C70.7636 4.80208 70.8156 4.75 70.8936 4.75H72.1954C72.2736 4.75 72.3256 4.80208 72.3256 4.88017C72.3256 4.95827 72.2736 5.01035 72.1954 5.01035ZM69.5919 5.01035H68.2901C68.2121 5.01035 68.1601 4.95827 68.1601 4.88017C68.1601 4.80208 68.2121 4.75 68.2901 4.75H69.5919C69.6701 4.75 69.7221 4.80208 69.7221 4.88017C69.7221 4.95827 69.6701 5.01035 69.5919 5.01035ZM66.9886 5.01035H65.6869C65.6086 5.01035 65.5566 4.95827 65.5566 4.88017C65.5566 4.80208 65.6086 4.75 65.6869 4.75H66.9886C67.0666 4.75 67.1186 4.80208 67.1186 4.88017C67.1186 4.95827 67.0666 5.01035 66.9886 5.01035ZM64.3851 5.01035H63.0834C63.0051 5.01035 62.9531 4.95827 62.9531 4.88017C62.9531 4.80208 63.0051 4.75 63.0834 4.75H64.3851C64.4631 4.75 64.5151 4.80208 64.5151 4.88017C64.5151 4.95827 64.4631 5.01035 64.3851 5.01035ZM61.7816 5.01035H60.4799C60.4016 5.01035 60.3496 4.95827 60.3496 4.88017C60.3496 4.80208 60.4016 4.75 60.4799 4.75H61.7816C61.8596 4.75 61.9119 4.80208 61.9119 4.88017C61.9119 4.95827 61.8596 5.01035 61.7816 5.01035Z" fill="url(#paint93_linear)"/>
<path d="M180.214 52.3672H178.756V53.8252H180.214V52.3672Z" fill="url(#paint94_linear)"/>
<path d="M181.672 53.8516H180.214V55.3096H181.672V53.8516Z" fill="url(#paint95_linear)"/>
<path d="M183.13 55.3086H181.672V56.7666H183.13V55.3086Z" fill="url(#paint96_linear)"/>
<path d="M184.613 56.7676H183.155V58.2256H184.613V56.7676Z" fill="url(#paint97_linear)"/>
<path d="M181.672 50.9082H180.214V52.366H181.672V50.9082Z" fill="url(#paint98_linear)"/>
<path d="M183.131 52.3672H181.673V53.8252H183.131V52.3672Z" fill="url(#paint99_linear)"/>
<path d="M184.614 53.8516H183.156V55.3096H184.614V53.8516Z" fill="url(#paint100_linear)"/>
<path d="M186.071 55.3086H184.613V56.7666H186.071V55.3086Z" fill="url(#paint101_linear)"/>
<path d="M172.142 86.1077H145.092C144.806 86.1077 144.571 85.8734 144.571 85.5869C144.571 85.3007 144.806 85.0664 145.092 85.0664H172.142C172.429 85.0664 172.663 85.3007 172.663 85.5869C172.663 85.8734 172.429 86.1077 172.142 86.1077Z" fill="url(#paint102_linear)"/>
<path d="M158.422 90.8735C157.589 90.8735 156.912 90.1968 156.912 89.3635C156.912 88.5305 157.589 87.8535 158.422 87.8535C159.255 87.8535 159.932 88.5305 159.932 89.3635C159.932 90.1968 159.255 90.8735 158.422 90.8735ZM158.422 88.14C157.745 88.14 157.172 88.6868 157.172 89.3895C157.172 90.0925 157.719 90.6393 158.422 90.6393C159.125 90.6393 159.672 90.0925 159.672 89.3895C159.672 88.6868 159.125 88.14 158.422 88.14Z" fill="url(#paint103_linear)"/>
<path d="M162.276 90.7427C163.023 90.7427 163.629 90.1367 163.629 89.3889C163.629 88.6412 163.023 88.0352 162.276 88.0352C161.528 88.0352 160.922 88.6412 160.922 89.3889C160.922 90.1367 161.528 90.7427 162.276 90.7427Z" fill="url(#paint104_linear)"/>
<path d="M175.684 73.1177C176.432 73.1177 177.038 72.5117 177.038 71.7639C177.038 71.0162 176.432 70.4102 175.684 70.4102C174.936 70.4102 174.33 71.0162 174.33 71.7639C174.33 72.5117 174.936 73.1177 175.684 73.1177Z" fill="url(#paint105_linear)"/>
<path d="M34.1856 50.311H11.7697C11.4833 50.311 11.249 50.0765 11.249 49.7903C11.249 49.5038 11.4833 49.2695 11.7697 49.2695H34.1856C34.4718 49.2695 34.7063 49.5038 34.7063 49.7903C34.7063 50.0765 34.4718 50.311 34.1856 50.311Z" fill="#4382FF"/>
<path d="M10.3889 55.0747C9.55581 55.0747 8.87891 54.3977 8.87891 53.5647C8.87891 52.7314 9.55581 52.0547 10.3889 52.0547C11.222 52.0547 11.8989 52.7314 11.8989 53.5647C11.8989 54.3977 11.222 55.0747 10.3889 55.0747ZM10.3889 52.3409C9.71201 52.3409 9.13926 52.8877 9.13926 53.5907C9.13926 54.2937 9.68598 54.8404 10.3889 54.8404C11.0918 54.8404 11.6386 54.2937 11.6386 53.5907C11.6386 52.8877 11.0918 52.3409 10.3889 52.3409Z" fill="#1A224F"/>
<path d="M14.2415 54.9441C14.9892 54.9441 15.5953 54.3378 15.5953 53.5901C15.5953 52.8426 14.9892 52.2363 14.2415 52.2363C13.4938 52.2363 12.8877 52.8426 12.8877 53.5901C12.8877 54.3378 13.4938 54.9441 14.2415 54.9441Z" fill="url(#paint106_linear)"/>
<path d="M18.0433 54.9441C18.791 54.9441 19.3971 54.3378 19.3971 53.5901C19.3971 52.8426 18.791 52.2363 18.0433 52.2363C17.2956 52.2363 16.6895 52.8426 16.6895 53.5901C16.6895 54.3378 17.2956 54.9441 18.0433 54.9441Z" fill="url(#paint107_linear)"/>
<path d="M110.206 110.919C110.206 109.175 112.289 107.795 114.892 107.795C117.47 107.795 119.579 109.201 119.579 110.919" fill="#F6F3F1"/>
<path d="M70.1127 67.729C70.0347 67.729 69.9824 67.677 69.9824 67.599V48.099C69.9824 48.0208 70.0347 47.9688 70.1127 47.9688C70.1909 47.9688 70.2429 48.0208 70.2429 48.099V67.599C70.2429 67.677 70.1909 67.729 70.1127 67.729Z" fill="#4382FF"/>
<path d="M68.3693 71.2427C68.2913 71.2427 68.2393 71.1907 68.2393 71.1124V51.6124C68.2393 51.5344 68.2913 51.4824 68.3693 51.4824C68.4475 51.4824 68.4995 51.5344 68.4995 51.6124V71.1124C68.4995 71.1907 68.4215 71.2427 68.3693 71.2427Z" fill="#4382FF"/>
<path d="M119.683 84.8325H100.183C100.105 84.8325 100.053 84.7805 100.053 84.7025C100.053 84.6243 100.105 84.5723 100.183 84.5723H119.683C119.761 84.5723 119.813 84.6243 119.813 84.7025C119.813 84.7805 119.761 84.8325 119.683 84.8325Z" fill="url(#paint108_linear)"/>
<path d="M123.223 86.6043H100.313C100.235 86.6043 100.183 86.552 100.183 86.474C100.183 86.3958 100.235 86.3438 100.313 86.3438H123.223C123.301 86.3438 123.354 86.3958 123.354 86.474C123.354 86.552 123.275 86.6043 123.223 86.6043Z" fill="url(#paint109_linear)"/>
<path d="M20.9598 62.6506H13.0713C12.4465 62.6506 11.9258 62.1299 11.9258 61.5051C11.9258 60.8801 12.4465 60.3594 13.0713 60.3594H20.9598C21.5846 60.3594 22.1053 60.8801 22.1053 61.5051C22.1053 62.1299 21.5846 62.6506 20.9598 62.6506ZM13.0713 60.6199C12.5767 60.6199 12.1861 61.0104 12.1861 61.5051C12.1861 61.9996 12.5767 62.3901 13.0713 62.3901H20.9598C21.4545 62.3901 21.845 61.9996 21.845 61.5051C21.845 61.0104 21.4545 60.6199 20.9598 60.6199H13.0713Z" fill="url(#paint110_linear)"/>
<path d="M27.5802 66.2712C27.5881 66.2197 27.5922 66.1668 27.5922 66.1129C27.5922 65.5496 27.1459 65.1036 26.5829 65.1036H18.6944C18.1312 65.1036 17.6851 65.5496 17.6851 66.1129C17.6851 66.2306 17.7046 66.3432 17.7406 66.4477C17.6969 66.3351 17.6729 66.2133 17.6729 66.0869C17.6729 65.5304 18.138 65.0655 18.6944 65.0655H26.5829C27.1383 65.0655 27.6029 65.529 27.6043 66.0843C27.6015 66.1481 27.5933 66.2106 27.5802 66.2712Z" stroke="black" stroke-width="0.248128"/>
<path d="M27.5754 69.2961C27.5864 69.2356 27.5922 69.173 27.5922 69.109C27.5922 68.5459 27.1458 68.0999 26.5829 68.0999H18.6944C18.1312 68.0999 17.6851 68.546 17.6851 69.109C17.6851 69.2267 17.7046 69.3393 17.7406 69.4438C17.6969 69.3312 17.6729 69.2095 17.6729 69.083C17.6729 68.5268 18.138 68.0616 18.6944 68.0616H26.5829C27.1383 68.0616 27.6029 68.5254 27.6043 69.0805C27.6012 69.155 27.5913 69.2271 27.5754 69.2961Z" stroke="black" stroke-width="0.248128"/>
<path d="M26.5829 73.124H18.6944C18.138 73.124 17.6729 72.659 17.6729 72.1025C17.6729 71.5463 18.138 71.0811 18.6944 71.0811H26.5829C27.1391 71.0811 27.6043 71.5463 27.6043 72.1025C27.6043 72.659 27.1391 73.124 26.5829 73.124ZM18.6944 71.0935C18.1312 71.0935 17.6851 71.5395 17.6851 72.1025C17.6851 72.6658 18.1312 73.1118 18.6944 73.1118H26.5829C27.1459 73.1118 27.5922 72.6658 27.5922 72.1025C27.5922 71.5395 27.1459 71.0935 26.5829 71.0935H18.6944Z" stroke="black" stroke-width="0.248128"/>
<path d="M32.4145 62.521H24.5261C23.9794 62.521 23.5107 62.0782 23.5107 61.5055C23.5107 60.9587 23.9533 60.4902 24.5261 60.4902H32.4145C32.9613 60.4902 33.43 60.9327 33.43 61.5055C33.43 62.0522 32.9873 62.521 32.4145 62.521Z" fill="url(#paint111_linear)"/>
<path d="M15.7263 66.9468C16.2008 66.9468 16.5855 66.5623 16.5855 66.0878C16.5855 65.6133 16.2008 65.2285 15.7263 65.2285C15.2518 65.2285 14.8672 65.6133 14.8672 66.0878C14.8672 66.5623 15.2518 66.9468 15.7263 66.9468Z" fill="url(#paint112_linear)"/>
<path d="M15.7263 69.9663C16.2008 69.9663 16.5855 69.5818 16.5855 69.1073C16.5855 68.6328 16.2008 68.248 15.7263 68.248C15.2518 68.248 14.8672 68.6328 14.8672 69.1073C14.8672 69.5818 15.2518 69.9663 15.7263 69.9663Z" fill="url(#paint113_linear)"/>
<path d="M15.7263 72.9604C16.2008 72.9604 16.5855 72.5757 16.5855 72.1012C16.5855 71.6267 16.2008 71.2422 15.7263 71.2422C15.2518 71.2422 14.8672 71.6267 14.8672 72.1012C14.8672 72.5757 15.2518 72.9604 15.7263 72.9604Z" fill="url(#paint114_linear)"/>
<path opacity="0.5" d="M182.141 20.3452H174.253C173.706 20.3452 173.237 19.9026 173.237 19.3298C173.237 18.7831 173.68 18.3145 174.253 18.3145H182.141C182.688 18.3145 183.157 18.7571 183.157 19.3298C183.157 19.8765 182.688 20.3452 182.141 20.3452Z" fill="url(#paint115_linear)"/>
<path d="M182.141 23.3393H174.253C173.706 23.3393 173.237 22.8967 173.237 22.3239C173.237 21.7772 173.68 21.3086 174.253 21.3086H182.141C182.688 21.3086 183.157 21.7512 183.157 22.3239C183.157 22.8967 182.688 23.3393 182.141 23.3393Z" fill="url(#paint116_linear)"/>
<path opacity="0.5" d="M182.141 26.3587H174.253C173.706 26.3587 173.237 25.9163 173.237 25.3435C173.237 24.7968 173.68 24.3281 174.253 24.3281H182.141C182.688 24.3281 183.157 24.7707 183.157 25.3435C183.157 25.8903 182.688 26.3587 182.141 26.3587Z" fill="url(#paint117_linear)"/>
<path d="M171.284 20.189C171.758 20.189 172.143 19.8044 172.143 19.3299C172.143 18.8554 171.758 18.4707 171.284 18.4707C170.809 18.4707 170.425 18.8554 170.425 19.3299C170.425 19.8044 170.809 20.189 171.284 20.189Z" fill="url(#paint118_linear)"/>
<path d="M171.284 23.2085C171.758 23.2085 172.143 22.8239 172.143 22.3494C172.143 21.8749 171.758 21.4902 171.284 21.4902C170.809 21.4902 170.425 21.8749 170.425 22.3494C170.425 22.8239 170.809 23.2085 171.284 23.2085Z" fill="url(#paint119_linear)"/>
<path d="M171.284 26.2008C171.758 26.2008 172.143 25.816 172.143 25.3415C172.143 24.8671 171.758 24.4824 171.284 24.4824C170.809 24.4824 170.425 24.8671 170.425 25.3415C170.425 25.816 170.809 26.2008 171.284 26.2008Z" fill="url(#paint120_linear)"/>
<path d="M168.003 14.1731C167.925 14.1731 167.873 14.121 167.873 14.0429C167.873 13.9648 167.925 13.9128 168.003 13.9128H169.305C169.383 13.9128 169.435 13.9648 169.435 14.0429C169.435 14.121 169.383 14.1731 169.305 14.1731H168.003ZM170.607 14.1731C170.529 14.1731 170.477 14.121 170.477 14.0429C170.477 13.9648 170.529 13.9128 170.607 13.9128H171.909C171.987 13.9128 172.039 13.9648 172.039 14.0429C172.039 14.121 171.987 14.1731 171.909 14.1731H170.607ZM173.21 14.1731C173.132 14.1731 173.08 14.121 173.08 14.0429C173.08 13.9648 173.132 13.9128 173.21 13.9128H174.512C174.59 13.9128 174.642 13.9648 174.642 14.0429C174.642 14.121 174.59 14.1731 174.512 14.1731H173.21ZM175.814 14.1471C175.736 14.1471 175.684 14.095 175.684 14.0169C175.684 13.9388 175.736 13.8867 175.814 13.8867H177.115C177.194 13.8867 177.246 13.9388 177.246 14.0169C177.246 14.095 177.194 14.1471 177.115 14.1471H175.814ZM178.417 14.1471C178.339 14.1471 178.287 14.095 178.287 14.0169C178.287 13.9388 178.339 13.8867 178.417 13.8867H179.719C179.797 13.8867 179.849 13.9388 179.849 14.0169C179.849 14.095 179.797 14.1471 179.719 14.1471H178.417Z" fill="url(#paint121_linear)"/>
<path d="M168.003 15.6067C167.925 15.6067 167.873 15.5546 167.873 15.4765C167.873 15.3984 167.925 15.3463 168.003 15.3463L179.979 15.3203C180.057 15.3203 180.109 15.3724 180.109 15.4505C180.109 15.5286 180.057 15.5807 179.979 15.5807L168.003 15.6067Z" fill="url(#paint122_linear)"/>
<path d="M168.003 29.821C167.925 29.821 167.873 29.7688 167.873 29.6908C167.873 29.6125 167.925 29.5605 168.003 29.5605H169.305C169.383 29.5605 169.435 29.6125 169.435 29.6908C169.435 29.7688 169.383 29.821 169.305 29.821H168.003ZM170.607 29.821C170.529 29.821 170.477 29.7688 170.477 29.6908C170.477 29.6125 170.529 29.5605 170.607 29.5605H171.909C171.987 29.5605 172.039 29.6125 172.039 29.6908C172.039 29.7688 171.987 29.821 171.909 29.821H170.607ZM173.21 29.821C173.132 29.821 173.08 29.7688 173.08 29.6908C173.08 29.6125 173.132 29.5605 173.21 29.5605H174.512C174.59 29.5605 174.642 29.6125 174.642 29.6908C174.642 29.7688 174.59 29.821 174.512 29.821H173.21ZM175.814 29.821C175.736 29.821 175.684 29.7688 175.684 29.6908C175.684 29.6125 175.736 29.5605 175.814 29.5605H177.115C177.194 29.5605 177.246 29.6125 177.246 29.6908C177.246 29.7688 177.194 29.821 177.115 29.821H175.814ZM178.417 29.821C178.339 29.821 178.287 29.7688 178.287 29.6908C178.287 29.6125 178.339 29.5605 178.417 29.5605H179.719C179.797 29.5605 179.849 29.6125 179.849 29.6908C179.849 29.7688 179.797 29.821 179.719 29.821H178.417Z" fill="url(#paint123_linear)"/>
<path d="M168.003 31.2533C167.925 31.2533 167.873 31.201 167.873 31.123C167.873 31.045 167.925 30.9928 168.003 30.9928L179.979 30.9668C180.057 30.9668 180.109 31.0188 180.109 31.097C180.109 31.175 180.057 31.2273 179.979 31.2273L168.003 31.2533Z" fill="url(#paint124_linear)"/>
<path d="M94.1935 90.6124C94.1155 90.6124 94.0635 90.5604 94.0635 90.4822C94.0635 90.4042 94.1155 90.3522 94.1935 90.3522H95.4952C95.5735 90.3522 95.6255 90.4042 95.6255 90.4822C95.6255 90.5604 95.5735 90.6124 95.4952 90.6124H94.1935ZM96.797 90.5864C96.719 90.5864 96.6667 90.5344 96.6667 90.4562C96.6667 90.3782 96.719 90.3262 96.797 90.3262H98.0987C98.1767 90.3262 98.229 90.3782 98.229 90.4562C98.229 90.5344 98.1767 90.5864 98.0987 90.5864H96.797ZM99.4005 90.5864C99.3225 90.5864 99.2702 90.5344 99.2702 90.4562C99.2702 90.3782 99.3225 90.3262 99.4005 90.3262H100.702C100.78 90.3262 100.832 90.3782 100.832 90.4562C100.832 90.5344 100.78 90.5864 100.702 90.5864H99.4005ZM102.004 90.5864C101.926 90.5864 101.874 90.5344 101.874 90.4562C101.874 90.3782 101.926 90.3262 102.004 90.3262H103.306C103.384 90.3262 103.436 90.3782 103.436 90.4562C103.436 90.5344 103.384 90.5864 103.306 90.5864H102.004ZM104.607 90.5864C104.529 90.5864 104.477 90.5344 104.477 90.4562C104.477 90.3782 104.529 90.3262 104.607 90.3262H105.909C105.987 90.3262 106.039 90.3782 106.039 90.4562C106.039 90.5344 105.987 90.5864 105.909 90.5864H104.607Z" fill="url(#paint125_linear)"/>
<path d="M94.1935 92.0443C94.1155 92.0443 94.0635 91.9921 94.0635 91.9141C94.0635 91.8361 94.1155 91.7838 94.1935 91.7838L106.169 91.7578C106.247 91.7578 106.3 91.8101 106.3 91.8881C106.3 91.9661 106.247 92.0183 106.169 92.0183L94.1935 92.0443Z" fill="url(#paint126_linear)"/>
<path d="M190.524 89.5186H166.077V89.2583H190.524C191.227 89.2583 191.799 88.6856 191.799 87.9826V73.1688C191.799 72.4661 191.227 71.8933 190.524 71.8933H176.803V71.6328H190.524C191.383 71.6328 192.06 72.3098 192.06 73.1688V87.9826C192.06 88.8158 191.357 89.5186 190.524 89.5186Z" fill="url(#paint127_linear)"/>
<path d="M166.078 90.7427C166.826 90.7427 167.432 90.1367 167.432 89.3889C167.432 88.6412 166.826 88.0352 166.078 88.0352C165.331 88.0352 164.725 88.6412 164.725 89.3889C164.725 90.1367 165.331 90.7427 166.078 90.7427Z" fill="url(#paint128_linear)"/>
<path d="M169.357 93.7898H158.11C158.032 93.7898 157.98 93.7375 157.98 93.6595C157.98 93.5815 158.032 93.5293 158.11 93.5293H169.357C169.436 93.5293 169.488 93.5815 169.488 93.6595C169.488 93.7375 169.436 93.7898 169.357 93.7898Z" fill="url(#paint129_linear)"/>
<path d="M169.357 95.1665H158.11C158.032 95.1665 157.98 95.1145 157.98 95.0365C157.98 94.9582 158.032 94.9062 158.11 94.9062H169.357C169.436 94.9062 169.488 94.9582 169.488 95.0365C169.488 95.1145 169.436 95.1665 169.357 95.1665Z" fill="url(#paint130_linear)"/>
<path d="M182.999 93.7898H171.752C171.674 93.7898 171.622 93.7375 171.622 93.6595C171.622 93.5815 171.674 93.5293 171.752 93.5293H182.999C183.077 93.5293 183.129 93.5815 183.129 93.6595C183.129 93.7375 183.077 93.7898 182.999 93.7898Z" fill="url(#paint131_linear)"/>
<path d="M182.999 95.1665H171.752C171.674 95.1665 171.622 95.1145 171.622 95.0365C171.622 94.9582 171.674 94.9062 171.752 94.9062H182.999C183.077 94.9062 183.129 94.9582 183.129 95.0365C183.129 95.1145 183.077 95.1665 182.999 95.1665Z" fill="url(#paint132_linear)"/>
<path d="M196.641 93.7898H185.394C185.316 93.7898 185.264 93.7375 185.264 93.6595C185.264 93.5815 185.316 93.5293 185.394 93.5293H196.641C196.719 93.5293 196.771 93.5815 196.771 93.6595C196.771 93.7375 196.719 93.7898 196.641 93.7898Z" fill="url(#paint133_linear)"/>
<path d="M196.641 95.1665H185.394C185.316 95.1665 185.264 95.1145 185.264 95.0365C185.264 94.9582 185.316 94.9062 185.394 94.9062H196.641C196.719 94.9062 196.771 94.9582 196.771 95.0365C196.771 95.1145 196.719 95.1665 196.641 95.1665Z" fill="url(#paint134_linear)"/>
<path opacity="0.25" d="M189.091 80.3557H185.915C185.394 80.3557 184.978 79.9392 184.978 79.4184V77.6482C184.978 77.1274 185.394 76.7109 185.915 76.7109H189.091C189.612 76.7109 190.028 77.1274 190.028 77.6482V79.3924C190.028 79.9132 189.612 80.3557 189.091 80.3557Z" fill="white"/>
<path opacity="0.25" d="M195.131 80.3557H191.955C191.434 80.3557 191.018 79.9392 191.018 79.4184V77.6482C191.018 77.1274 191.434 76.7109 191.955 76.7109H195.131C195.652 76.7109 196.068 77.1274 196.068 77.6482V79.3924C196.094 79.9132 195.652 80.3557 195.131 80.3557Z" fill="white"/>
<path opacity="0.25" d="M182.427 63.5604H179.251C178.73 63.5604 178.313 63.1437 178.313 62.6232V60.8787C178.313 60.3582 178.73 59.9414 179.251 59.9414H182.427C182.948 59.9414 183.364 60.3582 183.364 60.8787V62.6232C183.39 63.1437 182.974 63.5604 182.427 63.5604Z" fill="white"/>
<path opacity="0.25" d="M188.493 63.5604H185.317C184.796 63.5604 184.38 63.1437 184.38 62.6232V60.8787C184.38 60.3582 184.796 59.9414 185.317 59.9414H188.493C189.014 59.9414 189.431 60.3582 189.431 60.8787V62.6232C189.457 63.1437 189.014 63.5604 188.493 63.5604Z" fill="white"/>
<path opacity="0.25" d="M189.43 86.8103H186.696C186.045 86.8103 185.524 86.2898 185.524 85.6388V82.4625C185.524 81.8118 186.045 81.291 186.696 81.291H189.43C190.081 81.291 190.601 81.8118 190.601 82.4625V85.6388C190.575 86.2898 190.054 86.8103 189.43 86.8103Z" fill="white"/>
<path opacity="0.25" d="M195.469 86.8103H192.735C192.084 86.8103 191.563 86.2898 191.563 85.6388V82.4625C191.563 81.8118 192.084 81.291 192.735 81.291H195.469C196.119 81.291 196.64 81.8118 196.64 82.4625V85.6388C196.64 86.2898 196.119 86.8103 195.469 86.8103Z" fill="white"/>
<defs>
<linearGradient id="paint0_linear" x1="102.065" y1="101.392" x2="101.93" y2="134.92" gradientUnits="userSpaceOnUse">
<stop offset="0.031757" stop-color="#020065" stop-opacity="0.62"/>
<stop offset="1" stop-color="#120084"/>
</linearGradient>
<linearGradient id="paint1_linear" x1="138.36" y1="111.681" x2="138.169" y2="140.481" gradientUnits="userSpaceOnUse">
<stop offset="0.031757" stop-color="#020065" stop-opacity="0.62"/>
<stop offset="1" stop-color="#120084"/>
</linearGradient>
<linearGradient id="paint2_linear" x1="147.577" y1="137.747" x2="147.173" y2="112.567" gradientUnits="userSpaceOnUse">
<stop stop-color="#4382FF"/>
<stop offset="1" stop-color="#FF43F7" stop-opacity="0"/>
</linearGradient>
<linearGradient id="paint3_linear" x1="116.067" y1="118.761" x2="116.067" y2="105.969" gradientUnits="userSpaceOnUse">
<stop offset="0.196787" stop-color="#1C00C7"/>
<stop offset="1" stop-color="#1C00C7" stop-opacity="0"/>
</linearGradient>
<linearGradient id="paint4_linear" x1="138.508" y1="132.389" x2="138.508" y2="128.24" gradientUnits="userSpaceOnUse">
<stop stop-color="#0433DD"/>
<stop offset="1" stop-color="#F19CFF" stop-opacity="0.74"/>
</linearGradient>
<linearGradient id="paint5_linear" x1="115.935" y1="99.334" x2="115.935" y2="101.677" gradientUnits="userSpaceOnUse">
<stop stop-color="#73A2FF"/>
<stop offset="1" stop-color="#7F43FF" stop-opacity="0.86"/>
</linearGradient>
<linearGradient id="paint6_linear" x1="119.301" y1="96.0048" x2="118.762" y2="76.2113" gradientUnits="userSpaceOnUse">
<stop stop-color="#003399"/>
<stop offset="1" stop-color="#3A0099" stop-opacity="0.6"/>
</linearGradient>
<linearGradient id="paint7_linear" x1="77.1544" y1="78.6361" x2="175.079" y2="34.2767" gradientUnits="userSpaceOnUse">
<stop stop-color="#0026EF" stop-opacity="0.89"/>
<stop offset="0.98713" stop-color="#50D5FF"/>
</linearGradient>
<linearGradient id="paint8_linear" x1="85.7466" y1="49.8164" x2="85.7466" y2="78.2722" gradientUnits="userSpaceOnUse">
<stop stop-color="white"/>
<stop offset="1" stop-color="white" stop-opacity="0"/>
</linearGradient>
<linearGradient id="paint9_linear" x1="106.81" y1="52.3945" x2="106.81" y2="62.444" gradientUnits="userSpaceOnUse">
<stop stop-color="white"/>
<stop offset="1" stop-color="white" stop-opacity="0"/>
</linearGradient>
<linearGradient id="paint10_linear" x1="125.294" y1="52.3945" x2="125.294" y2="62.444" gradientUnits="userSpaceOnUse">
<stop stop-color="white"/>
<stop offset="1" stop-color="white" stop-opacity="0"/>
</linearGradient>
<linearGradient id="paint11_linear" x1="143.778" y1="52.3945" x2="143.778" y2="62.444" gradientUnits="userSpaceOnUse">
<stop stop-color="white"/>
<stop offset="1" stop-color="white" stop-opacity="0"/>
</linearGradient>
<linearGradient id="paint12_linear" x1="162.263" y1="52.3945" x2="162.263" y2="62.444" gradientUnits="userSpaceOnUse">
<stop stop-color="white"/>
<stop offset="1" stop-color="white" stop-opacity="0"/>
</linearGradient>
<linearGradient id="paint13_linear" x1="29.0842" y1="44.7037" x2="28.1291" y2="5.81305" gradientUnits="userSpaceOnUse">
<stop stop-color="#0124DB" stop-opacity="0.89"/>
<stop offset="0.98713" stop-color="#38CFFF"/>
</linearGradient>
<linearGradient id="paint14_linear" x1="123.255" y1="57.6301" x2="93.228" y2="81.7325" gradientUnits="userSpaceOnUse">
<stop stop-color="#B9FFFB"/>
<stop offset="1" stop-color="#2300AE" stop-opacity="0.61"/>
</linearGradient>
<linearGradient id="paint15_linear" x1="112.03" y1="75.6699" x2="112.03" y2="76.7112" gradientUnits="userSpaceOnUse">
<stop stop-color="#73A2FF"/>
<stop offset="1" stop-color="#7F43FF" stop-opacity="0.86"/>
</linearGradient>
<linearGradient id="paint16_linear" x1="102.006" y1="66.5566" x2="102.006" y2="67.5979" gradientUnits="userSpaceOnUse">
<stop stop-color="#73A2FF"/>
<stop offset="1" stop-color="#7F43FF" stop-opacity="0.86"/>
</linearGradient>
<linearGradient id="paint17_linear" x1="121.792" y1="66.5566" x2="121.792" y2="67.5979" gradientUnits="userSpaceOnUse">
<stop stop-color="#73A2FF"/>
<stop offset="1" stop-color="#7F43FF" stop-opacity="0.86"/>
</linearGradient>
<linearGradient id="paint18_linear" x1="117.887" y1="66.5566" x2="117.887" y2="67.5979" gradientUnits="userSpaceOnUse">
<stop stop-color="#73A2FF"/>
<stop offset="1" stop-color="#7F43FF" stop-opacity="0.86"/>
</linearGradient>
<linearGradient id="paint19_linear" x1="152.154" y1="57.6301" x2="122.127" y2="81.7325" gradientUnits="userSpaceOnUse">
<stop stop-color="#B9FFFB"/>
<stop offset="1" stop-color="#2300AE" stop-opacity="0.61"/>
</linearGradient>
<linearGradient id="paint20_linear" x1="140.928" y1="75.6699" x2="140.928" y2="76.7112" gradientUnits="userSpaceOnUse">
<stop stop-color="#73A2FF"/>
<stop offset="1" stop-color="#7F43FF" stop-opacity="0.86"/>
</linearGradient>
<linearGradient id="paint21_linear" x1="130.905" y1="66.5566" x2="130.905" y2="67.5979" gradientUnits="userSpaceOnUse">
<stop stop-color="#73A2FF"/>
<stop offset="1" stop-color="#7F43FF" stop-opacity="0.86"/>
</linearGradient>
<linearGradient id="paint22_linear" x1="150.691" y1="66.5566" x2="150.691" y2="67.5979" gradientUnits="userSpaceOnUse">
<stop stop-color="#73A2FF"/>
<stop offset="1" stop-color="#7F43FF" stop-opacity="0.86"/>
</linearGradient>
<linearGradient id="paint23_linear" x1="146.785" y1="66.5566" x2="146.785" y2="67.5979" gradientUnits="userSpaceOnUse">
<stop stop-color="#73A2FF"/>
<stop offset="1" stop-color="#7F43FF" stop-opacity="0.86"/>
</linearGradient>
<linearGradient id="paint24_linear" x1="26.1222" y1="25.3142" x2="26.1222" y2="7.00184" gradientUnits="userSpaceOnUse">
<stop stop-color="#F3F1F6"/>
<stop offset="1" stop-color="#F1F6F6" stop-opacity="0.7"/>
</linearGradient>
<linearGradient id="paint25_linear" x1="31.7775" y1="22.2172" x2="31.7775" y2="20.3321" gradientUnits="userSpaceOnUse">
<stop stop-color="#A400DE"/>
<stop offset="1" stop-color="#17CFF8" stop-opacity="0.64"/>
</linearGradient>
<linearGradient id="paint26_linear" x1="31.4263" y1="28.623" x2="31.4263" y2="29.6645" gradientUnits="userSpaceOnUse">
<stop stop-color="#43D2FF"/>
<stop offset="1" stop-color="#5243FF" stop-opacity="0.88"/>
</linearGradient>
<linearGradient id="paint27_linear" x1="21.0374" y1="30.8887" x2="21.0374" y2="31.9299" gradientUnits="userSpaceOnUse">
<stop stop-color="#43D2FF"/>
<stop offset="1" stop-color="#5243FF" stop-opacity="0.88"/>
</linearGradient>
<linearGradient id="paint28_linear" x1="21.0374" y1="33.1543" x2="21.0374" y2="34.1958" gradientUnits="userSpaceOnUse">
<stop stop-color="#43D2FF"/>
<stop offset="1" stop-color="#5243FF" stop-opacity="0.88"/>
</linearGradient>
<linearGradient id="paint29_linear" x1="21.0374" y1="35.3926" x2="21.0374" y2="36.4341" gradientUnits="userSpaceOnUse">
<stop stop-color="#43D2FF"/>
<stop offset="1" stop-color="#5243FF" stop-opacity="0.88"/>
</linearGradient>
<linearGradient id="paint30_linear" x1="21.0374" y1="37.6582" x2="21.0374" y2="38.6995" gradientUnits="userSpaceOnUse">
<stop stop-color="#43D2FF"/>
<stop offset="1" stop-color="#5243FF" stop-opacity="0.88"/>
</linearGradient>
<linearGradient id="paint31_linear" x1="17.6793" y1="39.9238" x2="17.6793" y2="40.9653" gradientUnits="userSpaceOnUse">
<stop stop-color="#43D2FF"/>
<stop offset="1" stop-color="#5243FF" stop-opacity="0.88"/>
</linearGradient>
<linearGradient id="paint32_linear" x1="15.8982" y1="11.5434" x2="15.8982" y2="9.65831" gradientUnits="userSpaceOnUse">
<stop stop-color="#A400DE"/>
<stop offset="1" stop-color="#17CFF8" stop-opacity="0.64"/>
</linearGradient>
<linearGradient id="paint33_linear" x1="47.9724" y1="11.5434" x2="47.9724" y2="9.65831" gradientUnits="userSpaceOnUse">
<stop stop-color="#A400DE"/>
<stop offset="1" stop-color="#17CFF8" stop-opacity="0.64"/>
</linearGradient>
<linearGradient id="paint34_linear" x1="44.0671" y1="11.5434" x2="44.0671" y2="9.65831" gradientUnits="userSpaceOnUse">
<stop stop-color="#A400DE"/>
<stop offset="1" stop-color="#17CFF8" stop-opacity="0.64"/>
</linearGradient>
<linearGradient id="paint35_linear" x1="14.2157" y1="26.3848" x2="14.2157" y2="27.4263" gradientUnits="userSpaceOnUse">
<stop stop-color="#43D2FF"/>
<stop offset="1" stop-color="#5243FF" stop-opacity="0.88"/>
</linearGradient>
<linearGradient id="paint36_linear" x1="48.243" y1="26.3848" x2="48.243" y2="27.4263" gradientUnits="userSpaceOnUse">
<stop stop-color="#43D2FF"/>
<stop offset="1" stop-color="#5243FF" stop-opacity="0.88"/>
</linearGradient>
<linearGradient id="paint37_linear" x1="44.3387" y1="26.3848" x2="44.3387" y2="27.4263" gradientUnits="userSpaceOnUse">
<stop stop-color="#43D2FF"/>
<stop offset="1" stop-color="#5243FF" stop-opacity="0.88"/>
</linearGradient>
<linearGradient id="paint38_linear" x1="41.5794" y1="30.8887" x2="41.5794" y2="31.9299" gradientUnits="userSpaceOnUse">
<stop stop-color="#43D2FF"/>
<stop offset="1" stop-color="#5243FF" stop-opacity="0.88"/>
</linearGradient>
<linearGradient id="paint39_linear" x1="41.5794" y1="33.1543" x2="41.5794" y2="34.1958" gradientUnits="userSpaceOnUse">
<stop stop-color="#43D2FF"/>
<stop offset="1" stop-color="#5243FF" stop-opacity="0.88"/>
</linearGradient>
<linearGradient id="paint40_linear" x1="41.5794" y1="35.3926" x2="41.5794" y2="36.4341" gradientUnits="userSpaceOnUse">
<stop stop-color="#43D2FF"/>
<stop offset="1" stop-color="#5243FF" stop-opacity="0.88"/>
</linearGradient>
<linearGradient id="paint41_linear" x1="41.5794" y1="37.6582" x2="41.5794" y2="38.6995" gradientUnits="userSpaceOnUse">
<stop stop-color="#43D2FF"/>
<stop offset="1" stop-color="#5243FF" stop-opacity="0.88"/>
</linearGradient>
<linearGradient id="paint42_linear" x1="38.1949" y1="39.9238" x2="38.1949" y2="40.9653" gradientUnits="userSpaceOnUse">
<stop stop-color="#43D2FF"/>
<stop offset="1" stop-color="#5243FF" stop-opacity="0.88"/>
</linearGradient>
<linearGradient id="paint43_linear" x1="181.053" y1="57.6301" x2="151.026" y2="81.7325" gradientUnits="userSpaceOnUse">
<stop stop-color="#B9FFFB"/>
<stop offset="1" stop-color="#2300AE" stop-opacity="0.61"/>
</linearGradient>
<linearGradient id="paint44_linear" x1="172.756" y1="76.7519" x2="172.81" y2="75.0565" gradientUnits="userSpaceOnUse">
<stop stop-color="#4382FF"/>
<stop offset="1" stop-color="#43F4FF" stop-opacity="0"/>
</linearGradient>
<linearGradient id="paint45_linear" x1="159.804" y1="66.5566" x2="159.804" y2="67.5979" gradientUnits="userSpaceOnUse">
<stop stop-color="#8CCDFC"/>
<stop offset="1" stop-color="#6B53FF"/>
</linearGradient>
<linearGradient id="paint46_linear" x1="180.038" y1="67.6386" x2="180.375" y2="66.0114" gradientUnits="userSpaceOnUse">
<stop stop-color="#4382FF"/>
<stop offset="1" stop-color="#43F4FF" stop-opacity="0"/>
</linearGradient>
<linearGradient id="paint47_linear" x1="176.132" y1="67.6386" x2="176.47" y2="66.0114" gradientUnits="userSpaceOnUse">
<stop stop-color="#4382FF"/>
<stop offset="1" stop-color="#43F4FF" stop-opacity="0"/>
</linearGradient>
<linearGradient id="paint48_linear" x1="75.1759" y1="8.55078" x2="75.1759" y2="15.5801" gradientUnits="userSpaceOnUse">
<stop stop-color="white"/>
<stop offset="1" stop-color="white" stop-opacity="0"/>
</linearGradient>
<linearGradient id="paint49_linear" x1="73.525" y1="21.926" x2="73.3484" y2="9.58927" gradientUnits="userSpaceOnUse">
<stop stop-color="#0124DB" stop-opacity="0.89"/>
<stop offset="0.98713" stop-color="#38CFFF"/>
</linearGradient>
<linearGradient id="paint50_linear" x1="73.8968" y1="20.6266" x2="73.8952" y2="19.7682" gradientUnits="userSpaceOnUse">
<stop stop-color="#0026EF" stop-opacity="0.89"/>
<stop offset="0.98713" stop-color="#50D5FF"/>
</linearGradient>
<linearGradient id="paint51_linear" x1="65.11" y1="10.5037" x2="65.11" y2="11.5809" gradientUnits="userSpaceOnUse">
<stop stop-color="#00A2FD"/>
<stop offset="1" stop-color="#0D0381"/>
</linearGradient>
<linearGradient id="paint52_linear" x1="84.8971" y1="10.5037" x2="84.8971" y2="11.5809" gradientUnits="userSpaceOnUse">
<stop stop-color="#00A2FD"/>
<stop offset="1" stop-color="#0D0381"/>
</linearGradient>
<linearGradient id="paint53_linear" x1="80.9908" y1="10.5037" x2="80.9908" y2="11.5809" gradientUnits="userSpaceOnUse">
<stop stop-color="#00A2FD"/>
<stop offset="1" stop-color="#0D0381"/>
</linearGradient>
<linearGradient id="paint54_linear" x1="71.6446" y1="18.7406" x2="71.6446" y2="12.2806" gradientUnits="userSpaceOnUse">
<stop stop-color="#F3F1F6"/>
<stop offset="1" stop-color="#F1F6F6" stop-opacity="0.7"/>
</linearGradient>
<linearGradient id="paint55_linear" x1="107.459" y1="8.55078" x2="107.459" y2="15.5801" gradientUnits="userSpaceOnUse">
<stop stop-color="white"/>
<stop offset="1" stop-color="white" stop-opacity="0"/>
</linearGradient>
<linearGradient id="paint56_linear" x1="105.808" y1="21.926" x2="105.632" y2="9.58927" gradientUnits="userSpaceOnUse">
<stop stop-color="#0124DB" stop-opacity="0.89"/>
<stop offset="0.98713" stop-color="#38CFFF"/>
</linearGradient>
<linearGradient id="paint57_linear" x1="106.179" y1="20.6266" x2="106.177" y2="19.7682" gradientUnits="userSpaceOnUse">
<stop stop-color="#0026EF" stop-opacity="0.89"/>
<stop offset="0.98713" stop-color="#50D5FF"/>
</linearGradient>
<linearGradient id="paint58_linear" x1="97.3922" y1="10.5037" x2="97.3922" y2="11.5809" gradientUnits="userSpaceOnUse">
<stop stop-color="#00A2FD"/>
<stop offset="1" stop-color="#0D0381"/>
</linearGradient>
<linearGradient id="paint59_linear" x1="117.179" y1="10.5037" x2="117.179" y2="11.5809" gradientUnits="userSpaceOnUse">
<stop stop-color="#00A2FD"/>
<stop offset="1" stop-color="#0D0381"/>
</linearGradient>
<linearGradient id="paint60_linear" x1="113.274" y1="10.5037" x2="113.274" y2="11.5809" gradientUnits="userSpaceOnUse">
<stop stop-color="#00A2FD"/>
<stop offset="1" stop-color="#0D0381"/>
</linearGradient>
<linearGradient id="paint61_linear" x1="103.929" y1="18.7406" x2="103.929" y2="12.2806" gradientUnits="userSpaceOnUse">
<stop stop-color="#F3F1F6"/>
<stop offset="1" stop-color="#F1F6F6" stop-opacity="0.7"/>
</linearGradient>
<linearGradient id="paint62_linear" x1="139.742" y1="8.55078" x2="139.742" y2="15.5801" gradientUnits="userSpaceOnUse">
<stop stop-color="white"/>
<stop offset="1" stop-color="white" stop-opacity="0"/>
</linearGradient>
<linearGradient id="paint63_linear" x1="138.09" y1="21.926" x2="137.914" y2="9.58927" gradientUnits="userSpaceOnUse">
<stop stop-color="#0124DB" stop-opacity="0.89"/>
<stop offset="0.98713" stop-color="#38CFFF"/>
</linearGradient>
<linearGradient id="paint64_linear" x1="138.461" y1="20.6266" x2="138.46" y2="19.7682" gradientUnits="userSpaceOnUse">
<stop stop-color="#0026EF" stop-opacity="0.89"/>
<stop offset="0.98713" stop-color="#50D5FF"/>
</linearGradient>
<linearGradient id="paint65_linear" x1="129.675" y1="10.5037" x2="129.675" y2="11.5809" gradientUnits="userSpaceOnUse">
<stop stop-color="#00A2FD"/>
<stop offset="1" stop-color="#0D0381"/>
</linearGradient>
<linearGradient id="paint66_linear" x1="149.462" y1="10.5037" x2="149.462" y2="11.5809" gradientUnits="userSpaceOnUse">
<stop stop-color="#00A2FD"/>
<stop offset="1" stop-color="#0D0381"/>
</linearGradient>
<linearGradient id="paint67_linear" x1="145.557" y1="10.5037" x2="145.557" y2="11.5809" gradientUnits="userSpaceOnUse">
<stop stop-color="#00A2FD"/>
<stop offset="1" stop-color="#0D0381"/>
</linearGradient>
<linearGradient id="paint68_linear" x1="136.212" y1="18.7406" x2="136.212" y2="12.2806" gradientUnits="userSpaceOnUse">
<stop stop-color="#F3F1F6"/>
<stop offset="1" stop-color="#F1F6F6" stop-opacity="0.7"/>
</linearGradient>
<linearGradient id="paint69_linear" x1="85.6117" y1="38.3297" x2="85.6101" y2="37.4713" gradientUnits="userSpaceOnUse">
<stop stop-color="#0026EF" stop-opacity="0.89"/>
<stop offset="0.98713" stop-color="#50D5FF"/>
</linearGradient>
<linearGradient id="paint70_linear" x1="76.573" y1="29.2183" x2="76.5626" y2="28.3601" gradientUnits="userSpaceOnUse">
<stop stop-color="#0026EF" stop-opacity="0.89"/>
<stop offset="0.98713" stop-color="#50D5FF"/>
</linearGradient>
<linearGradient id="paint71_linear" x1="96.3591" y1="29.2183" x2="96.3488" y2="28.3601" gradientUnits="userSpaceOnUse">
<stop stop-color="#0026EF" stop-opacity="0.89"/>
<stop offset="0.98713" stop-color="#50D5FF"/>
</linearGradient>
<linearGradient id="paint72_linear" x1="92.4558" y1="29.2183" x2="92.4454" y2="28.3601" gradientUnits="userSpaceOnUse">
<stop stop-color="#0026EF" stop-opacity="0.89"/>
<stop offset="0.98713" stop-color="#50D5FF"/>
</linearGradient>
<linearGradient id="paint73_linear" x1="83.3614" y1="36.443" x2="83.3614" y2="30.011" gradientUnits="userSpaceOnUse">
<stop stop-color="#F3F1F6"/>
<stop offset="1" stop-color="#F1F6F6" stop-opacity="0.7"/>
</linearGradient>
<linearGradient id="paint74_linear" x1="114.51" y1="38.3297" x2="114.509" y2="37.4713" gradientUnits="userSpaceOnUse">
<stop stop-color="#0026EF" stop-opacity="0.89"/>
<stop offset="0.98713" stop-color="#50D5FF"/>
</linearGradient>
<linearGradient id="paint75_linear" x1="105.472" y1="29.2183" x2="105.462" y2="28.3601" gradientUnits="userSpaceOnUse">
<stop stop-color="#0026EF" stop-opacity="0.89"/>
<stop offset="0.98713" stop-color="#50D5FF"/>
</linearGradient>
<linearGradient id="paint76_linear" x1="125.258" y1="29.2183" x2="125.247" y2="28.3601" gradientUnits="userSpaceOnUse">
<stop stop-color="#0026EF" stop-opacity="0.89"/>
<stop offset="0.98713" stop-color="#50D5FF"/>
</linearGradient>
<linearGradient id="paint77_linear" x1="121.353" y1="29.2183" x2="121.343" y2="28.3601" gradientUnits="userSpaceOnUse">
<stop stop-color="#0026EF" stop-opacity="0.89"/>
<stop offset="0.98713" stop-color="#50D5FF"/>
</linearGradient>
<linearGradient id="paint78_linear" x1="112.26" y1="36.443" x2="112.26" y2="30.011" gradientUnits="userSpaceOnUse">
<stop stop-color="#F3F1F6"/>
<stop offset="1" stop-color="#F1F6F6" stop-opacity="0.7"/>
</linearGradient>
<linearGradient id="paint79_linear" x1="143.409" y1="38.3297" x2="143.407" y2="37.4713" gradientUnits="userSpaceOnUse">
<stop stop-color="#0026EF" stop-opacity="0.89"/>
<stop offset="0.98713" stop-color="#50D5FF"/>
</linearGradient>
<linearGradient id="paint80_linear" x1="134.371" y1="29.2183" x2="134.36" y2="28.3601" gradientUnits="userSpaceOnUse">
<stop stop-color="#0026EF" stop-opacity="0.89"/>
<stop offset="0.98713" stop-color="#50D5FF"/>
</linearGradient>
<linearGradient id="paint81_linear" x1="154.157" y1="29.2183" x2="154.147" y2="28.3601" gradientUnits="userSpaceOnUse">
<stop stop-color="#0026EF" stop-opacity="0.89"/>
<stop offset="0.98713" stop-color="#50D5FF"/>
</linearGradient>
<linearGradient id="paint82_linear" x1="150.252" y1="29.2183" x2="150.241" y2="28.3601" gradientUnits="userSpaceOnUse">
<stop stop-color="#0026EF" stop-opacity="0.89"/>
<stop offset="0.98713" stop-color="#50D5FF"/>
</linearGradient>
<linearGradient id="paint83_linear" x1="141.159" y1="36.443" x2="141.159" y2="30.011" gradientUnits="userSpaceOnUse">
<stop stop-color="#F3F1F6"/>
<stop offset="1" stop-color="#F1F6F6" stop-opacity="0.7"/>
</linearGradient>
<linearGradient id="paint84_linear" x1="129.349" y1="99.31" x2="129.349" y2="96.5811" gradientUnits="userSpaceOnUse">
<stop offset="0.196787" stop-color="#1C00C7"/>
<stop offset="1" stop-color="#1C00C7" stop-opacity="0"/>
</linearGradient>
<linearGradient id="paint85_linear" x1="83.3901" y1="77.3828" x2="65.271" y2="119.222" gradientUnits="userSpaceOnUse">
<stop stop-color="#844FFC"/>
<stop offset="1" stop-color="#491EB8"/>
</linearGradient>
<linearGradient id="paint86_linear" x1="18.7631" y1="76.4238" x2="3.46959" y2="112.762" gradientUnits="userSpaceOnUse">
<stop stop-color="#844FFC"/>
<stop offset="1" stop-color="#491EB8"/>
</linearGradient>
<linearGradient id="paint87_linear" x1="66.6335" y1="71.9356" x2="67.1505" y2="64.0535" gradientUnits="userSpaceOnUse">
<stop stop-color="#9E7CFD"/>
<stop offset="1" stop-color="#7CDEFD" stop-opacity="0"/>
</linearGradient>
<linearGradient id="paint88_linear" x1="66.6335" y1="71.9356" x2="67.1505" y2="64.0535" gradientUnits="userSpaceOnUse">
<stop stop-color="#9E7CFD"/>
<stop offset="1" stop-color="#7CDEFD" stop-opacity="0"/>
</linearGradient>
<linearGradient id="paint89_linear" x1="49.5513" y1="39.0499" x2="49.6224" y2="63.3143" gradientUnits="userSpaceOnUse">
<stop stop-color="#273CFF"/>
<stop offset="1" stop-color="#002E73"/>
</linearGradient>
<linearGradient id="paint90_linear" x1="50.4825" y1="70.8242" x2="25.5916" y2="134.208" gradientUnits="userSpaceOnUse">
<stop stop-color="#844FFC"/>
<stop offset="1" stop-color="#491EB8"/>
</linearGradient>
<linearGradient id="paint91_linear" x1="53.557" y1="145.175" x2="53.5569" y2="58.1338" gradientUnits="userSpaceOnUse">
<stop offset="0.196787" stop-color="#1C00C7"/>
<stop offset="1" stop-color="#1C00C7" stop-opacity="0"/>
</linearGradient>
<linearGradient id="paint92_linear" x1="136.044" y1="46.1938" x2="136.044" y2="45.8747" gradientUnits="userSpaceOnUse">
<stop stop-color="#00057C"/>
<stop offset="1" stop-color="#B001CC" stop-opacity="0.74"/>
</linearGradient>
<linearGradient id="paint93_linear" x1="104.165" y1="5.03175" x2="104.165" y2="4.71258" gradientUnits="userSpaceOnUse">
<stop stop-color="#00057C"/>
<stop offset="1" stop-color="#B001CC" stop-opacity="0.74"/>
</linearGradient>
<linearGradient id="paint94_linear" x1="179.486" y1="53.945" x2="179.486" y2="52.1576" gradientUnits="userSpaceOnUse">
<stop stop-color="#00057C"/>
<stop offset="1" stop-color="#E96CFE" stop-opacity="0.74"/>
</linearGradient>
<linearGradient id="paint95_linear" x1="180.944" y1="55.4294" x2="180.944" y2="53.642" gradientUnits="userSpaceOnUse">
<stop stop-color="#00057C"/>
<stop offset="1" stop-color="#E96CFE" stop-opacity="0.74"/>
</linearGradient>
<linearGradient id="paint96_linear" x1="182.402" y1="56.8864" x2="182.402" y2="55.099" gradientUnits="userSpaceOnUse">
<stop stop-color="#00057C"/>
<stop offset="1" stop-color="#E96CFE" stop-opacity="0.74"/>
</linearGradient>
<linearGradient id="paint97_linear" x1="183.885" y1="58.3454" x2="183.885" y2="56.558" gradientUnits="userSpaceOnUse">
<stop stop-color="#00057C"/>
<stop offset="1" stop-color="#E96CFE" stop-opacity="0.74"/>
</linearGradient>
<linearGradient id="paint98_linear" x1="180.944" y1="52.4858" x2="180.944" y2="50.6987" gradientUnits="userSpaceOnUse">
<stop stop-color="#00057C"/>
<stop offset="1" stop-color="#E96CFE" stop-opacity="0.74"/>
</linearGradient>
<linearGradient id="paint99_linear" x1="182.403" y1="53.945" x2="182.403" y2="52.1576" gradientUnits="userSpaceOnUse">
<stop stop-color="#00057C"/>
<stop offset="1" stop-color="#E96CFE" stop-opacity="0.74"/>
</linearGradient>
<linearGradient id="paint100_linear" x1="183.887" y1="55.4294" x2="183.887" y2="53.642" gradientUnits="userSpaceOnUse">
<stop stop-color="#00057C"/>
<stop offset="1" stop-color="#E96CFE" stop-opacity="0.74"/>
</linearGradient>
<linearGradient id="paint101_linear" x1="185.343" y1="56.8864" x2="185.343" y2="55.099" gradientUnits="userSpaceOnUse">
<stop stop-color="#00057C"/>
<stop offset="1" stop-color="#E96CFE" stop-opacity="0.74"/>
</linearGradient>
<linearGradient id="paint102_linear" x1="158.617" y1="85.0664" x2="158.617" y2="86.1077" gradientUnits="userSpaceOnUse">
<stop stop-color="#73A2FF"/>
<stop offset="1" stop-color="#7F43FF" stop-opacity="0.86"/>
</linearGradient>
<linearGradient id="paint103_linear" x1="158.422" y1="87.8535" x2="158.422" y2="90.8735" gradientUnits="userSpaceOnUse">
<stop stop-color="#73A2FF"/>
<stop offset="1" stop-color="#7F43FF" stop-opacity="0.86"/>
</linearGradient>
<linearGradient id="paint104_linear" x1="162.276" y1="88.0352" x2="162.276" y2="90.7427" gradientUnits="userSpaceOnUse">
<stop stop-color="#73A2FF"/>
<stop offset="1" stop-color="#7F43FF" stop-opacity="0.86"/>
</linearGradient>
<linearGradient id="paint105_linear" x1="176.042" y1="73.2235" x2="178.087" y2="70.1884" gradientUnits="userSpaceOnUse">
<stop stop-color="#4382FF"/>
<stop offset="1" stop-color="#43F4FF" stop-opacity="0"/>
</linearGradient>
<linearGradient id="paint106_linear" x1="14.2415" y1="52.2363" x2="14.2415" y2="54.9441" gradientUnits="userSpaceOnUse">
<stop stop-color="#43D2FF"/>
<stop offset="1" stop-color="#5243FF" stop-opacity="0.88"/>
</linearGradient>
<linearGradient id="paint107_linear" x1="18.0433" y1="52.2363" x2="18.0433" y2="54.9441" gradientUnits="userSpaceOnUse">
<stop stop-color="#8C1BFE"/>
<stop offset="1" stop-color="#1303CF" stop-opacity="0.88"/>
</linearGradient>
<linearGradient id="paint108_linear" x1="109.933" y1="84.5723" x2="109.933" y2="84.8325" gradientUnits="userSpaceOnUse">
<stop stop-color="#73A2FF"/>
<stop offset="1" stop-color="#7F43FF" stop-opacity="0.86"/>
</linearGradient>
<linearGradient id="paint109_linear" x1="111.768" y1="86.3438" x2="111.768" y2="86.6043" gradientUnits="userSpaceOnUse">
<stop stop-color="#73A2FF"/>
<stop offset="1" stop-color="#7F43FF" stop-opacity="0.86"/>
</linearGradient>
<linearGradient id="paint110_linear" x1="17.0156" y1="60.3594" x2="17.0156" y2="62.6506" gradientUnits="userSpaceOnUse">
<stop stop-color="#43D2FF"/>
<stop offset="1" stop-color="#5243FF" stop-opacity="0.88"/>
</linearGradient>
<linearGradient id="paint111_linear" x1="28.4704" y1="60.4902" x2="28.4704" y2="62.521" gradientUnits="userSpaceOnUse">
<stop stop-color="#43D2FF"/>
<stop offset="1" stop-color="#5243FF" stop-opacity="0.88"/>
</linearGradient>
<linearGradient id="paint112_linear" x1="15.7263" y1="65.2285" x2="15.7263" y2="66.9468" gradientUnits="userSpaceOnUse">
<stop stop-color="#43D2FF"/>
<stop offset="1" stop-color="#5243FF" stop-opacity="0.88"/>
</linearGradient>
<linearGradient id="paint113_linear" x1="15.7263" y1="68.248" x2="15.7263" y2="69.9663" gradientUnits="userSpaceOnUse">
<stop stop-color="#43D2FF"/>
<stop offset="1" stop-color="#5243FF" stop-opacity="0.88"/>
</linearGradient>
<linearGradient id="paint114_linear" x1="15.7263" y1="71.2422" x2="15.7263" y2="72.9604" gradientUnits="userSpaceOnUse">
<stop stop-color="#43D2FF"/>
<stop offset="1" stop-color="#5243FF" stop-opacity="0.88"/>
</linearGradient>
<linearGradient id="paint115_linear" x1="177.623" y1="20.0348" x2="177.604" y2="18.0436" gradientUnits="userSpaceOnUse">
<stop stop-color="#031FAE"/>
<stop offset="1" stop-color="#91F5EF" stop-opacity="0.83"/>
</linearGradient>
<linearGradient id="paint116_linear" x1="178.206" y1="23.5062" x2="178.206" y2="21.0167" gradientUnits="userSpaceOnUse">
<stop stop-color="#00057C"/>
<stop offset="1" stop-color="#E96CFE" stop-opacity="0.74"/>
</linearGradient>
<linearGradient id="paint117_linear" x1="177.623" y1="26.0484" x2="177.626" y2="24.4147" gradientUnits="userSpaceOnUse">
<stop stop-color="#3354FC"/>
<stop offset="1" stop-color="#D591F5" stop-opacity="0.83"/>
</linearGradient>
<linearGradient id="paint118_linear" x1="171.285" y1="20.3303" x2="171.285" y2="18.2237" gradientUnits="userSpaceOnUse">
<stop stop-color="#00057C"/>
<stop offset="1" stop-color="#E96CFE" stop-opacity="0.74"/>
</linearGradient>
<linearGradient id="paint119_linear" x1="171.285" y1="23.3498" x2="171.285" y2="21.2432" gradientUnits="userSpaceOnUse">
<stop stop-color="#00057C"/>
<stop offset="1" stop-color="#E96CFE" stop-opacity="0.74"/>
</linearGradient>
<linearGradient id="paint120_linear" x1="171.285" y1="26.3421" x2="171.285" y2="24.2354" gradientUnits="userSpaceOnUse">
<stop stop-color="#00057C"/>
<stop offset="1" stop-color="#E96CFE" stop-opacity="0.74"/>
</linearGradient>
<linearGradient id="paint121_linear" x1="173.872" y1="14.1967" x2="173.872" y2="13.8456" gradientUnits="userSpaceOnUse">
<stop stop-color="#00057C"/>
<stop offset="1" stop-color="#E96CFE" stop-opacity="0.74"/>
</linearGradient>
<linearGradient id="paint122_linear" x1="174.002" y1="15.6302" x2="174.002" y2="15.2791" gradientUnits="userSpaceOnUse">
<stop stop-color="#00057C"/>
<stop offset="1" stop-color="#B001CC" stop-opacity="0.74"/>
</linearGradient>
<linearGradient id="paint123_linear" x1="173.872" y1="29.8425" x2="173.872" y2="29.5231" gradientUnits="userSpaceOnUse">
<stop stop-color="#00057C"/>
<stop offset="1" stop-color="#E96CFE" stop-opacity="0.74"/>
</linearGradient>
<linearGradient id="paint124_linear" x1="174.002" y1="31.2768" x2="174.002" y2="30.9256" gradientUnits="userSpaceOnUse">
<stop stop-color="#00057C"/>
<stop offset="1" stop-color="#B001CC" stop-opacity="0.74"/>
</linearGradient>
<linearGradient id="paint125_linear" x1="100.051" y1="90.3262" x2="100.051" y2="90.6124" gradientUnits="userSpaceOnUse">
<stop stop-color="#73A2FF"/>
<stop offset="1" stop-color="#7F43FF" stop-opacity="0.86"/>
</linearGradient>
<linearGradient id="paint126_linear" x1="100.182" y1="91.7578" x2="100.182" y2="92.0443" gradientUnits="userSpaceOnUse">
<stop stop-color="#73A2FF"/>
<stop offset="1" stop-color="#7F43FF" stop-opacity="0.86"/>
</linearGradient>
<linearGradient id="paint127_linear" x1="179.069" y1="71.6328" x2="179.069" y2="89.5186" gradientUnits="userSpaceOnUse">
<stop stop-color="#73A2FF"/>
<stop offset="1" stop-color="#7F43FF" stop-opacity="0.86"/>
</linearGradient>
<linearGradient id="paint128_linear" x1="166.081" y1="90.9652" x2="166.081" y2="87.646" gradientUnits="userSpaceOnUse">
<stop stop-color="#00057C"/>
<stop offset="1" stop-color="#E96CFE" stop-opacity="0.74"/>
</linearGradient>
<linearGradient id="paint129_linear" x1="163.734" y1="93.5293" x2="163.734" y2="93.7898" gradientUnits="userSpaceOnUse">
<stop stop-color="#73A2FF"/>
<stop offset="1" stop-color="#7F43FF" stop-opacity="0.86"/>
</linearGradient>
<linearGradient id="paint130_linear" x1="163.734" y1="94.9062" x2="163.734" y2="95.1665" gradientUnits="userSpaceOnUse">
<stop stop-color="#73A2FF"/>
<stop offset="1" stop-color="#7F43FF" stop-opacity="0.86"/>
</linearGradient>
<linearGradient id="paint131_linear" x1="177.376" y1="93.5293" x2="177.376" y2="93.7898" gradientUnits="userSpaceOnUse">
<stop stop-color="#73A2FF"/>
<stop offset="1" stop-color="#7F43FF" stop-opacity="0.86"/>
</linearGradient>
<linearGradient id="paint132_linear" x1="177.376" y1="94.9062" x2="177.376" y2="95.1665" gradientUnits="userSpaceOnUse">
<stop stop-color="#73A2FF"/>
<stop offset="1" stop-color="#7F43FF" stop-opacity="0.86"/>
</linearGradient>
<linearGradient id="paint133_linear" x1="191.017" y1="93.5293" x2="191.017" y2="93.7898" gradientUnits="userSpaceOnUse">
<stop stop-color="#73A2FF"/>
<stop offset="1" stop-color="#7F43FF" stop-opacity="0.86"/>
</linearGradient>
<linearGradient id="paint134_linear" x1="191.017" y1="94.9062" x2="191.017" y2="95.1665" gradientUnits="userSpaceOnUse">
<stop stop-color="#73A2FF"/>
<stop offset="1" stop-color="#7F43FF" stop-opacity="0.86"/>
</linearGradient>
</defs>
</svg>
