<svg width="200" height="150" viewBox="0 0 200 150" fill="none" xmlns="http://www.w3.org/2000/svg">
<path d="M14.7436 116.605C12.5681 116.605 10.8073 116.082 9.61994 114.731C6.23707 110.884 8.47089 101.315 13.9657 96.1153C19.9133 90.4881 28.2647 91.6856 42.101 93.6698C46.8962 94.3576 52.3315 95.1368 58.5488 95.7571C72.1098 97.1096 86.1695 97.3391 100.339 96.4383C100.413 96.4341 100.474 96.4888 100.479 96.5616C100.483 96.6341 100.428 96.6963 100.356 96.7011C86.172 97.6023 72.0975 97.3736 58.5225 96.0188C52.3 95.3983 46.8617 94.6183 42.0637 93.9303C28.3055 91.9578 20.0012 90.7666 14.1467 96.3066C8.74157 101.421 6.51622 110.803 9.81762 114.558C12.7553 117.899 19.512 115.937 27.3352 113.664C29.4672 113.044 31.672 112.404 33.9022 111.841C50.688 107.606 60.4697 110.017 69.9297 112.349C78.411 114.44 87.1818 116.602 101.091 114.185C115.309 111.714 124.299 106.406 132.231 101.722C141.439 96.2848 148.712 91.9906 160.205 94.9148C166.221 96.4456 170.665 99.3051 174.236 101.603C178.676 104.459 182.183 106.715 186.405 105.103C190.473 103.55 193.659 98.9793 195.376 92.2321C196.922 86.1561 197.114 78.7208 195.892 72.3433C192.292 53.5651 173.903 41.3076 158.429 39.3083C149.186 38.1133 143.845 40.8671 137.66 44.0551C131.852 47.0486 125.269 50.4416 114.11 50.9786C102.5 51.5378 95.516 48.6166 88.1192 45.5251C81.6217 42.8093 74.903 40.0008 64.6195 39.5428C64.547 39.5393 64.4908 39.4781 64.494 39.4053C64.497 39.3346 64.5553 39.2796 64.6253 39.2796C64.6273 39.2796 64.6292 39.2796 64.6312 39.2798C74.9615 39.7401 81.7023 42.5576 88.2208 45.2821C95.5893 48.3618 102.55 51.2693 114.097 50.7158C125.2 50.1813 131.755 46.8023 137.54 43.8211C143.764 40.6133 149.14 37.8431 158.463 39.0471C174.029 41.0583 192.527 53.3938 196.151 72.2941C197.38 78.7076 197.186 86.1853 195.631 92.2971C193.893 99.1298 190.65 103.765 186.5 105.349C182.152 107.009 178.596 104.721 174.094 101.824C170.354 99.4176 166.114 96.6903 160.14 95.1698C148.751 92.2721 141.52 96.5421 132.365 101.949C124.414 106.644 115.402 111.965 101.136 114.444C87.1728 116.872 78.3748 114.703 69.8668 112.605C60.0038 110.173 50.688 107.877 33.9667 112.096C31.741 112.658 29.5385 113.298 27.4087 113.917C22.5803 115.319 18.153 116.605 14.7436 116.605Z" fill="#40128A"/>
<path d="M188.005 112.537H19.3204C18.0848 112.537 17.083 111.535 17.083 110.3C17.083 109.064 18.0848 108.062 19.3204 108.062H188.005C189.241 108.062 190.242 109.064 190.242 110.3C190.242 111.535 189.241 112.537 188.005 112.537Z" fill="url(#paint0_linear)"/>
<path d="M186.836 105.406L170.299 105.384L170.296 107.893L186.833 107.915L186.836 105.406Z" fill="url(#paint1_linear)"/>
<g filter="url(#filter0_b)">
<path d="M184.894 102.895L168.357 102.872L168.354 105.381L184.891 105.404L184.894 102.895Z" fill="url(#paint2_linear)"/>
</g>
<path d="M187.398 100.39L170.861 100.367L170.857 102.876L187.394 102.899L187.398 100.39Z" fill="url(#paint3_linear)"/>
<path d="M161.523 107.916H151.422C151.422 106.255 152.768 104.909 154.428 104.909H158.517C160.177 104.909 161.523 106.255 161.523 107.916Z" fill="#4A10AA"/>
<path d="M177.875 113.926H37.1313C36.7935 113.926 36.5195 113.652 36.5195 113.314C36.5195 112.976 36.7935 112.702 37.1313 112.702H177.875C178.213 112.702 178.487 112.976 178.487 113.314C178.487 113.652 178.213 113.926 177.875 113.926Z" fill="#4A11A9"/>
<path d="M16.4711 44.0873L73.819 46.0898C74.472 46.1126 75.4065 46.8158 75.9037 47.6586L78.2632 51.6576L78.4907 51.6656L76.1312 47.6663C75.5395 46.6638 74.4255 45.8256 73.647 45.7983L16.2991 43.7956C15.5222 43.7686 15.3712 44.5628 15.9628 45.5653L18.3224 49.5643L18.5482 49.5721L16.1887 45.5733C15.6915 44.7306 15.8195 44.0646 16.4711 44.0873Z" fill="#B5CDFB"/>
<path fill-rule="evenodd" clip-rule="evenodd" d="M73.885 45.8288C73.8028 45.8111 73.723 45.8006 73.6465 45.7978L16.2986 43.7951C15.7648 43.7766 15.5265 44.1458 15.6216 44.7038C15.6649 44.9581 15.7773 45.2511 15.9624 45.5648L18.3219 49.5638L18.5478 49.5716L16.1882 45.5728C16.1672 45.5371 16.1473 45.5018 16.1285 45.4668C15.969 45.1701 15.8895 44.8991 15.8852 44.6771C15.878 44.3066 16.0804 44.0731 16.4707 44.0868L73.8185 46.0893C73.8277 46.0898 73.8372 46.0903 73.8465 46.0908C74.4982 46.1323 75.4133 46.8273 75.9035 47.6581L78.263 51.6571L78.4905 51.6651L76.1308 47.6661C76.11 47.6308 76.0888 47.5961 76.067 47.5616C75.5233 46.7031 74.6098 45.9851 73.885 45.8288ZM16.4615 44.3508L73.8093 46.3533C74.0575 46.3621 74.402 46.5076 74.7605 46.7773C75.1125 47.0421 75.4463 47.4031 75.676 47.7923L78.109 51.9161L78.963 51.9458L76.3583 47.5318C76.0435 46.9981 75.5928 46.5126 75.1175 46.1551C74.649 45.8026 74.1232 45.5501 73.6557 45.5338L16.3079 43.5311C16.0688 43.5228 15.8497 43.5771 15.6758 43.7086C15.5005 43.8411 15.3982 44.0318 15.3578 44.2446C15.2796 44.6563 15.4248 45.1736 15.7348 45.6991L18.168 49.8228L19.0202 49.8523L16.4158 45.4386C16.4158 45.4386 16.4158 45.4386 16.4158 45.4386C16.1815 45.0413 16.1243 44.7326 16.1582 44.5548C16.1738 44.4728 16.2063 44.4278 16.241 44.4018C16.2772 44.3743 16.3434 44.3468 16.4615 44.3508Z" fill="#B5CDFB"/>
<path d="M102.281 91.9855L100.76 89.4088L84.7318 62.2438L81.7885 57.2555L81.5612 57.2475L84.5045 62.2358L100.533 89.4008L102.054 91.9778C102.55 92.8185 102.424 93.4865 101.771 93.4638L44.4235 91.461C43.7717 91.4383 42.8347 90.7333 42.3385 89.8925L41.5672 88.5853L36.706 80.3465L35.7815 78.7798L30.9215 70.543L29.6507 68.3893L24.7894 60.1505L21.8461 55.1623L21.6201 55.1543L24.5634 60.1425L29.4247 68.3813L30.6955 70.535L35.5555 78.7718L36.48 80.3385L41.3412 88.5773L42.1127 89.8845C42.7042 90.887 43.8185 91.7255 44.5955 91.7525L101.943 93.7553C102.722 93.7825 102.873 92.9883 102.281 91.9855Z" fill="#B5CDFB"/>
<path fill-rule="evenodd" clip-rule="evenodd" d="M81.9432 56.9973L84.9602 62.1103L102.509 91.8523C102.819 92.3775 102.965 92.895 102.886 93.3068C102.846 93.5198 102.743 93.7103 102.568 93.8428C102.394 93.9743 102.174 94.0285 101.935 94.02L44.587 92.0175C44.1202 92.0013 43.595 91.7488 43.1265 91.3963C42.6515 91.0388 42.2007 90.553 41.886 90.0195L36.2535 80.4735L24.3368 60.2778L21.1484 54.874L22.0009 54.904L29.879 68.2558L36.01 78.6463L41.7957 88.4518L42.567 89.759C42.796 90.147 43.13 90.508 43.4825 90.7733C43.8415 91.0435 44.1862 91.1893 44.4335 91.1978L101.781 93.2005C101.9 93.2045 101.966 93.1768 102.002 93.1495C102.037 93.1233 102.069 93.0785 102.085 92.9963C102.118 92.818 102.061 92.509 101.827 92.1128L81.0895 56.9673L81.9432 56.9973ZM102.054 91.9785C102.076 92.0145 102.096 92.05 102.114 92.085C102.271 92.377 102.351 92.6448 102.357 92.865C102.368 93.2405 102.166 93.4783 101.772 93.4645L44.4242 91.4618C44.4152 91.4615 44.4062 91.461 44.3972 91.4605C43.747 91.4195 42.8287 90.7225 42.3395 89.8933L21.8469 55.163L21.621 55.155L42.1135 89.8853C42.134 89.92 42.1552 89.9548 42.177 89.989C42.7205 90.848 43.635 91.5665 44.359 91.7228C44.4407 91.7403 44.52 91.7508 44.5962 91.7533L101.944 93.756C102.483 93.7748 102.721 93.4005 102.621 92.8363C102.576 92.5848 102.464 92.2955 102.282 91.9865L81.7895 57.2563L81.562 57.2483L102.054 91.9785Z" fill="#B5CDFB"/>
<path d="M81.2827 108.092H72.9647L66.667 96.7012L74.985 97.0564L81.2827 108.092Z" fill="white"/>
<path opacity="0.2" d="M80.3324 106.557L72.2249 106.616L70.9014 104.34L79.0089 104.28L80.3324 106.557Z" fill="#303030"/>
<path d="M94.6712 108.092H59.4082V107.897C59.4082 107.19 59.9817 106.616 60.6892 106.616H93.3902C94.0977 106.616 94.6712 107.19 94.6712 107.897V108.092Z" fill="white"/>
<path opacity="0.81" d="M8.09902 49.2071L18.3215 49.5641L18.5474 49.5721L19.731 49.6133L77.079 51.6161L78.2625 51.6574L78.49 51.6654L82.2783 51.7976C83.4735 51.8393 85.1825 53.1241 86.0935 54.6684C87.0037 56.2109 86.772 57.4296 85.5768 57.3879L81.7885 57.2556L81.561 57.2476L80.3775 57.2064L23.0295 55.2036L21.8459 55.1624L21.62 55.1544L11.3975 54.7974C10.2008 54.7556 8.4923 53.4691 7.58222 51.9266C6.67102 50.3823 6.90232 49.1653 8.09902 49.2071Z" fill="url(#paint4_linear)"/>
<path opacity="0.81" d="M83.3208 62.1946L59.124 61.3496L75.1528 88.5146L99.3495 89.3596L100.533 89.4011L84.5045 62.2359L83.3208 62.1946Z" fill="url(#paint5_linear)"/>
<path opacity="0.81" d="M90.6869 62.4519L84.7324 62.2441L100.761 89.4091L106.715 89.6171L90.6869 62.4519Z" fill="url(#paint6_linear)"/>
<path opacity="0.81" d="M12.1758 59.7109L17.0371 67.9497L29.4255 68.3822L24.5643 60.1434L12.1758 59.7109Z" fill="url(#paint7_linear)"/>
<path d="M54.6575 61.1944L25.9728 60.1926L24.7891 60.1514L29.6503 68.3899L30.834 68.4314L59.5188 69.4331L54.6575 61.1944Z" fill="#6210E7"/>
<path d="M144.592 108.411H107.502V107.629C107.502 106.819 108.159 106.161 108.97 106.161H143.124C143.934 106.161 144.592 106.819 144.592 107.629V108.411Z" fill="white"/>
<g opacity="0.6" filter="url(#filter1_b)">
<path d="M99.544 90.8647L98.5895 89.2469L76.319 51.5034L74.5255 48.4639C74.0038 47.5799 73.0255 46.8437 72.3405 46.8199L17.475 44.9039C16.7899 44.8799 16.6559 45.5772 17.1776 46.4612L18.9711 49.5007L22.2697 55.0912H22.2696L25.213 60.0794L30.0743 68.3182L31.345 70.4719L36.3685 78.9854L37.1298 80.2754L41.9908 88.5139L42.1963 88.8622C42.7178 89.7462 43.6975 90.4822 44.3825 90.5062L99.248 92.4219C99.9332 92.4459 100.066 91.7487 99.544 90.8647Z" fill="#4F3CC0"/>
</g>
<path fill-rule="evenodd" clip-rule="evenodd" d="M132.138 142.133H187.537C190.051 142.133 192.09 140.095 192.09 137.58V120.881C192.09 118.367 190.051 116.328 187.537 116.328H132.138C129.623 116.328 127.585 118.367 127.585 120.881V137.58C127.585 140.095 129.623 142.133 132.138 142.133ZM24.8726 142.134H119.755C122.27 142.134 124.309 140.095 124.309 137.58V120.881C124.309 118.367 122.27 116.328 119.755 116.328H24.8726C22.3579 116.328 20.3193 118.367 20.3193 120.881V137.58C20.3193 140.095 22.3579 142.134 24.8726 142.134Z" fill="url(#paint8_linear)"/>
<path d="M195.627 129.512H18.4245C17.3914 129.512 16.5508 128.671 16.5508 127.638C16.5508 126.605 17.3914 125.765 18.4245 125.765H195.627C196.66 125.765 197.501 126.605 197.501 127.638C197.501 128.671 196.66 129.512 195.627 129.512ZM18.4245 126.328C17.7019 126.328 17.1143 126.916 17.1143 127.638C17.1143 128.361 17.7019 128.948 18.4245 128.948H195.627C196.35 128.948 196.937 128.361 196.937 127.638C196.937 126.916 196.35 126.328 195.627 126.328H18.4245Z" fill="white"/>
<path d="M62.7815 67.6723C63.1103 66.8483 62.3613 65.7751 61.1085 65.2756C59.856 64.7758 58.574 65.0391 58.2453 65.8631C57.9168 66.6873 58.6655 67.7603 59.9183 68.2601C61.1708 68.7596 62.4528 68.4966 62.7815 67.6723Z" fill="#B5CDFB"/>
<path d="M100.261 28.0294H84.6819C84.5317 28.0294 84.4102 27.9306 84.4102 27.8086C84.4102 27.6864 84.5317 27.5879 84.6819 27.5879H100.261C100.412 27.5879 100.533 27.6864 100.533 27.8086C100.533 27.9306 100.412 28.0294 100.261 28.0294Z" fill="#B590F1"/>
<path d="M100.261 37.8763H84.6819C84.5317 37.8763 84.4102 37.7776 84.4102 37.6553C84.4102 37.5333 84.5317 37.4346 84.6819 37.4346H100.261C100.412 37.4346 100.533 37.5333 100.533 37.6553C100.533 37.7776 100.412 37.8763 100.261 37.8763Z" fill="#B590F1"/>
<path d="M100.261 31.5899H84.6819C84.5317 31.5899 84.4102 31.4912 84.4102 31.3692C84.4102 31.2472 84.5317 31.1484 84.6819 31.1484H100.261C100.412 31.1484 100.533 31.2472 100.533 31.3692C100.533 31.4912 100.412 31.5899 100.261 31.5899Z" fill="#B590F1"/>
<path d="M100.261 41.4369H84.6819C84.5317 41.4369 84.4102 41.3381 84.4102 41.2161C84.4102 41.0939 84.5317 40.9951 84.6819 40.9951H100.261C100.412 40.9951 100.533 41.0939 100.533 41.2161C100.533 41.3381 100.412 41.4369 100.261 41.4369Z" fill="#B590F1"/>
<path d="M100.261 29.3246H84.6819C84.5317 29.3246 84.4102 29.2258 84.4102 29.1038C84.4102 28.9816 84.5317 28.8828 84.6819 28.8828H100.261C100.412 28.8828 100.533 28.9816 100.533 29.1038C100.533 29.2258 100.412 29.3246 100.261 29.3246Z" fill="#B590F1"/>
<path d="M100.261 39.171H84.6819C84.5317 39.171 84.4102 39.0725 84.4102 38.9502C84.4102 38.8282 84.5317 38.7295 84.6819 38.7295H100.261C100.412 38.7295 100.533 38.8282 100.533 38.9502C100.533 39.0725 100.412 39.171 100.261 39.171Z" fill="#B590F1"/>
<path d="M100.261 32.8839H84.6819C84.5317 32.8839 84.4102 32.7851 84.4102 32.6631C84.4102 32.5409 84.5317 32.4424 84.6819 32.4424H100.261C100.412 32.4424 100.533 32.5409 100.533 32.6631C100.533 32.7851 100.412 32.8839 100.261 32.8839Z" fill="#B590F1"/>
<path d="M100.261 42.7308H84.6819C84.5317 42.7308 84.4102 42.6321 84.4102 42.5098C84.4102 42.3878 84.5317 42.2891 84.6819 42.2891H100.261C100.412 42.2891 100.533 42.3878 100.533 42.5098C100.533 42.6321 100.412 42.7308 100.261 42.7308Z" fill="#B590F1"/>
<path d="M21.0629 18.2824H8.41416C8.29206 18.2824 8.19336 18.1837 8.19336 18.0616C8.19336 17.9395 8.29206 17.8408 8.41416 17.8408H21.0629C21.185 17.8408 21.2838 17.9395 21.2838 18.0616C21.2838 18.1837 21.185 18.2824 21.0629 18.2824Z" fill="#B590F1"/>
<path d="M21.0629 20.136H8.41416C8.29206 20.136 8.19336 20.0372 8.19336 19.9151C8.19336 19.793 8.29206 19.6943 8.41416 19.6943H21.0629C21.185 19.6943 21.2838 19.793 21.2838 19.9151C21.2838 20.0372 21.185 20.136 21.0629 20.136Z" fill="#B590F1"/>
<path d="M35.555 78.7721L30.695 70.5354L29.2285 70.4844L34.0888 78.7211L35.555 78.7721Z" fill="#CBC1E7"/>
<g filter="url(#filter2_b)">
<path d="M36.9654 78.821L43.8076 79.06L38.9474 70.8232L32.1054 70.5842L30.9219 70.543L35.7819 78.7797L36.9654 78.821Z" fill="url(#paint9_linear)"/>
</g>
<path d="M35.0137 80.2871L39.8749 88.5259L41.3412 88.5771L36.4799 80.3384L35.0137 80.2871Z" fill="#CBC1E7"/>
<g filter="url(#filter3_b)">
<path d="M65.649 79.8233L60.789 71.5866L51.0723 71.2471L55.9325 79.4838L65.649 79.8233Z" fill="url(#paint10_linear)"/>
</g>
<g filter="url(#filter4_b)">
<path d="M54.7284 79.4415L49.8681 71.2045L40.1514 70.8652L45.0116 79.1022L54.7284 79.4415Z" fill="url(#paint11_linear)"/>
</g>
<g filter="url(#filter5_b)">
<path d="M28.0247 70.442L18.3066 70.1025L23.1667 78.3395L32.885 78.6788L28.0247 70.442Z" fill="url(#paint12_linear)"/>
</g>
<g filter="url(#filter6_b)">
<path d="M66.5739 81.39L56.8574 81.0508L61.7184 89.2893L71.4352 89.6288L66.5739 81.39Z" fill="url(#paint13_linear)"/>
</g>
<g filter="url(#filter7_b)">
<path d="M45.9355 80.6699L50.7968 88.9087L60.5133 89.2479L55.6523 81.0092L45.9355 80.6699Z" fill="url(#paint14_linear)"/>
</g>
<g filter="url(#filter8_b)">
<path d="M37.8898 80.3879L36.7061 80.3467L41.5673 88.5852L42.7508 88.6267L49.5931 88.8654L44.7318 80.6267L37.8898 80.3879Z" fill="url(#paint15_linear)"/>
</g>
<g filter="url(#filter9_b)">
<path d="M24.0918 79.9062L28.953 88.145L38.6712 88.4843L33.81 80.2458L24.0918 79.9062Z" fill="url(#paint16_linear)"/>
</g>
<path d="M182.171 25.8701H129.881V73.4426H182.171V25.8701Z" fill="url(#paint17_linear)"/>
<path opacity="0.7" d="M125.842 25.8701H107.038V73.4426H125.842V25.8701Z" fill="url(#paint18_linear)"/>
<g filter="url(#filter10_b)">
<path d="M123.469 29.291H109.41V40.9899H123.469V29.291Z" fill="url(#paint19_linear)"/>
</g>
<path d="M149.619 48.8145H135.561V60.5134H149.619V48.8145Z" fill="url(#paint20_linear)"/>
<path d="M166.111 48.8145H152.053V60.5134H166.111V48.8145Z" fill="url(#paint21_linear)"/>
<g opacity="0.6" filter="url(#filter11_b)">
<path d="M123.469 45.6387H109.41V57.3376H123.469V45.6387Z" fill="url(#paint22_linear)"/>
</g>
<g opacity="0.3" filter="url(#filter12_b)">
<path d="M123.47 61.3184H109.411V73.0173H123.47V61.3184Z" fill="url(#paint23_linear)"/>
</g>
<path d="M161.527 37.3516H135.561V38.6049H161.527V37.3516Z" fill="#5144AF" fill-opacity="0.53"/>
<path d="M150.054 32.8838H135.561V34.1372H150.054V32.8838Z" fill="#5144AF" fill-opacity="0.53"/>
<path d="M150.054 30.4473H135.561V31.7006H150.054V30.4473Z" fill="#5144AF" fill-opacity="0.53"/>
<path d="M173.664 42.7305H135.561V43.9839H173.664V42.7305Z" fill="#5144AF" fill-opacity="0.53"/>
<path d="M149.619 61.9844H135.561V63.8785H149.619V61.9844Z" fill="#5144AF" fill-opacity="0.53"/>
<path d="M166.111 61.9844H152.053V63.8785H166.111V61.9844Z" fill="#5144AF" fill-opacity="0.53"/>
<path d="M154.029 39.7871H135.561V41.0405H154.029V39.7871Z" fill="#5144AF" fill-opacity="0.53"/>
<path d="M154.029 45.168H135.561V46.4214H154.029V45.168Z" fill="#5144AF" fill-opacity="0.53"/>
<path d="M173.664 39.7871H155.195V41.0405H173.664V39.7871Z" fill="#5144AF" fill-opacity="0.53"/>
<path d="M165.136 45.168H155.195V46.4214H165.136V45.168Z" fill="#5144AF" fill-opacity="0.53"/>
<path d="M173.664 45.168H166.225V46.4214H173.664V45.168Z" fill="#5144AF" fill-opacity="0.53"/>
<path d="M177.9 48.8145H169.428C168.954 48.8145 168.569 49.1987 168.569 49.6727C168.569 50.1468 168.954 50.531 169.428 50.531H177.9C178.374 50.531 178.759 50.1468 178.759 49.6727C178.759 49.1987 178.374 48.8145 177.9 48.8145Z" fill="#5144AF" fill-opacity="0.53"/>
<path d="M177.9 52.1514H169.428C168.954 52.1514 168.569 52.5356 168.569 53.0097C168.569 53.4837 168.954 53.8679 169.428 53.8679H177.9C178.374 53.8679 178.759 53.4837 178.759 53.0097C178.759 52.5356 178.374 52.1514 177.9 52.1514Z" fill="#5144AF" fill-opacity="0.53"/>
<path d="M177.9 55.4883H169.428C168.954 55.4883 168.569 55.8726 168.569 56.3466C168.569 56.8206 168.954 57.2049 169.428 57.2049H177.9C178.374 57.2049 178.759 56.8206 178.759 56.3466C178.759 55.8726 178.374 55.4883 177.9 55.4883Z" fill="#5144AF" fill-opacity="0.53"/>
<path d="M177.9 58.8252H169.428C168.954 58.8252 168.569 59.2095 168.569 59.6835C168.569 60.1575 168.954 60.5418 169.428 60.5418H177.9C178.374 60.5418 178.759 60.1575 178.759 59.6835C178.759 59.2095 178.374 58.8252 177.9 58.8252Z" fill="#5144AF" fill-opacity="0.53"/>
<path d="M177.9 62.1621H169.428C168.954 62.1621 168.569 62.5464 168.569 63.0204C168.569 63.4944 168.954 63.8787 169.428 63.8787H177.9C178.374 63.8787 178.759 63.4944 178.759 63.0204C178.759 62.5464 178.374 62.1621 177.9 62.1621Z" fill="#5144AF" fill-opacity="0.53"/>
<path d="M178.846 37.557C183.258 37.557 186.835 33.9803 186.835 29.568C186.835 25.156 183.258 21.5791 178.846 21.5791C174.434 21.5791 170.857 25.156 170.857 29.568C170.857 33.9803 174.434 37.557 178.846 37.557Z" fill="url(#paint24_linear)"/>
<g opacity="0.6" filter="url(#filter13_b)">
<path d="M175.541 65.7451H138.778C137.001 65.7451 135.561 67.1856 135.561 68.9626V81.2149C135.561 82.9919 137.001 84.4324 138.778 84.4324H175.541C177.318 84.4324 178.758 82.9919 178.758 81.2149V68.9626C178.758 67.1856 177.318 65.7451 175.541 65.7451Z" fill="url(#paint25_linear)"/>
</g>
<path d="M175.299 71.8926H139.02C138.491 71.8926 138.062 72.3218 138.062 72.8512C138.062 73.3807 138.491 73.8099 139.02 73.8099H175.299C175.829 73.8099 176.258 73.3807 176.258 72.8512C176.258 72.3218 175.829 71.8926 175.299 71.8926Z" fill="#2F52AA" fill-opacity="0.71"/>
<path d="M175.299 75.0605H139.02C138.491 75.0605 138.062 75.4898 138.062 76.0192C138.062 76.5487 138.491 76.9779 139.02 76.9779H175.299C175.829 76.9779 176.258 76.5487 176.258 76.0192C176.258 75.4898 175.829 75.0605 175.299 75.0605Z" fill="#2F52AA" fill-opacity="0.71"/>
<path d="M106.461 28.3617C104.191 28.3617 102.296 26.6135 102.238 24.4645C102.21 23.4605 102.586 22.5056 103.296 21.7764C104.062 20.9885 105.115 20.5547 106.261 20.5547C108.531 20.5547 110.426 22.3029 110.484 24.452C110.511 25.4565 110.136 26.411 109.426 27.14C108.659 27.928 107.606 28.3617 106.461 28.3617ZM106.261 21.0108C105.24 21.0108 104.303 21.3956 103.623 22.0945C103 22.735 102.67 23.5719 102.694 24.452C102.745 26.3565 104.435 27.9057 106.461 27.9057C107.482 27.9057 108.419 27.521 109.099 26.822C109.722 26.182 110.052 25.3447 110.028 24.4645C109.976 22.5599 108.286 21.0108 106.261 21.0108Z" fill="#CBC1E7"/>
<path d="M106.361 26.2557C107.353 26.2557 108.158 25.4512 108.158 24.4589C108.158 23.4666 107.353 22.6621 106.361 22.6621C105.369 22.6621 104.564 23.4666 104.564 24.4589C104.564 25.4512 105.369 26.2557 106.361 26.2557Z" fill="url(#paint26_linear)"/>
<path d="M42.5866 24.6064V24.3564H42.2129L42.3554 24.7019L42.5866 24.6064ZM105.3 24.8564C105.438 24.8564 105.55 24.7445 105.55 24.6064C105.55 24.4684 105.438 24.3564 105.3 24.3564V24.8564ZM60.1926 66.5915L60.0876 66.3373L59.6254 66.528L59.7304 66.7825L60.1926 66.5915ZM59.8011 65.6438L59.5911 65.135L59.1291 65.3258L59.3391 65.8345L59.8011 65.6438ZM59.3049 64.4413L59.0946 63.9328L58.6326 64.1235L58.8426 64.6323L59.3049 64.4413ZM58.8084 63.239L58.5984 62.7303L58.1361 62.9213L58.3461 63.4298L58.8084 63.239ZM58.3119 62.0368L58.1019 61.528L57.6396 61.719L57.8499 62.2275L58.3119 62.0368ZM57.8154 60.8345L57.6054 60.3258L57.1434 60.5165L57.3534 61.0253L57.8154 60.8345ZM57.3191 59.6323L57.1091 59.1235L56.6469 59.3143L56.8569 59.823L57.3191 59.6323ZM56.8226 58.4298L56.6126 57.9213L56.1504 58.112L56.3604 58.6208L56.8226 58.4298ZM56.3261 57.2275L56.1161 56.7188L55.6541 56.9098L55.8641 57.4183L56.3261 57.2275ZM55.8299 56.0253L55.6196 55.5165L55.1576 55.7075L55.3676 56.216L55.8299 56.0253ZM55.3334 54.823L55.1234 54.3143L54.6611 54.505L54.8711 55.0138L55.3334 54.823ZM54.8369 53.6205L54.6269 53.112L54.1646 53.3028L54.3749 53.8115L54.8369 53.6205ZM54.3404 52.4183L54.1304 51.9098L53.6684 52.1005L53.8784 52.6093L54.3404 52.4183ZM53.8441 51.216L53.6341 50.7073L53.1719 50.8983L53.3819 51.4068L53.8441 51.216ZM53.3476 50.0138L53.1376 49.505L52.6754 49.6958L52.8854 50.2045L53.3476 50.0138ZM52.8511 48.8115L52.6411 48.3028L52.1791 48.4935L52.3891 49.0023L52.8511 48.8115ZM52.3549 47.609L52.1446 47.1005L51.6826 47.2913L51.8926 47.8L52.3549 47.609ZM51.8584 46.4068L51.6484 45.8982L51.1861 46.089L51.3961 46.5978L51.8584 46.4068ZM51.3619 45.2045L51.1519 44.6958L50.6896 44.8868L50.8999 45.3953L51.3619 45.2045ZM50.8654 44.0022L50.6554 43.4935L50.1934 43.6842L50.4034 44.193L50.8654 44.0022ZM50.3691 42.8L50.1591 42.2913L49.6969 42.482L49.9069 42.9908L50.3691 42.8ZM49.8726 41.5975L49.6626 41.089L49.2004 41.2797L49.4104 41.7885L49.8726 41.5975ZM49.3761 40.3953L49.1661 39.8865L48.7041 40.0775L48.9141 40.586L49.3761 40.3953ZM48.8799 39.193L48.6696 38.6842L48.2076 38.8752L48.4176 39.3837L48.8799 39.193ZM48.3834 37.9908L48.1734 37.482L47.7111 37.6727L47.9211 38.1815L48.3834 37.9908ZM47.8869 36.7885L47.6769 36.2797L47.2146 36.4705L47.4249 36.9792L47.8869 36.7885ZM47.3904 35.586L47.1804 35.0775L46.7184 35.2683L46.9284 35.777L47.3904 35.586ZM46.8941 34.3837L46.6841 33.875L46.2219 34.066L46.4319 34.5745L46.8941 34.3837ZM46.3976 33.1815L46.1876 32.6727L45.7254 32.8637L45.9354 33.3722L46.3976 33.1815ZM45.9011 31.9792L45.6911 31.4705L45.2291 31.6612L45.4391 32.17L45.9011 31.9792ZM45.4049 30.7767L45.1946 30.2682L44.7326 30.459L44.9426 30.9677L45.4049 30.7767ZM44.9084 29.5745L44.6984 29.066L44.2361 29.2567L44.4461 29.7655L44.9084 29.5745ZM44.4119 28.3722L44.2019 27.8635L43.7396 28.0545L43.9499 28.563L44.4119 28.3722ZM43.9154 27.17L43.7054 26.6612L43.2434 26.852L43.4534 27.3607L43.9154 27.17ZM43.4191 25.9677L43.2091 25.459L42.7469 25.6497L42.9569 26.1585L43.4191 25.9677ZM42.9226 24.7653L42.8176 24.511L42.3554 24.7019L42.4604 24.9562L42.9226 24.7653ZM42.5866 24.8564H42.8629V24.3564H42.5866V24.8564ZM43.6166 24.8564H44.1694V24.3564H43.6166V24.8564ZM44.9231 24.8564H45.4759V24.3564H44.9231V24.8564ZM46.2299 24.8564H46.7826V24.3564H46.2299V24.8564ZM47.5364 24.8564H48.0891V24.3564H47.5364V24.8564ZM48.8429 24.8564H49.3956V24.3564H48.8429V24.8564ZM50.1494 24.8564H50.7021V24.3564H50.1494V24.8564ZM51.4559 24.8564H52.0086V24.3564H51.4559V24.8564ZM52.7624 24.8564H53.3151V24.3564H52.7624V24.8564ZM54.0689 24.8564H54.6219V24.3564H54.0689V24.8564ZM55.3756 24.8564H55.9284V24.3564H55.3756V24.8564ZM56.6821 24.8564H57.2349V24.3564H56.6821V24.8564ZM57.9886 24.8564H58.5414V24.3564H57.9886V24.8564ZM59.2951 24.8564H59.8479V24.3564H59.2951V24.8564ZM60.6016 24.8564H61.1544V24.3564H60.6016V24.8564ZM61.9081 24.8564H62.4609V24.3564H61.9081V24.8564ZM63.2146 24.8564H63.7676V24.3564H63.2146V24.8564ZM64.5214 24.8564H65.0741V24.3564H64.5214V24.8564ZM65.8279 24.8564H66.3806V24.3564H65.8279V24.8564ZM67.1344 24.8564H67.6871V24.3564H67.1344V24.8564ZM68.4409 24.8564H68.9936V24.3564H68.4409V24.8564ZM69.7474 24.8564H70.3001V24.3564H69.7474V24.8564ZM71.0539 24.8564H71.6066V24.3564H71.0539V24.8564ZM72.3604 24.8564H72.9134V24.3564H72.3604V24.8564ZM73.6671 24.8564H74.2199V24.3564H73.6671V24.8564ZM74.9736 24.8564H75.5264V24.3564H74.9736V24.8564ZM76.2801 24.8564H76.8329V24.3564H76.2801V24.8564ZM77.5866 24.8564H78.1394V24.3564H77.5866V24.8564ZM78.8931 24.8564H79.4459V24.3564H78.8931V24.8564ZM80.1996 24.8564H80.7524V24.3564H80.1996V24.8564ZM81.5064 24.8564H82.0591V24.3564H81.5064V24.8564ZM82.8129 24.8564H83.3656V24.3564H82.8129V24.8564ZM84.1194 24.8564H84.6721V24.3564H84.1194V24.8564ZM85.4259 24.8564H85.9786V24.3564H85.4259V24.8564ZM86.7324 24.8564H87.2851V24.3564H86.7324V24.8564ZM88.0389 24.8564H88.5916V24.3564H88.0389V24.8564ZM89.3454 24.8564H89.8981V24.3564H89.3454V24.8564ZM90.6521 24.8564H91.2049V24.3564H90.6521V24.8564ZM91.9586 24.8564H92.5114V24.3564H91.9586V24.8564ZM93.2651 24.8564H93.8179V24.3564H93.2651V24.8564ZM94.5716 24.8564H95.1244V24.3564H94.5716V24.8564ZM95.8781 24.8564H96.4309V24.3564H95.8781V24.8564ZM97.1846 24.8564H97.7374V24.3564H97.1846V24.8564ZM98.4911 24.8564H99.0441V24.3564H98.4911V24.8564ZM99.7979 24.8564H100.351V24.3564H99.7979V24.8564ZM101.104 24.8564H101.657V24.3564H101.104V24.8564ZM102.411 24.8564H102.964V24.3564H102.411V24.8564ZM103.717 24.8564H104.27V24.3564H103.717V24.8564ZM105.024 24.8564H105.3V24.3564H105.024V24.8564Z" fill="url(#paint27_linear)"/>
<path d="M178.847 33.2098C179.572 33.2098 180.161 32.6213 180.161 31.8954C180.161 31.1695 179.572 30.5811 178.847 30.5811C178.121 30.5811 177.532 31.1695 177.532 31.8954C177.532 32.6213 178.121 33.2098 178.847 33.2098Z" fill="url(#paint28_linear)"/>
<path d="M177.787 27.638V28.742C177.787 28.742 176.227 29.5367 176.227 30.5172V31.9837C176.227 32.151 176.362 32.2865 176.529 32.2865L181.165 32.2862C181.332 32.2862 181.468 32.1507 181.468 31.9835V30.517C181.468 29.5365 179.908 28.7417 179.908 28.7417V27.6377C179.908 26.5915 177.787 26.546 177.787 27.638Z" fill="url(#paint29_linear)"/>
<path d="M179.376 26.8182C179.376 26.526 179.139 26.2891 178.847 26.2891C178.554 26.2891 178.317 26.526 178.317 26.8182V27.0994C178.317 27.3916 178.554 27.6285 178.847 27.6285C179.139 27.6285 179.376 27.3916 179.376 27.0994V26.8182Z" fill="#4405AA"/>
<defs>
<filter id="filter0_b" x="165.548" y="100.066" width="22.1524" height="8.14336" filterUnits="userSpaceOnUse" color-interpolation-filters="sRGB">
<feFlood flood-opacity="0" result="BackgroundImageFix"/>
<feGaussianBlur in="BackgroundImage" stdDeviation="1.40297"/>
<feComposite in2="SourceAlpha" operator="in" result="effect1_backgroundBlur"/>
<feBlend mode="normal" in="SourceGraphic" in2="effect1_backgroundBlur" result="shape"/>
</filter>
<filter id="filter1_b" x="14.0534" y="42.0974" width="88.6153" height="53.1311" filterUnits="userSpaceOnUse" color-interpolation-filters="sRGB">
<feFlood flood-opacity="0" result="BackgroundImageFix"/>
<feGaussianBlur in="BackgroundImage" stdDeviation="1.40297"/>
<feComposite in2="SourceAlpha" operator="in" result="effect1_backgroundBlur"/>
<feBlend mode="normal" in="SourceGraphic" in2="effect1_backgroundBlur" result="shape"/>
</filter>
<filter id="filter2_b" x="28.1159" y="67.737" width="18.4976" height="14.1289" filterUnits="userSpaceOnUse" color-interpolation-filters="sRGB">
<feFlood flood-opacity="0" result="BackgroundImageFix"/>
<feGaussianBlur in="BackgroundImage" stdDeviation="1.40297"/>
<feComposite in2="SourceAlpha" operator="in" result="effect1_backgroundBlur"/>
<feBlend mode="normal" in="SourceGraphic" in2="effect1_backgroundBlur" result="shape"/>
</filter>
<filter id="filter3_b" x="48.2663" y="68.4411" width="20.1886" height="14.1881" filterUnits="userSpaceOnUse" color-interpolation-filters="sRGB">
<feFlood flood-opacity="0" result="BackgroundImageFix"/>
<feGaussianBlur in="BackgroundImage" stdDeviation="1.40297"/>
<feComposite in2="SourceAlpha" operator="in" result="effect1_backgroundBlur"/>
<feBlend mode="normal" in="SourceGraphic" in2="effect1_backgroundBlur" result="shape"/>
</filter>
<filter id="filter4_b" x="37.3454" y="68.0593" width="20.1889" height="14.1881" filterUnits="userSpaceOnUse" color-interpolation-filters="sRGB">
<feFlood flood-opacity="0" result="BackgroundImageFix"/>
<feGaussianBlur in="BackgroundImage" stdDeviation="1.40297"/>
<feComposite in2="SourceAlpha" operator="in" result="effect1_backgroundBlur"/>
<feBlend mode="normal" in="SourceGraphic" in2="effect1_backgroundBlur" result="shape"/>
</filter>
<filter id="filter5_b" x="15.5007" y="67.2966" width="20.1902" height="14.1881" filterUnits="userSpaceOnUse" color-interpolation-filters="sRGB">
<feFlood flood-opacity="0" result="BackgroundImageFix"/>
<feGaussianBlur in="BackgroundImage" stdDeviation="1.40297"/>
<feComposite in2="SourceAlpha" operator="in" result="effect1_backgroundBlur"/>
<feBlend mode="normal" in="SourceGraphic" in2="effect1_backgroundBlur" result="shape"/>
</filter>
<filter id="filter6_b" x="54.0515" y="78.2448" width="20.1896" height="14.1899" filterUnits="userSpaceOnUse" color-interpolation-filters="sRGB">
<feFlood flood-opacity="0" result="BackgroundImageFix"/>
<feGaussianBlur in="BackgroundImage" stdDeviation="1.40297"/>
<feComposite in2="SourceAlpha" operator="in" result="effect1_backgroundBlur"/>
<feBlend mode="normal" in="SourceGraphic" in2="effect1_backgroundBlur" result="shape"/>
</filter>
<filter id="filter7_b" x="43.1296" y="77.864" width="20.1896" height="14.1899" filterUnits="userSpaceOnUse" color-interpolation-filters="sRGB">
<feFlood flood-opacity="0" result="BackgroundImageFix"/>
<feGaussianBlur in="BackgroundImage" stdDeviation="1.40297"/>
<feComposite in2="SourceAlpha" operator="in" result="effect1_backgroundBlur"/>
<feBlend mode="normal" in="SourceGraphic" in2="effect1_backgroundBlur" result="shape"/>
</filter>
<filter id="filter8_b" x="33.9001" y="77.5407" width="18.4989" height="14.1306" filterUnits="userSpaceOnUse" color-interpolation-filters="sRGB">
<feFlood flood-opacity="0" result="BackgroundImageFix"/>
<feGaussianBlur in="BackgroundImage" stdDeviation="1.40297"/>
<feComposite in2="SourceAlpha" operator="in" result="effect1_backgroundBlur"/>
<feBlend mode="normal" in="SourceGraphic" in2="effect1_backgroundBlur" result="shape"/>
</filter>
<filter id="filter9_b" x="21.2859" y="77.1003" width="20.1913" height="14.1899" filterUnits="userSpaceOnUse" color-interpolation-filters="sRGB">
<feFlood flood-opacity="0" result="BackgroundImageFix"/>
<feGaussianBlur in="BackgroundImage" stdDeviation="1.40297"/>
<feComposite in2="SourceAlpha" operator="in" result="effect1_backgroundBlur"/>
<feBlend mode="normal" in="SourceGraphic" in2="effect1_backgroundBlur" result="shape"/>
</filter>
<filter id="filter10_b" x="106.604" y="26.4851" width="19.6703" height="17.3108" filterUnits="userSpaceOnUse" color-interpolation-filters="sRGB">
<feFlood flood-opacity="0" result="BackgroundImageFix"/>
<feGaussianBlur in="BackgroundImage" stdDeviation="1.40297"/>
<feComposite in2="SourceAlpha" operator="in" result="effect1_backgroundBlur"/>
<feBlend mode="normal" in="SourceGraphic" in2="effect1_backgroundBlur" result="shape"/>
</filter>
<filter id="filter11_b" x="106.604" y="42.8327" width="19.6703" height="17.3108" filterUnits="userSpaceOnUse" color-interpolation-filters="sRGB">
<feFlood flood-opacity="0" result="BackgroundImageFix"/>
<feGaussianBlur in="BackgroundImage" stdDeviation="1.40297"/>
<feComposite in2="SourceAlpha" operator="in" result="effect1_backgroundBlur"/>
<feBlend mode="normal" in="SourceGraphic" in2="effect1_backgroundBlur" result="shape"/>
</filter>
<filter id="filter12_b" x="106.605" y="58.5124" width="19.6703" height="17.3108" filterUnits="userSpaceOnUse" color-interpolation-filters="sRGB">
<feFlood flood-opacity="0" result="BackgroundImageFix"/>
<feGaussianBlur in="BackgroundImage" stdDeviation="1.40297"/>
<feComposite in2="SourceAlpha" operator="in" result="effect1_backgroundBlur"/>
<feBlend mode="normal" in="SourceGraphic" in2="effect1_backgroundBlur" result="shape"/>
</filter>
<filter id="filter13_b" x="132.755" y="62.9392" width="48.8094" height="24.2991" filterUnits="userSpaceOnUse" color-interpolation-filters="sRGB">
<feFlood flood-opacity="0" result="BackgroundImageFix"/>
<feGaussianBlur in="BackgroundImage" stdDeviation="1.40297"/>
<feComposite in2="SourceAlpha" operator="in" result="effect1_backgroundBlur"/>
<feBlend mode="normal" in="SourceGraphic" in2="effect1_backgroundBlur" result="shape"/>
</filter>
<linearGradient id="paint0_linear" x1="17.083" y1="108.062" x2="17.083" y2="112.537" gradientUnits="userSpaceOnUse">
<stop stop-color="#9EE1EC"/>
<stop offset="1" stop-color="#E5A7E0"/>
</linearGradient>
<linearGradient id="paint1_linear" x1="178.57" y1="105.384" x2="178.402" y2="108.321" gradientUnits="userSpaceOnUse">
<stop stop-color="#4316DB"/>
<stop offset="1" stop-color="#9076E7"/>
</linearGradient>
<linearGradient id="paint2_linear" x1="176.624" y1="102.872" x2="178.102" y2="107.096" gradientUnits="userSpaceOnUse">
<stop stop-color="#B5CDFB"/>
<stop offset="1" stop-color="#DCB5FB"/>
</linearGradient>
<linearGradient id="paint3_linear" x1="170.857" y1="100.506" x2="173.061" y2="107.45" gradientUnits="userSpaceOnUse">
<stop stop-color="#14F1D9"/>
<stop offset="1" stop-color="#3672F8"/>
</linearGradient>
<linearGradient id="paint4_linear" x1="7.02539" y1="49.2189" x2="14.1932" y2="76.4641" gradientUnits="userSpaceOnUse">
<stop stop-color="#844EFF"/>
<stop offset="1" stop-color="#88F8FF"/>
</linearGradient>
<linearGradient id="paint5_linear" x1="59.124" y1="61.3937" x2="102.339" y2="86.3131" gradientUnits="userSpaceOnUse">
<stop stop-color="#844EFF"/>
<stop offset="1" stop-color="#88F8FF"/>
</linearGradient>
<linearGradient id="paint6_linear" x1="84.7324" y1="62.2871" x2="112.564" y2="71.018" gradientUnits="userSpaceOnUse">
<stop stop-color="#844EFF"/>
<stop offset="1" stop-color="#88F8FF"/>
</linearGradient>
<linearGradient id="paint7_linear" x1="12.1758" y1="59.7246" x2="27.1323" y2="71.3468" gradientUnits="userSpaceOnUse">
<stop stop-color="#844EFF"/>
<stop offset="1" stop-color="#88F8FF"/>
</linearGradient>
<linearGradient id="paint8_linear" x1="172.125" y1="90.0004" x2="46.9991" y2="183.125" gradientUnits="userSpaceOnUse">
<stop stop-color="#72ADE3"/>
<stop offset="1" stop-color="#042E55"/>
</linearGradient>
<linearGradient id="paint9_linear" x1="37.3647" y1="70.543" x2="44.7061" y2="75.4003" gradientUnits="userSpaceOnUse">
<stop stop-color="#B5CDFB"/>
<stop offset="1" stop-color="#DCB5FB"/>
</linearGradient>
<linearGradient id="paint10_linear" x1="58.3606" y1="71.2471" x2="66.0517" y2="76.9638" gradientUnits="userSpaceOnUse">
<stop stop-color="#B5CDFB"/>
<stop offset="1" stop-color="#DCB5FB"/>
</linearGradient>
<linearGradient id="paint11_linear" x1="47.4399" y1="70.8652" x2="55.1309" y2="76.5821" gradientUnits="userSpaceOnUse">
<stop stop-color="#B5CDFB"/>
<stop offset="1" stop-color="#DCB5FB"/>
</linearGradient>
<linearGradient id="paint12_linear" x1="25.5958" y1="70.1025" x2="33.2871" y2="75.8201" gradientUnits="userSpaceOnUse">
<stop stop-color="#B5CDFB"/>
<stop offset="1" stop-color="#DCB5FB"/>
</linearGradient>
<linearGradient id="paint13_linear" x1="64.1463" y1="81.0508" x2="71.8386" y2="86.7677" gradientUnits="userSpaceOnUse">
<stop stop-color="#B5CDFB"/>
<stop offset="1" stop-color="#DCB5FB"/>
</linearGradient>
<linearGradient id="paint14_linear" x1="53.2244" y1="80.6699" x2="60.9167" y2="86.3868" gradientUnits="userSpaceOnUse">
<stop stop-color="#B5CDFB"/>
<stop offset="1" stop-color="#DCB5FB"/>
</linearGradient>
<linearGradient id="paint15_linear" x1="43.1496" y1="80.3467" x2="50.4921" y2="85.2042" gradientUnits="userSpaceOnUse">
<stop stop-color="#B5CDFB"/>
<stop offset="1" stop-color="#DCB5FB"/>
</linearGradient>
<linearGradient id="paint16_linear" x1="31.3815" y1="79.9062" x2="39.0741" y2="85.624" gradientUnits="userSpaceOnUse">
<stop stop-color="#B5CDFB"/>
<stop offset="1" stop-color="#DCB5FB"/>
</linearGradient>
<linearGradient id="paint17_linear" x1="129.881" y1="25.9448" x2="191.278" y2="52.3064" gradientUnits="userSpaceOnUse">
<stop stop-color="#844EFF"/>
<stop offset="1" stop-color="#88F8FF"/>
</linearGradient>
<linearGradient id="paint18_linear" x1="116.44" y1="25.8701" x2="116.44" y2="73.4426" gradientUnits="userSpaceOnUse">
<stop stop-color="#412494" stop-opacity="0"/>
<stop offset="1" stop-color="#412494"/>
</linearGradient>
<linearGradient id="paint19_linear" x1="116.439" y1="29.291" x2="125.463" y2="34.0331" gradientUnits="userSpaceOnUse">
<stop stop-color="#B5CDFB"/>
<stop offset="1" stop-color="#DCB5FB"/>
</linearGradient>
<linearGradient id="paint20_linear" x1="142.593" y1="48.8145" x2="138.739" y2="61.2384" gradientUnits="userSpaceOnUse">
<stop stop-color="#4316DB"/>
<stop offset="1" stop-color="#9076E7"/>
</linearGradient>
<linearGradient id="paint21_linear" x1="159.085" y1="48.8145" x2="155.232" y2="61.2384" gradientUnits="userSpaceOnUse">
<stop stop-color="#4316DB"/>
<stop offset="1" stop-color="#9076E7"/>
</linearGradient>
<linearGradient id="paint22_linear" x1="116.439" y1="45.6387" x2="125.463" y2="50.3808" gradientUnits="userSpaceOnUse">
<stop stop-color="#B5CDFB"/>
<stop offset="1" stop-color="#DCB5FB"/>
</linearGradient>
<linearGradient id="paint23_linear" x1="116.44" y1="61.3184" x2="125.464" y2="66.0605" gradientUnits="userSpaceOnUse">
<stop stop-color="#B5CDFB"/>
<stop offset="1" stop-color="#DCB5FB"/>
</linearGradient>
<linearGradient id="paint24_linear" x1="170.857" y1="21.5791" x2="170.857" y2="37.557" gradientUnits="userSpaceOnUse">
<stop stop-color="#9EE1EC"/>
<stop offset="1" stop-color="#E5A7E0"/>
</linearGradient>
<linearGradient id="paint25_linear" x1="157.159" y1="65.7451" x2="174.66" y2="83.4362" gradientUnits="userSpaceOnUse">
<stop stop-color="#B5CDFB"/>
<stop offset="1" stop-color="#DCB5FB"/>
</linearGradient>
<linearGradient id="paint26_linear" x1="106.362" y1="22.6621" x2="104.993" y2="26.3353" gradientUnits="userSpaceOnUse">
<stop stop-color="#4316DB"/>
<stop offset="1" stop-color="#9076E7"/>
</linearGradient>
<linearGradient id="paint27_linear" x1="42.2129" y1="26.6899" x2="102.944" y2="70.4034" gradientUnits="userSpaceOnUse">
<stop stop-color="#14F1D9"/>
<stop offset="1" stop-color="#3672F8"/>
</linearGradient>
<linearGradient id="paint28_linear" x1="177.532" y1="30.7256" x2="180.637" y2="32.2225" gradientUnits="userSpaceOnUse">
<stop stop-color="#14F1D9"/>
<stop offset="1" stop-color="#3672F8"/>
</linearGradient>
<linearGradient id="paint29_linear" x1="178.848" y1="26.8359" x2="176.71" y2="32.3524" gradientUnits="userSpaceOnUse">
<stop stop-color="#4316DB"/>
<stop offset="1" stop-color="#9076E7"/>
</linearGradient>
</defs>
</svg>
