<svg width="200" height="150" viewBox="0 0 200 150" fill="none" xmlns="http://www.w3.org/2000/svg">
<path d="M141.512 97.407C174.595 97.959 186.513 132.142 189.016 106.209C191.435 81.1452 160.818 23.5931 135.806 20.6842C113.706 18.114 119.861 37.1045 94.8335 46.069C69.806 55.0335 52.7728 26.4382 36.0765 42.2487C22.677 54.9375 39.139 64.7235 22.208 101.805C14.1396 119.476 48.1498 140.813 74.8448 135.903C113.07 128.874 108.429 96.855 141.512 97.407Z" fill="url(#paint0_linear)"/>
<path fill-rule="evenodd" clip-rule="evenodd" d="M88.0234 131.73C98.0629 127.158 104.015 120.389 109.578 114.063C117.438 105.125 124.521 97.0711 141.254 97.3504C157.105 97.6149 168.097 105.599 175.523 110.994C183.596 116.858 187.454 119.66 188.758 106.153C191.177 81.0886 160.56 23.5364 135.548 20.6276C123.707 19.2504 119.977 24.0634 115.216 30.2074C113.154 32.8684 110.898 35.7794 107.706 38.5451C131.009 40.7026 154.27 49.3449 149.192 68.7346C144.788 85.5521 132.721 90.2234 121.751 94.4704C120.385 94.9989 119.036 95.5211 117.721 96.0594C106.344 100.716 95.2854 105.242 91.2412 121.739C90.3309 125.451 89.2427 128.769 88.0234 131.73Z" fill="url(#paint1_linear)"/>
<path fill-rule="evenodd" clip-rule="evenodd" d="M79.8492 15.2363L78.9769 16.0495L80.3549 16.2835L91.0019 38.3008L73.9717 53.5255L74.7032 54.7948L108.176 60.6133L124.295 43.2305L113.333 20.8212L79.8829 15.2429L79.8492 15.2363Z" fill="#5F54E1"/>
<path fill-rule="evenodd" clip-rule="evenodd" d="M79.8492 15.2363L78.9769 16.0495L80.3549 16.2835L91.0019 38.3008L73.9717 53.5255L74.7032 54.7948L108.176 60.6133L124.295 43.2305L113.333 20.8212L79.8829 15.2429L79.8492 15.2363Z" fill="url(#paint2_linear)"/>
<path d="M74.0508 53.5711L89.441 37.1523L122.925 42.7363L107.535 59.1548L74.0508 53.5711Z" fill="url(#paint3_linear)"/>
<path d="M78.9727 16.043L89.4409 37.1534L122.925 42.7372L112.456 21.6269L78.9727 16.043Z" fill="#AF91FF"/>
<path d="M81.1084 17.3398L90.5592 36.3986L120.788 41.4396L111.338 22.381L81.1084 17.3398Z" fill="#D6C8FF"/>
<path fill-rule="evenodd" clip-rule="evenodd" d="M89.1706 41.9709L88.2441 41.8149L89.1311 41.0039L90.0576 41.1599L89.1706 41.9709ZM92.5851 42.6067L90.7324 42.2947L91.9104 41.4719L93.7634 41.7839L92.5851 42.6067ZM96.1826 43.2352L94.3299 42.9232L95.6161 42.0959L97.4689 42.4077L96.1826 43.2352ZM99.8884 43.8589L98.0356 43.5469L99.3219 42.7197L101.175 43.0317L99.8884 43.8589ZM103.774 44.4757L101.921 44.1637L103.028 43.3437L104.88 43.6557L103.774 44.4757ZM107.552 45.0967L105.699 44.7847L106.733 43.9677L108.586 44.2794L107.552 45.0967ZM111.15 45.7249L109.297 45.4129L110.439 44.5914L112.292 44.9034L111.15 45.7249ZM114.189 46.2964L113.262 46.1404L114.145 45.2154L115.071 45.3714C116.477 45.6079 115.238 46.4732 114.189 46.2964Z" fill="#5735B3"/>
<path fill-rule="evenodd" clip-rule="evenodd" d="M86.8425 44.219L85.916 44.063L86.8033 43.252L87.7295 43.408L86.8425 44.219ZM90.2573 44.8547L88.4043 44.5427L89.5825 43.72L91.4353 44.032L90.2573 44.8547ZM93.8548 45.4832L92.002 45.1712L93.2883 44.344L95.141 44.6557L93.8548 45.4832ZM97.5605 46.107L95.7075 45.795L96.9938 44.9677L98.8468 45.2797L97.5605 46.107ZM101.446 46.7237L99.5935 46.4117L100.7 45.5917L102.553 45.9037L101.446 46.7237ZM105.224 47.3445L103.371 47.0327L104.405 46.2157L106.258 46.5275L105.224 47.3445ZM108.822 47.973L106.969 47.661L108.111 46.8395L109.964 47.1515L108.822 47.973ZM111.861 48.5445L110.934 48.3885L111.817 47.4635L112.743 47.6195C114.149 47.856 112.91 48.7212 111.861 48.5445Z" fill="#5735B3"/>
<path fill-rule="evenodd" clip-rule="evenodd" d="M84.5134 46.467L83.5869 46.311L84.4739 45.5L85.4004 45.656L84.5134 46.467ZM87.9279 47.1027L86.0752 46.7908L87.2532 45.9678L89.1062 46.2798L87.9279 47.1027ZM91.5257 47.731L89.6727 47.419L90.9589 46.5918L92.8119 46.9038L91.5257 47.731ZM95.2312 48.355L93.3784 48.043L94.6647 47.2158L96.5177 47.5278L95.2312 48.355ZM99.1172 48.9715L97.2644 48.6595L98.3704 47.8398L100.223 48.1515L99.1172 48.9715ZM102.895 49.5925L101.042 49.2805L102.076 48.4635L103.929 48.7755L102.895 49.5925ZM106.493 50.2207L104.64 49.909L105.782 49.0875L107.635 49.3995L106.493 50.2207ZM109.532 50.7925L108.605 50.6365L109.488 49.7115L110.414 49.8672C111.819 50.104 110.581 50.9692 109.532 50.7925Z" fill="#5735B3"/>
<path fill-rule="evenodd" clip-rule="evenodd" d="M82.185 48.717L81.2588 48.5613L82.1458 47.75L83.072 47.906L82.185 48.717ZM85.5998 49.353L83.7468 49.041L84.925 48.218L86.7778 48.53L85.5998 49.353ZM89.1973 49.9813L87.3445 49.6693L88.6308 48.842L90.4835 49.154L89.1973 49.9813ZM92.903 50.605L91.0503 50.2933L92.3365 49.4658L94.1893 49.7778L92.903 50.605ZM96.789 51.2218L94.936 50.9098L96.042 50.0898L97.895 50.4018L96.789 51.2218ZM100.567 51.8428L98.7138 51.5308L99.7478 50.7138L101.601 51.0258L100.567 51.8428ZM104.164 52.471L102.312 52.159L103.454 51.3378L105.307 51.6495L104.164 52.471ZM107.203 53.0428L106.277 52.8868L107.159 51.9615L108.086 52.1175C109.491 52.3543 108.253 53.2193 107.203 53.0428Z" fill="#5735B3"/>
<path fill-rule="evenodd" clip-rule="evenodd" d="M89.1706 42.2834L88.2441 42.1274L89.1311 41.3164L90.0576 41.4724L89.1706 42.2834ZM92.5851 42.9192L90.7324 42.6074L91.9104 41.7844L93.7634 42.0964L92.5851 42.9192ZM96.1826 43.5477L94.3299 43.2357L95.6161 42.4084L97.4689 42.7204L96.1826 43.5477ZM99.8884 44.1714L98.0356 43.8597L99.3219 43.0322L101.175 43.3442L99.8884 44.1714ZM103.774 44.7882L101.921 44.4762L103.028 43.6562L104.88 43.9682L103.774 44.7882ZM107.552 45.4092L105.699 45.0972L106.733 44.2802L108.586 44.5922L107.552 45.4092ZM111.15 46.0374L109.297 45.7254L110.439 44.9039L112.292 45.2159L111.15 46.0374ZM114.189 46.6089L113.262 46.4532L114.145 45.5279L115.071 45.6839C116.477 45.9207 115.238 46.7857 114.189 46.6089Z" fill="#DBCDFF"/>
<path fill-rule="evenodd" clip-rule="evenodd" d="M86.8425 44.5315L85.916 44.3755L86.8033 43.5645L87.7295 43.7205L86.8425 44.5315ZM90.2573 45.1672L88.4043 44.8555L89.5825 44.0325L91.4353 44.3445L90.2573 45.1672ZM93.8548 45.7957L92.002 45.4837L93.2883 44.6565L95.141 44.9682L93.8548 45.7957ZM97.5605 46.4195L95.7075 46.1075L96.9938 45.2802L98.8468 45.5922L97.5605 46.4195ZM101.446 47.0362L99.5935 46.7242L100.7 45.9042L102.553 46.2162L101.446 47.0362ZM105.224 47.6572L103.371 47.3452L104.405 46.5282L106.258 46.84L105.224 47.6572ZM108.822 48.2855L106.969 47.9735L108.111 47.152L109.964 47.464L108.822 48.2855ZM111.861 48.857L110.934 48.701L111.817 47.776L112.743 47.932C114.149 48.1685 112.91 49.0337 111.861 48.857Z" fill="#DBCDFF"/>
<path fill-rule="evenodd" clip-rule="evenodd" d="M84.5134 46.7795L83.5869 46.6235L84.4739 45.8125L85.4004 45.9685L84.5134 46.7795ZM87.9279 47.4153L86.0752 47.1033L87.2532 46.2805L89.1062 46.5923L87.9279 47.4153ZM91.5257 48.0435L89.6727 47.7315L90.9589 46.9043L92.8119 47.2163L91.5257 48.0435ZM95.2312 48.6675L93.3784 48.3555L94.6647 47.5283L96.5177 47.8403L95.2312 48.6675ZM99.1172 49.284L97.2644 48.972L98.3704 48.1523L100.223 48.464L99.1172 49.284ZM102.895 49.905L101.042 49.593L102.076 48.776L103.929 49.088L102.895 49.905ZM106.493 50.5333L104.64 50.2215L105.782 49.4L107.635 49.712L106.493 50.5333ZM109.532 51.105L108.605 50.949L109.488 50.024L110.414 50.18C111.819 50.4165 110.581 51.2818 109.532 51.105Z" fill="#DBCDFF"/>
<path fill-rule="evenodd" clip-rule="evenodd" d="M82.185 49.0275L81.2588 48.8715L82.1458 48.0605L83.072 48.2163L82.185 49.0275ZM85.5998 49.6633L83.7468 49.3513L84.925 48.5283L86.7778 48.8403L85.5998 49.6633ZM89.1973 50.2916L87.3445 49.9796L88.6308 49.1523L90.4835 49.4643L89.1973 50.2916ZM92.903 50.9155L91.0503 50.6035L92.3365 49.7763L94.1893 50.088L92.903 50.9155ZM96.789 51.532L94.936 51.22L96.042 50.4L97.895 50.712L96.789 51.532ZM100.567 52.1531L98.7138 51.8411L99.7478 51.024L101.601 51.336L100.567 52.1531ZM104.164 52.7813L102.312 52.4693L103.454 51.648L105.307 51.9598L104.164 52.7813ZM107.203 53.353L106.277 53.1971L107.159 52.2718L108.086 52.4278C109.491 52.6646 108.253 53.5298 107.203 53.353Z" fill="#DBCDFF"/>
<path fill-rule="evenodd" clip-rule="evenodd" d="M113.676 24.0873L111.736 23.781C109.938 23.4972 110.628 26.7855 113.888 27.175C114.266 27.2202 114.749 27.2895 115.308 27.3767L113.676 24.0873ZM116.48 29.7422L114.51 29.4312C112.712 29.1475 113.402 32.4357 116.661 32.8252C117.047 32.8712 117.541 32.9422 118.112 33.0317L116.48 29.7422ZM119.285 35.397L117.283 35.081C115.486 34.7972 116.175 38.0857 119.435 38.475C119.827 38.522 120.332 38.5947 120.916 38.6865L119.285 35.397Z" fill="#544BBE"/>
<path fill-rule="evenodd" clip-rule="evenodd" d="M87.2196 32.6725L99.1271 34.8152L98.3654 32.938L86.3539 30.9265L87.2196 32.6725ZM85.2426 28.6857L97.5229 30.8955L96.7611 29.0185L84.3796 26.945L85.2426 28.6857ZM83.4336 25.0377C87.2186 25.7352 90.9959 26.4825 90.9959 26.4825C94.4026 27.0205 92.8166 23.4003 90.5376 23.0405L81.7559 21.6543L83.4336 25.0377Z" fill="#544BBE"/>
<path d="M72.8408 21.5447L88.8043 24.0646C91.0831 24.4244 92.6693 28.0444 89.2626 27.5066C89.2626 27.5066 78.2521 25.3281 74.9923 24.9387C71.7328 24.5493 71.0428 21.2609 72.8408 21.5447Z" fill="#5F54E1"/>
<path d="M109.081 24.6169L125.045 27.1369C127.323 27.4966 128.91 31.1166 125.503 30.5789C125.503 30.5789 114.492 28.4004 111.233 28.0109C107.973 27.6216 107.283 24.3332 109.081 24.6169Z" fill="#5F54E1"/>
<path d="M111.854 30.2673L127.818 32.7873C130.097 33.1471 131.683 36.7673 128.276 36.2293C128.276 36.2293 117.266 34.0508 114.006 33.6613C110.746 33.2721 110.057 29.9836 111.854 30.2673Z" fill="#5F54E1"/>
<path d="M114.629 35.9177L130.593 38.4377C132.871 38.7975 134.458 42.4175 131.051 41.8797C131.051 41.8797 120.04 39.7012 116.781 39.3117C113.521 38.9222 112.831 35.634 114.629 35.9177Z" fill="#5F54E1"/>
<path d="M80.5879 27.625L95.0279 30.043L95.7896 31.9203L81.5194 29.3522L80.5879 27.625Z" fill="#5F54E1"/>
<path d="M82.1914 31.543L96.6314 33.9612L97.3932 35.8382L83.1229 33.2702L82.1914 31.543Z" fill="#5F54E1"/>
<path opacity="0.9" d="M100.85 12.376L85.9893 9.88477L92.1305 23.4419L106.76 26.02L100.85 12.376Z" fill="#CEB3FA" fill-opacity="0.38"/>
<path d="M89.875 12.9219L99.1748 14.4857L99.6905 15.694L90.4048 14.0487L89.875 12.9219Z" fill="#544BBE"/>
<path d="M91.0176 15.4609L100.266 17.0065L100.755 18.2086L91.5478 16.553L91.0176 15.4609Z" fill="#544BBE"/>
<path d="M92.0654 17.7285L101.222 19.267L101.742 20.4849L92.5682 18.8244L92.0654 17.7285Z" fill="#544BBE"/>
<path d="M93.207 20.2539L102.335 21.8081L102.876 22.9844L93.7308 21.3959L93.207 20.2539Z" fill="#544BBE"/>
<path d="M89.3457 13.7012L98.6452 15.265L99.1612 16.4733L89.8755 14.828L89.3457 13.7012Z" fill="#5F54E1"/>
<path d="M90.4883 16.2422L99.736 17.7878L100.226 18.9899L91.0185 17.3342L90.4883 16.2422Z" fill="#5F54E1"/>
<path d="M91.5361 18.5078L100.693 20.0463L101.213 21.2641L92.0389 19.6037L91.5361 18.5078Z" fill="#5F54E1"/>
<path d="M92.6777 21.0332L101.805 22.5874L102.346 23.7637L93.2015 22.1752L92.6777 21.0332Z" fill="#5F54E1"/>
<path d="M120.772 32.6751C120.724 32.6253 120.645 32.6238 120.595 32.6716C120.545 32.7196 120.544 32.7986 120.591 32.8483L120.772 32.6751ZM121.485 33.5976L121.553 33.7023L121.68 33.6201L121.575 33.5108L121.485 33.5976ZM120.705 33.9543C120.647 33.9921 120.63 34.0693 120.668 34.1273C120.706 34.1853 120.783 34.2018 120.841 34.1641L120.705 33.9543ZM120.591 32.8483L121.394 33.6841L121.575 33.5108L120.772 32.6751L120.591 32.8483ZM121.417 33.4926L120.705 33.9543L120.841 34.1641L121.553 33.7023L121.417 33.4926Z" fill="#E8ECFA"/>
<path d="M118.473 32.474C118.516 32.4205 118.595 32.4122 118.649 32.4555C118.702 32.499 118.711 32.5777 118.667 32.6315L118.473 32.474ZM118.053 33.1917L117.978 33.2925L117.873 33.2147L117.955 33.113L118.053 33.1917ZM118.795 33.5832C118.851 33.624 118.863 33.7022 118.822 33.758C118.781 33.8135 118.703 33.8255 118.647 33.7845L118.795 33.5832ZM118.667 32.6315L118.15 33.2705L117.955 33.113L118.473 32.474L118.667 32.6315ZM118.127 33.091L118.795 33.5832L118.647 33.7845L117.978 33.2925L118.127 33.091Z" fill="url(#paint4_linear)"/>
<path d="M154.093 12.9108L144.688 15.1484L145.081 16.8037L154.487 14.566L154.093 12.9108Z" fill="#5F54E1"/>
<path d="M179.238 10.0363L145.387 18.0898L145.781 19.7451L179.631 11.6915L179.238 10.0363Z" fill="#5F54E1"/>
<path d="M179.938 12.9777L146.087 21.0312L146.481 22.6865L180.331 14.633L179.938 12.9777Z" fill="#5F54E1"/>
<path d="M156.892 24.6744L147.486 26.9121L147.88 28.5674L157.286 26.3297L156.892 24.6744Z" fill="#5F54E1"/>
<path d="M166.618 25.4662L148.186 29.8516L148.579 31.5068L167.012 27.1215L166.618 25.4662Z" fill="#5F54E1"/>
<path d="M158.991 33.4967L149.586 35.7344L149.98 37.3896L159.385 35.1519L158.991 33.4967Z" fill="#5F54E1"/>
<path d="M168.717 34.2905L150.285 38.6758L150.679 40.331L169.111 35.9458L168.717 34.2905Z" fill="#5F54E1"/>
<path d="M161.091 42.319L151.686 44.5566L152.079 46.2119L161.485 43.9742L161.091 42.319Z" fill="#5F54E1"/>
<path d="M186.234 39.4429L152.385 47.4961L152.779 49.1513L186.628 41.0982L186.234 39.4429Z" fill="#5F54E1"/>
<path d="M186.934 42.3844L153.085 50.4375L153.479 52.0928L187.328 44.0397L186.934 42.3844Z" fill="#5F54E1"/>
<path d="M29.6122 11.8368L19.9941 10.8555L19.8214 12.5481L29.4395 13.5295L29.6122 11.8368Z" fill="#5F54E1"/>
<path d="M52.2248 17.183L19.6875 13.8633L19.5148 15.5559L52.0521 18.8757L52.2248 17.183Z" fill="#5F54E1"/>
<path d="M51.9182 20.1908L19.3809 16.8711L19.2082 18.5638L51.7455 21.8835L51.9182 20.1908Z" fill="#5F54E1"/>
<path d="M28.3856 23.8661L18.7676 22.8848L18.5949 24.5774L28.2129 25.5588L28.3856 23.8661Z" fill="#5F54E1"/>
<path d="M41.0164 28.1939L18.4609 25.8926L18.2882 27.5852L40.8437 29.8865L41.0164 28.1939Z" fill="#5F54E1"/>
<path d="M27.4657 32.8876L17.8477 31.9062L17.675 33.5989L27.293 34.5802L27.4657 32.8876Z" fill="#5F54E1"/>
<path d="M40.096 37.2153L17.541 34.9141L17.3683 36.6067L39.9233 38.908L40.096 37.2153Z" fill="#5F54E1"/>
<path d="M26.5458 41.9091L16.9277 40.9277L16.755 42.6204L26.3731 43.6017L26.5458 41.9091Z" fill="#5F54E1"/>
<path fill-rule="evenodd" clip-rule="evenodd" d="M131.751 88.6543C127.231 89.2591 123.024 90.0696 120.566 90.6231L119.219 85.4331C121.873 84.8356 126.292 83.9858 131.038 83.3506C135.738 82.7218 146.696 81.4531 150.902 81.7438L150.154 87.0948C146.69 86.8553 136.317 88.0431 131.751 88.6543Z" fill="#FFD1D1"/>
<path fill-rule="evenodd" clip-rule="evenodd" d="M127.252 108.924C123.84 107.967 120.578 107.284 118.645 106.952L119.467 102.164C121.554 102.523 124.98 103.242 128.564 104.246C132.113 105.241 140.319 107.727 143.203 109.333L140.839 113.577C138.465 112.254 130.701 109.891 127.252 108.924Z" fill="#BA8888"/>
<path fill-rule="evenodd" clip-rule="evenodd" d="M65.213 69.2298C68.34 66.4426 71.328 62.9703 72.012 59.3398C72.6932 55.7236 73.258 51.6613 74.82 48.2671C75.3245 47.1706 75.6825 46.5791 76.589 45.7313C77.6007 44.7848 79.1885 44.8378 80.135 45.8496C81.8535 47.6866 80.1372 47.1518 79.374 48.8108C78.4377 49.2693 77.7905 51.0041 77.4397 52.1591C76.7387 54.4658 76.4715 60.1183 76.1922 61.6008C75.2225 66.7473 72.1092 69.8048 68.552 72.9756C64.9987 76.1428 60.8985 78.4296 57.9135 79.2403C56.5762 79.6036 55.1977 78.8141 54.8345 77.4771C54.4712 76.1398 55.2607 74.7613 56.598 74.3981C58.6517 73.8401 62.082 72.0208 65.213 69.2298Z" fill="#BA8888"/>
<path fill-rule="evenodd" clip-rule="evenodd" d="M63.0821 79.1014C59.8868 81.6424 55.0488 76.2204 55.0488 76.2204C55.0488 76.2204 57.7983 73.2942 62.5361 70.3262C62.5361 70.3262 64.8563 73.4792 65.8901 75.5582C66.3056 76.3934 63.9538 78.4082 63.0821 79.1014Z" fill="#815AF1"/>
<path fill-rule="evenodd" clip-rule="evenodd" d="M56.0802 91.1664C59.094 101.165 60.9877 107.897 69.9335 116.983C70.1957 117.25 70.6925 117.701 71.0005 117.846C74.7952 121.329 79.415 123.722 84.1867 123.407C90.7707 122.972 96.289 118.384 101.042 114.433C104.073 111.913 106.793 109.651 109.28 108.891C114.389 107.329 125.931 111.978 131.064 114.498C136.902 110.133 137.423 99.7862 133.169 94.4699C130.6 91.2582 132.194 87.9989 133.586 85.1532C134.498 83.2887 135.323 81.6017 134.833 80.2219C124.219 80.2802 109.956 81.1852 100.756 87.0922C100.757 87.0909 100.757 87.0902 100.757 87.0902C100.757 87.0902 100.754 87.0924 100.748 87.0972C99.8272 87.6889 98.9572 88.3307 98.1465 89.0269C93.2142 92.5549 82.6197 99.4787 78.1272 97.3587C77.6957 97.1552 77.1727 96.8182 76.5952 96.4459C74.8477 95.3199 71.1782 94.8132 69.4692 95.7739C71.716 94.1584 70.9482 92.7159 70.1742 91.6504C69.6632 90.9464 70.1412 88.1942 70.2947 87.0482C71.6585 76.8729 58.3552 72.3164 58.3552 72.3164C58.3552 72.3164 58.1472 73.9692 54.3575 74.1619C53.8025 74.1902 53.252 73.8827 52.6192 73.5294C51.8117 73.0784 50.8705 72.5527 49.6152 72.5549C52.7247 80.0342 54.5237 86.0027 56.0802 91.1664Z" fill="url(#paint5_linear)"/>
<path fill-rule="evenodd" clip-rule="evenodd" d="M70.144 117.233C61.207 108.156 59.0982 101.18 56.089 91.1968C56.0862 91.187 56.0832 91.1773 56.0802 91.1675C54.5767 86.1793 52.8467 80.4401 49.9277 73.3133C50.6357 73.1981 51.2115 73.0918 51.5882 72.998C51.9602 73.1625 52.3002 73.3523 52.6192 73.5305L70.144 117.233ZM52.621 73.5315C53.3855 74.2903 53.854 75.1715 54.3845 76.1693C54.8495 77.0443 55.3622 78.0085 56.1637 79.0585C58.7887 82.4978 59.6592 83.0595 60.4352 83.5605C61.0807 83.9773 61.661 84.3518 63.131 86.304C62.063 87.694 63.4997 90.5468 64.525 92.5823C64.9247 93.3758 65.2617 94.045 65.3637 94.455C69.313 110.347 80.058 115.272 89.5682 108.075C101.52 99.0295 121.236 91.776 132.014 92.288C132.021 92.3123 132.028 92.3368 132.035 92.3613C132.244 93.0635 132.607 93.7685 133.169 94.471C133.186 94.4918 133.202 94.5125 133.219 94.5335C133.729 95.182 134.17 95.9038 134.539 96.679C134.868 97.368 135.14 98.0998 135.356 98.86C136.851 104.133 135.614 110.781 131.418 114.222C130.182 113.708 128.845 113.185 127.465 112.689C127.331 112.642 127.198 112.594 127.064 112.547C126.356 112.297 125.639 112.055 124.919 111.827C124.868 111.807 124.817 111.787 124.766 111.768C119.346 109.68 112.793 107.818 109.28 108.892C106.793 109.652 104.073 111.914 101.042 114.434C101.02 114.452 100.999 114.47 100.977 114.488C99.5627 115.664 97.9377 116.999 96.1802 118.306C92.6082 120.919 88.6415 123.114 84.1865 123.408C79.415 123.723 74.7952 121.33 71.0005 117.847C70.6925 117.702 70.4062 117.499 70.144 117.233" fill="url(#paint6_linear)"/>
<path d="M106.698 44.9808C105.568 42.5573 104.068 42.8381 104.068 42.8381L100.366 43.5346C100.366 43.5346 97.993 45.7901 94.0293 49.7763C94.4355 50.4076 94.7706 51.6176 96.4696 52.7786C96.8956 53.0696 99.2911 54.6508 103.538 50.3448C108.382 49.8723 108.329 48.4796 106.698 44.9808Z" fill="#FFD1D1"/>
<path d="M86.4998 41.8359C85.6391 39.9889 84.4958 40.2029 84.4958 40.2029L81.6748 40.7336C81.6748 40.7336 78.7581 42.1786 75.9648 46.3324C76.2741 46.8134 77.4111 46.8931 78.7058 47.7779C79.0303 47.9996 80.1776 47.9084 83.4138 44.6271C87.1051 44.2669 87.7426 44.5019 86.4998 41.8359Z" fill="#BA8888"/>
<path d="M82.928 48.6425C81.9333 49.314 79.7133 49.0395 78.7275 48.8182L78.815 46.3585L81.8598 44.5625C81.932 45.0982 82.2065 46.1997 82.7265 46.32C83.376 46.47 84.2438 46.059 84.8958 46.4325C85.5478 46.8062 84.1715 47.8032 82.928 48.6425Z" fill="#BA8888"/>
<path fill-rule="evenodd" clip-rule="evenodd" d="M145.426 108.294C144.078 108.052 142.401 107.494 141.451 107.131C141.192 107.461 140.811 108.191 141.36 108.465C141.796 108.683 141.986 109.543 142.051 110.194L139.554 112.709C139.017 113.133 138.792 112.978 138.575 112.829C138.406 112.712 138.241 112.599 137.936 112.767C137.239 113.15 139.456 116.448 140.496 117.625C141.425 118.675 143.414 116.587 145.286 114.621C145.511 114.386 145.734 114.152 145.953 113.925C147.348 112.483 149.968 111.268 151.794 110.421C152.647 110.026 153.327 109.71 153.629 109.489C154.579 108.795 156.465 106.511 156.58 105.532C156.695 104.554 154.932 103.726 153.414 105.036C152.71 105.644 150.433 106.468 147.984 107.354C147.132 107.662 146.26 107.978 145.426 108.294Z" fill="url(#paint7_linear)"/>
<path d="M142.169 117.421C141.581 117.758 140.305 117.137 139.74 116.784C139.694 117.458 139.895 117.53 141.24 118.947C142.585 120.363 146.027 116.949 146.528 116.071C147.03 115.193 150.113 112.284 151.577 112.384C153.042 112.485 157.09 107.935 157.27 106.593C157.414 105.52 156.478 104.76 156.001 104.57C157.528 108.059 149.002 111.738 147.769 112.124C146.536 112.511 142.904 117 142.169 117.421Z" fill="#3126B6"/>
<path d="M145.543 106.175L145.543 106.175C145.314 106.186 145.163 106.378 145.207 106.604L145.719 109.239C145.763 109.464 145.984 109.638 146.214 109.627L146.214 109.627C146.443 109.615 146.594 109.424 146.55 109.198L146.038 106.563C145.994 106.337 145.773 106.164 145.543 106.175Z" fill="#3B2FC6"/>
<path d="M148.023 105.353L148.023 105.353C147.793 105.364 147.643 105.556 147.687 105.781L148.199 108.417C148.242 108.642 148.464 108.816 148.693 108.804L148.693 108.804C148.923 108.793 149.073 108.601 149.029 108.376L148.517 105.74C148.474 105.515 148.252 105.341 148.023 105.353Z" fill="#3B2FC6"/>
<path fill-rule="evenodd" clip-rule="evenodd" d="M152.788 80.2434C151.342 80.4206 149.464 80.381 148.384 80.3108C148.225 80.7283 148.067 81.5893 148.711 81.6953C149.223 81.7794 149.686 82.5936 149.957 83.2348L148.211 86.5747C147.798 87.175 147.521 87.0884 147.254 87.0047C147.045 86.9394 146.841 86.8759 146.584 87.1427C145.997 87.7512 149.288 90.4065 150.714 91.2747C151.988 92.05 153.353 89.3026 154.638 86.7162C154.792 86.406 154.945 86.098 155.097 85.7987C156.067 83.8824 158.512 81.6087 160.194 80.0453C160.964 79.3293 161.573 78.7623 161.808 78.4467C162.555 77.4422 163.449 74.9565 163.258 73.9257C163.067 72.895 161.015 72.609 159.884 74.4175C159.36 75.2561 157.305 76.8098 155.094 78.4811C154.325 79.0627 153.537 79.6585 152.788 80.2434Z" fill="url(#paint8_linear)"/>
<path d="M152.35 90.5421C151.858 91.0691 150.366 90.8394 149.682 90.6586C149.847 91.3579 150.074 91.3684 151.887 92.3849C153.699 93.4011 156.123 88.8489 156.356 87.7989C156.59 86.7489 158.808 82.8229 160.328 82.4639C161.848 82.1051 164.532 76.2076 164.293 74.7879C164.102 73.6519 162.911 73.1734 162.366 73.1309C165.016 76.1964 157.508 82.6164 156.376 83.3971C155.245 84.1779 152.965 89.8834 152.35 90.5421Z" fill="#3126B6"/>
<path d="M152.867 78.2904C152.751 78.075 152.471 77.9682 152.242 78.0518C152.012 78.1354 151.92 78.3777 152.035 78.5931L153.384 81.1104C153.5 81.3258 153.779 81.4326 154.009 81.349C154.239 81.2654 154.331 81.0231 154.216 80.8077L152.867 78.2904Z" fill="#3B2FC6"/>
<path d="M155.128 76.6751C155.013 76.4598 154.733 76.3529 154.504 76.4365C154.274 76.5201 154.181 76.7625 154.297 76.9778L155.646 79.4952C155.761 79.7106 156.041 79.8174 156.271 79.7338C156.5 79.6502 156.593 79.4079 156.477 79.1925L155.128 76.6751Z" fill="#3B2FC6"/>
<path d="M73.2939 93.824C74.3432 91.8315 78.4879 87.575 80.3057 89.9605C82.1237 92.346 76.1592 92.4988 73.2939 93.824Z" stroke="#014053" stroke-width="0.33625"/>
<path d="M58.184 52.0973L56.7895 56.3966C56.7895 56.3966 55.4112 56.5223 54.7922 55.9981C54.3812 55.6498 53.9715 54.8891 53.9715 54.8891C53.9082 55.7718 54.8135 57.4078 56.0077 58.9543C57.5005 60.8873 57.693 67.9951 55.6222 69.9983C53.5515 72.0018 51.0207 81.5236 56.8 88.8923C62.5792 96.2611 61.3475 107.81 58.4272 113.237C56.0882 117.583 49.2075 107.44 41.841 108.415C38.2555 108.89 27.1367 119.378 23.9684 115.565C20.7459 111.687 29.4725 94.5208 25.7985 92.0386C7.71159 79.8181 39.8947 69.2441 41.187 63.2991C43.191 54.0818 44.2637 52.1088 49.1302 50.2418C53.3717 48.6148 56.1007 50.7408 58.184 52.0973Z" fill="url(#paint9_linear)"/>
<path d="M57.5815 53.9551L56.7897 56.3968C56.7897 56.3968 55.4112 56.5226 54.7922 55.9983C54.3812 55.6501 53.9715 54.8893 53.9715 54.8893C53.9082 55.7721 54.8135 57.4081 56.0077 58.9546C57.5005 60.8876 57.693 67.9953 55.6222 69.9986C54.8825 70.7143 54.0842 72.3888 53.627 74.5821C56.1462 74.2778 58.385 74.6523 58.385 74.6523C58.385 74.6523 58.5925 68.2756 57.5505 64.9481C59.1825 64.4938 61.0577 63.7168 61.5435 62.4798C61.919 61.5243 61.397 59.6868 60.2845 57.6948C60.5202 57.3513 60.6445 56.9878 60.4512 56.7106C60.2822 56.4678 59.7495 56.1556 59.1092 55.8471C58.6475 55.2016 58.1347 54.5631 57.5815 53.9551Z" fill="#EACCCC"/>
<path fill-rule="evenodd" clip-rule="evenodd" d="M73.4286 73.175C79.9883 69.483 86.3048 61.3882 90.0841 54.8212C91.8228 51.7997 94.6231 48.107 98.9591 47.4492L99.8141 53.087C98.2956 53.3172 95.8493 53.6085 94.2016 56.4715C88.7821 65.8887 84.4113 75.3272 74.4551 80.931C68.4608 84.3045 63.8383 85.615 59.7178 85.6962C58.1436 85.7272 56.8423 84.476 56.8113 82.9017C56.7803 81.3275 57.6878 79.1277 59.2621 79.0967C62.0223 79.0425 67.7898 76.3487 73.4286 73.175Z" fill="#FFD1D1"/>
<path d="M72.2072 93.9675C71.9044 92.1392 72.5049 87.288 74.8829 87.948C77.2607 88.608 73.4267 91.674 72.2072 93.9675Z" stroke="#014053" stroke-width="0.33625"/>
<path d="M75.815 96.1869C74.5875 94.3757 72.251 94.3437 71.623 94.5847L71.7083 95.1132C72.6975 95.4339 74.5675 95.4267 75.145 96.5344C75.9558 98.0894 77.7768 100.966 78.5158 101.006C79.0678 101.036 79.4168 100.515 79.633 100.136C79.2358 100.297 77.3493 98.4507 75.815 96.1869Z" fill="#CC8CE2"/>
<path fill-rule="evenodd" clip-rule="evenodd" d="M73.1554 94.3807C74.59 93.762 75.4106 94.2947 76.1757 95.0507C76.9297 95.7957 80.6827 95.7684 81.7574 95.1812C82.1376 94.9737 82.1185 94.5912 82.0947 94.115L82.0934 94.0892C81.8437 94.5037 78.3474 95.3899 76.6712 94.3379C74.7654 93.1414 73.3398 93.5624 72.6316 94.1091C72.5033 94.0881 72.4056 94.0224 72.4167 93.7765C72.4211 93.6776 72.4387 93.5794 72.4552 93.4876L72.4562 93.4817C72.4992 93.244 72.534 93.0515 72.3155 93.0122C72.0888 92.9716 68.6353 95.3185 66.3901 96.8443L66.373 96.856L66.2699 96.926C65.5569 97.4104 64.9793 97.8028 64.688 97.9935C64.1625 98.3375 60.8135 99.8232 60.8135 99.8232L60.864 102.573H60.9125L60.9132 102.573C62.5673 101.891 64.4492 101.114 65.9195 100.251C67.9201 99.0761 73.1583 94.9371 73.1554 94.3807Z" fill="url(#paint10_linear)"/>
<path fill-rule="evenodd" clip-rule="evenodd" d="M58.4484 85.0049C60.0594 85.7557 62.0102 85.4317 65.0029 85.0357C63.9739 87.4874 60.5944 88.3402 58.1857 87.6494C56.3917 87.1349 54.8957 84.6254 54.7517 82.9594C54.6124 81.3474 54.4567 79.9629 55.9917 78.6919C58.1802 76.8794 61.0274 77.6512 61.6264 78.5594C59.2219 79.0969 56.6917 79.6097 56.9559 82.6677C57.0114 83.3105 57.3454 84.4909 58.4484 85.0049Z" fill="#3D1BAE"/>
<path d="M44.4868 115.212C42.2138 112.637 38.2225 106.341 40.4425 101.749C43.2178 96.0092 47.603 91.7527 45.1243 87.9805" stroke="#014053" stroke-width="0.0840625" stroke-linecap="round"/>
<path d="M29.4258 70.4591C32.427 70.3448 38.9248 69.3716 40.906 66.3946C43.3828 62.6736 39.4838 52.4438 49.5173 50.2676" stroke="#014053" stroke-width="0.0840625" stroke-linecap="round"/>
<defs>
<linearGradient id="paint0_linear" x1="105.075" y1="20.4473" x2="42.6667" y2="112.001" gradientUnits="userSpaceOnUse">
<stop stop-color="#9C49D3"/>
<stop offset="1" stop-color="#320E94"/>
</linearGradient>
<linearGradient id="paint1_linear" x1="138.458" y1="20.3906" x2="138.458" y2="131.73" gradientUnits="userSpaceOnUse">
<stop stop-color="white"/>
<stop offset="1" stop-color="white" stop-opacity="0"/>
</linearGradient>
<linearGradient id="paint2_linear" x1="71.9999" y1="46.4998" x2="124.25" y2="35.4998" gradientUnits="userSpaceOnUse">
<stop stop-color="#744AFD"/>
<stop offset="1" stop-color="#4418D6"/>
</linearGradient>
<linearGradient id="paint3_linear" x1="89.75" y1="37.25" x2="96.125" y2="59.25" gradientUnits="userSpaceOnUse">
<stop stop-color="#481AE4"/>
<stop offset="1" stop-color="#B194FF"/>
</linearGradient>
<linearGradient id="paint4_linear" x1="117.873" y1="32.5037" x2="119.143" y2="32.935" gradientUnits="userSpaceOnUse">
<stop stop-color="#14F1D9"/>
<stop offset="1" stop-color="#3672F8"/>
</linearGradient>
<linearGradient id="paint5_linear" x1="124.375" y1="75.6243" x2="110.625" y2="117.999" gradientUnits="userSpaceOnUse">
<stop stop-color="#4624D9"/>
<stop offset="1" stop-color="#7E41FD"/>
</linearGradient>
<linearGradient id="paint6_linear" x1="92.9464" y1="72.998" x2="92.9464" y2="123.436" gradientUnits="userSpaceOnUse">
<stop stop-color="white"/>
<stop offset="1" stop-color="white" stop-opacity="0"/>
</linearGradient>
<linearGradient id="paint7_linear" x1="137.803" y1="104.359" x2="156.708" y2="117.733" gradientUnits="userSpaceOnUse">
<stop stop-color="#3672F8"/>
<stop offset="1" stop-color="#B01EFF"/>
</linearGradient>
<linearGradient id="paint8_linear" x1="146.515" y1="73.1055" x2="167.298" y2="82.8207" gradientUnits="userSpaceOnUse">
<stop stop-color="#3672F8"/>
<stop offset="1" stop-color="#B01EFF"/>
</linearGradient>
<linearGradient id="paint9_linear" x1="40.5868" y1="49.6543" x2="40.5868" y2="116.398" gradientUnits="userSpaceOnUse">
<stop stop-color="#E5A7E0"/>
<stop offset="1" stop-color="#9E5BE2"/>
</linearGradient>
<linearGradient id="paint10_linear" x1="60.8135" y1="93.0117" x2="74.8496" y2="108.959" gradientUnits="userSpaceOnUse">
<stop stop-color="#3672F8"/>
<stop offset="1" stop-color="#B01EFF"/>
</linearGradient>
</defs>
</svg>
