<svg width="200" height="150" viewBox="0 0 200 150" fill="none" xmlns="http://www.w3.org/2000/svg">
<g opacity="0.2">
<path opacity="0.5" d="M57.2184 65.7929C57.3226 67.2781 46.6862 67.0469 36.2993 72.6745C24.1891 79.2318 21.5385 88.8094 18.1169 87.5668C14.2034 86.1452 13.6411 72.1665 19.4502 61.5711C19.6112 61.2762 19.7767 60.986 19.9468 60.7027C20.8129 59.2356 21.7584 57.9251 22.7357 56.7483C25.4474 53.49 28.4268 51.2815 30.7827 49.7557C30.8462 49.7125 30.9096 49.6717 30.9731 49.6331C31.3201 49.4086 31.6511 49.2023 31.9662 49.0097C32.2316 48.8463 32.4832 48.6921 32.7213 48.5494C33.5648 48.0392 34.4241 47.5607 35.2948 47.1096C35.3629 47.0732 35.4331 47.037 35.5034 47.0029C35.9614 46.7671 36.4241 46.5405 36.8865 46.325C37.3491 46.1073 37.814 45.8964 38.2764 45.6946C38.4306 45.6266 38.5848 45.5609 38.7412 45.4952C38.8954 45.4294 39.0496 45.3637 39.2039 45.3002C39.5145 45.1731 39.8229 45.0507 40.1311 44.9305C40.2672 44.8762 40.4033 44.8241 40.5392 44.7719C40.8998 44.6358 41.2603 44.5043 41.6185 44.3774C41.8135 44.3071 42.0063 44.2412 42.1991 44.1756C42.428 44.0984 42.6548 44.0214 42.8814 43.9487C50.0148 41.6405 56.2752 41.3934 57.2184 43.3548C58.5583 46.1413 48.6476 52.3383 45.1307 57.4806C45.0878 57.544 45.0446 57.6099 45.0016 57.6734C44.072 59.0881 43.6501 60.4191 44.1104 61.5711C44.9403 63.6502 48.3029 64.3055 51.4138 64.6525C51.5294 64.666 51.6429 64.6774 51.7561 64.6909C54.6131 64.9926 57.1662 65.065 57.2184 65.7929Z" fill="url(#paint0_linear)"/>
</g>
<g opacity="0.7">
<path opacity="0.1" d="M25.355 57.9722L23.3416 62.2871L19.9473 60.7044C20.8134 59.2375 21.7589 57.9268 22.7361 56.75L25.355 57.9722Z" fill="#333333"/>
</g>
<g opacity="0.84">
<path opacity="0.84" d="M174.767 121.649H27.9735C23.4412 121.649 19.681 118.163 19.313 113.645C18.3455 101.77 19.6177 90.8793 26.3817 86.2773C34.6427 80.6567 44.021 89.229 53.8172 83.5565C68.1236 75.2721 63.5888 48.0331 71.9565 46.5978C77.9318 45.5728 81.7665 59.2013 88.7353 58.615C99.1604 57.7381 101.243 26.3434 109.822 25.9644C117.918 25.6067 121.576 53.32 134.537 54.5336C142.067 55.2388 146.064 46.3742 151.089 48.4117C159.068 51.647 152.796 75.5412 162.653 80.3821C167.651 82.8371 172.154 78.1103 175.35 81.0622C180.469 85.7892 171.187 99.9983 177.618 106.684C179.704 108.854 182.085 108.816 183.059 111.445C183.455 112.514 183.479 113.646 183.26 114.781C182.484 118.803 178.863 121.649 174.767 121.649Z" fill="url(#paint1_linear)"/>
</g>
<path d="M164.919 75.9607C164.903 75.9607 164.885 75.9569 164.869 75.9491C159.634 73.378 158.916 65.6673 158.221 58.2105C157.612 51.6698 157.036 45.4916 153.313 43.982C153.255 43.9584 153.227 43.8923 153.251 43.8343C153.274 43.7763 153.34 43.7486 153.398 43.7719C157.249 45.3335 157.831 51.5782 158.447 58.1896C159.136 65.5842 159.848 73.2306 164.969 75.7456C165.025 75.7733 165.049 75.8411 165.021 75.8974C165.001 75.9375 164.961 75.9607 164.919 75.9607Z" fill="url(#paint2_linear)"/>
<path d="M137.655 50.1526C137.373 50.1526 137.086 50.1395 136.793 50.1121C136.731 50.1062 136.685 50.051 136.691 49.9886C136.697 49.9264 136.752 49.8804 136.814 49.8863C140.617 50.2429 143.536 48.1108 146.113 46.2301C148.671 44.3632 150.88 42.7512 153.398 43.772C153.456 43.7958 153.484 43.8619 153.461 43.9199C153.437 43.9777 153.371 44.0054 153.313 43.9823C150.912 43.0086 148.75 44.5863 146.246 46.4133C143.833 48.1742 141.122 50.1526 137.655 50.1526Z" fill="url(#paint3_linear)"/>
<path d="M88.7352 58.7293C88.677 58.7293 88.6275 58.6846 88.6225 58.6253C88.6172 58.5629 88.6635 58.5082 88.7259 58.5029C94.1007 58.0507 97.2288 49.3755 100.254 40.9857C103.026 33.2979 105.645 26.0363 109.817 25.852C109.875 25.8462 109.933 25.8976 109.935 25.9603C109.938 26.0228 109.89 26.0758 109.827 26.0785C105.807 26.2562 103.213 33.4482 100.468 41.0627C97.4179 49.5197 94.2645 58.2645 88.7451 58.7289C88.7418 58.7291 88.7385 58.7293 88.7352 58.7293Z" fill="url(#paint4_linear)"/>
<path d="M88.295 58.748C84.8916 58.748 82.2597 55.4709 79.7105 52.2974C77.2007 49.1727 74.8319 46.2202 71.9753 46.7105C71.9138 46.7212 71.8549 46.6795 71.8445 46.6178C71.8338 46.5563 71.8752 46.4976 71.9369 46.4869C74.9226 45.9752 77.3344 48.9768 79.8874 52.1554C82.5103 55.4211 85.2208 58.7979 88.7254 58.503C88.7884 58.4963 88.8425 58.544 88.8477 58.6064C88.8532 58.6688 88.8067 58.7238 88.7443 58.729C88.5932 58.7416 88.4431 58.748 88.295 58.748Z" fill="url(#paint5_linear)"/>
<g opacity="0.31">
<g opacity="0.31">
<path opacity="0.31" d="M25.7657 106.596C23.9077 106.726 22.6684 107.161 22.8787 107.665L30.9436 112.763C31.1899 113.354 33.3319 113.815 35.7267 113.794L97.8343 113.241C98.1861 113.238 98.5236 113.225 98.8429 113.202C100.7 113.072 101.938 112.637 101.728 112.134L93.6629 107.035C93.4173 106.445 91.2744 105.983 88.8798 106.005L26.7721 106.558C26.4211 106.561 26.0844 106.574 25.7657 106.596Z" fill="#333333"/>
</g>
</g>
<path d="M52.4649 97.7545H45.6937L45.8845 98.4161H51.8188L53.5826 104.526H54.4196L52.4649 97.7545ZM76.0122 97.7545H69.2409L69.432 98.4161H75.3661L77.1299 104.526H77.9668L76.0122 97.7545ZM87.7868 97.7545H81.0155L81.2066 98.4161H87.1407L88.9045 104.526H89.7414L87.7868 97.7545ZM46.456 76.9391H39.6848L39.8758 77.6006H45.8099L47.5737 83.7103H48.4109L46.456 76.9391ZM58.2306 76.9391H51.4594L51.6505 77.6006H57.5826L59.3463 83.7103H60.1855L58.2306 76.9391ZM81.7779 76.9391H75.0066L75.1977 77.6006H81.1318L82.8955 83.7103H83.7327L81.7779 76.9391ZM58.4666 105.621L56.387 98.4161H63.5915L65.6711 105.621H58.4666ZM45.6679 98.4161L45.4145 97.5379H52.6191L54.6987 104.742H53.645L53.8985 105.621H46.694L44.6142 98.4161H45.6679ZM69.2154 98.4161L68.9617 97.5379H76.1662L78.246 104.742H77.1922L77.4457 105.621H70.2413L68.1616 98.4161H69.2154ZM80.99 98.4161L80.7363 97.5379H87.9408L90.0206 104.742H88.9668L89.2203 105.621H82.0139L79.9343 98.4161H80.99ZM43.6898 95.2138L41.6102 88.0094H48.8146L50.8944 95.2138H43.6898ZM55.4626 95.2138L53.3828 88.0094H60.5873L62.6671 95.2138H55.4626ZM67.2372 95.2138L65.1574 88.0094H72.3619L74.4417 95.2138H67.2372ZM79.0099 95.2138L76.93 88.0094H84.1365L86.2163 95.2138H79.0099ZM64.2323 84.8051L62.1527 77.6006H69.3572L71.437 84.8051H64.2323ZM39.659 77.6006L39.4056 76.7225H46.6102L48.6898 83.9271H47.6361L47.8898 84.8051H40.6851L38.6055 77.6006H39.659ZM51.4336 77.6006L51.1802 76.7225H58.3848L60.4644 83.9271H59.4087L59.6624 84.8051H52.4577L50.3781 77.6006H51.4336ZM74.9811 77.6006L74.7276 76.7225H81.9321L84.0117 83.9271H82.9579L83.2116 84.8051H76.005L73.9254 77.6006H74.9811ZM84.2198 72.3085H33.3311C31.3309 72.3085 30.1746 73.934 30.7521 75.9342L40.4883 109.662C41.0653 111.66 43.1606 113.287 45.1606 113.287H96.0419C97.5581 112.888 98.344 111.417 97.8373 109.662L88.1011 75.9342C87.5953 74.182 85.9639 72.7114 84.2198 72.3085ZM32.3956 72.1992H29.83C27.7673 72.1992 26.5797 73.8716 27.1751 75.9342L36.9115 109.662C37.5068 111.724 39.6595 113.395 41.7221 113.395H44.2798C42.4811 112.984 40.7928 111.467 40.2717 109.662L30.5354 75.9342C30.0135 74.1261 30.8289 72.6067 32.3956 72.1992Z" fill="url(#paint6_linear)"/>
<path d="M39.6592 77.6016H38.6055L40.6853 84.806H47.8897L47.6363 83.9278H41.4854L39.6592 77.6016ZM45.8099 77.6016H39.8758L41.6396 83.7112H47.5737L45.8099 77.6016Z" fill="#2249B3"/>
<path d="M39.8763 77.6006L39.6852 76.939H46.4567L48.4113 83.7105H47.5742H41.6401L39.8763 77.6006ZM46.6107 76.7227H39.4062L39.6597 77.6006L41.4859 83.9271H47.6368H48.6905L46.6107 76.7227Z" fill="#00308D"/>
<path d="M51.4337 77.6016H50.3779L52.4578 84.806H59.6622L59.4087 83.9278H53.26L51.4337 77.6016ZM57.5824 77.6016H51.6503L53.414 83.7112H59.3461L57.5824 77.6016Z" fill="#2249B3"/>
<path d="M51.6507 77.6006L51.4596 76.939H58.2309L60.1857 83.7105H59.3466H53.4145L51.6507 77.6006ZM58.3851 76.7227H51.1807L51.4341 77.6006L53.2603 83.9271H59.409H60.4647L58.3851 76.7227Z" fill="#00308D"/>
<path d="M69.3568 77.6016H62.1523L64.2322 84.806H71.4366L69.3568 77.6016Z" fill="url(#paint7_linear)"/>
<path d="M74.9815 77.6016H73.9258L76.0054 84.806H83.212L82.9583 83.9278H76.8076L74.9815 77.6016ZM81.1322 77.6016H75.1981L76.9616 83.7112H82.896L81.1322 77.6016Z" fill="url(#paint8_linear)"/>
<path d="M75.1976 77.6006L75.0067 76.939H81.778L83.7326 83.7105H82.8954H76.9614L75.1976 77.6006ZM81.932 76.7227H74.7275L74.981 77.6006L76.8074 83.9271H82.9581H84.0118L81.932 76.7227Z" fill="#00308D"/>
<path d="M48.8148 88.0098H41.6104L43.69 95.2142H50.8946L48.8148 88.0098Z" fill="url(#paint9_linear)"/>
<path d="M60.5873 88.0098H53.3828L55.4624 95.2142H62.6671L60.5873 88.0098Z" fill="url(#paint10_linear)"/>
<path d="M72.3619 88.0098H65.1572L67.237 95.2142H74.4415L72.3619 88.0098Z" fill="url(#paint11_linear)"/>
<path d="M84.1361 88.0098H76.9297L79.0095 95.2142H86.2159L84.1361 88.0098Z" fill="url(#paint12_linear)"/>
<path d="M45.668 98.418H44.6143L46.6939 105.622H53.8983L53.6449 104.744H47.4942L45.668 98.418ZM51.8187 98.418H45.8846L47.6482 104.528H53.5825L51.8187 98.418Z" fill="url(#paint13_linear)"/>
<path d="M45.8841 98.4172L45.6933 97.7557H52.4645L54.4191 104.527H53.5822H47.6479L45.8841 98.4172ZM52.6185 97.5391H45.4141L45.6675 98.4172L47.4939 104.744H53.6446H54.6983L52.6185 97.5391Z" fill="#00308D"/>
<path d="M63.5921 98.418H56.3877L58.4673 105.622H65.6717L63.5921 98.418Z" fill="url(#paint14_linear)"/>
<path d="M69.2159 98.418H68.1621L70.2419 105.622H77.4464L77.1929 104.744H71.0422L69.2159 98.418ZM75.3666 98.418H69.4325L71.1962 104.528H77.1303L75.3666 98.418Z" fill="url(#paint15_linear)"/>
<path d="M69.432 98.4172L69.2411 97.7557H76.0124L77.967 104.527H77.1298H71.1957L69.432 98.4172ZM76.1664 97.5391H68.9619L69.2154 98.4172L71.0417 104.744H77.1924H78.2462L76.1664 97.5391Z" fill="#00308D"/>
<path d="M80.9903 98.418H79.9346L82.0144 105.622H89.2208L88.9673 104.744H82.8164L80.9903 98.418ZM87.141 98.418H81.2069L82.9706 104.528H88.9047L87.141 98.418Z" fill="url(#paint16_linear)"/>
<path d="M81.2064 98.4172L81.0153 97.7557H87.7866L89.7414 104.527H88.9042H82.9701L81.2064 98.4172ZM87.9408 97.5391H80.7363L80.9898 98.4172L82.8159 104.744H88.9668H90.0206L87.9408 97.5391Z" fill="#00308D"/>
<path d="M84.2197 72.3103H86.789C88.7892 72.3103 90.8838 73.9358 91.4612 75.936L101.198 109.664C101.774 111.662 100.619 113.289 98.6185 113.289H96.0418H45.1607C43.1605 113.289 41.0652 111.662 40.4882 109.664L30.752 75.936C30.1746 73.9358 31.3308 72.3103 33.331 72.3103H84.2197ZM86.7264 72.0938H33.2684C32.9573 72.0938 32.6653 72.1311 32.3956 72.2011C30.8289 72.6083 30.0134 74.128 30.5354 75.936L40.2716 109.664C40.7927 111.469 42.481 112.986 44.2797 113.397C44.5927 113.468 44.909 113.506 45.2231 113.506H98.6811C100.8 113.506 102.026 111.783 101.414 109.664L91.6778 75.936C91.0662 73.8167 88.8457 72.0938 86.7264 72.0938Z" fill="#00308D"/>
<path d="M39.2969 74.3934C39.252 74.3934 39.2083 74.369 39.1859 74.3264C39.1538 74.2654 39.1774 74.1894 39.2384 74.1574C40.2697 73.6147 40.9104 72.5539 40.9104 71.3896C40.9104 69.6662 39.5085 68.2641 37.7851 68.2641C36.0617 68.2641 34.6596 69.6662 34.6596 71.3896C34.6596 71.4587 34.6035 71.5148 34.5344 71.5148C34.4653 71.5148 34.4092 71.4587 34.4092 71.3896C34.4092 69.5281 35.9236 68.0137 37.7851 68.0137C39.6466 68.0137 41.161 69.5281 41.161 71.3896C41.161 72.6473 40.4689 73.7927 39.3551 74.379C39.3364 74.3888 39.3165 74.3934 39.2969 74.3934Z" fill="#00308D"/>
<path d="M47.7178 74.3914C47.6729 74.3914 47.6293 74.367 47.6068 74.3245C47.5747 74.2634 47.5983 74.1877 47.6594 74.1554C48.6907 73.6127 49.3315 72.552 49.3315 71.3876C49.3315 69.6642 47.9294 68.2621 46.206 68.2621C44.4826 68.2621 43.0807 69.6642 43.0807 71.3876C43.0807 71.4568 43.0244 71.5128 42.9555 71.5128C42.8864 71.5128 42.8301 71.4568 42.8301 71.3876C42.8301 69.5262 44.3445 68.0117 46.206 68.0117C48.0675 68.0117 49.5819 69.5262 49.5819 71.3876C49.5819 72.6453 48.89 73.7907 47.7761 74.377C47.7575 74.3869 47.7375 74.3914 47.7178 74.3914Z" fill="#00308D"/>
<path d="M56.1387 74.3914C56.0938 74.3914 56.0502 74.367 56.0277 74.3245C55.9956 74.2634 56.0192 74.1877 56.0803 74.1554C57.1118 73.6127 57.7524 72.5522 57.7524 71.3876C57.7524 69.6642 56.3503 68.2621 54.6271 68.2621C52.9035 68.2621 51.5014 69.6642 51.5014 71.3876C51.5014 71.4568 51.4453 71.5128 51.3762 71.5128C51.3073 71.5128 51.251 71.4568 51.251 71.3876C51.251 69.5262 52.7654 68.0117 54.6271 68.0117C56.4884 68.0117 58.0028 69.5262 58.0028 71.3876C58.0028 72.6453 57.3107 73.7907 56.197 74.377C56.1784 74.3869 56.1584 74.3914 56.1387 74.3914Z" fill="#00308D"/>
<path d="M64.5596 74.3914C64.5145 74.3914 64.4711 74.367 64.4486 74.3245C64.4165 74.2634 64.4399 74.1877 64.5012 74.1554C65.5327 73.6127 66.1733 72.5522 66.1733 71.3876C66.1733 69.6642 64.7712 68.2621 63.0478 68.2621C61.3244 68.2621 59.9223 69.6642 59.9223 71.3876C59.9223 71.4568 59.8662 71.5128 59.7971 71.5128C59.7279 71.5128 59.6719 71.4568 59.6719 71.3876C59.6719 69.5262 61.1863 68.0117 63.0478 68.0117C64.9093 68.0117 66.4237 69.5262 66.4237 71.3876C66.4237 72.6453 65.7316 73.7907 64.6176 74.377C64.5991 74.3869 64.579 74.3914 64.5596 74.3914Z" fill="#00308D"/>
<path d="M73.0037 74.3914C72.9588 74.3914 72.9154 74.367 72.8929 74.3245C72.8609 74.2634 72.8842 74.1877 72.9453 74.1554C73.9768 73.6127 74.6174 72.552 74.6174 71.3876C74.6174 69.6642 73.2153 68.2621 71.4919 68.2621C69.7687 68.2621 68.3666 69.6642 68.3666 71.3876C68.3666 71.4568 68.3106 71.5128 68.2414 71.5128C68.1723 71.5128 68.1162 71.4568 68.1162 71.3876C68.1162 69.5262 69.6307 68.0117 71.4919 68.0117C73.3534 68.0117 74.8678 69.5262 74.8678 71.3876C74.8678 72.6453 74.1759 73.7907 73.062 74.377C73.0434 74.3869 73.0234 74.3914 73.0037 74.3914Z" fill="#00308D"/>
<path d="M81.4258 74.3914C81.3809 74.3914 81.3373 74.367 81.3148 74.3245C81.2827 74.2634 81.3061 74.1877 81.3674 74.1554C82.3987 73.6127 83.0393 72.552 83.0393 71.3876C83.0393 69.6642 81.6374 68.2621 79.914 68.2621C78.1904 68.2621 76.7885 69.6642 76.7885 71.3876C76.7885 71.4568 76.7322 71.5128 76.6633 71.5128C76.5941 71.5128 76.5381 71.4568 76.5381 71.3876C76.5381 69.5262 78.0525 68.0117 79.914 68.0117C81.7753 68.0117 83.2897 69.5262 83.2897 71.3876C83.2897 72.6453 82.5978 73.7907 81.4841 74.377C81.4653 74.3869 81.4452 74.3914 81.4258 74.3914Z" fill="#00308D"/>
<path d="M183.173 117.567H90.4444C90.3192 117.567 90.2178 117.465 90.2178 117.34C90.2178 117.215 90.3192 117.113 90.4444 117.113H183.173C183.298 117.113 183.399 117.215 183.399 117.34C183.399 117.465 183.298 117.567 183.173 117.567Z" fill="#00308D"/>
<path d="M79.0428 117.567H15.1584C15.0332 117.567 14.9316 117.465 14.9316 117.34C14.9316 117.215 15.0332 117.113 15.1584 117.113H79.0428C79.1682 117.113 79.2697 117.215 79.2697 117.34C79.2697 117.465 79.1682 117.567 79.0428 117.567Z" fill="#00308D"/>
<path d="M183.399 121.819H155.949C155.855 121.819 155.779 121.742 155.779 121.649C155.779 121.555 155.855 121.479 155.949 121.479H183.399C183.493 121.479 183.569 121.555 183.569 121.649C183.569 121.742 183.493 121.819 183.399 121.819Z" fill="#00308D"/>
<path d="M149.019 121.819H16.5187C16.4248 121.819 16.3486 121.742 16.3486 121.649C16.3486 121.555 16.4248 121.479 16.5187 121.479H149.019C149.113 121.479 149.189 121.555 149.189 121.649C149.189 121.742 149.113 121.819 149.019 121.819Z" fill="#00308D"/>
<g opacity="0.84">
<path opacity="0.84" d="M158.799 34.8066H55.8585C53.7922 34.8066 52.1172 33.1316 52.1172 31.0654V31.0654C52.1172 28.9992 53.7922 27.3242 55.8585 27.3242H158.799C160.865 27.3242 162.54 28.9992 162.54 31.0654V31.0654C162.54 33.1316 160.865 34.8066 158.799 34.8066Z" fill="url(#paint17_linear)"/>
</g>
<path d="M175.237 36.8487C178.368 36.8487 180.905 34.3108 180.905 31.1802C180.905 28.0496 178.368 25.5117 175.237 25.5117C172.106 25.5117 169.568 28.0496 169.568 31.1802C169.568 34.3108 172.106 36.8487 175.237 36.8487Z" fill="url(#paint18_linear)"/>
<path d="M62.7729 36.5925C60.4136 36.5925 58.4941 34.673 58.4941 32.3137C58.4941 29.9546 60.4136 28.0352 62.7729 28.0352C65.1319 28.0352 67.0514 29.9546 67.0514 32.3137C67.0514 34.673 65.1319 36.5925 62.7729 36.5925ZM62.7729 28.203C60.5061 28.203 58.6621 30.047 58.6621 32.3137C58.6621 34.5805 60.5061 36.4245 62.7729 36.4245C65.0396 36.4245 66.8837 34.5805 66.8837 32.3137C66.8837 30.047 65.0396 28.203 62.7729 28.203Z" fill="#4B47DB"/>
<path d="M120.82 67.6836H116.738V93.7587H120.82V67.6836Z" fill="url(#paint19_linear)"/>
<path d="M129.436 56.3477H125.354V93.7598H129.436V56.3477Z" fill="url(#paint20_linear)"/>
<path d="M130.569 93.0804H126.261V55.4414H130.569V93.0804ZM126.488 92.8536H130.342V55.6683H126.488V92.8536Z" fill="#00308D"/>
<path d="M138.052 69.498H133.971V93.7594H138.052V69.498Z" fill="url(#paint21_linear)"/>
<path d="M146.667 83.7832H142.586V93.7598H146.667V83.7832Z" fill="url(#paint22_linear)"/>
<path d="M147.687 92.9669H143.379V82.7637H147.687V92.9669ZM143.606 92.7403H147.46V82.9903H143.606V92.7403Z" fill="#00308D"/>
<path d="M112.337 98.521H110.042C107.279 98.521 105.039 96.2811 105.039 93.5179V54.3213C105.039 51.5583 107.279 49.3184 110.042 49.3184H112.337V98.521Z" fill="url(#paint23_linear)"/>
<path d="M109.822 100.563C109.76 100.563 109.709 100.512 109.709 100.45V55.1017C109.709 55.0391 109.76 54.9883 109.822 54.9883C109.885 54.9883 109.936 55.0391 109.936 55.1017V100.45C109.936 100.512 109.885 100.563 109.822 100.563Z" fill="#00308D"/>
<path d="M160.385 95.461H104.004C103.941 95.461 103.891 95.4104 103.891 95.3478C103.891 95.285 103.941 95.2344 104.004 95.2344H160.385C160.447 95.2344 160.498 95.285 160.498 95.3478C160.498 95.4104 160.447 95.461 160.385 95.461Z" fill="#437EF1"/>
<path d="M166.848 99.8828H155.965V101.243H166.848V99.8828Z" fill="url(#paint24_linear)"/>
<path d="M179.526 62.3844H173.177C171.925 62.3844 170.91 61.3693 170.91 60.117C170.91 58.8648 171.925 57.8496 173.177 57.8496H179.526C180.778 57.8496 181.794 58.8648 181.794 60.117C181.794 61.3693 180.778 62.3844 179.526 62.3844Z" fill="url(#paint25_linear)"/>
<path d="M179.526 61.3632H173.178C171.865 61.3632 170.797 60.2951 170.797 58.9824C170.797 57.6697 171.865 56.6016 173.178 56.6016H179.526C180.839 56.6016 181.907 57.6697 181.907 58.9824C181.907 60.2951 180.839 61.3632 179.526 61.3632ZM173.178 56.8284C171.99 56.8284 171.024 57.7947 171.024 58.9824C171.024 60.1701 171.99 61.1364 173.178 61.1364H179.526C180.714 61.1364 181.68 60.1701 181.68 58.9824C181.68 57.7947 180.714 56.8284 179.526 56.8284H173.178Z" fill="url(#paint26_linear)"/>
<path d="M181.173 65.8415H171.531C171.126 65.8415 170.797 65.5121 170.797 65.1075V64.4215C170.797 64.0169 171.126 63.6875 171.531 63.6875H181.173C181.578 63.6875 181.907 64.0169 181.907 64.4215V65.1075C181.907 65.5121 181.578 65.8415 181.173 65.8415ZM171.531 63.9141C171.251 63.9141 171.024 64.1419 171.024 64.4215V65.1075C171.024 65.3871 171.251 65.6146 171.531 65.6146H181.173C181.453 65.6146 181.68 65.3871 181.68 65.1075V64.4215C181.68 64.1419 181.453 63.9141 181.173 63.9141H171.531Z" fill="url(#paint27_linear)"/>
<path d="M181.173 69.0175H171.531C171.126 69.0175 170.797 68.6881 170.797 68.2835V67.5975C170.797 67.1926 171.126 66.8633 171.531 66.8633H181.173C181.578 66.8633 181.907 67.1926 181.907 67.5975V68.2835C181.907 68.6881 181.578 69.0175 181.173 69.0175ZM171.531 67.0901C171.251 67.0901 171.024 67.3179 171.024 67.5975V68.2835C171.024 68.5631 171.251 68.7906 171.531 68.7906H181.173C181.453 68.7906 181.68 68.5631 181.68 68.2835V67.5975C181.68 67.3179 181.453 67.0901 181.173 67.0901H171.531Z" fill="url(#paint28_linear)"/>
<path d="M165.206 69.8668H155.564C155.221 69.8668 154.943 69.5889 154.943 69.246V68.56C154.943 68.2173 155.221 67.9395 155.564 67.9395H165.206C165.549 67.9395 165.827 68.2173 165.827 68.56V69.246C165.827 69.5889 165.549 69.8668 165.206 69.8668Z" fill="url(#paint29_linear)"/>
<path d="M103.791 106.966H94.1489C93.8062 106.966 93.5283 106.689 93.5283 106.346V105.66C93.5283 105.317 93.8062 105.039 94.1489 105.039H103.791C104.134 105.039 104.412 105.317 104.412 105.66V106.346C104.412 106.689 104.134 106.966 103.791 106.966Z" fill="url(#paint30_linear)"/>
<path d="M181.173 72.1911H171.531C171.126 72.1911 170.797 71.8619 170.797 71.4571V70.7713C170.797 70.3665 171.126 70.0371 171.531 70.0371H181.173C181.578 70.0371 181.907 70.3665 181.907 70.7713V71.4571C181.907 71.8619 181.578 72.1911 181.173 72.1911ZM171.531 70.264C171.251 70.264 171.024 70.4915 171.024 70.7713V71.4571C171.024 71.737 171.251 71.9645 171.531 71.9645H181.173C181.453 71.9645 181.68 71.737 181.68 71.4571V70.7713C181.68 70.4915 181.453 70.264 181.173 70.264H171.531Z" fill="url(#paint31_linear)"/>
<path opacity="0.59" d="M67.1953 38.8893H59.0327C58.8449 38.8893 58.6924 38.7371 58.6924 38.5493C58.6924 38.3612 58.8449 38.209 59.0327 38.209H67.1953C67.3831 38.209 67.5354 38.3612 67.5354 38.5493C67.5354 38.7371 67.3831 38.8893 67.1953 38.8893Z" fill="url(#paint32_linear)"/>
<path d="M20.0859 37.1346C20.0287 37.1346 19.9796 37.0914 19.9733 37.0334C19.9666 36.9712 20.0116 36.9152 20.0739 36.9084L62.7559 32.2994C62.8187 32.2931 62.8739 32.3378 62.8807 32.4C62.8874 32.4621 62.8425 32.5182 62.7801 32.525L20.0982 37.1339C20.0941 37.1344 20.0899 37.1346 20.0859 37.1346Z" fill="#4B47DB"/>
<path d="M48.0377 55.3052C48.0072 55.3052 47.9766 55.293 47.9544 55.2686L18.4664 23.1764C18.424 23.1302 18.4271 23.0586 18.4732 23.0162C18.5193 22.974 18.591 22.9768 18.6334 23.0229L48.1212 55.115C48.1636 55.1613 48.1605 55.2328 48.1145 55.2753C48.0927 55.2954 48.0652 55.3052 48.0377 55.3052Z" fill="#4B47DB"/>
<path d="M48.1429 58.7837C50.1342 58.7837 51.7485 57.1694 51.7485 55.1781C51.7485 53.1866 50.1342 51.5723 48.1429 51.5723C46.1515 51.5723 44.5371 53.1866 44.5371 55.1781C44.5371 57.1694 46.1515 58.7837 48.1429 58.7837Z" fill="url(#paint33_linear)"/>
<path d="M18.7461 25.6877C19.8745 25.6877 20.7892 24.7729 20.7892 23.6446C20.7892 22.5163 19.8745 21.6016 18.7461 21.6016C17.6178 21.6016 16.7031 22.5163 16.7031 23.6446C16.7031 24.7729 17.6178 25.6877 18.7461 25.6877Z" fill="url(#paint34_linear)"/>
<path d="M21.6504 57.3799C21.6332 57.3799 21.6158 57.3759 21.5994 57.3677C21.5435 57.3395 21.5211 57.2712 21.5493 57.2154L40.2416 20.1639C40.2697 20.108 40.338 20.0856 40.3938 20.1137C40.4497 20.1419 40.4721 20.21 40.444 20.2659L21.7517 57.3175C21.7318 57.357 21.6918 57.3799 21.6504 57.3799Z" fill="#4B47DB"/>
<path d="M37.179 41.139L40.1675 34.7326L36.1137 28.9414L29.0714 29.5565L26.083 35.9629L30.1368 41.7541L37.179 41.139Z" fill="url(#paint35_linear)"/>
<path d="M22.6511 60.4843L24.664 56.1691L20.3489 54.1562L18.3359 58.4714L22.6511 60.4843Z" fill="url(#paint36_linear)"/>
<path d="M40.342 22.598C41.8446 22.598 43.0629 21.3798 43.0629 19.8771C43.0629 18.3744 41.8446 17.1562 40.342 17.1562C38.8393 17.1562 37.6211 18.3744 37.6211 19.8771C37.6211 21.3798 38.8393 22.598 40.342 22.598Z" fill="url(#paint37_linear)"/>
<path d="M62.7667 33.7717C63.5181 33.7717 64.1271 33.1625 64.1271 32.4113C64.1271 31.6599 63.5181 31.0508 62.7667 31.0508C62.0153 31.0508 61.4062 31.6599 61.4062 32.4113C61.4062 33.1625 62.0153 33.7717 62.7667 33.7717Z" fill="url(#paint38_linear)"/>
<path d="M20.0851 38.381C20.8364 38.381 21.4455 37.7718 21.4455 37.0206C21.4455 36.2692 20.8364 35.6602 20.0851 35.6602C19.3337 35.6602 18.7246 36.2692 18.7246 37.0206C18.7246 37.7718 19.3337 38.381 20.0851 38.381Z" fill="url(#paint39_linear)"/>
<path d="M30.3563 44.5031L26.2275 38.6046L29.2713 32.0796L36.444 31.4531L40.5729 37.3514L37.5289 43.8767L30.3563 44.5031ZM26.4884 38.5817L30.4671 44.2658L37.3789 43.662L40.312 37.3743L36.3332 31.6904L29.4214 32.2942L26.4884 38.5817ZM37.4539 43.7693H37.4561H37.4539Z" fill="#4B47DB"/>
<path d="M153.923 99.8828H116.058V101.243H153.923V99.8828Z" fill="url(#paint40_linear)"/>
<path d="M156.531 102.602H127.395V103.962H156.531V102.602Z" fill="url(#paint41_linear)"/>
<path d="M155.963 105.324H137.81V106.685H155.963V105.324Z" fill="url(#paint42_linear)"/>
<path d="M136.01 105.324H117.856V106.685H136.01V105.324Z" fill="url(#paint43_linear)"/>
<path d="M174.088 105.324H158.217V106.685H174.088V105.324Z" fill="url(#paint44_linear)"/>
<path d="M185.068 108.045H122.293V109.405H185.068V108.045Z" fill="url(#paint45_linear)"/>
<path d="M178.469 102.602H158.571V103.962H178.469V102.602Z" fill="url(#paint46_linear)"/>
<path d="M146.668 110.766H116.058V112.126H146.668V110.766Z" fill="url(#paint47_linear)"/>
<path d="M172.29 110.766H161.406V112.126H172.29V110.766Z" fill="url(#paint48_linear)"/>
<path d="M159.819 110.766H148.936V112.126H159.819V110.766Z" fill="url(#paint49_linear)"/>
<path d="M168.095 43.5361C169.097 43.5361 169.909 42.724 169.909 41.7221C169.909 40.7203 169.097 39.9082 168.095 39.9082C167.093 39.9082 166.281 40.7203 166.281 41.7221C166.281 42.724 167.093 43.5361 168.095 43.5361Z" fill="url(#paint50_linear)"/>
<path d="M136.011 73.0131C136.512 73.0131 136.918 72.6072 136.918 72.1062C136.918 71.6054 136.512 71.1992 136.011 71.1992C135.51 71.1992 135.104 71.6054 135.104 72.1062C135.104 72.6072 135.51 73.0131 136.011 73.0131Z" fill="#B5CDFB"/>
<path d="M136.011 73.4312C135.28 73.4312 134.686 72.8369 134.686 72.1064C134.686 71.3756 135.28 70.7812 136.011 70.7812C136.741 70.7812 137.336 71.3756 137.336 72.1064C137.336 72.8369 136.741 73.4312 136.011 73.4312ZM136.011 70.9372C135.366 70.9372 134.841 71.4616 134.841 72.1064C134.841 72.7509 135.366 73.2755 136.011 73.2755C136.655 73.2755 137.18 72.7509 137.18 72.1064C137.18 71.4616 136.655 70.9372 136.011 70.9372Z" fill="#00308D"/>
<path d="M159.014 72.219H158.221C158.158 72.219 158.107 72.1682 158.107 72.1056C158.107 72.0428 158.158 71.9922 158.221 71.9922H159.014C159.077 71.9922 159.128 72.0428 159.128 72.1056C159.128 72.1682 159.077 72.219 159.014 72.219Z" fill="url(#paint51_linear)"/>
<path d="M156.582 72.219H154.944C154.881 72.219 154.83 72.1682 154.83 72.1056C154.83 72.0428 154.881 71.9922 154.944 71.9922H156.582C156.645 71.9922 156.696 72.0428 156.696 72.1056C156.696 72.1682 156.645 72.219 156.582 72.219ZM153.305 72.219H151.666C151.604 72.219 151.553 72.1682 151.553 72.1056C151.553 72.0428 151.604 71.9922 151.666 71.9922H153.305C153.367 71.9922 153.418 72.0428 153.418 72.1056C153.418 72.1682 153.367 72.219 153.305 72.219ZM150.028 72.219H148.389C148.326 72.219 148.275 72.1682 148.275 72.1056C148.275 72.0428 148.326 71.9922 148.389 71.9922H150.028C150.09 71.9922 150.141 72.0428 150.141 72.1056C150.141 72.1682 150.09 72.219 150.028 72.219ZM146.75 72.219H145.111C145.049 72.219 144.998 72.1682 144.998 72.1056C144.998 72.0428 145.049 71.9922 145.111 71.9922H146.75C146.813 71.9922 146.863 72.0428 146.863 72.1056C146.863 72.1682 146.813 72.219 146.75 72.219ZM143.473 72.219H141.834C141.772 72.219 141.721 72.1682 141.721 72.1056C141.721 72.0428 141.772 71.9922 141.834 71.9922H143.473C143.535 71.9922 143.586 72.0428 143.586 72.1056C143.586 72.1682 143.535 72.219 143.473 72.219ZM140.196 72.219H138.557C138.494 72.219 138.443 72.1682 138.443 72.1056C138.443 72.0428 138.494 71.9922 138.557 71.9922H140.196C140.258 71.9922 140.309 72.0428 140.309 72.1056C140.309 72.1682 140.258 72.219 140.196 72.219Z" fill="url(#paint52_linear)"/>
<path d="M136.918 72.219H136.124C136.062 72.219 136.011 72.1682 136.011 72.1056C136.011 72.0428 136.062 71.9922 136.124 71.9922H136.918C136.98 71.9922 137.031 72.0428 137.031 72.1056C137.031 72.1682 136.98 72.219 136.918 72.219Z" fill="#333333"/>
<path d="M167.641 72.2187H159.014C158.951 72.2187 158.9 72.1679 158.9 72.1053C158.9 72.0427 158.951 71.9918 159.014 71.9918H167.641C167.828 71.9918 167.981 71.8394 167.981 71.6518V57.6056C167.981 57.543 168.032 57.4922 168.094 57.4922C168.157 57.4922 168.208 57.543 168.208 57.6056V71.6518C168.208 71.9643 167.953 72.2187 167.641 72.2187Z" fill="url(#paint53_linear)"/>
<path d="M168.094 43.0829C168.031 43.0829 167.98 43.0321 167.98 42.9695V42.1759C167.98 42.1133 168.031 42.0625 168.094 42.0625C168.156 42.0625 168.207 42.1133 168.207 42.1759V42.9695C168.207 43.0321 168.156 43.0829 168.094 43.0829Z" fill="url(#paint54_linear)"/>
<path d="M168.094 55.3878C168.031 55.3878 167.98 55.3372 167.98 55.2746V53.7364C167.98 53.6738 168.031 53.623 168.094 53.623C168.156 53.623 168.207 53.6738 168.207 53.7364V55.2746C168.207 55.3372 168.156 55.3878 168.094 55.3878ZM168.094 52.3116C168.031 52.3116 167.98 52.261 167.98 52.1982V50.6602C167.98 50.5976 168.031 50.547 168.094 50.547C168.156 50.547 168.207 50.5976 168.207 50.6602V52.1982C168.207 52.261 168.156 52.3116 168.094 52.3116ZM168.094 49.2354C168.031 49.2354 167.98 49.1848 167.98 49.1222V47.584C167.98 47.5214 168.031 47.4705 168.094 47.4705C168.156 47.4705 168.207 47.5214 168.207 47.584V49.1222C168.207 49.1848 168.156 49.2354 168.094 49.2354ZM168.094 46.1594C168.031 46.1594 167.98 46.1086 167.98 46.046V44.5077C167.98 44.4451 168.031 44.3945 168.094 44.3945C168.156 44.3945 168.207 44.4451 168.207 44.5077V46.046C168.207 46.1086 168.156 46.1594 168.094 46.1594Z" fill="url(#paint55_linear)"/>
<path d="M168.094 57.7194C168.031 57.7194 167.98 57.6688 167.98 57.6062V56.8124C167.98 56.7498 168.031 56.6992 168.094 56.6992C168.156 56.6992 168.207 56.7498 168.207 56.8124V57.6062C168.207 57.6688 168.156 57.7194 168.094 57.7194Z" fill="url(#paint56_linear)"/>
<path d="M59.7966 54.4691H53.3929C53.2677 54.4691 53.166 54.3677 53.166 54.2425C53.166 54.1173 53.2677 54.0156 53.3929 54.0156H59.7966C59.9218 54.0156 60.0234 54.1173 60.0234 54.2425C60.0234 54.3677 59.9218 54.4691 59.7966 54.4691Z" fill="url(#paint57_linear)"/>
<path d="M59.7966 55.7816H53.3926C53.2674 55.7816 53.166 55.68 53.166 55.5548C53.166 55.4296 53.2674 55.3281 53.3926 55.3281H59.7966C59.9218 55.3281 60.0232 55.4296 60.0232 55.5548C60.0232 55.68 59.9218 55.7816 59.7966 55.7816Z" fill="url(#paint58_linear)"/>
<path d="M59.7966 57.0941H53.3926C53.2674 57.0941 53.166 56.9927 53.166 56.8675C53.166 56.7423 53.2674 56.6406 53.3926 56.6406H59.7966C59.9218 56.6406 60.0232 56.7423 60.0232 56.8675C60.0232 56.9927 59.9218 57.0941 59.7966 57.0941Z" fill="url(#paint59_linear)"/>
<path d="M127.395 47.5642C127.959 47.5642 128.416 47.1075 128.416 46.5438C128.416 45.9804 127.959 45.5234 127.395 45.5234C126.832 45.5234 126.375 45.9804 126.375 46.5438C126.375 47.1075 126.832 47.5642 127.395 47.5642Z" fill="url(#paint60_linear)"/>
<path d="M127.394 51.667C128.166 51.667 128.792 51.0412 128.792 50.2691C128.792 49.4971 128.166 48.8711 127.394 48.8711C126.622 48.8711 125.996 49.4971 125.996 50.2691C125.996 51.0412 126.622 51.667 127.394 51.667Z" fill="url(#paint61_linear)"/>
<path d="M127.394 44.3275C126.561 44.3275 125.883 43.6493 125.883 42.8159C125.883 41.9826 126.561 41.3047 127.394 41.3047C128.228 41.3047 128.906 41.9826 128.906 42.8159C128.906 43.6493 128.228 44.3275 127.394 44.3275ZM127.394 41.5313C126.686 41.5313 126.109 42.1076 126.109 42.8159C126.109 43.5243 126.686 44.1006 127.394 44.1006C128.102 44.1006 128.679 43.5243 128.679 42.8159C128.679 42.1076 128.102 41.5313 127.394 41.5313Z" fill="url(#paint62_linear)"/>
<path d="M118.778 66.2272C118.716 66.2272 118.665 66.1766 118.665 66.114V65.3202C118.665 65.2576 118.716 65.207 118.778 65.207C118.841 65.207 118.892 65.2576 118.892 65.3202V66.114C118.892 66.1766 118.841 66.2272 118.778 66.2272Z" fill="url(#paint63_linear)"/>
<path d="M118.778 63.8003C118.716 63.8003 118.665 63.7497 118.665 63.6869V62.054C118.665 61.9914 118.716 61.9406 118.778 61.9406C118.841 61.9406 118.892 61.9914 118.892 62.054V63.6869C118.892 63.7497 118.841 63.8003 118.778 63.8003ZM118.778 60.5343C118.716 60.5343 118.665 60.4835 118.665 60.4209V58.7878C118.665 58.7252 118.716 58.6744 118.778 58.6744C118.841 58.6744 118.892 58.7252 118.892 58.7878V60.4209C118.892 60.4835 118.841 60.5343 118.778 60.5343ZM118.778 57.2681C118.716 57.2681 118.665 57.2173 118.665 57.1547V55.5216C118.665 55.459 118.716 55.4084 118.778 55.4084C118.841 55.4084 118.892 55.459 118.892 55.5216V57.1547C118.892 57.2173 118.841 57.2681 118.778 57.2681ZM118.778 54.0019C118.716 54.0019 118.665 53.9513 118.665 53.8885V52.2556C118.665 52.1928 118.716 52.1422 118.778 52.1422C118.841 52.1422 118.892 52.1928 118.892 52.2556V53.8885C118.892 53.9513 118.841 54.0019 118.778 54.0019ZM118.778 50.7357C118.716 50.7357 118.665 50.6851 118.665 50.6225V48.9894C118.665 48.9268 118.716 48.876 118.778 48.876C118.841 48.876 118.892 48.9268 118.892 48.9894V50.6225C118.892 50.6851 118.841 50.7357 118.778 50.7357ZM118.778 47.4697C118.716 47.4697 118.665 47.4189 118.665 47.3563V45.7232C118.665 45.6606 118.716 45.6098 118.778 45.6098C118.841 45.6098 118.892 45.6606 118.892 45.7232V47.3563C118.892 47.4189 118.841 47.4697 118.778 47.4697ZM118.778 44.2035C118.716 44.2035 118.665 44.1527 118.665 44.0901V42.457C118.665 42.3944 118.716 42.3438 118.778 42.3438C118.841 42.3438 118.892 42.3944 118.892 42.457V44.0901C118.892 44.1527 118.841 44.2035 118.778 44.2035ZM118.778 40.9376C118.716 40.9376 118.665 40.8867 118.665 40.8241V39.1939C118.665 39.1313 118.716 39.0791 118.778 39.0791C118.841 39.0791 118.892 39.1282 118.892 39.191V40.8241C118.892 40.8867 118.841 40.9376 118.778 40.9376ZM127.394 39.9741C127.332 39.9741 127.281 39.9233 127.281 39.8607V39.1939C127.281 39.0063 127.129 38.8538 126.941 38.8538H126.687C126.625 38.8538 126.574 38.803 126.574 38.7404C126.574 38.6778 126.625 38.627 126.687 38.627H126.941C127.253 38.627 127.508 38.8813 127.508 39.1939V39.8607C127.508 39.9233 127.457 39.9741 127.394 39.9741ZM125.054 38.8538H123.421C123.359 38.8538 123.308 38.803 123.308 38.7404C123.308 38.6778 123.359 38.627 123.421 38.627H125.054C125.117 38.627 125.168 38.6778 125.168 38.7404C125.168 38.803 125.117 38.8538 125.054 38.8538ZM121.788 38.8538H120.155C120.092 38.8538 120.042 38.803 120.042 38.7404C120.042 38.6778 120.092 38.627 120.155 38.627H121.788C121.851 38.627 121.902 38.6778 121.902 38.7404C121.902 38.803 121.851 38.8538 121.788 38.8538Z" fill="url(#paint64_linear)"/>
<path d="M127.395 42.4032C127.332 42.4032 127.281 42.3524 127.281 42.2898V41.4962C127.281 41.4334 127.332 41.3828 127.395 41.3828C127.457 41.3828 127.508 41.4334 127.508 41.4962V42.2898C127.508 42.3524 127.457 42.4032 127.395 42.4032Z" fill="url(#paint65_linear)"/>
<path d="M182.323 132.719H17.7792C17.1849 132.719 16.7031 132.237 16.7031 131.643V125.787C16.7031 125.193 17.1849 124.711 17.7792 124.711H182.323C182.917 124.711 183.399 125.193 183.399 125.787V131.643C183.399 132.237 182.917 132.719 182.323 132.719Z" fill="url(#paint66_linear)"/>
<path d="M82.4493 82.4775C82.4129 82.4775 82.3763 82.4657 82.3453 82.4417L76.5706 77.9606C76.4965 77.903 76.483 77.7963 76.5408 77.7222C76.5981 77.6478 76.705 77.6345 76.7792 77.6918L82.5538 82.173C82.628 82.2306 82.6415 82.3375 82.5839 82.4116C82.5503 82.4548 82.5002 82.4775 82.4493 82.4775Z" fill="#00308D"/>
<path d="M77.9689 82.4776C77.9347 82.4776 77.9002 82.4673 77.8703 82.4459C77.7938 82.3916 77.7759 82.2854 77.8304 82.2088L81.0179 77.7279C81.0724 77.6513 81.1784 77.6332 81.255 77.6877C81.3315 77.7423 81.3494 77.8485 81.2949 77.9249L78.1076 82.406C78.0743 82.4525 78.0219 82.4776 77.9689 82.4776Z" fill="#00308D"/>
<path d="M184.681 85.286C184.644 85.286 184.608 85.2744 184.577 85.2504L178.802 80.7693C178.728 80.7117 178.714 80.605 178.772 80.5306C178.83 80.4565 178.937 80.443 179.011 80.5005L184.785 84.9817C184.859 85.0393 184.873 85.146 184.815 85.2203C184.782 85.2635 184.732 85.286 184.681 85.286Z" fill="url(#paint67_linear)"/>
<path d="M180.2 85.2859C180.166 85.2859 180.132 85.2759 180.102 85.2545C180.025 85.2002 180.007 85.094 180.062 85.0174L183.249 80.5365C183.304 80.4599 183.41 80.4418 183.486 80.4963C183.563 80.5509 183.581 80.6571 183.526 80.7334L180.339 85.2146C180.306 85.2611 180.253 85.2859 180.2 85.2859Z" fill="url(#paint68_linear)"/>
<path d="M89.1085 47.9325C89.0721 47.9325 89.0354 47.9209 89.0045 47.8969L83.2298 43.4158C83.1557 43.3582 83.1421 43.2515 83.1999 43.1771C83.2573 43.103 83.3642 43.0894 83.4384 43.147L89.213 47.6282C89.2872 47.6858 89.3007 47.7924 89.2431 47.8668C89.2095 47.91 89.1593 47.9325 89.1085 47.9325Z" fill="url(#paint69_linear)"/>
<path d="M84.6269 47.9324C84.5929 47.9324 84.5585 47.9224 84.5286 47.901C84.452 47.8465 84.4341 47.7405 84.4884 47.6639L87.6759 43.183C87.7304 43.1064 87.8367 43.0883 87.913 43.1428C87.9898 43.1974 88.0074 43.3036 87.9531 43.3799L84.7657 47.8609C84.7325 47.9076 84.6802 47.9324 84.6269 47.9324Z" fill="url(#paint70_linear)"/>
<path d="M136.26 22.2665C136.224 22.2665 136.187 22.2548 136.156 22.2308L130.381 17.7497C130.307 17.6921 130.294 17.5854 130.351 17.5111C130.409 17.4369 130.516 17.4234 130.59 17.481L136.364 21.9621C136.439 22.0197 136.452 22.1264 136.394 22.2007C136.361 22.2439 136.311 22.2665 136.26 22.2665Z" fill="url(#paint71_linear)"/>
<path d="M131.779 22.2665C131.745 22.2665 131.711 22.2563 131.681 22.235C131.604 22.1805 131.587 22.0744 131.641 21.9979L134.828 17.5169C134.883 17.4404 134.989 17.4223 135.065 17.4768C135.142 17.5313 135.16 17.6374 135.106 17.7139L131.918 22.1949C131.885 22.2415 131.832 22.2665 131.779 22.2665Z" fill="url(#paint72_linear)"/>
<g opacity="0.7">
<path opacity="0.1" d="M40.533 52.4746L43.4829 46.1508L42.5057 44.7563L42.8822 43.9492C42.6553 44.0216 42.4287 44.0989 42.1996 44.1759C42.0068 44.2415 41.8142 44.3074 41.6192 44.3776C41.2608 44.5046 40.9005 44.6361 40.5399 44.7722C40.4038 44.8243 40.2677 44.8765 40.1316 44.931C39.8234 45.0512 39.515 45.1736 39.2044 45.3005C39.0501 45.364 38.8959 45.4296 38.7417 45.4955C38.5853 45.5612 38.4311 45.627 38.2769 45.6951C37.8145 45.8969 37.3496 46.1078 36.887 46.3253C36.4246 46.5453 35.9643 46.7698 35.5063 47.0056L35.5039 47.0034C35.4336 47.0374 35.3634 47.0736 35.2953 47.1099C34.4247 47.5612 33.5653 48.0395 32.7219 48.5497C32.4837 48.6926 32.2321 48.8468 31.9668 49.0099L33.0461 50.554L38.057 50.1165L40.218 52.4677L33.3772 53.0664L30.9737 49.6336C30.9102 49.6719 30.8467 49.713 30.7832 49.7559L33.266 53.3022L40.4128 52.6786L45.0021 57.6736C45.0453 57.6102 45.0883 57.5445 45.1312 57.481L40.533 52.4746ZM40.3652 52.2932L38.3428 50.0914L40.0886 49.9396L42.3947 44.9945L43.2222 46.1734L40.3652 52.2932Z" fill="#333333"/>
</g>
<path d="M34.3066 79.2518C33.8309 79.2518 33.3879 78.9499 33.2305 78.4735L32.5463 76.4041C32.3563 75.8294 32.4546 75.1936 32.809 74.703C33.1635 74.2126 33.7363 73.9199 34.3414 73.9199H36.6357C37.2619 73.9199 37.7695 74.4275 37.7695 75.0535C37.7695 75.6798 37.2619 76.1873 36.6357 76.1873H34.8626L35.3832 77.762C35.5797 78.3564 35.2571 78.9977 34.6627 79.194C34.5446 79.2332 34.4246 79.2518 34.3066 79.2518Z" fill="url(#paint73_linear)"/>
<path d="M67.0634 110.897C67.4632 110.442 67.292 109.638 66.681 109.101C66.0698 108.564 65.2505 108.497 64.8507 108.952C64.4509 109.407 64.6221 110.211 65.2331 110.748C65.8441 111.285 66.6636 111.352 67.0634 110.897Z" fill="url(#paint74_linear)"/>
<g opacity="0.25">
<path opacity="0.8" d="M71.0077 110.872C71.4075 110.417 71.2363 109.613 70.6253 109.076C70.0142 108.539 69.1949 108.472 68.7951 108.927C68.3952 109.382 68.5665 110.186 69.1774 110.723C69.7884 111.26 70.6079 111.327 71.0077 110.872Z" fill="url(#paint75_linear)"/>
</g>
<g opacity="0.68">
<path opacity="0.68" d="M74.953 110.845C75.3529 110.39 75.1816 109.586 74.5707 109.048C73.9595 108.511 73.1402 108.445 72.7404 108.9C72.3405 109.355 72.5118 110.159 73.1227 110.696C73.7337 111.233 74.5532 111.299 74.953 110.845Z" fill="#FAB5FB"/>
</g>
<defs>
<linearGradient id="paint0_linear" x1="35.091" y1="87.7248" x2="39.0635" y2="32.119" gradientUnits="userSpaceOnUse">
<stop stop-color="#393FC0"/>
<stop offset="1" stop-color="#D09EF6"/>
</linearGradient>
<linearGradient id="paint1_linear" x1="98.875" y1="119.75" x2="101.025" y2="14.4781" gradientUnits="userSpaceOnUse">
<stop offset="0.0163477" stop-color="#0008AE"/>
<stop offset="1" stop-color="#71FFEE" stop-opacity="0.99"/>
</linearGradient>
<linearGradient id="paint2_linear" x1="164.885" y1="75.9476" x2="164.885" y2="29.3337" gradientUnits="userSpaceOnUse">
<stop stop-color="#41F5FF"/>
<stop offset="1" stop-color="#75E0E6" stop-opacity="0"/>
</linearGradient>
<linearGradient id="paint3_linear" x1="153.259" y1="50.1499" x2="153.259" y2="40.4534" gradientUnits="userSpaceOnUse">
<stop stop-color="#41F5FF"/>
<stop offset="1" stop-color="#75E0E6" stop-opacity="0"/>
</linearGradient>
<linearGradient id="paint4_linear" x1="109.669" y1="58.7161" x2="109.669" y2="11.1165" gradientUnits="userSpaceOnUse">
<stop stop-color="#41F5FF"/>
<stop offset="1" stop-color="#75E0E6" stop-opacity="0"/>
</linearGradient>
<linearGradient id="paint5_linear" x1="88.6354" y1="58.743" x2="88.6354" y2="40.9089" gradientUnits="userSpaceOnUse">
<stop stop-color="#41F5FF"/>
<stop offset="1" stop-color="#75E0E6" stop-opacity="0"/>
</linearGradient>
<linearGradient id="paint6_linear" x1="55.8745" y1="113.499" x2="65.9995" y2="64.2494" gradientUnits="userSpaceOnUse">
<stop stop-color="#0F6AF2"/>
<stop offset="1" stop-color="#F68BFF"/>
</linearGradient>
<linearGradient id="paint7_linear" x1="64.7657" y1="84.6846" x2="64.6407" y2="77.3096" gradientUnits="userSpaceOnUse">
<stop stop-color="#1047DA"/>
<stop offset="1" stop-color="#2249B3" stop-opacity="0"/>
</linearGradient>
<linearGradient id="paint8_linear" x1="76.5397" y1="84.6846" x2="76.4147" y2="77.3096" gradientUnits="userSpaceOnUse">
<stop stop-color="#1047DA"/>
<stop offset="1" stop-color="#2249B3" stop-opacity="0"/>
</linearGradient>
<linearGradient id="paint9_linear" x1="44.2237" y1="95.0928" x2="44.0987" y2="87.7178" gradientUnits="userSpaceOnUse">
<stop stop-color="#1047DA"/>
<stop offset="1" stop-color="#2249B3" stop-opacity="0"/>
</linearGradient>
<linearGradient id="paint10_linear" x1="55.9962" y1="95.0928" x2="55.8712" y2="87.7178" gradientUnits="userSpaceOnUse">
<stop stop-color="#1047DA"/>
<stop offset="1" stop-color="#2249B3" stop-opacity="0"/>
</linearGradient>
<linearGradient id="paint11_linear" x1="67.7706" y1="95.0928" x2="67.6456" y2="87.7178" gradientUnits="userSpaceOnUse">
<stop stop-color="#1047DA"/>
<stop offset="1" stop-color="#2249B3" stop-opacity="0"/>
</linearGradient>
<linearGradient id="paint12_linear" x1="79.5436" y1="95.0928" x2="79.4186" y2="87.7178" gradientUnits="userSpaceOnUse">
<stop stop-color="#1047DA"/>
<stop offset="1" stop-color="#2249B3" stop-opacity="0"/>
</linearGradient>
<linearGradient id="paint13_linear" x1="47.2275" y1="105.501" x2="47.1025" y2="98.126" gradientUnits="userSpaceOnUse">
<stop stop-color="#1047DA"/>
<stop offset="1" stop-color="#2249B3" stop-opacity="0"/>
</linearGradient>
<linearGradient id="paint14_linear" x1="59.001" y1="105.501" x2="58.876" y2="98.126" gradientUnits="userSpaceOnUse">
<stop stop-color="#1047DA"/>
<stop offset="1" stop-color="#2249B3" stop-opacity="0"/>
</linearGradient>
<linearGradient id="paint15_linear" x1="70.7755" y1="105.501" x2="70.6505" y2="98.126" gradientUnits="userSpaceOnUse">
<stop stop-color="#1047DA"/>
<stop offset="1" stop-color="#2249B3" stop-opacity="0"/>
</linearGradient>
<linearGradient id="paint16_linear" x1="82.5485" y1="105.501" x2="82.4235" y2="98.126" gradientUnits="userSpaceOnUse">
<stop stop-color="#1047DA"/>
<stop offset="1" stop-color="#2249B3" stop-opacity="0"/>
</linearGradient>
<linearGradient id="paint17_linear" x1="105.758" y1="34.6581" x2="105.778" y2="26.4229" gradientUnits="userSpaceOnUse">
<stop offset="0.0163477" stop-color="#0008AE"/>
<stop offset="1" stop-color="#71FFEE" stop-opacity="0.99"/>
</linearGradient>
<linearGradient id="paint18_linear" x1="173.526" y1="36.8452" x2="173.891" y2="22.3578" gradientUnits="userSpaceOnUse">
<stop stop-color="#2249B3"/>
<stop offset="1" stop-color="#FFABF7" stop-opacity="0.92"/>
</linearGradient>
<linearGradient id="paint19_linear" x1="120.769" y1="93.7482" x2="120.769" y2="55.9973" gradientUnits="userSpaceOnUse">
<stop stop-color="#41F5FF"/>
<stop offset="1" stop-color="#75E0E6" stop-opacity="0"/>
</linearGradient>
<linearGradient id="paint20_linear" x1="129.385" y1="93.7447" x2="129.385" y2="39.5804" gradientUnits="userSpaceOnUse">
<stop stop-color="#41F5FF"/>
<stop offset="1" stop-color="#75E0E6" stop-opacity="0"/>
</linearGradient>
<linearGradient id="paint21_linear" x1="138.001" y1="93.7496" x2="138.001" y2="58.6246" gradientUnits="userSpaceOnUse">
<stop stop-color="#41F5FF"/>
<stop offset="1" stop-color="#75E0E6" stop-opacity="0"/>
</linearGradient>
<linearGradient id="paint22_linear" x1="146.616" y1="93.7558" x2="146.616" y2="79.3119" gradientUnits="userSpaceOnUse">
<stop stop-color="#41F5FF"/>
<stop offset="1" stop-color="#75E0E6" stop-opacity="0"/>
</linearGradient>
<linearGradient id="paint23_linear" x1="112.246" y1="98.5012" x2="112.246" y2="27.2668" gradientUnits="userSpaceOnUse">
<stop stop-color="#41F5FF"/>
<stop offset="1" stop-color="#75E0E6" stop-opacity="0"/>
</linearGradient>
<linearGradient id="paint24_linear" x1="160.78" y1="102.03" x2="160.78" y2="99.155" gradientUnits="userSpaceOnUse">
<stop stop-color="#0461ED"/>
<stop offset="1" stop-color="#46F0FD"/>
</linearGradient>
<linearGradient id="paint25_linear" x1="181.657" y1="62.3826" x2="181.657" y2="55.8172" gradientUnits="userSpaceOnUse">
<stop stop-color="#41F5FF"/>
<stop offset="1" stop-color="#75E0E6" stop-opacity="0"/>
</linearGradient>
<linearGradient id="paint26_linear" x1="181.768" y1="61.3613" x2="181.768" y2="54.4675" gradientUnits="userSpaceOnUse">
<stop stop-color="#41F5FF"/>
<stop offset="1" stop-color="#75E0E6" stop-opacity="0"/>
</linearGradient>
<linearGradient id="paint27_linear" x1="181.768" y1="65.8406" x2="181.768" y2="62.7221" gradientUnits="userSpaceOnUse">
<stop stop-color="#41F5FF"/>
<stop offset="1" stop-color="#75E0E6" stop-opacity="0"/>
</linearGradient>
<linearGradient id="paint28_linear" x1="181.768" y1="69.0166" x2="181.768" y2="65.8978" gradientUnits="userSpaceOnUse">
<stop stop-color="#41F5FF"/>
<stop offset="1" stop-color="#75E0E6" stop-opacity="0"/>
</linearGradient>
<linearGradient id="paint29_linear" x1="159.759" y1="70.9814" x2="159.759" y2="66.9084" gradientUnits="userSpaceOnUse">
<stop stop-color="#0461ED"/>
<stop offset="1" stop-color="#46F0FD"/>
</linearGradient>
<linearGradient id="paint30_linear" x1="98.3436" y1="108.081" x2="98.3435" y2="104.008" gradientUnits="userSpaceOnUse">
<stop stop-color="#0461ED"/>
<stop offset="1" stop-color="#46F0FD"/>
</linearGradient>
<linearGradient id="paint31_linear" x1="181.768" y1="72.1902" x2="181.768" y2="69.0717" gradientUnits="userSpaceOnUse">
<stop stop-color="#41F5FF"/>
<stop offset="1" stop-color="#75E0E6" stop-opacity="0"/>
</linearGradient>
<linearGradient id="paint32_linear" x1="62.6048" y1="39.2828" x2="62.6048" y2="37.845" gradientUnits="userSpaceOnUse">
<stop stop-color="#0461ED"/>
<stop offset="1" stop-color="#46F0FD"/>
</linearGradient>
<linearGradient id="paint33_linear" x1="48.249" y1="54.8751" x2="53.124" y2="49.8751" gradientUnits="userSpaceOnUse">
<stop stop-color="#7AA8FF"/>
<stop offset="1" stop-color="#B5CDFB" stop-opacity="0"/>
</linearGradient>
<linearGradient id="paint34_linear" x1="18.7495" y1="23.3757" x2="20.7495" y2="21.0007" gradientUnits="userSpaceOnUse">
<stop stop-color="#7AA8FF"/>
<stop offset="1" stop-color="#B5CDFB" stop-opacity="0"/>
</linearGradient>
<linearGradient id="paint35_linear" x1="31" y1="41.7501" x2="31.375" y2="25.3751" gradientUnits="userSpaceOnUse">
<stop stop-color="#2249B3"/>
<stop offset="1" stop-color="#FFABF7" stop-opacity="0.92"/>
</linearGradient>
<linearGradient id="paint36_linear" x1="21.5" y1="57.249" x2="25.75" y2="58.874" gradientUnits="userSpaceOnUse">
<stop stop-color="#0FDDE9"/>
<stop offset="1" stop-color="#81F8FF" stop-opacity="0"/>
</linearGradient>
<linearGradient id="paint37_linear" x1="38.1245" y1="22.5001" x2="42.2495" y2="15.8751" gradientUnits="userSpaceOnUse">
<stop stop-color="#675ACE"/>
<stop offset="1" stop-color="#DCC0FF"/>
</linearGradient>
<linearGradient id="paint38_linear" x1="62.3561" y1="33.7709" x2="62.4437" y2="30.2938" gradientUnits="userSpaceOnUse">
<stop stop-color="#2249B3"/>
<stop offset="1" stop-color="#B2ABFF"/>
</linearGradient>
<linearGradient id="paint39_linear" x1="19.6745" y1="38.3802" x2="19.762" y2="34.9032" gradientUnits="userSpaceOnUse">
<stop stop-color="#2249B3"/>
<stop offset="1" stop-color="#B2ABFF"/>
</linearGradient>
<linearGradient id="paint40_linear" x1="132.811" y1="102.03" x2="132.811" y2="99.155" gradientUnits="userSpaceOnUse">
<stop stop-color="#0461ED"/>
<stop offset="1" stop-color="#46F0FD"/>
</linearGradient>
<linearGradient id="paint41_linear" x1="140.285" y1="104.749" x2="140.285" y2="101.874" gradientUnits="userSpaceOnUse">
<stop stop-color="#0461ED"/>
<stop offset="1" stop-color="#46F0FD"/>
</linearGradient>
<linearGradient id="paint42_linear" x1="145.841" y1="107.471" x2="145.841" y2="104.596" gradientUnits="userSpaceOnUse">
<stop stop-color="#0461ED"/>
<stop offset="1" stop-color="#46F0FD"/>
</linearGradient>
<linearGradient id="paint43_linear" x1="125.888" y1="107.471" x2="125.888" y2="104.596" gradientUnits="userSpaceOnUse">
<stop stop-color="#0461ED"/>
<stop offset="1" stop-color="#46F0FD"/>
</linearGradient>
<linearGradient id="paint44_linear" x1="165.239" y1="107.471" x2="165.239" y2="104.596" gradientUnits="userSpaceOnUse">
<stop stop-color="#0461ED"/>
<stop offset="1" stop-color="#46F0FD"/>
</linearGradient>
<linearGradient id="paint45_linear" x1="150.067" y1="110.192" x2="150.067" y2="107.317" gradientUnits="userSpaceOnUse">
<stop stop-color="#0461ED"/>
<stop offset="1" stop-color="#46F0FD"/>
</linearGradient>
<linearGradient id="paint46_linear" x1="167.375" y1="104.749" x2="167.375" y2="101.874" gradientUnits="userSpaceOnUse">
<stop stop-color="#0461ED"/>
<stop offset="1" stop-color="#46F0FD"/>
</linearGradient>
<linearGradient id="paint47_linear" x1="129.6" y1="112.913" x2="129.6" y2="110.038" gradientUnits="userSpaceOnUse">
<stop stop-color="#0461ED"/>
<stop offset="1" stop-color="#46F0FD"/>
</linearGradient>
<linearGradient id="paint48_linear" x1="166.221" y1="112.913" x2="166.221" y2="110.038" gradientUnits="userSpaceOnUse">
<stop stop-color="#0461ED"/>
<stop offset="1" stop-color="#46F0FD"/>
</linearGradient>
<linearGradient id="paint49_linear" x1="153.751" y1="112.913" x2="153.751" y2="110.038" gradientUnits="userSpaceOnUse">
<stop stop-color="#0461ED"/>
<stop offset="1" stop-color="#46F0FD"/>
</linearGradient>
<linearGradient id="paint50_linear" x1="169.863" y1="43.5346" x2="169.863" y2="38.2823" gradientUnits="userSpaceOnUse">
<stop stop-color="#41F5FF"/>
<stop offset="1" stop-color="#75E0E6" stop-opacity="0"/>
</linearGradient>
<linearGradient id="paint51_linear" x1="159.115" y1="72.2189" x2="159.115" y2="71.8905" gradientUnits="userSpaceOnUse">
<stop stop-color="#41F5FF"/>
<stop offset="1" stop-color="#75E0E6" stop-opacity="0"/>
</linearGradient>
<linearGradient id="paint52_linear" x1="156.467" y1="72.2189" x2="156.467" y2="71.8905" gradientUnits="userSpaceOnUse">
<stop stop-color="#41F5FF"/>
<stop offset="1" stop-color="#75E0E6" stop-opacity="0"/>
</linearGradient>
<linearGradient id="paint53_linear" x1="168.091" y1="72.2127" x2="168.091" y2="50.8921" gradientUnits="userSpaceOnUse">
<stop stop-color="#41F5FF"/>
<stop offset="1" stop-color="#75E0E6" stop-opacity="0"/>
</linearGradient>
<linearGradient id="paint54_linear" x1="168.204" y1="43.0825" x2="168.204" y2="41.6052" gradientUnits="userSpaceOnUse">
<stop stop-color="#41F5FF"/>
<stop offset="1" stop-color="#75E0E6" stop-opacity="0"/>
</linearGradient>
<linearGradient id="paint55_linear" x1="168.204" y1="55.3834" x2="168.204" y2="39.4676" gradientUnits="userSpaceOnUse">
<stop stop-color="#41F5FF"/>
<stop offset="1" stop-color="#75E0E6" stop-opacity="0"/>
</linearGradient>
<linearGradient id="paint56_linear" x1="168.204" y1="57.719" x2="168.204" y2="56.242" gradientUnits="userSpaceOnUse">
<stop stop-color="#41F5FF"/>
<stop offset="1" stop-color="#75E0E6" stop-opacity="0"/>
</linearGradient>
<linearGradient id="paint57_linear" x1="56.2" y1="54.7314" x2="56.2" y2="53.773" gradientUnits="userSpaceOnUse">
<stop stop-color="#0461ED"/>
<stop offset="1" stop-color="#46F0FD"/>
</linearGradient>
<linearGradient id="paint58_linear" x1="56.1999" y1="56.0439" x2="56.1999" y2="55.0855" gradientUnits="userSpaceOnUse">
<stop stop-color="#0461ED"/>
<stop offset="1" stop-color="#46F0FD"/>
</linearGradient>
<linearGradient id="paint59_linear" x1="56.1999" y1="57.3564" x2="56.1999" y2="56.398" gradientUnits="userSpaceOnUse">
<stop stop-color="#0461ED"/>
<stop offset="1" stop-color="#46F0FD"/>
</linearGradient>
<linearGradient id="paint60_linear" x1="128.39" y1="47.5634" x2="128.39" y2="44.6088" gradientUnits="userSpaceOnUse">
<stop stop-color="#41F5FF"/>
<stop offset="1" stop-color="#75E0E6" stop-opacity="0"/>
</linearGradient>
<linearGradient id="paint61_linear" x1="128.757" y1="51.6659" x2="128.757" y2="47.618" gradientUnits="userSpaceOnUse">
<stop stop-color="#41F5FF"/>
<stop offset="1" stop-color="#75E0E6" stop-opacity="0"/>
</linearGradient>
<linearGradient id="paint62_linear" x1="128.868" y1="44.3262" x2="128.868" y2="39.9499" gradientUnits="userSpaceOnUse">
<stop stop-color="#41F5FF"/>
<stop offset="1" stop-color="#75E0E6" stop-opacity="0"/>
</linearGradient>
<linearGradient id="paint63_linear" x1="118.889" y1="66.2268" x2="118.889" y2="64.7498" gradientUnits="userSpaceOnUse">
<stop stop-color="#41F5FF"/>
<stop offset="1" stop-color="#75E0E6" stop-opacity="0"/>
</linearGradient>
<linearGradient id="paint64_linear" x1="127.397" y1="63.7902" x2="127.397" y2="27.3448" gradientUnits="userSpaceOnUse">
<stop stop-color="#41F5FF"/>
<stop offset="1" stop-color="#75E0E6" stop-opacity="0"/>
</linearGradient>
<linearGradient id="paint65_linear" x1="127.505" y1="42.4028" x2="127.505" y2="40.9255" gradientUnits="userSpaceOnUse">
<stop stop-color="#41F5FF"/>
<stop offset="1" stop-color="#75E0E6" stop-opacity="0"/>
</linearGradient>
<linearGradient id="paint66_linear" x1="90.3745" y1="134.875" x2="90.3745" y2="121.625" gradientUnits="userSpaceOnUse">
<stop stop-color="#0461ED"/>
<stop offset="1" stop-color="#64F4FF"/>
</linearGradient>
<linearGradient id="paint67_linear" x1="184.775" y1="85.284" x2="184.775" y2="78.3041" gradientUnits="userSpaceOnUse">
<stop stop-color="#41F5FF"/>
<stop offset="1" stop-color="#75E0E6" stop-opacity="0"/>
</linearGradient>
<linearGradient id="paint68_linear" x1="183.514" y1="85.284" x2="183.514" y2="78.3041" gradientUnits="userSpaceOnUse">
<stop stop-color="#41F5FF"/>
<stop offset="1" stop-color="#75E0E6" stop-opacity="0"/>
</linearGradient>
<linearGradient id="paint69_linear" x1="89.2023" y1="47.9305" x2="89.2023" y2="40.9506" gradientUnits="userSpaceOnUse">
<stop stop-color="#41F5FF"/>
<stop offset="1" stop-color="#75E0E6" stop-opacity="0"/>
</linearGradient>
<linearGradient id="paint70_linear" x1="87.9405" y1="47.9305" x2="87.9405" y2="40.9506" gradientUnits="userSpaceOnUse">
<stop stop-color="#41F5FF"/>
<stop offset="1" stop-color="#75E0E6" stop-opacity="0"/>
</linearGradient>
<linearGradient id="paint71_linear" x1="136.354" y1="22.2645" x2="136.354" y2="15.2846" gradientUnits="userSpaceOnUse">
<stop stop-color="#41F5FF"/>
<stop offset="1" stop-color="#75E0E6" stop-opacity="0"/>
</linearGradient>
<linearGradient id="paint72_linear" x1="135.093" y1="22.2645" x2="135.093" y2="15.2846" gradientUnits="userSpaceOnUse">
<stop stop-color="#41F5FF"/>
<stop offset="1" stop-color="#75E0E6" stop-opacity="0"/>
</linearGradient>
<linearGradient id="paint73_linear" x1="34.8042" y1="82.3353" x2="34.804" y2="71.0676" gradientUnits="userSpaceOnUse">
<stop stop-color="#0461ED"/>
<stop offset="1" stop-color="#46F0FD"/>
</linearGradient>
<linearGradient id="paint74_linear" x1="65.8048" y1="112.673" x2="65.8047" y2="107.287" gradientUnits="userSpaceOnUse">
<stop stop-color="#0461ED"/>
<stop offset="1" stop-color="#46F0FD"/>
</linearGradient>
<linearGradient id="paint75_linear" x1="70.4995" y1="109.626" x2="70.3745" y2="107.251" gradientUnits="userSpaceOnUse">
<stop stop-color="#C7B5FB"/>
<stop offset="1" stop-color="#B5CDFB" stop-opacity="0"/>
</linearGradient>
</defs>
</svg>
