<svg width="200" height="150" viewBox="0 0 200 150" fill="none" xmlns="http://www.w3.org/2000/svg">
<path opacity="0.1" d="M194.143 136.191C189.11 141.775 70.8517 139.179 51.1114 139.415C0.830111 108.428 -3.2595 60.3492 7.12183 33.8191C11.8144 21.8387 25.1581 9.12414 41.0447 6.42395C60.5752 3.1208 77.7464 16.9626 85.5324 23.2281C109.624 42.6275 109.415 62.8659 122.863 63.9932C137.596 65.2253 142.682 39.036 163.864 37.699C176.946 36.8601 186.252 46.0355 187.406 47.189C198.338 58.2782 199.544 77.0747 192.256 87.9541C185.099 98.65 171.152 99.8822 171.624 103.972C172.096 107.878 186.75 105.335 193.724 114.248C198.442 120.252 198.914 130.895 194.143 136.191Z" fill="#78D2EE"/>
<path opacity="0.19" d="M129.775 94.25H121C120.775 94.25 120.6 94.075 120.6 93.85V88.4C120.6 88.175 120.775 88 121 88H129.775C130 88 130.175 88.175 130.175 88.4V93.85C130.175 94.05 130 94.25 129.775 94.25Z" fill="#005B9D"/>
<path opacity="0.19" d="M129.775 79.75H121C120.775 79.75 120.6 79.575 120.6 79.35V73.9C120.6 73.675 120.775 73.5 121 73.5H129.775C130 73.5 130.175 73.675 130.175 73.9V79.35C130.175 79.575 130 79.75 129.775 79.75Z" fill="#005B9D"/>
<path d="M99.9509 86.0148H10.7133C9.92687 86.0148 9.27148 85.3595 9.27148 84.573V44.9614C9.27148 44.1749 9.92687 43.5195 10.7133 43.5195H70.1439C70.2225 43.5195 70.2749 43.572 70.2749 43.6506C70.2749 43.7293 70.2225 43.7817 70.1439 43.7817H10.7133C10.0579 43.7817 9.53364 44.306 9.53364 44.9614V84.573C9.53364 85.2284 10.0579 85.7527 10.7133 85.7527H99.9509C100.03 85.7527 100.082 85.8051 100.082 85.8838C100.082 85.9624 100.003 86.0148 99.9509 86.0148Z" fill="#00376D"/>
<path d="M174.901 83.4428H120.844C119.979 83.4428 119.271 82.735 119.271 81.8699V71.2526C119.271 70.3875 119.979 69.6797 120.844 69.6797H174.901C175.766 69.6797 176.474 70.3875 176.474 71.2526V81.8699C176.474 82.735 175.766 83.4428 174.901 83.4428ZM120.844 70.204C120.268 70.204 119.796 70.6759 119.796 71.2526V81.8699C119.796 82.4466 120.268 82.9185 120.844 82.9185H174.901C175.477 82.9185 175.949 82.4466 175.949 81.8699V71.2526C175.949 70.6759 175.477 70.204 174.901 70.204H120.844Z" fill="#78D2EE"/>
<path d="M174.822 98.7553H120.765C119.9 98.7553 119.192 98.0475 119.192 97.1824V86.5651C119.192 85.7 119.9 84.9922 120.765 84.9922H174.822C175.687 84.9922 176.395 85.7 176.395 86.5651V97.1824C176.395 98.0475 175.687 98.7553 174.822 98.7553ZM120.765 85.5165C120.189 85.5165 119.717 85.9884 119.717 86.5651V97.1824C119.717 97.7591 120.189 98.231 120.765 98.231H174.822C175.398 98.231 175.87 97.7591 175.87 97.1824V86.5651C175.87 85.9884 175.398 85.5165 174.822 85.5165H120.765Z" fill="#78D2EE"/>
<path d="M160.98 76.9206H132.799C132.615 76.9206 132.458 76.7633 132.458 76.5798V73.3291C132.458 73.1456 132.615 72.9883 132.799 72.9883H160.98C161.164 72.9883 161.321 73.1456 161.321 73.3291V76.5798C161.347 76.7633 161.19 76.9206 160.98 76.9206Z" fill="#78D2EE"/>
<path d="M161.085 80.1649H132.694C132.563 80.1649 132.458 80.06 132.458 79.9289V78.5133C132.458 78.3822 132.563 78.2773 132.694 78.2773H161.085C161.216 78.2773 161.321 78.3822 161.321 78.5133V79.9289C161.347 80.06 161.216 80.1649 161.085 80.1649Z" fill="#78D2EE"/>
<path d="M160.98 92.2292H132.799C132.615 92.2292 132.458 92.0719 132.458 91.8884V88.6377C132.458 88.4542 132.615 88.2969 132.799 88.2969H160.98C161.164 88.2969 161.321 88.4542 161.321 88.6377V91.8884C161.347 92.0719 161.19 92.2292 160.98 92.2292Z" fill="#78D2EE"/>
<path d="M161.085 95.45H132.694C132.563 95.45 132.458 95.3452 132.458 95.2141V93.7984C132.458 93.6674 132.563 93.5625 132.694 93.5625H161.085C161.216 93.5625 161.321 93.6674 161.321 93.7984V95.2141C161.347 95.3452 161.216 95.45 161.085 95.45Z" fill="#78D2EE"/>
<path d="M173.013 80.1713H164.441C164.284 80.1713 164.179 80.0665 164.179 79.9092V73.2504C164.179 73.0931 164.284 72.9883 164.441 72.9883H173.013C173.171 72.9883 173.275 73.0931 173.275 73.2504V79.9092C173.275 80.0402 173.171 80.1713 173.013 80.1713Z" fill="#78D2EE"/>
<path d="M173.013 95.4487H164.441C164.284 95.4487 164.179 95.3438 164.179 95.1865V88.5278C164.179 88.3705 164.284 88.2656 164.441 88.2656H173.013C173.171 88.2656 173.275 88.3705 173.275 88.5278V95.1865C173.275 95.3438 173.171 95.4487 173.013 95.4487Z" fill="#78D2EE"/>
<path fill-rule="evenodd" clip-rule="evenodd" d="M118.904 17.0664H176.001C176.709 17.0664 177.312 17.6431 177.312 18.3772V57.8315C177.312 58.5655 176.735 59.1423 176.001 59.1423H118.904C118.17 59.1423 117.593 58.5655 117.593 57.8315V18.3772C117.593 17.6431 118.17 17.0664 118.904 17.0664ZM35.1453 47.6602C35.0666 50.0196 33.284 52.0119 30.8984 52.3265C28.4865 52.6411 26.2844 51.1206 25.6553 48.8661L29.7973 48.3418L35.1453 47.6602ZM114.001 73.3242H110.147C109.413 73.3242 108.837 73.901 108.837 74.635V78.4887C108.837 79.2227 109.413 79.7994 110.147 79.7994H114.001C114.735 79.7994 115.312 79.2227 115.312 78.4887V74.635C115.312 73.901 114.735 73.3242 114.001 73.3242ZM98.1935 52.1679H85.0071C84.2468 52.1679 83.6177 51.5387 83.6177 50.7785V33.6336C83.6177 32.8733 84.2206 32.2441 85.0071 32.2441H98.1935C98.9537 32.2441 99.5829 32.8471 99.5829 33.6336V50.7785C99.5829 51.5387 98.98 52.1679 98.1935 52.1679ZM101.575 65.957H81.6514V68.7096H101.575V65.957ZM101.732 62.9178H81.4941V59.8506H101.732V62.9178ZM101.418 60.1652H81.8087V62.6032H101.418V60.1652ZM81.7036 58.2518H101.942V55.1846H81.7036V58.2518ZM81.992 55.4992H101.601V57.9372H81.992V55.4992ZM73.4461 121.327H76.7493C77.2998 121.327 77.7455 121.773 77.7455 122.323V125.626C77.7455 126.177 77.2998 126.623 76.7493 126.623H73.4461C72.8956 126.623 72.45 126.177 72.45 125.626V122.323C72.45 121.773 72.8956 121.327 73.4461 121.327ZM76.7493 111.207H73.4461C72.8956 111.207 72.45 111.653 72.45 112.203V115.506C72.45 116.057 72.8956 116.503 73.4461 116.503H76.7493C77.2998 116.503 77.7455 116.057 77.7455 115.506V112.203C77.7455 111.653 77.2998 111.207 76.7493 111.207ZM73.4461 101.11H76.7493C77.2998 101.11 77.7455 101.556 77.7455 102.107V105.41C77.7455 105.96 77.2998 106.406 76.7493 106.406H73.4461C72.8956 106.406 72.45 105.96 72.45 105.41V102.107C72.45 101.556 72.8956 101.11 73.4461 101.11ZM57.743 102.921H40.9913C38.1076 102.921 35.7744 105.254 35.7744 108.138V121.56C35.7744 124.444 38.1076 126.777 40.9913 126.777H57.743C60.6267 126.777 62.9599 124.444 62.9599 121.56V108.138C62.9599 105.254 60.6267 102.921 57.743 102.921ZM37.2687 128.796H61.4656C62.3045 128.796 62.9599 129.478 62.9599 130.29C62.9599 131.103 62.3045 131.784 61.4656 131.784H37.2687C36.456 131.784 35.7744 131.103 35.7744 130.29C35.7744 129.478 36.4298 128.796 37.2687 128.796ZM165.357 109.608H152.774V112.256H165.357V109.608ZM131.068 109.584H137.622V112.31H131.068V109.584ZM150.572 82.7607H143.546C142.812 82.7607 142.235 83.3375 142.235 84.0715V91.0973C142.235 91.8313 142.812 92.408 143.546 92.408H150.572C151.306 92.408 151.883 91.8313 151.883 91.0973V84.0715C151.883 83.3375 151.306 82.7607 150.572 82.7607ZM37.95 65.2753V68.4211C37.95 68.7095 37.7141 68.9454 37.4257 68.9454H16.1649C15.8766 68.9454 15.6406 68.7095 15.6406 68.4211V65.2753C15.6406 64.9869 15.8766 64.751 16.1649 64.751H37.4257C37.7141 64.751 37.95 64.9869 37.95 65.2753ZM19.0748 75.9694C20.1496 75.9694 21.041 75.0781 21.041 74.0033C21.041 72.9284 20.1496 72.0371 19.0748 72.0371C18 72.0371 17.1086 72.9284 17.1086 74.0033C17.1086 75.0781 17.9738 75.9694 19.0748 75.9694ZM21.1756 78.9612C21.3495 80.0331 20.6216 81.043 19.5498 81.217C18.4779 81.391 17.4679 80.6631 17.294 79.5912C17.12 78.5193 17.8479 77.5094 18.9198 77.3354C19.9917 77.1615 21.0016 77.8894 21.1756 78.9612Z" fill="url(#paint0_linear)"/>
<path d="M127.739 88.8711C127.739 88.8711 126.952 91.8859 126.952 92.2791C126.952 92.6986 128.813 92.6723 128.813 92.6723L128.21 89.3954L127.739 88.8711Z" fill="#00376D"/>
<path d="M51.5573 107.117C51.5573 107.117 49.9057 113.356 49.9319 114.222C49.9582 115.087 53.7856 115.008 53.7856 115.008L52.5273 108.192L51.5573 107.117Z" fill="#78D2EE"/>
<path d="M57.1144 122.111H41.6211V120.826C41.6211 117.628 44.0853 116.684 47.3885 115.059L51.0325 115.373C54.5978 117.287 57.1144 117.628 57.1144 120.826V122.111Z" fill="#00376D"/>
<path fill-rule="evenodd" clip-rule="evenodd" d="M96.202 19.9048H87.0266C85.7944 19.9048 84.7983 18.9086 84.8245 17.6765V15.6055H98.4303V17.6765C98.4303 18.9086 97.4341 19.9048 96.202 19.9048ZM12.4697 42.5822C12.4697 33.2757 20.0198 25.7256 29.3263 25.7256C38.6328 25.7256 46.1828 33.2757 46.1828 42.5822C46.1828 51.8887 38.6328 59.4387 29.3263 59.4387C20.0198 59.4387 12.4697 51.8887 12.4697 42.5822ZM25.6299 48.8739C26.2853 51.1284 28.4874 52.6489 30.8992 52.3343C33.2848 52.0197 35.0675 50.0274 35.1199 47.668L29.7719 48.3496L25.6299 48.8739ZM174.953 63.7102H122.365C120.399 63.7102 118.8 62.111 118.8 60.1449V53.3026C118.8 51.3364 120.399 49.7373 122.365 49.7373H174.953C176.92 49.7373 178.519 51.3364 178.519 53.3026V60.1449C178.519 62.111 176.92 63.7102 174.953 63.7102ZM130.413 80.3826C130.413 79.0441 129.608 78.6283 128.287 77.946C128.082 77.8398 127.864 77.7273 127.634 77.6038H127.53V76.7387C127.844 76.5814 128.054 76.293 128.054 75.8473L128.075 74.9315C128.08 74.8487 128.08 74.7713 128.08 74.6938L128.075 74.9315C128.071 74.9889 128.065 75.0489 128.054 75.1133C128.054 75.1133 128.001 74.6152 128.001 74.1957C128.001 74.0647 127.975 73.986 127.949 73.9336C127.943 73.9336 127.938 73.935 127.934 73.9372C127.93 73.9397 127.926 73.9432 127.923 73.9467C127.916 73.9533 127.91 73.9598 127.897 73.9598C127.372 74.1695 125.904 73.9598 125.904 73.9598C125.773 73.9336 125.983 74.4579 125.983 74.4579C125.983 74.4579 125.721 75.1133 125.59 75.2968C125.58 75.3068 125.573 75.3168 125.568 75.3254C125.56 75.3392 125.553 75.3492 125.537 75.3492C125.432 75.3492 125.275 74.8511 125.275 74.8511L125.249 74.8249L125.065 74.7201C125.065 74.707 125.059 74.6938 125.052 74.6807C125.046 74.6676 125.039 74.6545 125.039 74.6414C125.013 74.6414 125.013 74.6414 124.987 74.6676C124.777 74.7463 124.672 75.0346 124.777 75.2968C124.856 75.5327 125.065 75.69 125.249 75.6638C125.301 76.057 125.511 76.4241 125.826 76.6338V77.5775H125.721C125.6 77.6372 125.481 77.6948 125.365 77.7511C123.95 78.4379 122.942 78.9269 122.942 80.3564V80.9856H130.413V80.3826ZM125.365 92.8517L125.365 92.8513C125.481 92.7951 125.6 92.7376 125.721 92.6781H125.852V91.7343C125.511 91.4722 125.275 91.0527 125.275 90.5809V89.7682C125.275 88.9817 125.904 88.3525 126.691 88.3525C127.084 88.3525 127.425 88.4312 127.687 88.6147C127.949 88.7982 128.106 89.0866 128.106 89.4798V90.5809C128.106 91.0527 127.87 91.446 127.53 91.7081V92.6781H127.634C127.864 92.8015 128.081 92.914 128.287 93.02L128.287 93.0203C129.608 93.7027 130.413 94.1184 130.413 95.4569V96.0861H122.942V95.4569C122.942 94.0275 123.95 93.5384 125.365 92.8517ZM147.06 79.2055C148.161 79.2055 149.053 78.3134 149.053 77.2131C149.053 76.1127 148.161 75.2207 147.06 75.2207C145.96 75.2207 145.068 76.1127 145.068 77.2131C145.068 78.3134 145.96 79.2055 147.06 79.2055ZM98.011 48.7673C98.011 46.4724 96.6048 45.7445 94.2846 44.5435C93.9544 44.3726 93.6057 44.1921 93.2398 43.9961H89.9629C89.7674 44.0919 89.5755 44.1849 89.3876 44.276C86.9538 45.4554 85.1917 46.3093 85.1917 48.7673V49.8159H98.011V48.7673ZM91.588 58.2038C90.6967 58.2038 89.9626 57.496 89.9626 56.5785C89.9626 55.6872 90.6967 54.9531 91.588 54.9531C92.4793 54.9531 93.2134 55.6609 93.2134 56.5785C93.2134 57.4698 92.5055 58.2038 91.588 58.2038ZM189.817 134.073H10.1888C7.40996 134.073 5.18164 136.328 5.18164 139.08C5.18164 141.859 7.43617 144.088 10.1888 144.088H189.817C192.596 144.088 194.825 141.833 194.825 139.08C194.825 136.302 192.596 134.073 189.817 134.073ZM23.323 101.121C23.8735 101.121 24.3192 101.567 24.3192 102.117V105.42C24.3192 105.971 23.8735 106.417 23.323 106.417H20.0199C19.4693 106.417 19.0237 105.971 19.0237 105.42V102.117C19.0237 101.567 19.4693 101.121 20.0199 101.121H23.323ZM24.3192 112.233C24.3192 111.683 23.8735 111.237 23.323 111.237H20.0199C19.4693 111.237 19.0237 111.683 19.0237 112.233V115.537C19.0237 116.087 19.4693 116.533 20.0199 116.533H23.323C23.8735 116.533 24.3192 116.087 24.3192 115.537V112.233ZM20.0199 121.332H23.323C23.8735 121.332 24.3192 121.778 24.3192 122.328V125.631C24.3192 126.182 23.8735 126.628 23.323 126.628H20.0199C19.4693 126.628 19.0237 126.182 19.0237 125.631V122.328C19.0237 121.778 19.4693 121.332 20.0199 121.332ZM112.378 116.984C113.231 114.924 112.253 112.562 110.193 111.709C108.133 110.856 105.771 111.834 104.918 113.894C104.065 115.954 105.043 118.316 107.103 119.169C109.163 120.022 111.525 119.044 112.378 116.984ZM47.625 115.826V113.074C46.8909 112.549 46.419 111.684 46.3928 110.714V109.01C46.3928 107.385 47.7036 106.074 49.329 106.074C50.1416 106.074 50.8757 106.232 51.4 106.625C51.9243 107.018 52.2651 107.595 52.2651 108.407V110.688C52.2651 111.658 51.7932 112.523 51.0854 113.048V115.826C51.0854 116.77 50.3251 117.557 49.3552 117.557C48.4114 117.557 47.625 116.796 47.625 115.826Z" fill="url(#paint1_linear)"/>
<path d="M189.293 122.244H178.152C178.073 122.244 178.021 122.191 178.021 122.113C178.021 122.034 178.073 121.982 178.152 121.982H189.293C189.949 121.982 190.473 121.457 190.473 120.802V77.8872C190.473 77.2318 189.949 76.7075 189.293 76.7075H182.031C181.953 76.7075 181.9 76.655 181.9 76.5764C181.9 76.4977 181.953 76.4453 182.031 76.4453H189.293C190.08 76.4453 190.735 77.1007 190.735 77.8872V120.802C190.735 121.588 190.106 122.244 189.293 122.244Z" fill="#00376D"/>
<path d="M29.3258 53.3232C26.8616 53.3232 24.7119 51.4881 24.3973 48.9715L24.3711 48.8404L34.2805 47.582V47.7393C34.4378 49.0501 34.097 50.3609 33.2844 51.4095C32.4717 52.4581 31.292 53.1397 29.9812 53.297C29.7453 53.297 29.5355 53.3232 29.3258 53.3232ZM24.6595 49.0501C25.0527 51.5668 27.3859 53.3232 29.9026 53.0086C31.1609 52.8513 32.262 52.2222 33.0484 51.226C33.7825 50.256 34.1233 49.0763 34.0184 47.8704L24.6595 49.0501Z" fill="#00376D"/>
<path opacity="0.37" d="M37.2695 47.3987L35.1198 47.6608L29.7718 48.3425L25.6298 48.8668L22.3004 49.2862C21.1732 49.4173 20.4653 48.2638 21.1732 47.4511L22.4577 45.9568C23.7685 44.4101 24.3714 42.4702 24.1355 40.5564L23.8471 38.1971C23.6374 36.5717 24.555 35.4444 25.9968 34.789L25.8657 33.7142C25.7871 33.1375 26.2065 32.6132 26.7571 32.5607L28.8019 32.2986C29.3786 32.2199 29.9029 32.6394 29.9553 33.1899L30.0864 34.2647C31.6594 34.5269 32.8128 35.392 33.0226 37.0174L33.3109 39.3767C33.5469 41.2905 34.6217 43.0207 36.2733 44.1742L37.8986 45.3015C38.79 45.9568 38.3967 47.2676 37.2695 47.3987Z" fill="#8CFAE6"/>
<path d="M21.5136 49.4439C20.9893 49.4439 20.5174 49.1818 20.2815 48.7361C20.0456 48.2904 20.098 47.7661 20.4388 47.3467L21.7496 45.8262C23.0866 44.2795 23.6633 42.3657 23.4274 40.4258L23.1128 38.014C22.903 36.441 23.6895 35.1827 25.2887 34.4487L25.1576 33.4525C25.1052 33.1379 25.21 32.8233 25.3935 32.5612C25.577 32.299 25.8654 32.1417 26.18 32.1155L28.251 31.8533C28.5656 31.8009 28.8802 31.9058 29.1423 32.0893C29.4045 32.2728 29.5618 32.5612 29.588 32.8757L29.7191 33.8719C31.4493 34.1865 32.5241 35.2089 32.7076 36.7818L33.0222 39.1937C33.2582 41.1074 34.333 42.8114 35.9846 43.9911L37.6362 45.1446C38.0818 45.4592 38.2653 45.9573 38.1343 46.4554C38.0032 47.0059 37.5313 47.3991 36.9283 47.4778L21.6709 49.4177C21.6447 49.4439 21.5923 49.4439 21.5136 49.4439ZM28.4607 32.1155C28.4083 32.1155 28.3821 32.1155 28.3297 32.1155L26.2586 32.3776C26.0227 32.4039 25.7868 32.5349 25.6295 32.7184C25.4722 32.902 25.4197 33.1641 25.446 33.4001L25.6032 34.606L25.5246 34.6322C24.4235 35.1041 23.1652 36.074 23.4011 37.9615L23.7157 40.3734C23.9779 42.3657 23.3487 44.3581 21.9593 45.9573L20.6485 47.4778C20.3601 47.7923 20.3077 48.2118 20.5174 48.5788C20.7272 48.972 21.199 49.208 21.6971 49.1293L36.9546 47.1894C37.4526 47.137 37.8459 46.7962 37.9507 46.3505C38.0556 45.9573 37.8983 45.564 37.5575 45.3281L35.9059 44.1746C34.1757 42.9687 33.0747 41.186 32.8125 39.1937L32.4979 36.7818C32.262 34.8943 30.7939 34.2914 29.6142 34.0817L29.5094 34.0554L29.3521 32.8495C29.3258 32.6136 29.1948 32.3777 29.0113 32.2204C28.854 32.1679 28.6442 32.1155 28.4607 32.1155Z" fill="#00376D"/>
<path opacity="0.86" d="M174.823 128.715H108.838C108.104 128.715 107.527 128.139 107.527 127.405V116.787C107.527 116.053 108.104 115.477 108.838 115.477H174.823C175.557 115.477 176.133 116.053 176.133 116.787V127.405C176.133 128.139 175.557 128.715 174.823 128.715Z" fill="url(#paint2_linear)"/>
<path opacity="0.86" d="M175.294 136.66H108.366C107.894 136.66 107.527 136.293 107.527 135.821V132.046C107.527 131.574 107.894 131.207 108.366 131.207H175.294C175.766 131.207 176.133 131.574 176.133 132.046V135.821C176.133 136.293 175.766 136.66 175.294 136.66Z" fill="#78D2EE"/>
<path d="M178.754 47.5041C178.676 47.5041 178.623 47.4517 178.623 47.373V19.637C178.623 17.4873 176.867 15.7309 174.717 15.7309H123.073C120.923 15.7309 119.166 17.4873 119.166 19.637V33.2953C119.166 33.3739 119.114 33.4264 119.035 33.4264C118.957 33.4264 118.904 33.3739 118.904 33.2953V19.637C118.904 17.3563 120.766 15.4688 123.073 15.4688H174.717C176.998 15.4688 178.885 17.33 178.885 19.637V47.373C178.885 47.4517 178.807 47.5041 178.754 47.5041Z" fill="#00376D"/>
<path d="M175.19 62.6803H122.575C120.53 62.6803 118.879 61.0288 118.879 58.9839V52.1417C118.879 50.0969 120.53 48.4453 122.575 48.4453H175.164C177.208 48.4453 178.86 50.0969 178.86 52.1417V58.9839C178.886 61.0288 177.208 62.6803 175.19 62.6803ZM122.575 48.7337C120.688 48.7337 119.141 50.2804 119.141 52.1679V59.0102C119.141 60.8977 120.688 62.4444 122.575 62.4444H175.164C177.051 62.4444 178.598 60.8977 178.598 59.0102V52.1679C178.598 50.2804 177.051 48.7337 175.164 48.7337H122.575Z" fill="#00376D"/>
<path opacity="0.19" d="M125.904 60.2484C127.845 60.2484 129.417 58.6756 129.417 56.7355C129.417 54.7954 127.845 53.2227 125.904 53.2227C123.964 53.2227 122.392 54.7954 122.392 56.7355C122.392 58.6756 123.964 60.2484 125.904 60.2484Z" fill="#00376D"/>
<path opacity="0.19" d="M173.486 59.9576H133.874C132.773 59.9576 131.855 59.0663 131.855 57.939V54.8194C131.855 53.7183 132.747 52.8008 133.874 52.8008H173.486C174.587 52.8008 175.504 53.6921 175.504 54.8194V57.939C175.478 59.0401 174.587 59.9576 173.486 59.9576Z" fill="#00376D"/>
<path opacity="0.19" d="M150.52 33.8208C150.678 33.9257 150.651 34.1616 150.52 34.2403L148.528 35.551C148.344 35.6559 148.135 35.5248 148.135 35.3413V32.6411C148.135 32.4314 148.371 32.3003 148.554 32.4314L150.52 33.8208Z" fill="#00376D"/>
<path opacity="0.19" d="M122.024 25.6367V45.5081H174.272V25.6367H122.024ZM153.876 36.3326C153.876 37.0667 153.299 37.6434 152.565 37.6434H145.54C144.806 37.6434 144.229 37.0667 144.229 36.3326V31.4303C144.229 30.6963 144.806 30.1196 145.54 30.1196H152.565C153.299 30.1196 153.876 30.6963 153.876 31.4303V36.3326Z" fill="#00376D"/>
<path d="M79.7116 138.631H77.09C77.0114 138.631 76.9589 138.579 76.9589 138.5C76.9589 138.421 77.0114 138.369 77.09 138.369H79.7116C79.7902 138.369 79.8426 138.421 79.8426 138.5C79.8426 138.579 79.7902 138.631 79.7116 138.631ZM74.4685 138.631H71.8469C71.7683 138.631 71.7158 138.579 71.7158 138.5C71.7158 138.421 71.7683 138.369 71.8469 138.369H74.4685C74.5471 138.369 74.5995 138.421 74.5995 138.5C74.5995 138.579 74.5471 138.631 74.4685 138.631ZM69.2254 138.631H66.6038C66.5252 138.631 66.4727 138.579 66.4727 138.5C66.4727 138.421 66.5252 138.369 66.6038 138.369H69.2254C69.304 138.369 69.3564 138.421 69.3564 138.5C69.3564 138.579 69.304 138.631 69.2254 138.631ZM63.9823 138.631H61.3607C61.2821 138.631 61.2296 138.579 61.2296 138.5C61.2296 138.421 61.2821 138.369 61.3607 138.369H63.9823C64.0609 138.369 64.1133 138.421 64.1133 138.5C64.1133 138.579 64.0609 138.631 63.9823 138.631ZM58.7392 138.631H56.1176C56.039 138.631 55.9865 138.579 55.9865 138.5C55.9865 138.421 56.039 138.369 56.1176 138.369H58.7392C58.8178 138.369 58.8702 138.421 58.8702 138.5C58.8702 138.579 58.8178 138.631 58.7392 138.631ZM53.4961 138.631H50.8745C50.7959 138.631 50.7434 138.579 50.7434 138.5C50.7434 138.421 50.7959 138.369 50.8745 138.369H53.4961C53.5747 138.369 53.6271 138.421 53.6271 138.5C53.6271 138.579 53.5747 138.631 53.4961 138.631ZM48.253 138.631H45.6314C45.5528 138.631 45.5003 138.579 45.5003 138.5C45.5003 138.421 45.5528 138.369 45.6314 138.369H48.253C48.3316 138.369 48.384 138.421 48.384 138.5C48.384 138.579 48.3316 138.631 48.253 138.631ZM43.0099 138.631H40.3883C40.3097 138.631 40.2572 138.579 40.2572 138.5C40.2572 138.421 40.3097 138.369 40.3883 138.369H43.0099C43.0885 138.369 43.1409 138.421 43.1409 138.5C43.1409 138.579 43.0885 138.631 43.0099 138.631ZM37.7668 138.631H35.1452C35.0666 138.631 35.0141 138.579 35.0141 138.5C35.0141 138.421 35.0666 138.369 35.1452 138.369H37.7668C37.8454 138.369 37.8978 138.421 37.8978 138.5C37.8978 138.579 37.8454 138.631 37.7668 138.631ZM32.5237 138.631H29.9021C29.8235 138.631 29.771 138.579 29.771 138.5C29.771 138.421 29.8235 138.369 29.9021 138.369H32.5237C32.6023 138.369 32.6547 138.421 32.6547 138.5C32.6547 138.579 32.6023 138.631 32.5237 138.631ZM27.2806 138.631H24.659C24.5804 138.631 24.5279 138.579 24.5279 138.5C24.5279 138.421 24.5804 138.369 24.659 138.369H27.2806C27.3592 138.369 27.4116 138.421 27.4116 138.5C27.4116 138.579 27.3592 138.631 27.2806 138.631ZM22.0375 138.631H19.4159C19.3373 138.631 19.2848 138.579 19.2848 138.5C19.2848 138.421 19.3373 138.369 19.4159 138.369H22.0375C22.1161 138.369 22.1685 138.421 22.1685 138.5C22.1685 138.579 22.1161 138.631 22.0375 138.631ZM16.7944 138.631H16.4536C15.6671 138.631 15.0117 137.976 15.0117 137.189V136.953C15.0117 136.875 15.0641 136.822 15.1428 136.822C15.2214 136.822 15.2739 136.875 15.2739 136.953V137.189C15.2739 137.845 15.7982 138.369 16.4536 138.369H16.7944C16.873 138.369 16.9254 138.421 16.9254 138.5C16.9254 138.579 16.873 138.631 16.7944 138.631ZM82.1758 138.133C82.1496 138.133 82.1234 138.133 82.0972 138.107C82.0447 138.054 82.0447 137.976 82.0709 137.923C82.2282 137.713 82.3331 137.451 82.3331 137.189V135.459C82.3331 135.38 82.3855 135.328 82.4642 135.328C82.5428 135.328 82.5953 135.38 82.5953 135.459V137.189C82.5953 137.53 82.4904 137.845 82.2807 138.081C82.2544 138.107 82.2282 138.133 82.1758 138.133ZM15.1428 134.463C15.0641 134.463 15.0117 134.41 15.0117 134.332V131.71C15.0117 131.631 15.0641 131.579 15.1428 131.579C15.2214 131.579 15.2739 131.631 15.2739 131.71V134.332C15.2739 134.41 15.2214 134.463 15.1428 134.463ZM82.4642 132.968C82.3855 132.968 82.3331 132.916 82.3331 132.837V130.216C82.3331 130.137 82.3855 130.085 82.4642 130.085C82.5428 130.085 82.5953 130.137 82.5953 130.216V132.837C82.5953 132.89 82.5428 132.968 82.4642 132.968ZM15.1428 129.22C15.0641 129.22 15.0117 129.167 15.0117 129.089V126.467C15.0117 126.388 15.0641 126.336 15.1428 126.336C15.2214 126.336 15.2739 126.388 15.2739 126.467V129.089C15.2739 129.167 15.2214 129.22 15.1428 129.22ZM82.4642 127.725C82.3855 127.725 82.3331 127.673 82.3331 127.594V124.973C82.3331 124.894 82.3855 124.842 82.4642 124.842C82.5428 124.842 82.5953 124.894 82.5953 124.973V127.594C82.5953 127.647 82.5428 127.725 82.4642 127.725ZM15.1428 123.977C15.0641 123.977 15.0117 123.924 15.0117 123.845V121.224C15.0117 121.145 15.0641 121.093 15.1428 121.093C15.2214 121.093 15.2739 121.145 15.2739 121.224V123.845C15.2739 123.924 15.2214 123.977 15.1428 123.977ZM82.4642 122.482C82.3855 122.482 82.3331 122.43 82.3331 122.351V119.73C82.3331 119.651 82.3855 119.599 82.4642 119.599C82.5428 119.599 82.5953 119.651 82.5953 119.73V122.351C82.5953 122.404 82.5428 122.482 82.4642 122.482ZM15.1428 118.733C15.0641 118.733 15.0117 118.681 15.0117 118.602V115.981C15.0117 115.902 15.0641 115.85 15.1428 115.85C15.2214 115.85 15.2739 115.902 15.2739 115.981V118.602C15.2739 118.681 15.2214 118.733 15.1428 118.733ZM82.4642 117.239C82.3855 117.239 82.3331 117.187 82.3331 117.108V114.487C82.3331 114.408 82.3855 114.355 82.4642 114.355C82.5428 114.355 82.5953 114.408 82.5953 114.487V117.108C82.5953 117.161 82.5428 117.239 82.4642 117.239Z" fill="#00376D"/>
<path d="M82.4642 111.756C82.3855 111.756 82.3331 111.703 82.3331 111.625V93.4575C82.3331 92.8021 81.8088 92.2778 81.1534 92.2778H16.4536C15.7982 92.2778 15.2739 92.8021 15.2739 93.4575V111.625C15.2739 111.703 15.2214 111.756 15.1428 111.756C15.0641 111.756 15.0117 111.703 15.0117 111.625V93.4575C15.0117 92.671 15.6671 92.0156 16.4536 92.0156H81.1534C81.9399 92.0156 82.5953 92.671 82.5953 93.4575V111.625C82.5953 111.703 82.5428 111.756 82.4642 111.756Z" fill="#00376D"/>
<path opacity="0.2" d="M27.8319 119.043H18.9973C18.9186 119.043 18.8662 118.991 18.8662 118.912C18.8662 118.834 18.9186 118.781 18.9973 118.781H27.8319C27.9106 118.781 27.963 118.834 27.963 118.912C27.963 118.991 27.9106 119.043 27.8319 119.043Z" fill="#00376D"/>
<path opacity="0.2" d="M27.8319 108.922H18.9973C18.9186 108.922 18.8662 108.87 18.8662 108.791C18.8662 108.713 18.9186 108.66 18.9973 108.66H27.8319C27.9106 108.66 27.963 108.713 27.963 108.791C27.963 108.87 27.9106 108.922 27.8319 108.922Z" fill="#00376D"/>
<path opacity="0.2" d="M61.8072 96.7856H18.9973C18.9186 96.7856 18.8662 96.7332 18.8662 96.6545C18.8662 96.5759 18.9186 96.5234 18.9973 96.5234H61.8072C61.8858 96.5234 61.9383 96.5759 61.9383 96.6545C61.9383 96.7332 61.8858 96.7856 61.8072 96.7856Z" fill="#00376D"/>
<path opacity="0.2" d="M77.747 96.7856H68.9123C68.8337 96.7856 68.7812 96.7332 68.7812 96.6545C68.7812 96.5759 68.8337 96.5234 68.9123 96.5234H77.747C77.8256 96.5234 77.878 96.5759 77.878 96.6545C77.878 96.7332 77.8256 96.7856 77.747 96.7856Z" fill="#00376D"/>
<path opacity="0.2" d="M77.747 108.922H68.9123C68.8337 108.922 68.7812 108.87 68.7812 108.791C68.7812 108.713 68.8337 108.66 68.9123 108.66H77.747C77.8256 108.66 77.878 108.713 77.878 108.791C77.878 108.87 77.8256 108.922 77.747 108.922Z" fill="#00376D"/>
<path opacity="0.2" d="M77.747 119.043H68.9123C68.8337 119.043 68.7812 118.991 68.7812 118.912C68.7812 118.834 68.8337 118.781 68.9123 118.781H77.747C77.8256 118.781 77.878 118.834 77.878 118.912C77.878 118.991 77.8256 119.043 77.747 119.043Z" fill="#00376D"/>
<path d="M97.4075 119.649H96.0968C96.0181 119.649 95.9657 119.596 95.9657 119.518C95.9657 119.439 96.0181 119.387 96.0968 119.387H97.4075C97.4862 119.387 97.5386 119.439 97.5386 119.518C97.5386 119.596 97.4862 119.649 97.4075 119.649ZM94.786 119.649H93.4752C93.3966 119.649 93.3441 119.596 93.3441 119.518C93.3441 119.439 93.3966 119.387 93.4752 119.387H94.786C94.8646 119.387 94.9171 119.439 94.9171 119.518C94.9171 119.596 94.8646 119.649 94.786 119.649ZM92.1644 119.649H90.8537C90.775 119.649 90.7226 119.596 90.7226 119.518C90.7226 119.439 90.775 119.387 90.8537 119.387H92.1644C92.2431 119.387 92.2955 119.439 92.2955 119.518C92.2955 119.596 92.2431 119.649 92.1644 119.649ZM89.5429 119.649H88.2321C88.1535 119.649 88.101 119.596 88.101 119.518C88.101 119.439 88.1535 119.387 88.2321 119.387H89.5429C89.6215 119.387 89.674 119.439 89.674 119.518C89.674 119.596 89.6215 119.649 89.5429 119.649ZM86.9213 119.649H85.6106C85.5319 119.649 85.4795 119.596 85.4795 119.518C85.4795 119.439 85.5319 119.387 85.6106 119.387H86.9213C87 119.387 87.0524 119.439 87.0524 119.518C87.0524 119.596 87 119.649 86.9213 119.649ZM98.6921 119.439C98.6397 119.439 98.6134 119.413 98.5872 119.387C98.561 119.334 98.561 119.256 98.6397 119.203C98.9805 118.993 99.1902 118.626 99.1902 118.207C99.1902 118.128 99.2426 118.076 99.3213 118.076C99.3999 118.076 99.4523 118.128 99.4523 118.207C99.4523 118.705 99.1902 119.151 98.797 119.413C98.7445 119.439 98.7183 119.439 98.6921 119.439ZM99.2951 117.027C99.2164 117.027 99.164 116.975 99.164 116.896V115.585C99.164 115.507 99.2164 115.454 99.2951 115.454C99.3737 115.454 99.4261 115.507 99.4261 115.585V116.896C99.4261 116.975 99.3737 117.027 99.2951 117.027ZM99.2951 114.406C99.2164 114.406 99.164 114.353 99.164 114.275V112.964C99.164 112.885 99.2164 112.833 99.2951 112.833C99.3737 112.833 99.4261 112.885 99.4261 112.964V114.275C99.4261 114.353 99.3737 114.406 99.2951 114.406ZM99.2951 111.784C99.2164 111.784 99.164 111.732 99.164 111.653V110.342C99.164 110.264 99.2164 110.211 99.2951 110.211C99.3737 110.211 99.4261 110.264 99.4261 110.342V111.653C99.4261 111.732 99.3737 111.784 99.2951 111.784ZM99.2951 109.163C99.2164 109.163 99.164 109.11 99.164 109.031V107.721C99.164 107.642 99.2164 107.59 99.2951 107.59C99.3737 107.59 99.4261 107.642 99.4261 107.721V109.031C99.4261 109.11 99.3737 109.163 99.2951 109.163ZM99.2951 106.541C99.2164 106.541 99.164 106.489 99.164 106.41V105.099C99.164 105.02 99.2164 104.968 99.2951 104.968C99.3737 104.968 99.4261 105.02 99.4261 105.099V106.41C99.4261 106.489 99.3737 106.541 99.2951 106.541ZM99.2951 103.919C99.2164 103.919 99.164 103.841 99.164 103.788C99.1902 103.343 99.3475 102.871 99.5834 102.504C99.6096 102.451 99.7145 102.425 99.7669 102.451C99.8194 102.478 99.8456 102.582 99.8194 102.635C99.6096 103.002 99.4786 103.395 99.4523 103.815C99.4261 103.867 99.3737 103.919 99.2951 103.919ZM100.632 101.77C100.58 101.77 100.553 101.744 100.527 101.717C100.501 101.665 100.501 101.586 100.58 101.534C100.973 101.298 101.419 101.167 101.89 101.141C101.969 101.141 102.021 101.193 102.021 101.272C102.021 101.35 101.969 101.403 101.89 101.403C101.471 101.429 101.078 101.56 100.711 101.77C100.658 101.77 100.632 101.77 100.632 101.77ZM109.729 101.403H108.418C108.339 101.403 108.287 101.35 108.287 101.272C108.287 101.193 108.339 101.141 108.418 101.141H109.729C109.807 101.141 109.86 101.193 109.86 101.272C109.86 101.35 109.807 101.403 109.729 101.403ZM107.107 101.403H105.796C105.718 101.403 105.665 101.35 105.665 101.272C105.665 101.193 105.718 101.141 105.796 101.141H107.107C107.186 101.141 107.238 101.193 107.238 101.272C107.238 101.35 107.186 101.403 107.107 101.403ZM104.486 101.403H103.175C103.096 101.403 103.044 101.35 103.044 101.272C103.044 101.193 103.096 101.141 103.175 101.141H104.486C104.564 101.141 104.617 101.193 104.617 101.272C104.617 101.35 104.564 101.403 104.486 101.403ZM111.04 101.377C110.987 101.377 110.935 101.324 110.909 101.272C110.882 101.193 110.935 101.141 111.013 101.114C111.407 101.036 111.721 100.747 111.878 100.38C111.905 100.302 111.983 100.275 112.036 100.302C112.114 100.328 112.141 100.407 112.114 100.459C111.931 100.931 111.538 101.245 111.066 101.35C111.04 101.35 111.04 101.377 111.04 101.377ZM112.088 99.2531C112.01 99.2531 111.957 99.2006 111.957 99.122V97.8112C111.957 97.7326 112.01 97.6801 112.088 97.6801C112.167 97.6801 112.219 97.7326 112.219 97.8112V99.122C112.219 99.2006 112.141 99.2531 112.088 99.2531ZM112.088 96.6315C112.01 96.6315 111.957 96.5791 111.957 96.5004V95.1897C111.957 95.111 112.01 95.0586 112.088 95.0586C112.167 95.0586 112.219 95.111 112.219 95.1897V96.5004C112.219 96.5791 112.141 96.6315 112.088 96.6315Z" fill="#00376D"/>
<path d="M175.451 131.445H174.638C174.559 131.445 174.507 131.392 174.507 131.314C174.507 131.235 174.559 131.183 174.638 131.183H175.451C175.608 131.183 175.765 131.156 175.922 131.13C176.001 131.104 176.053 131.156 176.08 131.235C176.106 131.314 176.053 131.366 175.975 131.392C175.818 131.418 175.634 131.445 175.451 131.445ZM173.327 131.445H172.016C171.938 131.445 171.885 131.392 171.885 131.314C171.885 131.235 171.938 131.183 172.016 131.183H173.327C173.406 131.183 173.458 131.235 173.458 131.314C173.458 131.392 173.406 131.445 173.327 131.445ZM170.706 131.445H169.395C169.316 131.445 169.264 131.392 169.264 131.314C169.264 131.235 169.316 131.183 169.395 131.183H170.706C170.784 131.183 170.837 131.235 170.837 131.314C170.837 131.392 170.784 131.445 170.706 131.445ZM177.128 130.842C177.102 130.842 177.05 130.816 177.023 130.789C176.971 130.737 176.997 130.658 177.05 130.606C177.364 130.344 177.626 130.003 177.81 129.636C177.836 129.557 177.915 129.531 177.993 129.557C178.072 129.583 178.098 129.662 178.072 129.741C177.889 130.16 177.6 130.527 177.233 130.816C177.181 130.842 177.155 130.842 177.128 130.842ZM178.151 128.535C178.072 128.535 178.02 128.482 178.02 128.404V127.093C178.02 127.014 178.072 126.962 178.151 126.962C178.229 126.962 178.282 127.014 178.282 127.093V128.404C178.282 128.482 178.229 128.535 178.151 128.535ZM178.151 125.913C178.072 125.913 178.02 125.861 178.02 125.782V124.471C178.02 124.393 178.072 124.34 178.151 124.34C178.229 124.34 178.282 124.393 178.282 124.471V125.782C178.282 125.861 178.229 125.913 178.151 125.913ZM178.151 123.292C178.072 123.292 178.02 123.239 178.02 123.161V121.85C178.02 121.771 178.072 121.719 178.151 121.719C178.229 121.719 178.282 121.771 178.282 121.85V123.161C178.282 123.239 178.229 123.292 178.151 123.292Z" fill="#00376D"/>
<path d="M178.151 121.981C178.072 121.981 178.02 121.929 178.02 121.85V120.539C178.02 120.46 178.072 120.408 178.151 120.408C178.229 120.408 178.282 120.46 178.282 120.539V121.85C178.282 121.929 178.229 121.981 178.151 121.981ZM178.151 119.359C178.072 119.359 178.02 119.307 178.02 119.228V117.918C178.02 117.839 178.072 117.786 178.151 117.786C178.229 117.786 178.282 117.839 178.282 117.918V119.228C178.282 119.307 178.229 119.359 178.151 119.359ZM178.151 116.738C178.072 116.738 178.02 116.685 178.02 116.607V115.296C178.02 115.217 178.072 115.165 178.151 115.165C178.229 115.165 178.282 115.217 178.282 115.296V116.607C178.282 116.685 178.229 116.738 178.151 116.738ZM177.915 114.169C177.862 114.169 177.81 114.143 177.784 114.09C177.626 113.723 177.364 113.382 177.023 113.12C176.971 113.068 176.945 112.989 176.997 112.937C177.05 112.884 177.128 112.858 177.181 112.91C177.548 113.199 177.836 113.566 178.02 113.985C178.046 114.064 178.02 114.116 177.941 114.169C177.967 114.169 177.941 114.169 177.915 114.169ZM175.949 112.596C175.765 112.57 175.608 112.543 175.451 112.543H174.638C174.559 112.543 174.507 112.491 174.507 112.412C174.507 112.334 174.559 112.281 174.638 112.281H175.451C175.634 112.281 175.818 112.307 175.975 112.334C176.053 112.36 176.08 112.412 176.08 112.491C176.08 112.543 176.027 112.596 175.949 112.596ZM173.327 112.543H172.016C171.938 112.543 171.885 112.491 171.885 112.412C171.885 112.334 171.938 112.281 172.016 112.281H173.327C173.406 112.281 173.458 112.334 173.458 112.412C173.458 112.491 173.406 112.543 173.327 112.543ZM170.706 112.543H169.395C169.316 112.543 169.264 112.491 169.264 112.412C169.264 112.334 169.316 112.281 169.395 112.281H170.706C170.784 112.281 170.837 112.334 170.837 112.412C170.837 112.491 170.784 112.543 170.706 112.543Z" fill="#00376D"/>
<path d="M178.099 86.5111H177.286C177.208 86.5111 177.155 86.4587 177.155 86.38C177.155 86.3014 177.208 86.2489 177.286 86.2489H178.099C178.256 86.2489 178.414 86.2227 178.571 86.1965C178.65 86.1703 178.702 86.2227 178.728 86.3014C178.754 86.38 178.702 86.4325 178.623 86.4587C178.44 86.4849 178.256 86.5111 178.099 86.5111ZM179.777 85.9081C179.751 85.9081 179.698 85.8819 179.672 85.8557C179.62 85.8033 179.646 85.7246 179.698 85.6722C180.013 85.4101 180.275 85.0693 180.458 84.7022C180.485 84.6236 180.563 84.5974 180.642 84.6236C180.721 84.6498 180.747 84.7284 180.721 84.8071C180.537 85.2265 180.249 85.5936 179.882 85.8819C179.829 85.9081 179.803 85.9081 179.777 85.9081ZM180.799 83.6012C180.721 83.6012 180.668 83.5487 180.668 83.4701V82.1593C180.668 82.0807 180.721 82.0283 180.799 82.0283C180.878 82.0283 180.93 82.0807 180.93 82.1593V83.4701C180.93 83.5487 180.878 83.6012 180.799 83.6012ZM180.799 80.9796C180.721 80.9796 180.668 80.9272 180.668 80.8486V79.5378C180.668 79.4591 180.721 79.4067 180.799 79.4067C180.878 79.4067 180.93 79.4591 180.93 79.5378V80.8486C180.93 80.9272 180.878 80.9796 180.799 80.9796ZM180.799 78.3581C180.721 78.3581 180.668 78.3057 180.668 78.227V76.9162C180.668 76.8376 180.721 76.7852 180.799 76.7852C180.878 76.7852 180.93 76.8376 180.93 76.9162V78.227C180.93 78.3057 180.878 78.3581 180.799 78.3581Z" fill="#00376D"/>
<path d="M180.799 77.0513C180.721 77.0513 180.668 76.9989 180.668 76.9202V75.6094C180.668 75.5308 180.721 75.4784 180.799 75.4784C180.878 75.4784 180.93 75.5308 180.93 75.6094V76.9202C180.93 76.9989 180.878 77.0513 180.799 77.0513ZM180.799 74.4297C180.721 74.4297 180.668 74.3773 180.668 74.2987V72.9879C180.668 72.9093 180.721 72.8568 180.799 72.8568C180.878 72.8568 180.93 72.9093 180.93 72.9879V74.2987C180.93 74.3773 180.878 74.4297 180.799 74.4297ZM180.799 71.8082C180.721 71.8082 180.668 71.7558 180.668 71.6771V70.3663C180.668 70.2877 180.721 70.2353 180.799 70.2353C180.878 70.2353 180.93 70.2877 180.93 70.3663V71.6771C180.93 71.7558 180.878 71.8082 180.799 71.8082ZM180.563 69.2391C180.511 69.2391 180.458 69.2129 180.432 69.1604C180.275 68.7934 180.013 68.4526 179.672 68.1905C179.619 68.138 179.593 68.0594 179.646 68.007C179.698 67.9545 179.777 67.9545 179.829 67.9807C180.196 68.2691 180.485 68.6361 180.668 69.0556C180.694 69.1342 180.668 69.1866 180.589 69.2391C180.589 69.2391 180.589 69.2391 180.563 69.2391ZM178.597 67.6661C178.571 67.6661 178.571 67.6661 178.597 67.6661C178.414 67.6399 178.256 67.6137 178.099 67.6137H177.286C177.208 67.6137 177.155 67.5613 177.155 67.4826C177.155 67.404 177.208 67.3516 177.286 67.3516H178.099C178.282 67.3516 178.466 67.3778 178.623 67.404C178.702 67.4302 178.728 67.4826 178.728 67.5613C178.702 67.6137 178.65 67.6661 178.597 67.6661ZM175.976 67.6137H174.665C174.586 67.6137 174.534 67.5613 174.534 67.4826C174.534 67.404 174.586 67.3516 174.665 67.3516H175.976C176.054 67.3516 176.107 67.404 176.107 67.4826C176.107 67.5613 176.054 67.6137 175.976 67.6137ZM173.354 67.6137H172.043C171.965 67.6137 171.912 67.5613 171.912 67.4826C171.912 67.404 171.965 67.3516 172.043 67.3516H173.354C173.433 67.3516 173.485 67.404 173.485 67.4826C173.485 67.5613 173.433 67.6137 173.354 67.6137Z" fill="#00376D"/>
<path d="M112.088 93.797C112.009 93.797 111.957 93.7445 111.957 93.6659V80.9514C111.957 80.8727 112.009 80.8203 112.088 80.8203C112.167 80.8203 112.219 80.8727 112.219 80.9514V93.6659C112.219 93.7445 112.141 93.797 112.088 93.797Z" fill="#00376D"/>
<path d="M69.0168 75.6834H23.4019C23.1659 75.6834 22.9824 75.4999 22.9824 75.264V73.3765C22.9824 73.1405 23.1659 72.957 23.4019 72.957H69.0168C69.2528 72.957 69.4363 73.1405 69.4363 73.3765V75.264C69.4101 75.4999 69.2266 75.6834 69.0168 75.6834Z" fill="#044371"/>
<path d="M73.604 80.5858H23.48C23.2441 80.5858 23.0605 80.4023 23.0605 80.1663V78.2788C23.0605 78.0429 23.2441 77.8594 23.48 77.8594H73.604C73.84 77.8594 74.0235 78.0429 74.0235 78.2788V80.1663C74.0235 80.4023 73.84 80.5858 73.604 80.5858Z" fill="#80B6DE"/>
<path d="M95.101 116.866H91.2473C90.5133 116.866 89.9365 116.289 89.9365 115.555V111.701C89.9365 110.967 90.5133 110.391 91.2473 110.391H95.101C95.835 110.391 96.4117 110.967 96.4117 111.701V115.555C96.4117 116.263 95.8088 116.866 95.101 116.866Z" fill="#00376D"/>
<path d="M107.108 97.3112H103.254C102.52 97.3112 101.943 96.7344 101.943 96.0004V92.1467C101.943 91.4127 102.52 90.8359 103.254 90.8359H107.108C107.842 90.8359 108.419 91.4127 108.419 92.1467V96.0004C108.419 96.7082 107.842 97.3112 107.108 97.3112Z" fill="#00376D"/>
<path d="M167.35 138.625H128.997V108.137H167.35V138.625ZM129.259 138.363H167.088V108.399H129.259V138.363Z" fill="#00376D"/>
<path d="M167.219 113.332H129.128C129.05 113.332 128.997 113.28 128.997 113.201C128.997 113.123 129.05 113.07 129.128 113.07H167.219C167.298 113.07 167.35 113.123 167.35 113.201C167.35 113.28 167.298 113.332 167.219 113.332Z" fill="#00376D"/>
<path d="M138.592 117.34H134.004C133.925 117.34 133.873 117.288 133.873 117.209C133.873 117.131 133.925 117.078 134.004 117.078H138.592C138.67 117.078 138.723 117.131 138.723 117.209C138.723 117.288 138.67 117.34 138.592 117.34Z" fill="#00376D"/>
<path d="M162.344 117.34H139.877C139.799 117.34 139.746 117.288 139.746 117.209C139.746 117.131 139.799 117.078 139.877 117.078H162.344C162.422 117.078 162.475 117.131 162.475 117.209C162.475 117.288 162.422 117.34 162.344 117.34Z" fill="#00376D"/>
<path d="M147.794 119.622H134.03C133.952 119.622 133.899 119.569 133.899 119.49C133.899 119.412 133.952 119.359 134.03 119.359H147.794C147.872 119.359 147.925 119.412 147.925 119.49C147.925 119.569 147.872 119.622 147.794 119.622Z" fill="#00376D"/>
<path d="M162.344 119.622H149.629C149.55 119.622 149.498 119.569 149.498 119.49C149.498 119.412 149.55 119.359 149.629 119.359H162.344C162.422 119.359 162.475 119.412 162.475 119.49C162.475 119.569 162.422 119.622 162.344 119.622Z" fill="#00376D"/>
<path d="M138.592 121.875H134.004C133.925 121.875 133.873 121.823 133.873 121.744C133.873 121.666 133.925 121.613 134.004 121.613H138.592C138.67 121.613 138.723 121.666 138.723 121.744C138.723 121.823 138.67 121.875 138.592 121.875Z" fill="#00376D"/>
<path d="M162.344 121.875H139.877C139.799 121.875 139.746 121.823 139.746 121.744C139.746 121.666 139.799 121.613 139.877 121.613H162.344C162.422 121.613 162.475 121.666 162.475 121.744C162.475 121.823 162.422 121.875 162.344 121.875Z" fill="#00376D"/>
<path d="M155.842 124.161H134.03C133.952 124.161 133.899 124.108 133.899 124.03C133.899 123.951 133.952 123.898 134.03 123.898H155.842C155.92 123.898 155.973 123.951 155.973 124.03C155.973 124.108 155.92 124.161 155.842 124.161Z" fill="#00376D"/>
<path d="M162.343 124.161H157.493C157.415 124.161 157.362 124.108 157.362 124.03C157.362 123.951 157.415 123.898 157.493 123.898H162.343C162.422 123.898 162.474 123.951 162.474 124.03C162.474 124.108 162.422 124.161 162.343 124.161Z" fill="#00376D"/>
<path d="M122.076 31.6432C121.998 31.6432 121.919 31.5646 121.919 31.4859V21.7862C121.919 21.7076 121.998 21.6289 122.076 21.6289C122.155 21.6289 122.234 21.7076 122.234 21.7862V31.4859C122.234 31.5908 122.155 31.6432 122.076 31.6432Z" fill="#00376D"/>
<path d="M174.297 44.0923C174.219 44.0923 174.14 44.0136 174.14 43.935V20.8392H122.234V21.8091C122.234 21.8878 122.155 21.9664 122.076 21.9664C121.998 21.9664 121.919 21.8878 121.919 21.8091V20.5508H174.455V43.935C174.455 44.0136 174.376 44.0923 174.297 44.0923Z" fill="#00376D"/>
<path d="M174.297 25.7951H122.076C121.998 25.7951 121.919 25.7164 121.919 25.6378C121.919 25.5591 121.998 25.4805 122.076 25.4805H174.297C174.376 25.4805 174.455 25.5591 174.455 25.6378C174.455 25.7164 174.376 25.7951 174.297 25.7951Z" fill="#00376D"/>
<path d="M158.411 43.7833H123.623C123.544 43.7833 123.466 43.7047 123.466 43.626C123.466 43.5474 123.544 43.4688 123.623 43.4688H158.411C158.49 43.4688 158.568 43.5474 158.568 43.626C158.568 43.7047 158.49 43.7833 158.411 43.7833Z" fill="#00376D"/>
<path d="M172.147 43.7833H160.665C160.586 43.7833 160.508 43.7047 160.508 43.626C160.508 43.5474 160.586 43.4688 160.665 43.4688H172.147C172.226 43.4688 172.305 43.5474 172.305 43.626C172.305 43.7047 172.226 43.7833 172.147 43.7833Z" fill="#00376D"/>
<path d="M180.8 77.808C181.48 77.808 182.032 77.2564 182.032 76.5759C182.032 75.8954 181.48 75.3438 180.8 75.3438C180.119 75.3438 179.567 75.8954 179.567 76.5759C179.567 77.2564 180.119 77.808 180.8 77.808Z" fill="#00376D"/>
<path d="M178.152 123.081C178.833 123.081 179.384 122.53 179.384 121.849C179.384 121.169 178.833 120.617 178.152 120.617C177.472 120.617 176.92 121.169 176.92 121.849C176.92 122.53 177.472 123.081 178.152 123.081Z" fill="#00376D"/>
<path d="M126.69 78.9621C126.035 78.9621 125.484 78.5164 125.484 77.9659C125.484 77.8872 125.563 77.8086 125.642 77.8086C125.72 77.8086 125.799 77.8872 125.799 77.9659C125.799 78.3329 126.192 78.6475 126.69 78.6475C127.188 78.6475 127.582 78.3329 127.582 77.9659C127.582 77.8872 127.66 77.8086 127.739 77.8086C127.818 77.8086 127.896 77.8872 127.896 77.9659C127.896 78.5164 127.346 78.9621 126.69 78.9621Z" fill="#00376D"/>
<path opacity="0.34" d="M127.529 76.7572V76.8096C127.294 76.9931 127.005 77.2029 126.691 77.2029C126.376 77.2029 126.088 76.9931 125.878 76.8096V76.6523C126.114 76.8359 126.402 76.9145 126.691 76.9145C127.005 76.9145 127.294 76.8621 127.529 76.7572Z" fill="#00376D"/>
<path d="M126.953 76.3146C126.901 76.3146 126.822 76.3146 126.769 76.2884C126.638 76.2097 126.586 76.0786 126.586 76.0786C126.586 76.0524 126.586 76 126.638 76C126.665 76 126.717 76 126.717 76.0524C126.717 76.0524 126.743 76.1311 126.822 76.1835C126.901 76.2097 127.005 76.2097 127.11 76.1573C127.136 76.1573 127.189 76.1573 127.189 76.1835C127.189 76.2097 127.189 76.2621 127.163 76.2621C127.084 76.3146 127.005 76.3146 126.953 76.3146Z" fill="#00376D"/>
<path d="M127.005 75.6843C126.926 75.6843 126.9 75.6581 126.9 75.6319L126.874 75.5794L126.926 75.5532C126.953 75.5532 126.979 75.5532 127.005 75.5532C127.031 75.5532 127.084 75.5532 127.162 75.527C127.189 75.527 127.189 75.527 127.215 75.5008C127.267 75.3959 127.189 75.0551 127.11 74.8716C127.11 74.8454 127.11 74.793 127.136 74.793C127.162 74.793 127.215 74.793 127.215 74.8192C127.241 74.8716 127.425 75.3697 127.293 75.5794C127.267 75.6319 127.215 75.6581 127.162 75.6581C127.11 75.6843 127.031 75.6843 127.005 75.6843Z" fill="#00376D"/>
<path d="M128.08 73.7163L128.053 74.6863C128.053 74.8174 128.053 74.9485 128.027 75.1057C128.027 75.1057 127.975 74.6077 127.975 74.1882C127.975 74.0571 127.948 73.9785 127.922 73.9261C127.896 73.9261 127.896 73.9523 127.87 73.9523C127.346 74.162 125.877 73.9523 125.877 73.9523C125.746 73.9261 125.956 74.4504 125.956 74.4504C125.956 74.4504 125.694 75.1057 125.563 75.2893C125.537 75.3155 125.537 75.3417 125.51 75.3417C125.406 75.3417 125.248 74.8436 125.248 74.8436L125.222 74.8174L125.039 74.7125C125.039 74.6863 125.012 74.6601 125.012 74.6339C124.855 74.0571 125.039 73.428 125.143 73.428C125.143 73.428 125.17 73.428 125.17 73.4542C125.301 72.8512 125.799 72.3793 126.428 72.3269L128.132 72.1172C128.184 72.1172 128.316 73.2182 128.08 73.7163Z" fill="#00376D"/>
<path d="M128.08 74.6887L128.106 73.7188C128.106 74.0071 128.08 74.3479 128.08 74.6887Z" fill="#00376D"/>
<path d="M126.69 94.0324C126.035 94.0324 125.484 93.5867 125.484 93.0362C125.484 92.9575 125.563 92.8789 125.642 92.8789C125.72 92.8789 125.799 92.9575 125.799 93.0362C125.799 93.4032 126.192 93.7178 126.69 93.7178C127.188 93.7178 127.582 93.4032 127.582 93.0362C127.582 92.9575 127.66 92.8789 127.739 92.8789C127.818 92.8789 127.896 92.9575 127.896 93.0362C127.896 93.5867 127.346 94.0324 126.69 94.0324Z" fill="#00376D"/>
<path opacity="0.34" d="M127.529 91.7031V91.8604C127.529 91.8604 127.451 92.3061 127.031 92.4109C126.743 92.4896 126.088 92.0439 125.852 91.8866V91.7293C126.088 91.9128 126.376 91.9915 126.664 91.9915C126.979 91.9915 127.293 91.8866 127.529 91.7031Z" fill="#00376D"/>
<path d="M127.032 91.3611C127.032 91.3611 127.006 91.3611 127.032 91.3611C126.875 91.3611 126.77 91.23 126.77 91.2038C126.743 91.1776 126.743 91.1252 126.77 91.099C126.796 91.0727 126.848 91.0727 126.875 91.099C126.875 91.099 126.953 91.2038 127.058 91.2038C127.11 91.2038 127.189 91.099 127.215 90.9941C127.215 90.9679 127.268 90.9417 127.294 90.9679C127.32 90.9679 127.346 91.0203 127.32 91.0465C127.294 91.1252 127.189 91.3611 127.032 91.3611Z" fill="#00376D"/>
<path d="M127.163 90.7585C127.11 90.7585 127.031 90.7585 126.953 90.7323C126.927 90.7323 126.9 90.6799 126.9 90.6537C126.9 90.6274 126.953 90.6012 126.979 90.6012C127.084 90.6274 127.189 90.6274 127.241 90.6274C127.241 90.5226 127.189 90.208 127.136 89.9458C127.136 89.9196 127.163 89.8672 127.189 89.8672C127.215 89.8672 127.267 89.8934 127.267 89.9196C127.425 90.6536 127.372 90.7061 127.346 90.7323C127.294 90.7585 127.241 90.7585 127.163 90.7585Z" fill="#00376D"/>
<path d="M125.957 89.7629L126.402 89.7105L126.586 89.0288L126.822 89.658L128.395 89.6056C128.395 89.6056 128.395 88.3735 128.028 88.0851C127.136 87.3773 125.065 87.6656 124.882 88.1899C123.728 88.9502 123.833 92.6728 124.069 93.3282L126.35 93.0398C126.324 93.0398 125.826 89.7367 125.957 89.7629Z" fill="#00376D"/>
<path d="M103.096 76.2351H80.1315C77.8507 76.2351 76.0156 74.4 76.0156 72.1193V20.7369C76.0156 18.4562 77.8507 16.6211 80.1315 16.6211H103.096C105.377 16.6211 107.212 18.4562 107.212 20.7369V72.1193C107.212 74.4 105.351 76.2351 103.096 76.2351ZM80.1315 16.9357C78.0342 16.9357 76.3302 18.6397 76.3302 20.7369V72.1193C76.3302 74.2165 78.0342 75.9205 80.1315 75.9205H103.096C105.193 75.9205 106.897 74.2165 106.897 72.1193V20.7369C106.897 18.6397 105.193 16.9357 103.096 16.9357H80.1315Z" fill="#00376D"/>
<path d="M100.999 73.7699H82.2291C79.9484 73.7699 78.1133 71.9348 78.1133 69.654V23.0167C78.1133 22.938 78.1919 22.8594 78.2706 22.8594C78.3492 22.8594 78.4279 22.938 78.4279 23.0167V69.654C78.4279 71.7513 80.1319 73.4553 82.2291 73.4553H100.999C103.097 73.4553 104.801 71.7513 104.801 69.654V23.0167C104.801 22.938 104.879 22.8594 104.958 22.8594C105.037 22.8594 105.115 22.938 105.115 23.0167V69.654C105.115 71.9348 103.28 73.7699 100.999 73.7699Z" fill="#00376D"/>
<path d="M91.6137 46.0876C90.8273 46.0876 90.1719 45.4323 90.1719 44.6458V41.5786C90.1719 40.7921 90.8273 40.1367 91.6137 40.1367C92.4002 40.1367 93.0556 40.7921 93.0556 41.5786V44.6458C93.0556 45.4323 92.4002 46.0876 91.6137 46.0876Z" fill="#78D2EE"/>
<path d="M91.6141 46.3228C90.4869 46.3228 89.5693 45.5625 89.5693 44.645C89.5693 44.5139 89.6742 44.3828 89.8315 44.3828C89.9888 44.3828 90.0936 44.4877 90.0936 44.645C90.0936 45.3004 90.8015 45.8247 91.6404 45.8247C92.4792 45.8247 93.1871 45.3004 93.1871 44.645C93.1871 44.5139 93.2919 44.3828 93.4492 44.3828C93.6065 44.3828 93.7114 44.4877 93.7114 44.645C93.6589 45.5625 92.7414 46.3228 91.6141 46.3228Z" fill="#00376D"/>
<path opacity="0.34" d="M93.0557 42.2081V42.6276C92.6625 42.9421 92.1382 43.3092 91.6139 43.3092C91.0896 43.3092 90.5915 42.9421 90.1982 42.6538V42.2081C90.1982 41.7887 90.539 41.4741 90.9323 41.4741H92.3217C92.7149 41.4479 93.0557 41.7887 93.0557 42.2081Z" fill="black"/>
<path d="M91.5884 42.8113C90.2514 42.8113 89.1504 41.7364 89.1504 40.3732V38.9838C89.1504 37.6468 90.2252 36.5458 91.5884 36.5458C92.9254 36.5458 94.0265 35.9428 94.0265 37.2798V40.3732C94.0265 41.7364 92.9254 42.8113 91.5884 42.8113Z" fill="#78D2EE"/>
<path d="M89.3141 40.6639C89.6839 40.5371 89.8543 40.0568 89.6947 39.5911C89.535 39.1255 89.1058 38.8507 88.736 38.9775C88.3662 39.1043 88.1958 39.5845 88.3555 40.0502C88.5151 40.5159 88.9443 40.7906 89.3141 40.6639Z" fill="#78D2EE"/>
<path d="M92.0601 41.788C91.9553 41.788 91.8504 41.7618 91.7718 41.7093C91.5358 41.6045 91.4572 41.3685 91.4572 41.3685C91.431 41.3161 91.4834 41.2374 91.5358 41.2374C91.5883 41.2112 91.6669 41.2637 91.6669 41.3161C91.6669 41.3161 91.7193 41.4734 91.8766 41.5258C92.0077 41.5782 92.1912 41.5782 92.3747 41.4996C92.4271 41.4734 92.5058 41.4996 92.532 41.5782C92.5582 41.6569 92.532 41.7093 92.4534 41.7355C92.2961 41.7618 92.165 41.788 92.0601 41.788Z" fill="#00376D"/>
<path d="M92.1648 40.6848C92.0337 40.6848 92.0075 40.6586 91.9813 40.5799L91.9551 40.5013L92.0599 40.4488C92.1124 40.4226 92.1386 40.4226 92.191 40.4488C92.2434 40.4488 92.3221 40.4488 92.4794 40.4226C92.5056 40.4226 92.5318 40.3964 92.558 40.3702C92.6629 40.1867 92.5056 39.6099 92.4007 39.2691C92.3745 39.2167 92.4007 39.1381 92.4532 39.1118C92.5056 39.0856 92.5842 39.1118 92.6105 39.1643C92.6367 39.2691 92.9513 40.108 92.7677 40.4488C92.7153 40.5275 92.6367 40.5799 92.5318 40.6061C92.3221 40.6848 92.2172 40.6848 92.1648 40.6848Z" fill="#00376D"/>
<path d="M91.2203 39.718C91.3506 39.718 91.4563 39.6123 91.4563 39.482C91.4563 39.3517 91.3506 39.2461 91.2203 39.2461C91.09 39.2461 90.9844 39.3517 90.9844 39.482C90.9844 39.6123 91.09 39.718 91.2203 39.718Z" fill="#00376D"/>
<path d="M93.1871 39.718C93.3174 39.718 93.423 39.6123 93.423 39.482C93.423 39.3517 93.3174 39.2461 93.1871 39.2461C93.0568 39.2461 92.9512 39.3517 92.9512 39.482C92.9512 39.6123 93.0568 39.718 93.1871 39.718Z" fill="#00376D"/>
<path d="M90.2512 37.7507C90.2512 37.7507 92.7678 38.0915 93.6592 37.7245C94.5505 37.3575 94.8126 36.3875 94.0262 36.1778C93.2397 35.9681 89.4122 35.9943 89.0977 36.9118C88.9404 36.6759 88.4685 37.9605 88.8617 39.0877L89.2287 39.2975C89.2287 39.2975 89.4909 40.1626 89.6482 40.1626C89.8055 40.1626 90.4084 38.6159 90.4084 38.6159C90.4084 38.6159 90.0152 37.6983 90.2512 37.7507Z" fill="#00376D"/>
<path d="M93.4229 37.4358C93.4229 37.4358 93.8161 38.1698 93.8423 38.9038C93.8685 39.6117 94.0258 39.8476 94.0258 39.8476V37.3047L93.4229 37.4358Z" fill="#00376D"/>
<path opacity="0.86" d="M101.76 26.5039H81.8359V29.2565H101.76V26.5039Z" fill="#E6E6E6"/>
<path d="M125.642 56.8637H124.331C124.253 56.8637 124.2 56.8113 124.2 56.7326C124.2 56.654 124.253 56.6016 124.331 56.6016H125.642C125.721 56.6016 125.773 56.654 125.773 56.7326C125.773 56.8113 125.695 56.8637 125.642 56.8637ZM123.021 56.8637H121.71C121.631 56.8637 121.579 56.8113 121.579 56.7326C121.579 56.654 121.631 56.6016 121.71 56.6016H123.021C123.099 56.6016 123.152 56.654 123.152 56.7326C123.152 56.8113 123.073 56.8637 123.021 56.8637ZM120.399 56.8637H119.088C119.01 56.8637 118.957 56.8113 118.957 56.7326C118.957 56.654 119.01 56.6016 119.088 56.6016H120.399C120.478 56.6016 120.53 56.654 120.53 56.7326C120.53 56.8113 120.452 56.8637 120.399 56.8637ZM117.778 56.8637H116.467C116.388 56.8637 116.336 56.8113 116.336 56.7326C116.336 56.654 116.388 56.6016 116.467 56.6016H117.778C117.856 56.6016 117.909 56.654 117.909 56.7326C117.909 56.8113 117.83 56.8637 117.778 56.8637ZM115.156 56.8637H113.845C113.767 56.8637 113.714 56.8113 113.714 56.7326C113.714 56.654 113.767 56.6016 113.845 56.6016H115.156C115.235 56.6016 115.287 56.654 115.287 56.7326C115.287 56.8113 115.208 56.8637 115.156 56.8637ZM112.534 56.8637H111.224C111.145 56.8637 111.093 56.8113 111.093 56.7326C111.093 56.654 111.145 56.6016 111.224 56.6016H112.534C112.613 56.6016 112.666 56.654 112.666 56.7326C112.666 56.8113 112.587 56.8637 112.534 56.8637ZM109.913 56.8637H108.602C108.523 56.8637 108.471 56.8113 108.471 56.7326C108.471 56.654 108.523 56.6016 108.602 56.6016H109.913C109.992 56.6016 110.044 56.654 110.044 56.7326C110.044 56.8113 109.965 56.8637 109.913 56.8637ZM107.291 56.8637H105.981C105.902 56.8637 105.849 56.8113 105.849 56.7326C105.849 56.654 105.902 56.6016 105.981 56.6016H107.291C107.37 56.6016 107.422 56.654 107.422 56.7326C107.422 56.8113 107.344 56.8637 107.291 56.8637ZM104.67 56.8637H103.359C103.28 56.8637 103.228 56.8113 103.228 56.7326C103.228 56.654 103.28 56.6016 103.359 56.6016H104.67C104.748 56.6016 104.801 56.654 104.801 56.7326C104.801 56.8113 104.722 56.8637 104.67 56.8637ZM102.048 56.8637H100.737C100.659 56.8637 100.606 56.8113 100.606 56.7326C100.606 56.654 100.659 56.6016 100.737 56.6016H102.048C102.127 56.6016 102.179 56.654 102.179 56.7326C102.179 56.8113 102.101 56.8637 102.048 56.8637ZM99.4267 56.8637H98.1159C98.0373 56.8637 97.9848 56.8113 97.9848 56.7326C97.9848 56.654 98.0373 56.6016 98.1159 56.6016H99.4267C99.5053 56.6016 99.5578 56.654 99.5578 56.7326C99.5578 56.8113 99.4791 56.8637 99.4267 56.8637ZM96.8051 56.8637H95.4944C95.4157 56.8637 95.3633 56.8113 95.3633 56.7326C95.3633 56.654 95.4157 56.6016 95.4944 56.6016H96.8051C96.8838 56.6016 96.9362 56.654 96.9362 56.7326C96.9362 56.8113 96.8576 56.8637 96.8051 56.8637Z" fill="#00376D"/>
<path d="M74.6528 48.2909C74.2072 48.2909 73.7615 48.2385 73.3158 48.1074C73.2372 48.0812 73.211 48.0025 73.2372 47.9501C73.2634 47.8714 73.3421 47.8452 73.3945 47.8714C73.7877 48.0025 74.2334 48.0549 74.6528 48.0549C74.7315 48.0549 74.7839 48.1074 74.7839 48.186C74.7839 48.2647 74.7315 48.2909 74.6528 48.2909ZM72.1886 47.5569C72.1624 47.5569 72.1362 47.5568 72.1099 47.5306C71.7429 47.2947 71.4021 46.9801 71.1137 46.6393C71.0613 46.5869 71.0613 46.5082 71.14 46.4558C71.1924 46.4034 71.271 46.4034 71.3235 46.482C71.5856 46.7966 71.9264 47.085 72.2672 47.3209C72.3197 47.3733 72.3459 47.452 72.2934 47.5044C72.2672 47.5306 72.241 47.5569 72.1886 47.5569ZM70.5108 45.5907C70.4584 45.5907 70.4059 45.5645 70.3797 45.512C70.1962 45.0926 70.0913 44.6731 70.0127 44.2275C70.0127 44.1488 70.0651 44.0964 70.1176 44.0702C70.1962 44.0702 70.2486 44.1226 70.2749 44.175C70.3273 44.5945 70.4321 45.0139 70.6156 45.4072C70.6419 45.4858 70.6157 45.5383 70.537 45.5907C70.5632 45.5907 70.537 45.5907 70.5108 45.5907ZM70.1962 43.0216C70.1962 43.0216 70.17 43.0216 70.1962 43.0216C70.0913 42.9953 70.0651 42.9429 70.0651 42.8643C70.1438 42.4186 70.2748 41.9992 70.4846 41.5797C70.5108 41.5273 70.5894 41.5011 70.6681 41.5273C70.7205 41.5535 70.7729 41.6321 70.7205 41.7108C70.537 42.104 70.4059 42.4973 70.3273 42.9167C70.3273 42.9691 70.2486 43.0216 70.1962 43.0216ZM71.3235 40.7146C71.2973 40.7146 71.271 40.7146 71.2448 40.6884C71.1924 40.636 71.1924 40.5573 71.2448 40.5049C71.5594 40.1641 71.9002 39.8757 72.2934 39.666C72.3459 39.6398 72.4245 39.6398 72.477 39.7184C72.5032 39.7708 72.5032 39.8495 72.4245 39.9019C72.0575 40.1116 71.7167 40.4 71.4283 40.7146C71.4021 40.6884 71.3759 40.7146 71.3235 40.7146ZM73.5518 39.3776C73.4994 39.3776 73.4469 39.3252 73.4207 39.2727C73.3945 39.1941 73.4469 39.1417 73.5256 39.1155C73.8926 39.0106 74.2858 38.9844 74.679 38.9844C74.7577 38.9844 74.8101 39.0368 74.8101 39.1155C74.8101 39.1941 74.7577 39.2465 74.679 39.2465C74.312 39.2465 73.945 39.299 73.6042 39.3776C73.578 39.3776 73.5518 39.3776 73.5518 39.3776Z" fill="#00376D"/>
<path d="M152.565 30.1211H145.539C144.805 30.1211 144.229 30.6978 144.229 31.4319V36.3342C144.229 37.0682 144.805 37.6449 145.539 37.6449H152.565C153.299 37.6449 153.876 37.0682 153.876 36.3342V31.4319C153.876 30.7241 153.299 30.1211 152.565 30.1211ZM150.52 34.2631L148.528 35.5477C148.344 35.6526 148.135 35.5215 148.135 35.338V32.6378C148.135 32.4281 148.371 32.297 148.554 32.4281L150.52 33.8437C150.678 33.9223 150.678 34.1583 150.52 34.2631Z" fill="url(#paint3_linear)"/>
<path d="M150.52 34.2665L148.528 35.551C148.344 35.6559 148.135 35.5248 148.135 35.3413V32.6411C148.135 32.4314 148.371 32.3003 148.554 32.4314L150.52 33.847C150.678 33.9257 150.678 34.1616 150.52 34.2665Z" fill="white"/>
<path d="M153.562 95.059H140.532C140.454 95.059 140.401 95.0066 140.401 94.928C140.401 94.8493 140.454 94.7969 140.532 94.7969H153.562C153.64 94.7969 153.693 94.8493 153.693 94.928C153.693 95.0066 153.64 95.059 153.562 95.059Z" fill="#00376D"/>
<path d="M147.06 82.4462C146.981 82.4462 146.929 82.42 146.929 82.42V79.5887C146.929 79.5625 146.981 79.5625 147.06 79.5625C147.138 79.5625 147.191 79.5887 147.191 79.5887V82.3938C147.191 82.42 147.112 82.4462 147.06 82.4462Z" fill="#00376D"/>
<path d="M147.401 90.2609C147.349 90.2609 147.27 90.2085 147.27 90.156C147.27 90.0774 147.323 90.025 147.375 89.9987C147.794 89.9463 148.188 89.789 148.502 89.5269C148.555 89.4744 148.633 89.5006 148.686 89.5531C148.738 89.6055 148.712 89.6842 148.66 89.7366C148.293 90.025 147.873 90.2085 147.401 90.2609ZM146.09 90.1036C146.064 90.1036 146.064 90.1036 146.038 90.1036C145.619 89.9463 145.225 89.6579 144.937 89.2909C144.885 89.2385 144.911 89.1598 144.963 89.1074C145.016 89.055 145.094 89.0812 145.147 89.1336C145.409 89.4482 145.75 89.7104 146.143 89.8677C146.222 89.8939 146.248 89.9725 146.222 90.025C146.195 90.0774 146.143 90.1036 146.09 90.1036ZM149.394 88.7666C149.367 88.7666 149.367 88.7666 149.341 88.7666C149.262 88.7404 149.236 88.6617 149.262 88.5831C149.394 88.2685 149.472 87.9277 149.472 87.5869C149.472 87.5083 149.472 87.4558 149.472 87.3772C149.472 87.2985 149.525 87.2461 149.603 87.2461C149.682 87.2461 149.734 87.2985 149.734 87.3772C149.734 87.4558 149.734 87.5345 149.734 87.6131C149.734 88.0064 149.656 88.3734 149.498 88.7142C149.498 88.7404 149.446 88.7666 149.394 88.7666ZM144.517 88.1637C144.465 88.1637 144.413 88.1112 144.386 88.0588C144.36 87.9015 144.334 87.7442 144.334 87.5869C144.334 87.115 144.465 86.6694 144.675 86.2761C144.701 86.2237 144.78 86.1975 144.858 86.2237C144.911 86.2499 144.937 86.3286 144.911 86.4072C144.701 86.7742 144.596 87.1675 144.596 87.5869C144.596 87.718 144.596 87.8753 144.622 88.0064C144.649 88.085 144.622 88.1374 144.517 88.1637C144.517 88.1637 144.544 88.1637 144.517 88.1637ZM149.184 86.2761C149.131 86.2761 149.105 86.2499 149.079 86.2237C148.843 85.8829 148.528 85.5945 148.161 85.411C148.109 85.3848 148.083 85.3062 148.109 85.2275C148.135 85.1751 148.214 85.1489 148.293 85.1751C148.712 85.3848 149.053 85.6994 149.315 86.0664C149.367 86.1188 149.341 86.1975 149.289 86.2499C149.236 86.2761 149.21 86.2761 149.184 86.2761ZM145.697 85.5159C145.645 85.5159 145.619 85.4897 145.592 85.4635C145.566 85.411 145.566 85.3324 145.645 85.28C146.038 85.044 146.484 84.8867 146.956 84.8867C147.034 84.8867 147.087 84.9391 147.087 85.0178C147.087 85.0964 147.034 85.1489 146.956 85.1489C146.536 85.1751 146.143 85.28 145.776 85.5159C145.75 85.5159 145.723 85.5159 145.697 85.5159Z" fill="#00376D"/>
<path opacity="0.34" d="M51.1117 113.039V113.354C51.1117 113.354 50.9281 114.271 50.063 114.507C49.4339 114.664 48.1231 113.747 47.625 113.406V113.065C48.0969 113.406 48.6998 113.616 49.329 113.616C50.0106 113.616 50.6136 113.406 51.1117 113.039Z" fill="#00376D"/>
<path d="M50.1149 112.362C49.8528 112.362 49.5644 112.179 49.5382 112.153C49.4858 112.1 49.4595 112.022 49.512 111.969C49.5644 111.917 49.6431 111.89 49.6955 111.943C49.7741 111.995 50.0101 112.126 50.1674 112.1C50.3771 112.048 50.4033 111.655 50.4033 111.655C50.4033 111.576 50.4557 111.523 50.5344 111.523C50.613 111.523 50.6655 111.576 50.6655 111.655C50.6655 111.681 50.6655 112.257 50.246 112.362C50.1936 112.362 50.1412 112.362 50.1149 112.362Z" fill="#00376D"/>
<path d="M50.3777 111.051C50.2466 111.051 50.1155 111.024 49.932 110.998C49.8533 110.998 49.8009 110.92 49.8271 110.841C49.8271 110.762 49.9058 110.736 49.9844 110.736C50.1942 110.762 50.4301 110.788 50.5087 110.762C50.5087 110.579 50.4039 109.897 50.2728 109.32C50.2466 109.242 50.299 109.189 50.3777 109.163C50.4563 109.137 50.5087 109.189 50.535 109.268C50.8758 110.815 50.7709 110.893 50.7185 110.946C50.6398 111.024 50.535 111.051 50.3777 111.051Z" fill="#00376D"/>
<path d="M47.8606 108.982L48.8044 108.851L49.1714 107.461L49.6695 108.798L52.9202 108.667C52.9202 108.667 52.894 106.124 52.1337 105.495C50.2987 104.001 45.9731 104.604 45.5799 105.731C43.2205 107.304 43.404 115.037 43.8759 116.401L48.5947 115.824C48.5947 115.798 47.5722 108.929 47.8606 108.982Z" fill="#78D2EE"/>
<path d="M43.5607 116.975L43.5345 116.922C43.0626 115.559 42.9315 109.267 44.5045 106.672C44.5307 106.646 44.5569 106.62 44.5831 106.646C44.6093 106.672 44.6355 106.698 44.6093 106.724C43.115 109.215 43.2199 115.402 43.6393 116.817L48.2533 116.241C48.0173 114.563 47.3095 109.425 47.5454 109.215L47.5717 109.189H47.5979L48.4892 109.058L48.8824 107.459L49.433 108.979L53.2342 108.848C53.2342 108.429 53.1556 105.99 52.474 105.44C52.1594 105.178 51.7399 104.942 51.2418 104.811C51.2156 104.811 51.1894 104.758 51.1894 104.732C51.1894 104.706 51.2418 104.68 51.268 104.68C51.7924 104.837 52.2118 105.073 52.5526 105.335C53.3391 105.99 53.3653 108.796 53.3653 108.9V108.953L49.3281 109.084L48.9087 107.878L48.5941 109.136L47.6241 109.267C47.5192 109.634 48.0173 113.724 48.3843 116.241V116.319L43.5607 116.975Z" fill="#00376D"/>
<path d="M57.5338 125.207H36.6139C34.805 125.207 33.3369 123.739 33.3369 121.93V104.339C33.3369 102.531 34.805 101.062 36.6139 101.062H57.5338C59.3427 101.062 60.8108 102.531 60.8108 104.339V121.93C60.8108 123.739 59.3427 125.207 57.5338 125.207ZM36.6139 101.325C34.9361 101.325 33.5991 102.688 33.5991 104.339V121.93C33.5991 123.608 34.9623 124.945 36.6139 124.945H57.5338C59.2116 124.945 60.5486 123.582 60.5486 121.93V104.339C60.5486 102.662 59.1854 101.325 57.5338 101.325H36.6139Z" fill="#00376D"/>
<path opacity="0.2" d="M169.264 103.891H126.323C126.245 103.891 126.192 103.839 126.192 103.76C126.192 103.681 126.245 103.629 126.323 103.629H169.291C169.369 103.629 169.422 103.681 169.422 103.76C169.422 103.839 169.343 103.891 169.264 103.891Z" fill="#00376D"/>
<path d="M91.6141 58.9587C90.3034 58.9587 89.2285 57.8839 89.2285 56.5731C89.2285 55.2623 90.3034 54.1875 91.6141 54.1875C92.9249 54.1875 93.9997 55.2623 93.9997 56.5731C93.9997 57.8839 92.9249 58.9587 91.6141 58.9587ZM91.6141 54.4497C90.4344 54.4497 89.4907 55.3934 89.4907 56.5731C89.4907 57.7528 90.4344 58.6966 91.6141 58.6966C92.7938 58.6966 93.7376 57.7528 93.7376 56.5731C93.7376 55.3934 92.7938 54.4497 91.6141 54.4497Z" fill="#00376D"/>
<path opacity="0.1" d="M76.1997 24.7227H52.6582V28.3666H76.1997V24.7227Z" fill="#00376D"/>
<path opacity="0.1" d="M76.1992 30.2266H58.1367V37.2261H76.1992V30.2266Z" fill="#00376D"/>
<path opacity="0.1" d="M76.1992 49.9961H58.1367V56.9956H76.1992V49.9961Z" fill="#00376D"/>
<path opacity="0.1" d="M76.1992 59.9023H58.1367V66.9019H76.1992V59.9023Z" fill="#00376D"/>
<path opacity="0.1" d="M56.6687 30.2266H52.9199V37.2261H56.6687V30.2266Z" fill="#00376D"/>
<path opacity="0.1" d="M56.6687 49.9961H52.9199V56.9956H56.6687V49.9961Z" fill="#00376D"/>
<path opacity="0.1" d="M56.6687 59.9023H52.9199V66.9019H56.6687V59.9023Z" fill="#00376D"/>
<path d="M54.3886 115.429H52.5798C52.5536 115.429 52.5273 115.403 52.5273 115.376C52.5273 115.35 52.5536 115.324 52.5798 115.324H54.2314L53.8643 113.672C53.8643 113.646 53.8906 113.594 53.9168 113.594C53.943 113.594 53.9954 113.62 53.9954 113.646L54.3886 115.429Z" fill="#00376D"/>
<defs>
<linearGradient id="paint0_linear" x1="136.999" y1="6.66539" x2="130.666" y2="166.665" gradientUnits="userSpaceOnUse">
<stop stop-color="#D5C2FD"/>
<stop offset="1" stop-color="#1F11BA"/>
</linearGradient>
<linearGradient id="paint1_linear" x1="33.0002" y1="-0.332051" x2="174.667" y2="144.001" gradientUnits="userSpaceOnUse">
<stop stop-color="#9DE4FF"/>
<stop offset="1" stop-color="#0F6FC9"/>
</linearGradient>
<linearGradient id="paint2_linear" x1="141.83" y1="115.477" x2="141.83" y2="128.715" gradientUnits="userSpaceOnUse">
<stop stop-color="#2FB8FF"/>
<stop offset="1" stop-color="#9EECD9"/>
</linearGradient>
<linearGradient id="paint3_linear" x1="149.052" y1="30.1211" x2="149.052" y2="37.6449" gradientUnits="userSpaceOnUse">
<stop stop-color="#BA75FF"/>
<stop offset="1" stop-color="#3913B8"/>
</linearGradient>
</defs>
</svg>
