<svg width="200" height="150" viewBox="0 0 200 150" fill="none" xmlns="http://www.w3.org/2000/svg">
<path opacity="0.06" d="M184.433 70.0527C171.459 81.7207 156.958 80.068 156.353 85.7812C155.74 91.5717 170.664 93.0102 178.587 106.136C183.842 114.843 186.227 129.041 180.466 136.825C171.371 149.112 147.628 136.088 102.491 134.006C52.984 131.723 41.7615 145.424 24.9623 133.963C-5.25043 113.35 -0.842587 47.277 14.0334 41.9997C23.544 38.6257 31.4052 62.2037 60.216 67.9317C61.4862 68.1842 90.8085 73.6552 103.064 58.5262C109.213 50.9355 105.106 45.515 112.66 34.003C120.681 21.7794 132.611 16.764 136.117 15.3438C140.687 13.4928 151.254 9.37254 163.917 12.0783C179.631 15.436 197.5 29.0852 197.5 45.6612C197.5 58.4252 187.037 67.7105 184.433 70.0527Z" fill="#161616"/>
<path fill-rule="evenodd" clip-rule="evenodd" d="M97.965 13.8613H24.1052C23.8218 13.8613 23.5901 14.0906 23.5901 14.3765V111.991C23.5901 112.274 23.8218 112.506 24.1052 112.506H97.965C98.2508 112.506 98.48 112.274 98.48 111.991V14.3765C98.48 14.0906 98.2508 13.8613 97.965 13.8613ZM149.7 89.9583C150.21 89.2465 150.514 88.3768 150.514 87.4358C150.514 85.0418 148.567 83.094 146.172 83.094C143.778 83.094 141.831 85.0418 141.831 87.4358C141.831 88.3768 142.135 89.2463 142.645 89.9583C140.575 91.083 138.951 93.352 138.951 95.5923C138.951 96.5208 139.706 97.276 140.634 97.276H151.71C152.639 97.276 153.394 96.5208 153.394 95.5923C153.394 93.352 151.77 91.083 149.7 89.9583ZM146.172 85.6375C147.164 85.6375 147.971 86.4443 147.971 87.4358C147.971 88.4173 147.18 89.2165 146.202 89.2325H146.143C145.165 89.2165 144.374 88.4173 144.374 87.4358C144.374 86.4443 145.181 85.6375 146.172 85.6375ZM141.646 94.732C142.153 93.2315 143.845 91.7763 145.31 91.7763H146.143C146.145 91.7763 146.148 91.7763 146.15 91.7765C146.152 91.7768 146.155 91.7768 146.157 91.777C146.159 91.7773 146.162 91.7773 146.164 91.7775C146.167 91.7778 146.17 91.7778 146.172 91.7778C146.182 91.7778 146.192 91.7763 146.202 91.7763H147.034C148.5 91.7763 150.192 93.2315 150.699 94.732H141.646ZM104.264 40.828C104.264 41.7845 103.489 42.56 102.532 42.56C101.576 42.56 100.8 41.7845 100.8 40.828C100.8 39.8715 101.576 39.096 102.532 39.096C103.489 39.096 104.264 39.8715 104.264 40.828ZM102.532 48.323C103.489 48.323 104.264 47.5475 104.264 46.5908C104.264 45.6343 103.489 44.8588 102.532 44.8588C101.576 44.8588 100.8 45.6343 100.8 46.5908C100.8 47.5475 101.576 48.323 102.532 48.323ZM14.6497 110.775C14.6497 111.732 13.8742 112.507 12.9176 112.507C11.961 112.507 11.1855 111.732 11.1855 110.775C11.1855 109.819 11.961 109.043 12.9176 109.043C13.8742 109.043 14.6497 109.819 14.6497 110.775ZM18.681 112.507C19.6376 112.507 20.4131 111.732 20.4131 110.775C20.4131 109.819 19.6376 109.043 18.681 109.043C17.7244 109.043 16.9489 109.819 16.9489 110.775C16.9489 111.732 17.7244 112.507 18.681 112.507ZM169.587 24.3969C171.483 21.2263 174.949 19.104 178.913 19.104C184.912 19.104 189.774 23.9667 189.774 29.9653C189.774 32.9453 188.574 35.6443 186.63 37.6095C185.283 38.972 183.575 39.9818 181.661 40.4788C180.783 40.708 179.864 40.829 178.913 40.829C178.553 40.829 178.195 40.811 177.844 40.7775V53.1455C177.844 53.511 177.548 53.8073 177.182 53.8073H150.651C150.286 53.8073 149.99 53.511 149.99 53.1455V34.341C149.99 33.9755 150.286 33.6793 150.651 33.6793H168.704C168.281 32.5203 168.052 31.2685 168.052 29.9653C168.052 29.262 168.119 28.5745 168.248 27.9073C168.49 26.6453 168.948 25.463 169.587 24.3969ZM177.845 55.2598H166.424V57.1605H177.845V55.2598ZM149.941 55.2598H156.271V57.1605H149.941V55.2598Z" fill="url(#paint0_linear)"/>
<path fill-rule="evenodd" clip-rule="evenodd" d="M97.965 13.8613H24.1052C23.8218 13.8613 23.5901 14.0906 23.5901 14.3765V111.991C23.5901 112.274 23.8218 112.506 24.1052 112.506H97.965C98.2508 112.506 98.48 112.274 98.48 111.991V14.3765C98.48 14.0906 98.2508 13.8613 97.965 13.8613ZM149.7 89.9583C150.21 89.2465 150.514 88.3768 150.514 87.4358C150.514 85.0418 148.567 83.094 146.172 83.094C143.778 83.094 141.831 85.0418 141.831 87.4358C141.831 88.3768 142.135 89.2463 142.645 89.9583C140.575 91.083 138.951 93.352 138.951 95.5923C138.951 96.5208 139.706 97.276 140.634 97.276H151.71C152.639 97.276 153.394 96.5208 153.394 95.5923C153.394 93.352 151.77 91.083 149.7 89.9583ZM146.172 85.6375C147.164 85.6375 147.971 86.4443 147.971 87.4358C147.971 88.4173 147.18 89.2165 146.202 89.2325H146.143C145.165 89.2165 144.374 88.4173 144.374 87.4358C144.374 86.4443 145.181 85.6375 146.172 85.6375ZM141.646 94.732C142.153 93.2315 143.845 91.7763 145.31 91.7763H146.143C146.145 91.7763 146.148 91.7763 146.15 91.7765C146.152 91.7768 146.155 91.7768 146.157 91.777C146.159 91.7773 146.162 91.7773 146.164 91.7775C146.167 91.7778 146.17 91.7778 146.172 91.7778C146.182 91.7778 146.192 91.7763 146.202 91.7763H147.034C148.5 91.7763 150.192 93.2315 150.699 94.732H141.646ZM104.264 40.828C104.264 41.7845 103.489 42.56 102.532 42.56C101.576 42.56 100.8 41.7845 100.8 40.828C100.8 39.8715 101.576 39.096 102.532 39.096C103.489 39.096 104.264 39.8715 104.264 40.828ZM102.532 48.323C103.489 48.323 104.264 47.5475 104.264 46.5908C104.264 45.6343 103.489 44.8588 102.532 44.8588C101.576 44.8588 100.8 45.6343 100.8 46.5908C100.8 47.5475 101.576 48.323 102.532 48.323ZM14.6497 110.775C14.6497 111.732 13.8742 112.507 12.9176 112.507C11.961 112.507 11.1855 111.732 11.1855 110.775C11.1855 109.819 11.961 109.043 12.9176 109.043C13.8742 109.043 14.6497 109.819 14.6497 110.775ZM18.681 112.507C19.6376 112.507 20.4131 111.732 20.4131 110.775C20.4131 109.819 19.6376 109.043 18.681 109.043C17.7244 109.043 16.9489 109.819 16.9489 110.775C16.9489 111.732 17.7244 112.507 18.681 112.507ZM169.587 24.3969C171.483 21.2263 174.949 19.104 178.913 19.104C184.912 19.104 189.774 23.9667 189.774 29.9653C189.774 32.9453 188.574 35.6443 186.63 37.6095C185.283 38.972 183.575 39.9818 181.661 40.4788C180.783 40.708 179.864 40.829 178.913 40.829C178.553 40.829 178.195 40.811 177.844 40.7775V53.1455C177.844 53.511 177.548 53.8073 177.182 53.8073H150.651C150.286 53.8073 149.99 53.511 149.99 53.1455V34.341C149.99 33.9755 150.286 33.6793 150.651 33.6793H168.704C168.281 32.5203 168.052 31.2685 168.052 29.9653C168.052 29.262 168.119 28.5745 168.248 27.9073C168.49 26.6453 168.948 25.463 169.587 24.3969ZM177.845 55.2598H166.424V57.1605H177.845V55.2598ZM149.941 55.2598H156.271V57.1605H149.941V55.2598Z" fill="url(#paint1_linear)"/>
<path opacity="0.09" d="M91.3301 82.1425V83.8195C91.3301 84.0383 91.5063 84.2145 91.7226 84.2145H98.4781V81.75H91.7226C91.5063 81.75 91.3301 81.9263 91.3301 82.1425Z" fill="black"/>
<path opacity="0.09" d="M87.9269 75.4082C87.0974 75.4082 86.4199 76.0837 86.4199 76.915V89.0487C86.4199 89.8779 87.0974 90.5537 87.9269 90.5537H98.4789V88.6319H89.0127V77.3317H98.4789V75.4082H87.9269Z" fill="black"/>
<g opacity="0.31">
<path opacity="0.19" d="M98.4798 75.5798V111.993C98.4798 112.277 98.2506 112.509 97.9648 112.509H24.105C23.8216 112.509 23.5898 112.277 23.5898 111.993V102.018C23.7315 102.029 23.8783 102.034 24.0225 102.034C25.9851 102.034 27.7623 101.238 29.0476 99.9526C30.3223 98.6751 31.1156 96.9161 31.1261 94.9713V81.8206C31.1261 79.8578 31.9218 78.0808 33.2071 76.7956C34.4948 75.5103 36.2693 74.7146 38.2321 74.7146C42.1571 74.7146 45.3381 77.8953 45.3381 81.8206V87.2008C45.3381 91.1261 48.5188 94.3068 52.4441 94.3068C54.4066 94.3068 56.1838 93.5111 57.4691 92.2258C58.7541 90.9406 59.5501 89.1636 59.5501 87.2008V71.4048C59.5501 69.4423 60.3458 67.6651 61.6336 66.3801C62.9188 65.0948 64.6961 64.2988 66.6586 64.2988C70.5813 64.2988 73.7646 67.4798 73.7646 71.4048V82.2506C73.7646 86.1758 76.9456 89.3566 80.8706 89.3566C82.8333 89.3566 84.6103 88.5608 85.8956 87.2756C87.1808 85.9903 87.9766 84.2133 87.9766 82.2506V81.8231C87.9766 77.8978 91.1576 74.7171 95.0826 74.7171C96.3138 74.7171 97.4703 75.0313 98.4798 75.5798Z" fill="#1A1A1A"/>
</g>
<path opacity="0.19" d="M121.525 22.3535H41.6104V32.9047H121.525V22.3535Z" fill="#1A1A1A"/>
<path fill-rule="evenodd" clip-rule="evenodd" d="M135.484 79.9885C135.751 81.2968 136.534 82.6155 137.938 84.1325C138.435 84.6683 138.528 85.4538 138.167 86.09C137.866 86.6205 137.312 86.9348 136.72 86.9348C136.606 86.9348 136.491 86.922 136.372 86.8988L136.369 86.8963L128.936 85.302H122.814V129.295C122.814 130.3 121.995 131.119 120.991 131.119H42.1626C41.1581 131.119 40.3391 130.3 40.3391 129.295V119.222H11.6395C10.9364 119.222 10.3672 118.653 10.3672 117.95C10.3672 117.247 10.9364 116.678 11.6395 116.678H40.3391V58.7633H36.2671L32.7181 59.5255L28.7026 60.3883C28.3241 60.4683 28.0691 60.015 28.3319 59.7315C29.7431 58.2095 30.8044 56.6075 31.1264 54.843V40.7753C31.1264 40.3503 31.4741 40.0028 31.8989 40.0028H40.3391V21.7161C40.3391 20.709 41.1581 19.8926 42.1626 19.8926H120.991C121.995 19.8926 122.814 20.709 122.814 21.7161V67.86H133.438C134.567 67.86 135.484 68.777 135.484 69.905V79.9885ZM42.8814 128.574H120.27V85.302H82.6686C81.5431 85.302 80.6236 84.3825 80.6236 83.257V69.905C80.6236 68.777 81.5431 67.86 82.6686 67.86H120.27V22.4347H42.8814V40.0028H82.6686C83.0964 40.0028 83.4414 40.3503 83.4414 40.7753V57.9905C83.4414 58.418 83.0964 58.7633 82.6686 58.7633H42.8814V116.678H110.428C111.129 116.678 111.698 117.247 111.698 117.95C111.698 118.653 111.129 119.222 110.428 119.222H42.8814V128.574ZM83.1684 82.7573H129.207L134.484 83.8905C133.673 82.6955 133.178 81.5338 132.962 80.3363L132.941 80.2228V70.4048H83.1684V82.7573ZM83.4411 104.658V95.1718C83.4411 94.7443 83.0961 94.399 82.6686 94.399H49.9279C49.5029 94.399 49.1551 94.7443 49.1551 95.1718V101.51C48.8331 103.275 47.7721 104.877 46.3606 106.399C46.0979 106.682 46.3529 107.135 46.7316 107.056L47.7591 106.834L54.2961 105.43H82.6686C83.0961 105.43 83.4411 105.085 83.4411 104.658ZM130.133 74.9433H86.1291C85.8448 74.9433 85.6141 75.174 85.6141 75.4585V77.6575C85.6141 77.942 85.8448 78.1728 86.1291 78.1728H130.133C130.417 78.1728 130.648 77.942 130.648 77.6575V75.4585C130.648 75.174 130.417 74.9433 130.133 74.9433ZM27.8206 68.2338C27.8206 69.162 27.0654 69.9173 26.1369 69.9173H15.061C14.1326 69.9173 13.3773 69.162 13.3773 68.2338C13.3773 65.9933 15.001 63.7243 17.0718 62.5998C16.5612 61.8878 16.2571 61.0183 16.2571 60.0773C16.2571 57.683 18.2048 55.7353 20.5989 55.7353C22.993 55.7353 24.9408 57.683 24.9408 60.0773C24.9408 61.0183 24.6367 61.8878 24.1261 62.5998C26.1969 63.7243 27.8206 65.9933 27.8206 68.2338ZM22.3972 60.0773C22.3972 59.0855 21.5904 58.2788 20.5989 58.2788C19.6074 58.2788 18.8007 59.0855 18.8007 60.0773C18.8007 61.0588 19.5915 61.8578 20.5692 61.874H20.6287C21.6064 61.8578 22.3972 61.0588 22.3972 60.0773ZM20.5692 64.4175H19.737C18.2711 64.4175 16.5794 65.873 16.0722 67.3735H25.1256C24.6185 65.873 22.9268 64.4175 21.4609 64.4175H20.6287C20.6238 64.4175 20.619 64.418 20.6142 64.4183C20.6111 64.4185 20.6079 64.4188 20.6048 64.419C20.6029 64.419 20.6009 64.419 20.5989 64.419C20.5965 64.419 20.5941 64.419 20.5918 64.419C20.5891 64.4188 20.5864 64.4185 20.5837 64.4183L20.5783 64.418C20.5753 64.4178 20.5722 64.4175 20.5692 64.4175ZM134.946 121.03H130.371C130.066 121.03 129.819 121.277 129.819 121.582V126.157C129.819 126.461 130.066 126.708 130.371 126.708H134.946C135.25 126.708 135.497 126.461 135.497 126.157V121.582C135.497 121.277 135.25 121.03 134.946 121.03ZM177.844 40.778C178.194 40.8115 178.552 40.8295 178.913 40.8295C179.863 40.8295 180.782 40.7085 181.661 40.4793V61.612C181.661 61.9313 181.578 62.2325 181.431 62.4928C181.122 63.044 180.533 63.4148 179.858 63.4148H147.975C146.978 63.4148 146.172 62.6088 146.172 61.612V29.7108C146.172 28.714 146.978 27.908 147.975 27.908H168.247C168.118 28.575 168.051 29.2628 168.051 29.9658C168.051 31.269 168.281 32.5208 168.703 33.6798H150.651C150.285 33.6798 149.989 33.976 149.989 34.3418V53.146C149.989 53.5118 150.285 53.808 150.651 53.808H177.182C177.548 53.808 177.844 53.5118 177.844 53.146V40.778ZM149.94 57.1613H156.271V55.2605H149.94V57.1613ZM166.424 57.1613H177.844V55.2605H166.424V57.1613ZM172.367 35.2988H185.457C186.1 35.2988 186.623 34.7758 186.623 34.133V26.3163C186.623 25.6733 186.1 25.1503 185.457 25.1503H172.367C171.724 25.1503 171.201 25.6733 171.201 26.3163V34.133C171.201 34.7758 171.724 35.2988 172.367 35.2988ZM183.244 26.8098L178.941 29.254L175.172 26.8098H183.244ZM172.861 27.2893L178.884 31.195L184.964 27.7418V33.6393H172.861V27.2893ZM184.994 84.2573L184.994 84.2575C184.036 84.794 183.454 85.1673 183.454 85.8278C183.454 86.4878 184.036 86.8613 184.994 87.3975C185.962 87.94 187.06 88.5548 187.06 89.8665C187.06 91.178 185.962 91.793 184.994 92.3353C184.036 92.8718 183.454 93.245 183.454 93.9053C183.454 94.5655 184.036 94.939 184.994 95.4755L184.994 95.4758C185.963 96.0183 187.06 96.633 187.06 97.9445C187.06 99.2565 185.962 99.8713 184.994 100.414C184.036 100.951 183.454 101.324 183.454 101.985C183.454 102.645 184.036 103.018 184.994 103.555C185.962 104.097 187.06 104.712 187.06 106.024C187.06 107.336 185.962 107.951 184.994 108.493C184.036 109.03 183.454 109.403 183.454 110.063C183.454 110.724 184.036 111.097 184.994 111.634C185.962 112.176 187.06 112.791 187.06 114.103C187.06 115.415 185.962 116.03 184.994 116.573C184.036 117.109 183.454 117.483 183.454 118.143C183.454 118.804 184.036 119.177 184.994 119.713C185.962 120.256 187.06 120.871 187.06 122.183C187.06 123.494 185.963 124.109 184.994 124.652L184.994 124.652C184.036 125.189 183.454 125.563 183.454 126.223C183.454 126.884 184.036 127.257 184.994 127.794L184.994 127.794C185.963 128.337 187.06 128.952 187.06 130.264C187.06 131.576 185.962 132.191 184.994 132.734C184.036 133.271 183.454 133.644 183.454 134.305C183.454 134.966 184.036 135.339 184.994 135.876C185.962 136.419 187.06 137.034 187.06 138.346C187.06 138.631 186.829 138.862 186.545 138.862C186.261 138.862 186.03 138.631 186.03 138.346C186.03 137.685 185.448 137.312 184.49 136.775C183.522 136.232 182.424 135.617 182.424 134.305C182.424 132.993 183.522 132.378 184.49 131.835C185.448 131.298 186.03 130.925 186.03 130.264C186.03 129.603 185.448 129.23 184.49 128.693L184.49 128.693C183.522 128.15 182.424 127.535 182.424 126.223C182.424 124.911 183.521 124.296 184.49 123.754L184.49 123.753C185.448 123.217 186.03 122.843 186.03 122.183C186.03 121.522 185.448 121.149 184.49 120.612L184.49 120.612C183.521 120.07 182.424 119.455 182.424 118.143C182.424 116.832 183.522 116.217 184.49 115.674L184.49 115.674C185.448 115.137 186.03 114.764 186.03 114.103C186.03 113.443 185.448 113.069 184.49 112.533C183.522 111.99 182.424 111.375 182.424 110.063C182.424 108.752 183.522 108.137 184.49 107.594C185.448 107.058 186.03 106.684 186.03 106.024C186.03 105.364 185.448 104.99 184.49 104.454C183.522 103.911 182.424 103.296 182.424 101.985C182.424 100.673 183.522 100.058 184.49 99.515C185.448 98.9785 186.03 98.605 186.03 97.9445C186.03 97.2843 185.448 96.911 184.49 96.3745C183.522 95.832 182.424 95.217 182.424 93.9053C182.424 92.5938 183.522 91.979 184.49 91.4365L184.49 91.4363C185.448 90.9 186.03 90.5265 186.03 89.8665C186.03 89.2063 185.448 88.8328 184.49 88.2965C183.522 87.754 182.424 87.1393 182.424 85.8278C182.424 84.516 183.522 83.901 184.49 83.3585C185.448 82.822 186.03 82.4488 186.03 81.7885C186.03 81.1283 185.448 80.7548 184.49 80.2185C183.522 79.676 182.424 79.0613 182.424 77.7495C182.424 76.4378 183.522 75.8228 184.49 75.2803C185.448 74.7438 186.03 74.3703 186.03 73.71C186.03 73.4255 186.261 73.1948 186.545 73.1948C186.829 73.1948 187.06 73.4255 187.06 73.71C187.06 75.0218 185.962 75.6368 184.994 76.1793C184.036 76.7158 183.454 77.0893 183.454 77.7495C183.454 78.4098 184.036 78.783 184.994 79.3195C185.962 79.8618 187.06 80.4768 187.06 81.7885C187.06 83.1 185.963 83.7148 184.994 84.2573Z" fill="url(#paint2_linear)"/>
<path d="M121.543 63.821C118.467 63.821 115.965 61.319 115.965 58.2433V22.318C115.965 19.2424 118.467 16.7402 121.543 16.7402C124.618 16.7402 127.12 19.2424 127.12 22.318V58.2433C127.12 61.319 124.618 63.821 121.543 63.821ZM121.543 17.0338C118.629 17.0338 116.258 19.4042 116.258 22.318V58.2433C116.258 61.157 118.629 63.5275 121.543 63.5275C124.456 63.5275 126.827 61.157 126.827 58.2433V22.318C126.827 19.4042 124.456 17.0338 121.543 17.0338Z" fill="#CCCCCC"/>
<path d="M75.1488 136.101H39.2233C36.1478 136.101 33.6455 133.599 33.6455 130.523C33.6455 127.447 36.1478 124.945 39.2233 124.945H75.1488C78.2243 124.945 80.7265 127.447 80.7265 130.523C80.7265 133.599 78.2243 136.101 75.1488 136.101ZM39.2233 125.239C36.3095 125.239 33.9393 127.609 33.9393 130.523C33.9393 133.437 36.3095 135.807 39.2233 135.807H75.1488C78.0625 135.807 80.433 133.437 80.433 130.523C80.433 127.609 78.0625 125.239 75.1488 125.239H39.2233Z" fill="#CCCCCC"/>
<path opacity="0.09" d="M126.307 127.372H11.5604C11.17 127.372 10.8535 127.055 10.8535 126.665V121.072C10.8535 120.682 11.17 120.365 11.5604 120.365H126.307C126.697 120.365 127.013 120.682 127.013 121.072V126.665C127.013 127.055 126.697 127.372 126.307 127.372Z" fill="black"/>
<path opacity="0.19" d="M82.589 105.432V105.795C82.589 106.202 82.2567 106.531 81.85 106.531H54.7832L47.5637 108.082C47.2032 108.159 46.9585 107.726 47.211 107.456C47.4015 107.25 47.5845 107.044 47.7595 106.835L54.2965 105.432H82.589Z" fill="#331C82"/>
<path opacity="0.19" d="M81.5765 58.7637V62.1067C81.5765 62.5034 81.2545 62.8279 80.8555 62.8279H37.591L30.5365 64.3422C30.1835 64.4169 29.944 63.9947 30.1913 63.7292C31.412 62.4132 32.3495 61.0327 32.718 59.5259L36.267 58.7637H81.5765Z" fill="#331C82"/>
<path opacity="0.19" d="M98.478 22.3105V29.3367H64.6813C64.3748 29.3367 64.125 29.0895 64.125 28.783V22.3105H98.478Z" fill="#331C82"/>
<path d="M100.312 27.3582H62.8415C62.572 27.3582 62.3535 27.1397 62.3535 26.8702V22.3535H100.8V26.8702C100.8 27.1397 100.581 27.3582 100.312 27.3582Z" fill="url(#paint3_linear)"/>
<path opacity="0.09" d="M110.81 124.969C111.417 124.969 111.909 124.477 111.909 123.869C111.909 123.262 111.417 122.77 110.81 122.77C110.202 122.77 109.71 123.262 109.71 123.869C109.71 124.477 110.202 124.969 110.81 124.969Z" fill="black"/>
<path opacity="0.09" d="M113.742 124.969C114.35 124.969 114.842 124.477 114.842 123.869C114.842 123.262 114.35 122.77 113.742 122.77C113.135 122.77 112.643 123.262 112.643 123.869C112.643 124.477 113.135 124.969 113.742 124.969Z" fill="black"/>
<path opacity="0.09" d="M116.674 124.969C117.281 124.969 117.774 124.477 117.774 123.869C117.774 123.262 117.281 122.77 116.674 122.77C116.067 122.77 115.574 123.262 115.574 123.869C115.574 124.477 116.067 124.969 116.674 124.969Z" fill="black"/>
<path opacity="0.19" d="M42.9116 37.209H40.3291V40.005H42.9116V37.209Z" fill="#1A1A1A"/>
<path opacity="0.19" d="M42.9018 58.7637H40.3193V61.5597H42.9018V58.7637Z" fill="#1A1A1A"/>
<path opacity="0.19" d="M122.794 63.7734H120.256V67.8512H122.794V63.7734Z" fill="#1A1A1A"/>
<path opacity="0.19" d="M122.829 85.2676H120.246V90.5561H122.829V85.2676Z" fill="#1A1A1A"/>
<path opacity="0.3" d="M79.1887 45.2207H35.1852C34.9007 45.2207 34.6699 45.4512 34.6699 45.7357V47.935C34.6699 48.2195 34.9007 48.45 35.1852 48.45H79.1887C79.4732 48.45 79.7037 48.2195 79.7037 47.935V45.7357C79.7037 45.4512 79.4732 45.2207 79.1887 45.2207Z" fill="#4F31B7"/>
<path opacity="0.5" d="M79.1884 49.9492H35.1849C34.9004 49.9492 34.6699 50.1797 34.6699 50.4642V52.6635C34.6699 52.948 34.9004 53.1785 35.1849 53.1785H79.1884C79.4729 53.1785 79.7037 52.948 79.7037 52.6635V50.4642C79.7037 50.1797 79.4729 49.9492 79.1884 49.9492Z" fill="#4F31B7"/>
<path d="M47.6228 27.3568C48.3355 27.3568 48.9135 26.7788 48.9135 26.066C48.9135 25.3533 48.3355 24.7754 47.6228 24.7754C46.91 24.7754 46.332 25.3533 46.332 26.066C46.332 26.7788 46.91 27.3568 47.6228 27.3568Z" fill="url(#paint4_linear)"/>
<path d="M51.6059 27.3568C52.3189 27.3568 52.8967 26.7788 52.8967 26.066C52.8967 25.3533 52.3189 24.7754 51.6059 24.7754C50.8932 24.7754 50.3154 25.3533 50.3154 26.066C50.3154 26.7788 50.8932 27.3568 51.6059 27.3568Z" fill="url(#paint5_linear)"/>
<path opacity="0.8" d="M153.415 24.3984H169.587C168.948 25.4647 168.49 26.647 168.248 27.909H148.449C149.201 25.8587 151.141 24.3984 153.415 24.3984Z" fill="url(#paint6_linear)"/>
<path opacity="0.8" d="M186.629 37.6113V58.8496C186.629 60.8638 185.027 62.4941 183.049 62.4941H181.432C181.579 62.2338 181.661 61.9326 181.661 61.6133V40.4806C183.575 39.9836 185.282 38.9738 186.629 37.6113Z" fill="url(#paint7_linear)"/>
<path opacity="0.19" d="M177.844 40.9582V41.7232H149.989V34.5914C149.989 34.0892 150.286 33.6797 150.651 33.6797H168.703C169.309 35.3459 170.311 36.8219 171.596 37.9937C171.552 38.0452 171.555 38.1249 171.601 38.1714C171.624 38.1947 173.963 40.4739 177.829 40.9557C177.834 40.9557 177.839 40.9582 177.844 40.9582Z" fill="white"/>
<path d="M164.729 100.551H142.187V101.856H164.729V100.551Z" fill="#3913B8"/>
<path d="M164.729 103.248H142.187V104.553H164.729V103.248Z" fill="#3913B8"/>
<path d="M164.729 108.994H142.187V110.299H164.729V108.994Z" fill="#3913B8"/>
<path d="M164.729 111.689H142.187V112.994H164.729V111.689Z" fill="#3913B8"/>
<path d="M164.729 117.436H142.187V118.741H164.729V117.436Z" fill="#3913B8"/>
<path d="M164.729 120.131H142.187V121.436H164.729V120.131Z" fill="#3913B8"/>
<path d="M172.437 97.1153H157.014C156.825 97.1153 156.671 96.9615 156.671 96.772V91.4468C156.671 91.2573 156.825 91.1035 157.014 91.1035H172.437C172.626 91.1035 172.78 91.2573 172.78 91.4468V96.772C172.78 96.9615 172.626 97.1153 172.437 97.1153Z" fill="#B5CDFB"/>
<path d="M172.437 105.557H167.112C166.922 105.557 166.769 105.403 166.769 105.213V99.8882C166.769 99.6984 166.922 99.5449 167.112 99.5449H172.437C172.627 99.5449 172.78 99.6984 172.78 99.8882V105.213C172.78 105.403 172.627 105.557 172.437 105.557Z" fill="#B5CDFB"/>
<path d="M172.437 114H167.112C166.922 114 166.769 113.846 166.769 113.657V108.332C166.769 108.142 166.922 107.988 167.112 107.988H172.437C172.627 107.988 172.78 108.142 172.78 108.332V113.657C172.78 113.846 172.627 114 172.437 114Z" fill="#B5CDFB"/>
<path d="M172.437 122.441H167.112C166.922 122.441 166.769 122.288 166.769 122.098V116.773C166.769 116.583 166.922 116.43 167.112 116.43H172.437C172.627 116.43 172.78 116.583 172.78 116.773V122.098C172.78 122.288 172.627 122.441 172.437 122.441Z" fill="#B5CDFB"/>
<path d="M190.352 139.48C190.28 139.48 190.223 139.422 190.223 139.351C190.223 138.416 189.379 137.943 188.486 137.443C187.567 136.928 186.617 136.395 186.617 135.31C186.617 134.224 187.567 133.692 188.486 133.177C189.379 132.676 190.223 132.203 190.223 131.268C190.223 130.334 189.379 129.861 188.486 129.361C187.567 128.846 186.617 128.313 186.617 127.228C186.617 126.142 187.567 125.61 188.486 125.095C189.379 124.594 190.223 124.122 190.223 123.187C190.223 122.253 189.379 121.78 188.486 121.28C187.567 120.765 186.617 120.233 186.617 119.148C186.617 118.062 187.567 117.53 188.486 117.015C189.379 116.515 190.223 116.042 190.223 115.108C190.223 114.173 189.379 113.701 188.486 113.2C187.567 112.685 186.617 112.154 186.617 111.068C186.617 109.983 187.567 109.45 188.486 108.936C189.379 108.436 190.223 107.963 190.223 107.028C190.223 106.094 189.379 105.621 188.486 105.121C187.567 104.607 186.617 104.074 186.617 102.989C186.617 101.904 187.567 101.372 188.486 100.857C189.379 100.356 190.223 99.8837 190.223 98.9492C190.223 98.0152 189.379 97.5424 188.486 97.0422C187.567 96.5277 186.617 95.9954 186.617 94.9099C186.617 93.8247 187.567 93.2927 188.486 92.7782C189.379 92.2779 190.223 91.8054 190.223 90.8712C190.223 89.9369 189.379 89.4644 188.486 88.9642C187.567 88.4497 186.617 87.9177 186.617 86.8324C186.617 85.7472 187.567 85.2149 188.486 84.7004C189.379 84.1999 190.223 83.7274 190.223 82.7932C190.223 81.8589 189.379 81.3862 188.486 80.8859C187.567 80.3714 186.617 79.8394 186.617 78.7544C186.617 77.6689 187.567 77.1367 188.486 76.6222C189.379 76.1217 190.223 75.6489 190.223 74.7147C190.223 74.6434 190.28 74.5859 190.352 74.5859C190.423 74.5859 190.48 74.6434 190.48 74.7147C190.48 75.8002 189.53 76.3322 188.612 76.8467C187.718 77.3472 186.875 77.8199 186.875 78.7544C186.875 79.6884 187.718 80.1612 188.612 80.6614C189.53 81.1759 190.48 81.7079 190.48 82.7932C190.48 83.8784 189.53 84.4104 188.612 84.9249C187.718 85.4254 186.875 85.8979 186.875 86.8324C186.875 87.7667 187.718 88.2392 188.612 88.7394C189.53 89.2539 190.48 89.7859 190.48 90.8712C190.48 91.9564 189.53 92.4884 188.612 93.0029C187.718 93.5032 186.875 93.9759 186.875 94.9099C186.875 95.8444 187.718 96.3169 188.612 96.8174C189.53 97.3319 190.48 97.8642 190.48 98.9492C190.48 100.035 189.53 100.567 188.612 101.082C187.718 101.582 186.875 102.055 186.875 102.989C186.875 103.923 187.718 104.396 188.612 104.896C189.53 105.411 190.48 105.943 190.48 107.028C190.48 108.114 189.53 108.646 188.612 109.161C187.718 109.661 186.875 110.134 186.875 111.068C186.875 112.002 187.718 112.475 188.612 112.975C189.53 113.49 190.48 114.022 190.48 115.108C190.48 116.193 189.53 116.725 188.612 117.24C187.718 117.741 186.875 118.213 186.875 119.148C186.875 120.082 187.718 120.555 188.612 121.055C189.53 121.57 190.48 122.102 190.48 123.187C190.48 124.273 189.53 124.805 188.612 125.32C187.718 125.82 186.875 126.293 186.875 127.228C186.875 128.163 187.718 128.635 188.612 129.136C189.53 129.651 190.48 130.183 190.48 131.268C190.48 132.354 189.53 132.887 188.612 133.401C187.718 133.902 186.875 134.375 186.875 135.31C186.875 136.244 187.718 136.717 188.612 137.218C189.53 137.733 190.48 138.265 190.48 139.351C190.48 139.422 190.423 139.48 190.352 139.48Z" fill="#6FA6EF"/>
<path d="M129.855 11.431C130.812 11.431 131.587 10.6555 131.587 9.6989C131.587 8.7423 130.812 7.9668 129.855 7.9668C128.899 7.9668 128.123 8.7423 128.123 9.6989C128.123 10.6555 128.899 11.431 129.855 11.431Z" fill="url(#paint8_linear)"/>
<path d="M124.091 11.431C125.048 11.431 125.823 10.6555 125.823 9.6989C125.823 8.7423 125.048 7.9668 124.091 7.9668C123.135 7.9668 122.359 8.7423 122.359 9.6989C122.359 10.6555 123.135 11.431 124.091 11.431Z" fill="url(#paint9_linear)"/>
<path d="M37.6891 14.1206H16.9158C16.7735 14.1206 16.6582 14.0052 16.6582 13.863C16.6582 13.7208 16.7735 13.6055 16.9158 13.6055H37.6891C37.8313 13.6055 37.9466 13.7208 37.9466 13.863C37.9466 14.0052 37.8313 14.1206 37.6891 14.1206Z" fill="#344F73"/>
<path d="M100.476 113.252H79.7028C79.5606 113.252 79.4453 113.136 79.4453 112.994C79.4453 112.852 79.5606 112.736 79.7028 112.736H100.476C100.618 112.736 100.734 112.852 100.734 112.994C100.734 113.136 100.618 113.252 100.476 113.252Z" fill="#344F73"/>
<path opacity="0.29" d="M81.5103 99.8741C81.1548 99.8741 80.8666 99.5859 80.8666 99.2301V96.9069H77.5051C77.1496 96.9069 76.8613 96.6186 76.8613 96.2629C76.8613 95.9074 77.1496 95.6191 77.5051 95.6191H80.9953C81.6343 95.6191 82.1543 96.1389 82.1543 96.7781V99.2301C82.1543 99.5859 81.8661 99.8741 81.5103 99.8741ZM80.9953 96.9069H80.9978H80.9953Z" fill="#F2F2F2"/>
<path d="M186.352 25.9205C186.004 25.9205 185.68 25.702 185.561 25.3545C184.501 22.2375 180.705 21.8632 180.667 21.8598C180.208 21.8188 179.868 21.4133 179.91 20.954C179.951 20.4946 180.355 20.1554 180.815 20.1968C181.016 20.2146 185.735 20.6826 187.142 24.8167C187.291 25.2533 187.057 25.7275 186.621 25.876C186.532 25.9063 186.441 25.9205 186.352 25.9205Z" fill="white"/>
<path d="M134.4 60.1199C134.175 60.1199 133.992 59.9374 133.992 59.7121V35.3296C133.992 35.1044 134.175 34.9219 134.4 34.9219C134.625 34.9219 134.808 35.1044 134.808 35.3296V59.7121C134.808 59.9374 134.625 60.1199 134.4 60.1199Z" fill="#D1BEFF"/>
<path d="M138.744 60.1199C138.518 60.1199 138.336 59.9374 138.336 59.7121V35.3296C138.336 35.1044 138.518 34.9219 138.744 34.9219C138.969 34.9219 139.152 35.1044 139.152 35.3296V59.7121C139.152 59.9374 138.969 60.1199 138.744 60.1199Z" fill="#D1BEFF"/>
<path d="M136.571 62.5712C136.346 62.5712 136.163 62.3887 136.163 62.1635V30.0542C136.163 29.829 136.346 29.6465 136.571 29.6465C136.796 29.6465 136.979 29.829 136.979 30.0542V62.1635C136.979 62.3887 136.796 62.5712 136.571 62.5712Z" fill="#8F78C6"/>
<path d="M183.013 40.1642C182.158 40.5607 180.888 41.0372 179.124 41.0372C178.722 41.0372 178.297 41.0115 177.844 40.9575C177.839 40.9575 177.834 40.955 177.829 40.955C173.963 40.4732 171.624 38.194 171.601 38.1707C171.555 38.1242 171.552 38.0445 171.596 37.993C171.598 37.9905 171.598 37.9905 171.601 37.9877C171.652 37.939 171.732 37.939 171.784 37.9877C171.804 38.011 174.084 40.2285 177.86 40.7C180.25 40.9987 181.883 40.4037 182.905 39.9297C182.97 39.9015 183.044 39.9297 183.075 39.9942C183.106 40.0585 183.077 40.1332 183.013 40.1642Z" fill="#344F73"/>
<path d="M61.0337 101.614C61.9717 101.614 62.7322 100.854 62.7322 99.9156C62.7322 98.9773 61.9717 98.2168 61.0337 98.2168C60.0955 98.2168 59.335 98.9773 59.335 99.9156C59.335 100.854 60.0955 101.614 61.0337 101.614Z" fill="url(#paint10_linear)"/>
<path d="M65.563 101.614C66.5013 101.614 67.2618 100.854 67.2618 99.9156C67.2618 98.9773 66.5013 98.2168 65.563 98.2168C64.625 98.2168 63.8643 98.9773 63.8643 99.9156C63.8643 100.854 64.625 101.614 65.563 101.614Z" fill="url(#paint11_linear)"/>
<path d="M70.0933 101.614C71.0313 101.614 71.7918 100.854 71.7918 99.9156C71.7918 98.9773 71.0313 98.2168 70.0933 98.2168C69.155 98.2168 68.3945 98.9773 68.3945 99.9156C68.3945 100.854 69.155 101.614 70.0933 101.614Z" fill="url(#paint12_linear)"/>
<defs>
<linearGradient id="paint0_linear" x1="11.1855" y1="14.0162" x2="176.739" y2="131.094" gradientUnits="userSpaceOnUse">
<stop stop-color="#844EFF"/>
<stop offset="1" stop-color="#88F8FF"/>
</linearGradient>
<linearGradient id="paint1_linear" x1="11.1855" y1="14.0162" x2="176.739" y2="131.094" gradientUnits="userSpaceOnUse">
<stop stop-color="#844EFF"/>
<stop offset="1" stop-color="#88F8FF"/>
</linearGradient>
<linearGradient id="paint2_linear" x1="75.0001" y1="-3.33398" x2="103.333" y2="118.333" gradientUnits="userSpaceOnUse">
<stop stop-color="#EFEBFF"/>
<stop offset="1" stop-color="#3913B8"/>
</linearGradient>
<linearGradient id="paint3_linear" x1="81.5853" y1="22.3535" x2="81.3033" y2="28.166" gradientUnits="userSpaceOnUse">
<stop stop-color="#4316DB"/>
<stop offset="1" stop-color="#9076E7"/>
</linearGradient>
<linearGradient id="paint4_linear" x1="46.332" y1="24.9174" x2="49.3809" y2="26.3874" gradientUnits="userSpaceOnUse">
<stop stop-color="#14F1D9"/>
<stop offset="1" stop-color="#3672F8"/>
</linearGradient>
<linearGradient id="paint5_linear" x1="50.3154" y1="24.9174" x2="53.3641" y2="26.3872" gradientUnits="userSpaceOnUse">
<stop stop-color="#14F1D9"/>
<stop offset="1" stop-color="#3672F8"/>
</linearGradient>
<linearGradient id="paint6_linear" x1="167.667" y1="29.3333" x2="167.667" y2="22" gradientUnits="userSpaceOnUse">
<stop offset="0.149877" stop-color="#A68EF5"/>
<stop offset="0.805938" stop-color="#5C3FB2"/>
</linearGradient>
<linearGradient id="paint7_linear" x1="184.03" y1="37.6113" x2="184.03" y2="62.4941" gradientUnits="userSpaceOnUse">
<stop stop-color="#A48CF4"/>
<stop offset="1" stop-color="#583EAE"/>
</linearGradient>
<linearGradient id="paint8_linear" x1="128.123" y1="8.15733" x2="132.215" y2="10.13" gradientUnits="userSpaceOnUse">
<stop stop-color="#14F1D9"/>
<stop offset="1" stop-color="#3672F8"/>
</linearGradient>
<linearGradient id="paint9_linear" x1="122.359" y1="8.15733" x2="126.451" y2="10.1298" gradientUnits="userSpaceOnUse">
<stop stop-color="#14F1D9"/>
<stop offset="1" stop-color="#3672F8"/>
</linearGradient>
<linearGradient id="paint10_linear" x1="59.335" y1="98.4037" x2="63.3475" y2="100.338" gradientUnits="userSpaceOnUse">
<stop stop-color="#14F1D9"/>
<stop offset="1" stop-color="#3672F8"/>
</linearGradient>
<linearGradient id="paint11_linear" x1="63.8643" y1="98.4037" x2="67.877" y2="100.338" gradientUnits="userSpaceOnUse">
<stop stop-color="#14F1D9"/>
<stop offset="1" stop-color="#3672F8"/>
</linearGradient>
<linearGradient id="paint12_linear" x1="68.3945" y1="98.4037" x2="72.407" y2="100.338" gradientUnits="userSpaceOnUse">
<stop stop-color="#14F1D9"/>
<stop offset="1" stop-color="#3672F8"/>
</linearGradient>
</defs>
</svg>
